<?xml version="1.0" encoding="utf-8"?>
<!-- Generator: Adobe Illustrator 16.0.0, SVG Export Plug-In . SVG Version: 6.00 Build 0)  -->
<!DOCTYPE svg PUBLIC "-//W3C//DTD SVG 1.1//EN" "http://www.w3.org/Graphics/SVG/1.1/DTD/svg11.dtd">
<svg version="1.1" xmlns="http://www.w3.org/2000/svg" xmlns:xlink="http://www.w3.org/1999/xlink" x="0px" y="0px"
	 width="1833.334px" height="553px" viewBox="0 0 1833.334 553" enable-background="new 0 0 1833.334 553" xml:space="preserve">
<g id="Capa_1">
	<g>
		<g>
			
				<linearGradient id="SVGID_1_" gradientUnits="userSpaceOnUse" x1="-322.3955" y1="567.0791" x2="-6.2298" y2="569.5199" gradientTransform="matrix(1 0 0 -1 504 764)">
				<stop  offset="0" style="stop-color:#00446B"/>
				<stop  offset="0.1098" style="stop-color:#044770"/>
				<stop  offset="0.2373" style="stop-color:#12517E"/>
				<stop  offset="0.3737" style="stop-color:#276295"/>
				<stop  offset="0.5154" style="stop-color:#4579B6"/>
				<stop  offset="0.555" style="stop-color:#4F80C0"/>
				<stop  offset="0.6132" style="stop-color:#3C71AB"/>
				<stop  offset="0.7099" style="stop-color:#225E8F"/>
				<stop  offset="0.8069" style="stop-color:#0F4F7B"/>
				<stop  offset="0.9037" style="stop-color:#04476F"/>
				<stop  offset="1" style="stop-color:#00446B"/>
			</linearGradient>
			<path fill="url(#SVGID_1_)" d="M407.583,171.408c0.256,20.521-3.3,33.444-4.873,38.111c8.913,3.061,15.155,6.384,19.49,9.312
				c7.878-14.056,12.448-30.216,12.679-47.422H407.583z"/>
		</g>
		<g>
			
				<linearGradient id="SVGID_2_" gradientUnits="userSpaceOnUse" x1="-322.8882" y1="617.8662" x2="-6.6041" y2="620.3079" gradientTransform="matrix(1 0 0 -1 504 764)">
				<stop  offset="0" style="stop-color:#00446B"/>
				<stop  offset="0.1098" style="stop-color:#044770"/>
				<stop  offset="0.2373" style="stop-color:#12517E"/>
				<stop  offset="0.3737" style="stop-color:#276295"/>
				<stop  offset="0.5154" style="stop-color:#4579B6"/>
				<stop  offset="0.555" style="stop-color:#4F80C0"/>
				<stop  offset="0.6132" style="stop-color:#3C71AB"/>
				<stop  offset="0.7099" style="stop-color:#225E8F"/>
				<stop  offset="0.8069" style="stop-color:#0F4F7B"/>
				<stop  offset="0.9037" style="stop-color:#04476F"/>
				<stop  offset="1" style="stop-color:#00446B"/>
			</linearGradient>
			<path fill="url(#SVGID_2_)" d="M408.739,167.103h27.376c-0.462-16.591-4.99-32.163-12.612-45.779
				c-4.284,3.134-10.535,6.625-19.46,9.703C406.991,144.733,408.37,156.797,408.739,167.103z"/>
		</g>
		<g>
			<g>
				
					<linearGradient id="SVGID_3_" gradientUnits="userSpaceOnUse" x1="-323.2925" y1="678.8467" x2="-7.123" y2="681.2876" gradientTransform="matrix(1 0 0 -1 504 764)">
					<stop  offset="0" style="stop-color:#00446B"/>
					<stop  offset="0.1098" style="stop-color:#044770"/>
					<stop  offset="0.2373" style="stop-color:#12517E"/>
					<stop  offset="0.3737" style="stop-color:#276295"/>
					<stop  offset="0.5154" style="stop-color:#4579B6"/>
					<stop  offset="0.555" style="stop-color:#4F80C0"/>
					<stop  offset="0.6132" style="stop-color:#3C71AB"/>
					<stop  offset="0.7099" style="stop-color:#225E8F"/>
					<stop  offset="0.8069" style="stop-color:#0F4F7B"/>
					<stop  offset="0.9037" style="stop-color:#04476F"/>
					<stop  offset="1" style="stop-color:#00446B"/>
				</linearGradient>
				<path fill="url(#SVGID_3_)" d="M332.434,70.136c-4.692,5.489-11.149,14.262-16.719,26.167
					c5.381,0.919,11.208,1.491,17.425,1.537V70.113C332.902,70.117,332.656,70.126,332.434,70.136z"/>
			</g>
			<g>
				
					<linearGradient id="SVGID_4_" gradientUnits="userSpaceOnUse" x1="-323.3384" y1="679.9482" x2="-7.0729" y2="682.3896" gradientTransform="matrix(1 0 0 -1 504 764)">
					<stop  offset="0" style="stop-color:#00446B"/>
					<stop  offset="0.1098" style="stop-color:#044770"/>
					<stop  offset="0.2373" style="stop-color:#12517E"/>
					<stop  offset="0.3737" style="stop-color:#276295"/>
					<stop  offset="0.5154" style="stop-color:#4579B6"/>
					<stop  offset="0.555" style="stop-color:#4F80C0"/>
					<stop  offset="0.6132" style="stop-color:#3C71AB"/>
					<stop  offset="0.7099" style="stop-color:#225E8F"/>
					<stop  offset="0.8069" style="stop-color:#0F4F7B"/>
					<stop  offset="0.9037" style="stop-color:#04476F"/>
					<stop  offset="1" style="stop-color:#00446B"/>
				</linearGradient>
				<path fill="url(#SVGID_4_)" d="M320.664,71.246c-6.896,4.782-15.821,11.632-24.185,19.939c4.382,1.61,9.32,3.104,14.775,4.267
					c4.884-10.741,10.516-19.067,15.174-24.934C324.494,70.716,322.575,70.95,320.664,71.246z"/>
			</g>
			<g>
				
					<linearGradient id="SVGID_5_" gradientUnits="userSpaceOnUse" x1="-323.3193" y1="678.8584" x2="-7.0849" y2="681.2998" gradientTransform="matrix(1 0 0 -1 504 764)">
					<stop  offset="0" style="stop-color:#00446B"/>
					<stop  offset="0.1098" style="stop-color:#044770"/>
					<stop  offset="0.2373" style="stop-color:#12517E"/>
					<stop  offset="0.3737" style="stop-color:#276295"/>
					<stop  offset="0.5154" style="stop-color:#4579B6"/>
					<stop  offset="0.555" style="stop-color:#4F80C0"/>
					<stop  offset="0.6132" style="stop-color:#3C71AB"/>
					<stop  offset="0.7099" style="stop-color:#225E8F"/>
					<stop  offset="0.8069" style="stop-color:#0F4F7B"/>
					<stop  offset="0.9037" style="stop-color:#04476F"/>
					<stop  offset="1" style="stop-color:#00446B"/>
				</linearGradient>
				<path fill="url(#SVGID_5_)" d="M337.449,70.071V97.79c5.919-0.177,12.124-0.822,18.666-2.083
					c-5.524-11.619-11.847-20.185-16.439-25.581C338.929,70.104,338.201,70.084,337.449,70.071z"/>
			</g>
			<g>
				
					<linearGradient id="SVGID_6_" gradientUnits="userSpaceOnUse" x1="-322.4985" y1="576.0938" x2="-6.3271" y2="578.5349" gradientTransform="matrix(1 0 0 -1 504 764)">
					<stop  offset="0" style="stop-color:#00446B"/>
					<stop  offset="0.1098" style="stop-color:#044770"/>
					<stop  offset="0.2373" style="stop-color:#12517E"/>
					<stop  offset="0.3737" style="stop-color:#276295"/>
					<stop  offset="0.5154" style="stop-color:#4579B6"/>
					<stop  offset="0.555" style="stop-color:#4F80C0"/>
					<stop  offset="0.6132" style="stop-color:#3C71AB"/>
					<stop  offset="0.7099" style="stop-color:#225E8F"/>
					<stop  offset="0.8069" style="stop-color:#0F4F7B"/>
					<stop  offset="0.9037" style="stop-color:#04476F"/>
					<stop  offset="1" style="stop-color:#00446B"/>
				</linearGradient>
				<path fill="url(#SVGID_6_)" d="M369.659,171.408H337.6v28.282c11.469,0.267,21.634,0.99,30.546,2.07
					C368.848,197.249,369.886,187.439,369.659,171.408z"/>
			</g>
			<g>
				
					<linearGradient id="SVGID_7_" gradientUnits="userSpaceOnUse" x1="-323.1763" y1="655.1406" x2="-6.8843" y2="657.5823" gradientTransform="matrix(1 0 0 -1 504 764)">
					<stop  offset="0" style="stop-color:#00446B"/>
					<stop  offset="0.1098" style="stop-color:#044770"/>
					<stop  offset="0.2373" style="stop-color:#12517E"/>
					<stop  offset="0.3737" style="stop-color:#276295"/>
					<stop  offset="0.5154" style="stop-color:#4579B6"/>
					<stop  offset="0.555" style="stop-color:#4F80C0"/>
					<stop  offset="0.6132" style="stop-color:#3C71AB"/>
					<stop  offset="0.7099" style="stop-color:#225E8F"/>
					<stop  offset="0.8069" style="stop-color:#0F4F7B"/>
					<stop  offset="0.9037" style="stop-color:#04476F"/>
					<stop  offset="1" style="stop-color:#00446B"/>
				</linearGradient>
				<path fill="url(#SVGID_7_)" d="M403.064,126.757c8.496-3.01,14.318-6.35,18.228-9.238
					c-7.323-11.838-17.055-22.033-28.494-29.907c-3.431,1.696-6.811,3.204-10.145,4.563
					C391.843,102.137,399.819,113.893,403.064,126.757z"/>
			</g>
			<g>
				
					<linearGradient id="SVGID_8_" gradientUnits="userSpaceOnUse" x1="-322.8042" y1="612.5566" x2="-6.5734" y2="614.998" gradientTransform="matrix(1 0 0 -1 504 764)">
					<stop  offset="0" style="stop-color:#00446B"/>
					<stop  offset="0.1098" style="stop-color:#044770"/>
					<stop  offset="0.2373" style="stop-color:#12517E"/>
					<stop  offset="0.3737" style="stop-color:#276295"/>
					<stop  offset="0.5154" style="stop-color:#4579B6"/>
					<stop  offset="0.555" style="stop-color:#4F80C0"/>
					<stop  offset="0.6132" style="stop-color:#3C71AB"/>
					<stop  offset="0.7099" style="stop-color:#225E8F"/>
					<stop  offset="0.8069" style="stop-color:#0F4F7B"/>
					<stop  offset="0.9037" style="stop-color:#04476F"/>
					<stop  offset="1" style="stop-color:#00446B"/>
				</linearGradient>
				<path fill="url(#SVGID_8_)" d="M371.862,137.993c1.076,11.214,1.656,20.887,1.884,29.106h30.63
					c-0.353-9.961-1.636-21.581-4.44-34.722C392.391,134.669,383.146,136.666,371.862,137.993z"/>
			</g>
			<g>
				
					<linearGradient id="SVGID_9_" gradientUnits="userSpaceOnUse" x1="-322.5649" y1="572.6104" x2="-6.2217" y2="575.0526" gradientTransform="matrix(1 0 0 -1 504 764)">
					<stop  offset="0" style="stop-color:#00446B"/>
					<stop  offset="0.1098" style="stop-color:#044770"/>
					<stop  offset="0.2373" style="stop-color:#12517E"/>
					<stop  offset="0.3737" style="stop-color:#276295"/>
					<stop  offset="0.5154" style="stop-color:#4579B6"/>
					<stop  offset="0.555" style="stop-color:#4F80C0"/>
					<stop  offset="0.6132" style="stop-color:#3C71AB"/>
					<stop  offset="0.7099" style="stop-color:#225E8F"/>
					<stop  offset="0.8069" style="stop-color:#0F4F7B"/>
					<stop  offset="0.9037" style="stop-color:#04476F"/>
					<stop  offset="1" style="stop-color:#00446B"/>
				</linearGradient>
				<path fill="url(#SVGID_9_)" d="M404.636,171.408h-30.655c0.252,16.185-0.803,26.121-1.542,30.918
					c11.026,1.532,20.124,3.594,27.578,5.871C401.433,203.831,404.821,191.26,404.636,171.408z"/>
			</g>
			<g>
				
					<linearGradient id="SVGID_10_" gradientUnits="userSpaceOnUse" x1="-322.7876" y1="609.7822" x2="-6.5551" y2="612.2239" gradientTransform="matrix(1 0 0 -1 504 764)">
					<stop  offset="0" style="stop-color:#00446B"/>
					<stop  offset="0.1098" style="stop-color:#044770"/>
					<stop  offset="0.2373" style="stop-color:#12517E"/>
					<stop  offset="0.3737" style="stop-color:#276295"/>
					<stop  offset="0.5154" style="stop-color:#4579B6"/>
					<stop  offset="0.555" style="stop-color:#4F80C0"/>
					<stop  offset="0.6132" style="stop-color:#3C71AB"/>
					<stop  offset="0.7099" style="stop-color:#225E8F"/>
					<stop  offset="0.8069" style="stop-color:#0F4F7B"/>
					<stop  offset="0.9037" style="stop-color:#04476F"/>
					<stop  offset="1" style="stop-color:#00446B"/>
				</linearGradient>
				<path fill="url(#SVGID_10_)" d="M339.95,139.718c-0.829,0-1.659-0.013-2.506-0.021v27.405h31.967
					c-0.21-8.099-0.77-17.625-1.825-28.663C359.41,139.241,350.246,139.718,339.95,139.718z"/>
			</g>
			<g>
				
					<linearGradient id="SVGID_11_" gradientUnits="userSpaceOnUse" x1="-322.7754" y1="610.4238" x2="-6.5787" y2="612.8648" gradientTransform="matrix(1 0 0 -1 504 764)">
					<stop  offset="0" style="stop-color:#00446B"/>
					<stop  offset="0.1098" style="stop-color:#044770"/>
					<stop  offset="0.2373" style="stop-color:#12517E"/>
					<stop  offset="0.3737" style="stop-color:#276295"/>
					<stop  offset="0.5154" style="stop-color:#4579B6"/>
					<stop  offset="0.555" style="stop-color:#4F80C0"/>
					<stop  offset="0.6132" style="stop-color:#3C71AB"/>
					<stop  offset="0.7099" style="stop-color:#225E8F"/>
					<stop  offset="0.8069" style="stop-color:#0F4F7B"/>
					<stop  offset="0.9037" style="stop-color:#04476F"/>
					<stop  offset="1" style="stop-color:#00446B"/>
				</linearGradient>
				<path fill="url(#SVGID_11_)" d="M304.534,137.927c-1.093,11.254-1.654,20.944-1.881,29.171h30.487v-27.467
					C322.518,139.438,313.02,138.829,304.534,137.927z"/>
			</g>
			<g>
				
					<linearGradient id="SVGID_12_" gradientUnits="userSpaceOnUse" x1="-322.8135" y1="613.6475" x2="-6.5715" y2="616.0888" gradientTransform="matrix(1 0 0 -1 504 764)">
					<stop  offset="0" style="stop-color:#00446B"/>
					<stop  offset="0.1098" style="stop-color:#044770"/>
					<stop  offset="0.2373" style="stop-color:#12517E"/>
					<stop  offset="0.3737" style="stop-color:#276295"/>
					<stop  offset="0.5154" style="stop-color:#4579B6"/>
					<stop  offset="0.555" style="stop-color:#4F80C0"/>
					<stop  offset="0.6132" style="stop-color:#3C71AB"/>
					<stop  offset="0.7099" style="stop-color:#225E8F"/>
					<stop  offset="0.8069" style="stop-color:#0F4F7B"/>
					<stop  offset="0.9037" style="stop-color:#04476F"/>
					<stop  offset="1" style="stop-color:#00446B"/>
				</linearGradient>
				<path fill="url(#SVGID_12_)" d="M272.207,132c-2.848,13.304-4.153,25.056-4.511,35.099h30.643
					c0.222-8.351,0.813-18.201,1.919-29.666C289.156,136.061,279.884,134.152,272.207,132z"/>
			</g>
			<g>
				
					<linearGradient id="SVGID_13_" gradientUnits="userSpaceOnUse" x1="-323.0923" y1="648.7061" x2="-6.8454" y2="651.1471" gradientTransform="matrix(1 0 0 -1 504 764)">
					<stop  offset="0" style="stop-color:#00446B"/>
					<stop  offset="0.1098" style="stop-color:#044770"/>
					<stop  offset="0.2373" style="stop-color:#12517E"/>
					<stop  offset="0.3737" style="stop-color:#276295"/>
					<stop  offset="0.5154" style="stop-color:#4579B6"/>
					<stop  offset="0.555" style="stop-color:#4F80C0"/>
					<stop  offset="0.6132" style="stop-color:#3C71AB"/>
					<stop  offset="0.7099" style="stop-color:#225E8F"/>
					<stop  offset="0.8069" style="stop-color:#0F4F7B"/>
					<stop  offset="0.9037" style="stop-color:#04476F"/>
					<stop  offset="1" style="stop-color:#00446B"/>
				</linearGradient>
				<path fill="url(#SVGID_13_)" d="M362.277,98.788c4.12,9.802,7.542,21.451,9.131,34.899c11.157-1.331,20.23-3.319,27.574-5.583
					c-3.115-12.648-11.333-24.345-20.721-34.197C372.779,95.946,367.457,97.557,362.277,98.788z"/>
			</g>
			<g>
				
					<linearGradient id="SVGID_14_" gradientUnits="userSpaceOnUse" x1="-323.0571" y1="645.125" x2="-6.8235" y2="647.5664" gradientTransform="matrix(1 0 0 -1 504 764)">
					<stop  offset="0" style="stop-color:#00446B"/>
					<stop  offset="0.1098" style="stop-color:#044770"/>
					<stop  offset="0.2373" style="stop-color:#12517E"/>
					<stop  offset="0.3737" style="stop-color:#276295"/>
					<stop  offset="0.5154" style="stop-color:#4579B6"/>
					<stop  offset="0.555" style="stop-color:#4F80C0"/>
					<stop  offset="0.6132" style="stop-color:#3C71AB"/>
					<stop  offset="0.7099" style="stop-color:#225E8F"/>
					<stop  offset="0.8069" style="stop-color:#0F4F7B"/>
					<stop  offset="0.9037" style="stop-color:#04476F"/>
					<stop  offset="1" style="stop-color:#00446B"/>
				</linearGradient>
				<path fill="url(#SVGID_14_)" d="M337.449,102.107v33.286c11.17,0.078,21.024-0.378,29.68-1.241
					c-1.564-13.276-5.045-24.761-9.203-34.407C350.754,101.191,343.918,101.927,337.449,102.107z"/>
			</g>
			<g>
				
					<linearGradient id="SVGID_15_" gradientUnits="userSpaceOnUse" x1="-323.0957" y1="649.2764" x2="-6.8304" y2="651.718" gradientTransform="matrix(1 0 0 -1 504 764)">
					<stop  offset="0" style="stop-color:#00446B"/>
					<stop  offset="0.1098" style="stop-color:#044770"/>
					<stop  offset="0.2373" style="stop-color:#12517E"/>
					<stop  offset="0.3737" style="stop-color:#276295"/>
					<stop  offset="0.5154" style="stop-color:#4579B6"/>
					<stop  offset="0.555" style="stop-color:#4F80C0"/>
					<stop  offset="0.6132" style="stop-color:#3C71AB"/>
					<stop  offset="0.7099" style="stop-color:#225E8F"/>
					<stop  offset="0.8069" style="stop-color:#0F4F7B"/>
					<stop  offset="0.9037" style="stop-color:#04476F"/>
					<stop  offset="1" style="stop-color:#00446B"/>
				</linearGradient>
				<path fill="url(#SVGID_15_)" d="M293.225,94.521c-9.054,9.648-16.928,20.986-20.04,33.209
					c7.474,2.121,16.574,4.029,27.546,5.402c1.581-12.906,4.83-24.145,8.794-33.678C303.436,98.103,298.003,96.373,293.225,94.521z"
					/>
			</g>
			<g>
				
					<linearGradient id="SVGID_16_" gradientUnits="userSpaceOnUse" x1="-323.042" y1="645.0586" x2="-6.8459" y2="647.4995" gradientTransform="matrix(1 0 0 -1 504 764)">
					<stop  offset="0" style="stop-color:#00446B"/>
					<stop  offset="0.1098" style="stop-color:#044770"/>
					<stop  offset="0.2373" style="stop-color:#12517E"/>
					<stop  offset="0.3737" style="stop-color:#276295"/>
					<stop  offset="0.5154" style="stop-color:#4579B6"/>
					<stop  offset="0.555" style="stop-color:#4F80C0"/>
					<stop  offset="0.6132" style="stop-color:#3C71AB"/>
					<stop  offset="0.7099" style="stop-color:#225E8F"/>
					<stop  offset="0.8069" style="stop-color:#0F4F7B"/>
					<stop  offset="0.9037" style="stop-color:#04476F"/>
					<stop  offset="1" style="stop-color:#00446B"/>
				</linearGradient>
				<path fill="url(#SVGID_16_)" d="M313.909,100.346c-3.994,9.398-7.321,20.522-8.902,33.291
					c8.326,0.904,17.667,1.509,28.137,1.701v-33.192C326.251,102.082,319.823,101.417,313.909,100.346z"/>
			</g>
			<g>
				
					<linearGradient id="SVGID_17_" gradientUnits="userSpaceOnUse" x1="-321.9956" y1="506.4922" x2="-5.7305" y2="508.9334" gradientTransform="matrix(1 0 0 -1 504 764)">
					<stop  offset="0" style="stop-color:#00446B"/>
					<stop  offset="0.1098" style="stop-color:#044770"/>
					<stop  offset="0.2373" style="stop-color:#12517E"/>
					<stop  offset="0.3737" style="stop-color:#276295"/>
					<stop  offset="0.5154" style="stop-color:#4579B6"/>
					<stop  offset="0.555" style="stop-color:#4F80C0"/>
					<stop  offset="0.6132" style="stop-color:#3C71AB"/>
					<stop  offset="0.7099" style="stop-color:#225E8F"/>
					<stop  offset="0.8069" style="stop-color:#0F4F7B"/>
					<stop  offset="0.9037" style="stop-color:#04476F"/>
					<stop  offset="1" style="stop-color:#00446B"/>
				</linearGradient>
				<path fill="url(#SVGID_17_)" d="M292.109,249.002c4.485,6.285,9.652,12.294,15.429,17.186c5.007,1.419,10.186,2.461,15.48,3.094
					c-4.374-7.792-8.325-16.841-11.722-25.636C305.158,244.849,298.743,246.587,292.109,249.002z"/>
			</g>
			<g>
				
					<linearGradient id="SVGID_18_" gradientUnits="userSpaceOnUse" x1="-322.5269" y1="577.0518" x2="-6.2958" y2="579.4932" gradientTransform="matrix(1 0 0 -1 504 764)">
					<stop  offset="0" style="stop-color:#00446B"/>
					<stop  offset="0.1098" style="stop-color:#044770"/>
					<stop  offset="0.2373" style="stop-color:#12517E"/>
					<stop  offset="0.3737" style="stop-color:#276295"/>
					<stop  offset="0.5154" style="stop-color:#4579B6"/>
					<stop  offset="0.555" style="stop-color:#4F80C0"/>
					<stop  offset="0.6132" style="stop-color:#3C71AB"/>
					<stop  offset="0.7099" style="stop-color:#225E8F"/>
					<stop  offset="0.8069" style="stop-color:#0F4F7B"/>
					<stop  offset="0.9037" style="stop-color:#04476F"/>
					<stop  offset="1" style="stop-color:#00446B"/>
				</linearGradient>
				<path fill="url(#SVGID_18_)" d="M302.708,171.408c-0.215,14.787,0.677,24.265,1.345,29.199
					c8.635-0.753,18.333-1.14,29.251-1.003v-28.196H302.708z"/>
			</g>
			<g>
				
					<linearGradient id="SVGID_19_" gradientUnits="userSpaceOnUse" x1="-322.1733" y1="532.0283" x2="-5.9669" y2="534.4695" gradientTransform="matrix(1 0 0 -1 504 764)">
					<stop  offset="0" style="stop-color:#00446B"/>
					<stop  offset="0.1098" style="stop-color:#044770"/>
					<stop  offset="0.2373" style="stop-color:#12517E"/>
					<stop  offset="0.3737" style="stop-color:#276295"/>
					<stop  offset="0.5154" style="stop-color:#4579B6"/>
					<stop  offset="0.555" style="stop-color:#4F80C0"/>
					<stop  offset="0.6132" style="stop-color:#3C71AB"/>
					<stop  offset="0.7099" style="stop-color:#225E8F"/>
					<stop  offset="0.8069" style="stop-color:#0F4F7B"/>
					<stop  offset="0.9037" style="stop-color:#04476F"/>
					<stop  offset="1" style="stop-color:#00446B"/>
				</linearGradient>
				<path fill="url(#SVGID_19_)" d="M267.564,211.545c-8.602,2.768-14.737,5.903-19.042,8.765
					c7.035,12.061,16.521,22.514,27.8,30.697c3.069-1.488,6.087-2.831,9.077-4.038C274.473,230.349,268.321,213.634,267.564,211.545
					z"/>
			</g>
			<g>
				
					<linearGradient id="SVGID_20_" gradientUnits="userSpaceOnUse" x1="-321.9517" y1="506.4238" x2="-5.8274" y2="508.8641" gradientTransform="matrix(1 0 0 -1 504 764)">
					<stop  offset="0" style="stop-color:#00446B"/>
					<stop  offset="0.1098" style="stop-color:#044770"/>
					<stop  offset="0.2373" style="stop-color:#12517E"/>
					<stop  offset="0.3737" style="stop-color:#276295"/>
					<stop  offset="0.5154" style="stop-color:#4579B6"/>
					<stop  offset="0.555" style="stop-color:#4F80C0"/>
					<stop  offset="0.6132" style="stop-color:#3C71AB"/>
					<stop  offset="0.7099" style="stop-color:#225E8F"/>
					<stop  offset="0.8069" style="stop-color:#0F4F7B"/>
					<stop  offset="0.9037" style="stop-color:#04476F"/>
					<stop  offset="1" style="stop-color:#00446B"/>
				</linearGradient>
				<path fill="url(#SVGID_20_)" d="M280.414,253.824c5.446,3.538,11.244,6.573,17.331,9.018c-3.586-3.83-6.875-7.994-9.858-12.242
					C285.429,251.581,282.927,252.662,280.414,253.824z"/>
			</g>
			<g>
				
					<linearGradient id="SVGID_21_" gradientUnits="userSpaceOnUse" x1="-321.9531" y1="507.1514" x2="-5.8049" y2="509.5922" gradientTransform="matrix(1 0 0 -1 504 764)">
					<stop  offset="0" style="stop-color:#00446B"/>
					<stop  offset="0.1098" style="stop-color:#044770"/>
					<stop  offset="0.2373" style="stop-color:#12517E"/>
					<stop  offset="0.3737" style="stop-color:#276295"/>
					<stop  offset="0.5154" style="stop-color:#4579B6"/>
					<stop  offset="0.555" style="stop-color:#4F80C0"/>
					<stop  offset="0.6132" style="stop-color:#3C71AB"/>
					<stop  offset="0.7099" style="stop-color:#225E8F"/>
					<stop  offset="0.8069" style="stop-color:#0F4F7B"/>
					<stop  offset="0.9037" style="stop-color:#04476F"/>
					<stop  offset="1" style="stop-color:#00446B"/>
				</linearGradient>
				<path fill="url(#SVGID_21_)" d="M331.875,269.927v-28.471c-5.146,0.078-10.569,0.517-16.217,1.413
					c3.638,9.419,7.924,19.044,12.609,26.891C329.48,269.845,330.68,269.89,331.875,269.927z"/>
			</g>
			<g>
				
					<linearGradient id="SVGID_22_" gradientUnits="userSpaceOnUse" x1="-321.9717" y1="505.9307" x2="-5.757" y2="508.3717" gradientTransform="matrix(1 0 0 -1 504 764)">
					<stop  offset="0" style="stop-color:#00446B"/>
					<stop  offset="0.1098" style="stop-color:#044770"/>
					<stop  offset="0.2373" style="stop-color:#12517E"/>
					<stop  offset="0.3737" style="stop-color:#276295"/>
					<stop  offset="0.5154" style="stop-color:#4579B6"/>
					<stop  offset="0.555" style="stop-color:#4F80C0"/>
					<stop  offset="0.6132" style="stop-color:#3C71AB"/>
					<stop  offset="0.7099" style="stop-color:#225E8F"/>
					<stop  offset="0.8069" style="stop-color:#0F4F7B"/>
					<stop  offset="0.9037" style="stop-color:#04476F"/>
					<stop  offset="1" style="stop-color:#00446B"/>
				</linearGradient>
				<path fill="url(#SVGID_22_)" d="M376.537,250.217c-5.17-2.23-11.384-4.402-18.515-6.029c-3.333,8.631-7.23,17.491-11.525,25.132
					c5.253-0.601,10.374-1.619,15.347-3.012C367.306,261.736,372.224,256.113,376.537,250.217z"/>
			</g>
			<g>
				
					<linearGradient id="SVGID_23_" gradientUnits="userSpaceOnUse" x1="-322.5146" y1="574.5313" x2="-6.2617" y2="576.9726" gradientTransform="matrix(1 0 0 -1 504 764)">
					<stop  offset="0" style="stop-color:#00446B"/>
					<stop  offset="0.1098" style="stop-color:#044770"/>
					<stop  offset="0.2373" style="stop-color:#12517E"/>
					<stop  offset="0.3737" style="stop-color:#276295"/>
					<stop  offset="0.5154" style="stop-color:#4579B6"/>
					<stop  offset="0.555" style="stop-color:#4F80C0"/>
					<stop  offset="0.6132" style="stop-color:#3C71AB"/>
					<stop  offset="0.7099" style="stop-color:#225E8F"/>
					<stop  offset="0.8069" style="stop-color:#0F4F7B"/>
					<stop  offset="0.9037" style="stop-color:#04476F"/>
					<stop  offset="1" style="stop-color:#00446B"/>
				</linearGradient>
				<path fill="url(#SVGID_23_)" d="M298.402,171.408h-30.654c-0.184,17.421,2.403,29.222,3.994,34.76
					c7.628-2.152,16.862-3.972,27.999-5.147C299.033,195.824,298.154,186.254,298.402,171.408z"/>
			</g>
			<g>
				
					<linearGradient id="SVGID_24_" gradientUnits="userSpaceOnUse" x1="-322.043" y1="507.083" x2="-5.7154" y2="509.5251" gradientTransform="matrix(1 0 0 -1 504 764)">
					<stop  offset="0" style="stop-color:#00446B"/>
					<stop  offset="0.1098" style="stop-color:#044770"/>
					<stop  offset="0.2373" style="stop-color:#12517E"/>
					<stop  offset="0.3737" style="stop-color:#276295"/>
					<stop  offset="0.5154" style="stop-color:#4579B6"/>
					<stop  offset="0.555" style="stop-color:#4F80C0"/>
					<stop  offset="0.6132" style="stop-color:#3C71AB"/>
					<stop  offset="0.7099" style="stop-color:#225E8F"/>
					<stop  offset="0.8069" style="stop-color:#0F4F7B"/>
					<stop  offset="0.9037" style="stop-color:#04476F"/>
					<stop  offset="1" style="stop-color:#00446B"/>
				</linearGradient>
				<path fill="url(#SVGID_24_)" d="M336.179,241.478v28.498c1.704-0.021,3.396-0.09,5.057-0.185
					c4.629-7.73,8.866-17.198,12.481-26.497C348.337,242.282,342.464,241.628,336.179,241.478z"/>
			</g>
			<g>
				
					<linearGradient id="SVGID_25_" gradientUnits="userSpaceOnUse" x1="-322.2349" y1="537.8301" x2="-5.9799" y2="540.2714" gradientTransform="matrix(1 0 0 -1 504 764)">
					<stop  offset="0" style="stop-color:#00446B"/>
					<stop  offset="0.1098" style="stop-color:#044770"/>
					<stop  offset="0.2373" style="stop-color:#12517E"/>
					<stop  offset="0.3737" style="stop-color:#276295"/>
					<stop  offset="0.5154" style="stop-color:#4579B6"/>
					<stop  offset="0.555" style="stop-color:#4F80C0"/>
					<stop  offset="0.6132" style="stop-color:#3C71AB"/>
					<stop  offset="0.7099" style="stop-color:#225E8F"/>
					<stop  offset="0.8069" style="stop-color:#0F4F7B"/>
					<stop  offset="0.9037" style="stop-color:#04476F"/>
					<stop  offset="1" style="stop-color:#00446B"/>
				</linearGradient>
				<path fill="url(#SVGID_25_)" d="M309.772,239.547c-6.372-17.322-10.331-32.625-10.611-33.745
					c-0.021-0.068-0.053-0.244-0.12-0.53c-10.934,1.162-19.941,2.932-27.353,5.019c1.077,2.88,7.347,19.191,17.902,35.038
					C296.565,242.734,303.298,240.861,309.772,239.547z"/>
			</g>
			<g>
				
					<linearGradient id="SVGID_26_" gradientUnits="userSpaceOnUse" x1="-322.1519" y1="529.1143" x2="-5.924" y2="531.5555" gradientTransform="matrix(1 0 0 -1 504 764)">
					<stop  offset="0" style="stop-color:#00446B"/>
					<stop  offset="0.1098" style="stop-color:#044770"/>
					<stop  offset="0.2373" style="stop-color:#12517E"/>
					<stop  offset="0.3737" style="stop-color:#276295"/>
					<stop  offset="0.5154" style="stop-color:#4579B6"/>
					<stop  offset="0.555" style="stop-color:#4F80C0"/>
					<stop  offset="0.6132" style="stop-color:#3C71AB"/>
					<stop  offset="0.7099" style="stop-color:#225E8F"/>
					<stop  offset="0.8069" style="stop-color:#0F4F7B"/>
					<stop  offset="0.9037" style="stop-color:#04476F"/>
					<stop  offset="1" style="stop-color:#00446B"/>
				</linearGradient>
				<path fill="url(#SVGID_26_)" d="M383.104,248.515c3.123,1.538,5.759,3.027,7.886,4.311c11.654-7.9,21.558-18.213,28.986-30.22
					c-4.048-2.73-10.064-5.976-18.792-8.967C399.079,219.127,392.903,234.034,383.104,248.515z"/>
			</g>
			<g>
				
					<linearGradient id="SVGID_27_" gradientUnits="userSpaceOnUse" x1="-321.9619" y1="504.9443" x2="-5.745" y2="507.3859" gradientTransform="matrix(1 0 0 -1 504 764)">
					<stop  offset="0" style="stop-color:#00446B"/>
					<stop  offset="0.1098" style="stop-color:#044770"/>
					<stop  offset="0.2373" style="stop-color:#12517E"/>
					<stop  offset="0.3737" style="stop-color:#276295"/>
					<stop  offset="0.5154" style="stop-color:#4579B6"/>
					<stop  offset="0.555" style="stop-color:#4F80C0"/>
					<stop  offset="0.6132" style="stop-color:#3C71AB"/>
					<stop  offset="0.7099" style="stop-color:#225E8F"/>
					<stop  offset="0.8069" style="stop-color:#0F4F7B"/>
					<stop  offset="0.9037" style="stop-color:#04476F"/>
					<stop  offset="1" style="stop-color:#00446B"/>
				</linearGradient>
				<path fill="url(#SVGID_27_)" d="M371.602,263.039c5.355-2.112,10.501-4.652,15.34-7.613c-1.787-1.042-3.906-2.184-6.327-3.351
					C377.874,255.882,374.847,259.592,371.602,263.039z"/>
			</g>
			<g>
				
					<linearGradient id="SVGID_28_" gradientUnits="userSpaceOnUse" x1="-323.1465" y1="656.084" x2="-6.891" y2="658.5257" gradientTransform="matrix(1 0 0 -1 504 764)">
					<stop  offset="0" style="stop-color:#00446B"/>
					<stop  offset="0.1098" style="stop-color:#044770"/>
					<stop  offset="0.2373" style="stop-color:#12517E"/>
					<stop  offset="0.3737" style="stop-color:#276295"/>
					<stop  offset="0.5154" style="stop-color:#4579B6"/>
					<stop  offset="0.555" style="stop-color:#4F80C0"/>
					<stop  offset="0.6132" style="stop-color:#3C71AB"/>
					<stop  offset="0.7099" style="stop-color:#225E8F"/>
					<stop  offset="0.8069" style="stop-color:#0F4F7B"/>
					<stop  offset="0.9037" style="stop-color:#04476F"/>
					<stop  offset="1" style="stop-color:#00446B"/>
				</linearGradient>
				<path fill="url(#SVGID_28_)" d="M288.893,92.741c-3.78-1.654-7.042-3.325-9.694-4.843
					c-11.572,8.053-21.356,18.458-28.665,30.546c4.33,2.587,10.353,5.434,18.55,8.051
					C272.29,113.971,279.982,102.502,288.893,92.741z"/>
			</g>
			<g>
				
					<linearGradient id="SVGID_29_" gradientUnits="userSpaceOnUse" x1="-322.8452" y1="618.7422" x2="-6.6327" y2="621.1835" gradientTransform="matrix(1 0 0 -1 504 764)">
					<stop  offset="0" style="stop-color:#00446B"/>
					<stop  offset="0.1098" style="stop-color:#044770"/>
					<stop  offset="0.2373" style="stop-color:#12517E"/>
					<stop  offset="0.3737" style="stop-color:#276295"/>
					<stop  offset="0.5154" style="stop-color:#4579B6"/>
					<stop  offset="0.555" style="stop-color:#4F80C0"/>
					<stop  offset="0.6132" style="stop-color:#3C71AB"/>
					<stop  offset="0.7099" style="stop-color:#225E8F"/>
					<stop  offset="0.8069" style="stop-color:#0F4F7B"/>
					<stop  offset="0.9037" style="stop-color:#04476F"/>
					<stop  offset="1" style="stop-color:#00446B"/>
				</linearGradient>
				<path fill="url(#SVGID_29_)" d="M268.074,130.778c-8.655-2.726-15.058-5.739-19.729-8.519
					c-7.296,13.383-11.605,28.644-12.053,44.843h27.038C263.715,156.723,265.101,144.583,268.074,130.778z"/>
			</g>
			<g>
				
					<linearGradient id="SVGID_30_" gradientUnits="userSpaceOnUse" x1="-323.3164" y1="681.6133" x2="-7.1206" y2="684.054" gradientTransform="matrix(1 0 0 -1 504 764)">
					<stop  offset="0" style="stop-color:#00446B"/>
					<stop  offset="0.1098" style="stop-color:#044770"/>
					<stop  offset="0.2373" style="stop-color:#12517E"/>
					<stop  offset="0.3737" style="stop-color:#276295"/>
					<stop  offset="0.5154" style="stop-color:#4579B6"/>
					<stop  offset="0.555" style="stop-color:#4F80C0"/>
					<stop  offset="0.6132" style="stop-color:#3C71AB"/>
					<stop  offset="0.7099" style="stop-color:#225E8F"/>
					<stop  offset="0.8069" style="stop-color:#0F4F7B"/>
					<stop  offset="0.9037" style="stop-color:#04476F"/>
					<stop  offset="1" style="stop-color:#00446B"/>
				</linearGradient>
				<path fill="url(#SVGID_30_)" d="M310.169,73.484c-9.631,2.592-18.685,6.585-26.945,11.752c2.505,1.347,5.438,2.781,8.807,4.193
					C298.036,83.282,304.382,77.914,310.169,73.484z"/>
			</g>
			<g>
				
					<linearGradient id="SVGID_31_" gradientUnits="userSpaceOnUse" x1="-323.3643" y1="681.4443" x2="-7.0857" y2="683.8859" gradientTransform="matrix(1 0 0 -1 504 764)">
					<stop  offset="0" style="stop-color:#00446B"/>
					<stop  offset="0.1098" style="stop-color:#044770"/>
					<stop  offset="0.2373" style="stop-color:#12517E"/>
					<stop  offset="0.3737" style="stop-color:#276295"/>
					<stop  offset="0.5154" style="stop-color:#4579B6"/>
					<stop  offset="0.555" style="stop-color:#4F80C0"/>
					<stop  offset="0.6132" style="stop-color:#3C71AB"/>
					<stop  offset="0.7099" style="stop-color:#225E8F"/>
					<stop  offset="0.8069" style="stop-color:#0F4F7B"/>
					<stop  offset="0.9037" style="stop-color:#04476F"/>
					<stop  offset="1" style="stop-color:#00446B"/>
				</linearGradient>
				<path fill="url(#SVGID_31_)" d="M379.459,88.844c3.001-1.192,6.044-2.51,9.126-3.981c-8.236-5.081-17.271-8.999-26.868-11.529
					C367.364,77.646,373.561,82.874,379.459,88.844z"/>
			</g>
			<g>
				
					<linearGradient id="SVGID_32_" gradientUnits="userSpaceOnUse" x1="-323.3745" y1="680.0342" x2="-7.0576" y2="682.4761" gradientTransform="matrix(1 0 0 -1 504 764)">
					<stop  offset="0" style="stop-color:#00446B"/>
					<stop  offset="0.1098" style="stop-color:#044770"/>
					<stop  offset="0.2373" style="stop-color:#12517E"/>
					<stop  offset="0.3737" style="stop-color:#276295"/>
					<stop  offset="0.5154" style="stop-color:#4579B6"/>
					<stop  offset="0.555" style="stop-color:#4F80C0"/>
					<stop  offset="0.6132" style="stop-color:#3C71AB"/>
					<stop  offset="0.7099" style="stop-color:#225E8F"/>
					<stop  offset="0.8069" style="stop-color:#0F4F7B"/>
					<stop  offset="0.9037" style="stop-color:#04476F"/>
					<stop  offset="1" style="stop-color:#00446B"/>
				</linearGradient>
				<path fill="url(#SVGID_32_)" d="M345.619,70.498c4.576,5.742,10.075,13.848,14.901,24.273c4.658-1.076,9.476-2.47,14.424-4.239
					c-8.198-8.059-16.904-14.693-23.63-19.359C349.434,70.884,347.542,70.664,345.619,70.498z"/>
			</g>
			<g>
				
					<linearGradient id="SVGID_33_" gradientUnits="userSpaceOnUse" x1="-322.2407" y1="535.8984" x2="-5.9561" y2="538.3404" gradientTransform="matrix(1 0 0 -1 504 764)">
					<stop  offset="0" style="stop-color:#00446B"/>
					<stop  offset="0.1098" style="stop-color:#044770"/>
					<stop  offset="0.2373" style="stop-color:#12517E"/>
					<stop  offset="0.3737" style="stop-color:#276295"/>
					<stop  offset="0.5154" style="stop-color:#4579B6"/>
					<stop  offset="0.555" style="stop-color:#4F80C0"/>
					<stop  offset="0.6132" style="stop-color:#3C71AB"/>
					<stop  offset="0.7099" style="stop-color:#225E8F"/>
					<stop  offset="0.8069" style="stop-color:#0F4F7B"/>
					<stop  offset="0.9037" style="stop-color:#04476F"/>
					<stop  offset="1" style="stop-color:#00446B"/>
				</linearGradient>
				<path fill="url(#SVGID_33_)" d="M379.06,246.656c9.593-14.035,15.812-28.749,18.026-34.361
					c-7.243-2.209-16.11-4.219-26.905-5.726c-0.938,3.538-4.78,17.774-10.627,33.569
					C367.083,241.908,373.636,244.258,379.06,246.656z"/>
			</g>
			<g>
				
					<linearGradient id="SVGID_34_" gradientUnits="userSpaceOnUse" x1="-322.2793" y1="541.127" x2="-6.0025" y2="543.5688" gradientTransform="matrix(1 0 0 -1 504 764)">
					<stop  offset="0" style="stop-color:#00446B"/>
					<stop  offset="0.1098" style="stop-color:#044770"/>
					<stop  offset="0.2373" style="stop-color:#12517E"/>
					<stop  offset="0.3737" style="stop-color:#276295"/>
					<stop  offset="0.5154" style="stop-color:#4579B6"/>
					<stop  offset="0.555" style="stop-color:#4F80C0"/>
					<stop  offset="0.6132" style="stop-color:#3C71AB"/>
					<stop  offset="0.7099" style="stop-color:#225E8F"/>
					<stop  offset="0.8069" style="stop-color:#0F4F7B"/>
					<stop  offset="0.9037" style="stop-color:#04476F"/>
					<stop  offset="1" style="stop-color:#00446B"/>
				</linearGradient>
				<path fill="url(#SVGID_34_)" d="M355.26,239.218c5.63-15.137,9.48-29.033,10.616-33.204c-8.669-1.051-18.527-1.761-29.692-2.02
					v33.182C343.031,237.328,349.413,238.076,355.26,239.218z"/>
			</g>
			<g>
				
					<linearGradient id="SVGID_35_" gradientUnits="userSpaceOnUse" x1="-322.2256" y1="541.6152" x2="-6.0618" y2="544.0557" gradientTransform="matrix(1 0 0 -1 504 764)">
					<stop  offset="0" style="stop-color:#00446B"/>
					<stop  offset="0.1098" style="stop-color:#044770"/>
					<stop  offset="0.2373" style="stop-color:#12517E"/>
					<stop  offset="0.3737" style="stop-color:#276295"/>
					<stop  offset="0.5154" style="stop-color:#4579B6"/>
					<stop  offset="0.555" style="stop-color:#4F80C0"/>
					<stop  offset="0.6132" style="stop-color:#3C71AB"/>
					<stop  offset="0.7099" style="stop-color:#225E8F"/>
					<stop  offset="0.8069" style="stop-color:#0F4F7B"/>
					<stop  offset="0.9037" style="stop-color:#04476F"/>
					<stop  offset="1" style="stop-color:#00446B"/>
				</linearGradient>
				<path fill="url(#SVGID_35_)" d="M331.875,237.151V203.9c-10.655-0.133-20.104,0.246-28.503,0.969
					c0.31,1.232,4.374,16.69,10.741,33.888C320.307,237.735,326.251,237.237,331.875,237.151z"/>
			</g>
			<g>
				
					<linearGradient id="SVGID_36_" gradientUnits="userSpaceOnUse" x1="-322.4868" y1="569.6035" x2="-6.1909" y2="572.0455" gradientTransform="matrix(1 0 0 -1 504 764)">
					<stop  offset="0" style="stop-color:#00446B"/>
					<stop  offset="0.1098" style="stop-color:#044770"/>
					<stop  offset="0.2373" style="stop-color:#12517E"/>
					<stop  offset="0.3737" style="stop-color:#276295"/>
					<stop  offset="0.5154" style="stop-color:#4579B6"/>
					<stop  offset="0.555" style="stop-color:#4F80C0"/>
					<stop  offset="0.6132" style="stop-color:#3C71AB"/>
					<stop  offset="0.7099" style="stop-color:#225E8F"/>
					<stop  offset="0.8069" style="stop-color:#0F4F7B"/>
					<stop  offset="0.9037" style="stop-color:#04476F"/>
					<stop  offset="1" style="stop-color:#00446B"/>
				</linearGradient>
				<path fill="url(#SVGID_36_)" d="M261.958,171.408h-26.979c0.221,16.254,4.31,31.567,11.412,45.062
					c4.607-3.021,10.996-6.24,19.774-9.058C264.451,201.596,261.744,189.453,261.958,171.408z"/>
			</g>
		</g>
	</g>
	<g>
		<path fill="#E4DF24" d="M352.361,322c-0.19,6.727-5.798,12.037-12.52,11.843c-6.731-0.192-12.04-5.805-11.832-12.536
			c0.181-6.723,5.797-12.027,12.517-11.837C347.259,309.657,352.566,315.273,352.361,322z"/>
	</g>
	<g>
		<path fill="#E4DF24" d="M231.027,343.97c-0.214,6.734-5.829,12.04-12.557,11.838c-6.72-0.185-12.019-5.793-11.831-12.528
			c0.196-6.731,5.804-12.024,12.528-11.838C225.9,331.636,231.212,337.252,231.027,343.97z"/>
	</g>
	<g>
		<circle fill="#60A443" cx="170.041" cy="216.461" r="12.191"/>
	</g>
	<g>
		<path fill="#60A443" d="M138.301,242.343c-0.293,10.103-8.7,18.046-18.798,17.753c-10.061-0.29-18.02-8.696-17.728-18.788
			c0.284-10.072,8.692-18.011,18.764-17.745C130.635,223.858,138.581,232.269,138.301,242.343z"/>
	</g>
	<g>
		<path fill="#60A443" d="M112.451,300.707c-0.406,14.205-12.234,25.362-26.424,24.968c-14.171-0.408-25.35-12.229-24.934-26.426
			c0.389-14.167,12.227-25.337,26.395-24.946C101.676,274.701,112.861,286.543,112.451,300.707z"/>
	</g>
	<g>
		<path fill="#60A443" d="M165.875,377.396c-0.542,18.868-16.259,33.703-35.112,33.166c-18.833-0.547-33.693-16.249-33.146-35.108
			c0.515-18.841,16.246-33.673,35.071-33.161C151.547,342.831,166.417,358.558,165.875,377.396z"/>
	</g>
	<g>
		<path fill="#60A443" d="M503.287,216.806c0.194,6.741,5.801,12.041,12.52,11.851c6.734-0.193,12.04-5.812,11.847-12.541
			c-0.189-6.725-5.81-12.032-12.52-11.838C508.394,204.467,503.102,210.086,503.287,216.806z"/>
	</g>
	<g>
		<path fill="#60A443" d="M547.235,242.343c0.277,10.103,8.693,18.046,18.767,17.753c10.089-0.29,18.026-8.696,17.744-18.788
			c-0.272-10.072-8.698-18.011-18.77-17.745C554.89,223.858,546.932,232.269,547.235,242.343z"/>
	</g>
	<g>
		<path fill="#60A443" d="M573.064,300.707c0.416,14.205,12.226,25.362,26.418,24.968c14.171-0.408,25.354-12.229,24.946-26.426
			c-0.412-14.167-12.221-25.337-26.388-24.946C583.834,274.701,572.665,286.543,573.064,300.707z"/>
	</g>
	<g>
		<path fill="#60A443" d="M519.652,377.396c0.539,18.868,16.249,33.703,35.107,33.166c18.825-0.547,33.678-16.249,33.148-35.108
			c-0.534-18.841-16.256-33.673-35.09-33.161C533.976,342.831,519.093,358.558,519.652,377.396z"/>
	</g>
	<g>
		<path fill="#E4DF24" d="M457.472,343.263c-0.197,6.731-5.81,12.041-12.541,11.848c-6.73-0.202-12.04-5.81-11.838-12.545
			c0.189-6.727,5.806-12.023,12.532-11.838C452.343,330.921,457.657,336.542,457.472,343.263z"/>
	</g>
	<g>
		<path fill="#E4DF24" d="M406.65,298.928c0,0-45.592,30.252-71.284,88.01c0,0-38.124-60.507-56.438-73.363
			c0,0,67.139,122.331,12.428,202.366c0,0,52.554-41.265,62.757-84.718c0,0,17.749,54.567,60.066,93.126
			C414.179,524.354,346.618,416.262,406.65,298.928z"/>
	</g>
	<g>
		<path fill="#E4DF24" d="M421.267,325.027c0,0-56.434,95.892,11.788,186.213C433.055,511.24,392.122,439.177,421.267,325.027z"/>
	</g>
	<g>
		<path fill="#E4DF24" d="M430.608,441.666c0,0,2.813,39.404,28.427,48.977L430.608,441.666z"/>
	</g>
	<g>
		<path fill="#E4DF24" d="M238.179,317.334c0,0,101.181,72.346,22.367,181.521C260.545,498.855,306.832,403.826,238.179,317.334z"/>
	</g>
	<g>
		<path fill="#E4DF24" d="M261.153,431.37c0,0,6.942,32.631-36.945,66.444C224.208,497.814,253.641,465.111,261.153,431.37z"/>
	</g>
	<g>
		<path fill="#437239" d="M265.639,288.494c-3.779-2.261-7.498-4.725-11.046-7.329l2.56-3.51c3.449,2.521,7.061,4.908,10.725,7.086
			L265.639,288.494z M414.756,284.576l-2.426-3.615c3.531-2.367,7.012-4.934,10.321-7.641l2.75,3.376
			C421.999,279.485,418.396,282.138,414.756,284.576z M247.619,275.719c-3.385-2.826-6.663-5.837-9.76-8.963l3.097-3.064
			c2.986,3.024,6.169,5.943,9.467,8.681L247.619,275.719z M432.08,270.879l-2.955-3.186c3.141-2.914,6.159-6.006,8.997-9.169
			l3.258,2.893C438.445,264.697,435.333,267.874,432.08,270.879z M231.82,260.277c-2.88-3.314-5.652-6.811-8.223-10.389l3.532-2.545
			c2.493,3.475,5.175,6.859,7.981,10.075L231.82,260.277z M447.046,254.65l-3.422-2.691c2.615-3.344,5.137-6.863,7.449-10.474
			l3.654,2.35C452.343,247.568,449.757,251.197,447.046,254.65z M218.664,242.545c-2.35-3.733-4.54-7.628-6.512-11.542l3.891-1.959
			c1.913,3.802,4.021,7.565,6.306,11.185L218.664,242.545z M459.279,236.248l-3.8-2.11c2.077-3.754,4.011-7.62,5.693-11.511
			l3.993,1.747C463.417,228.381,461.428,232.371,459.279,236.248z M208.443,222.98c-1.73-4.047-3.27-8.228-4.605-12.442l4.158-1.323
			c1.285,4.078,2.783,8.137,4.452,12.051L208.443,222.98z M468.461,216.157l-4.095-1.482c1.455-3.989,2.75-8.122,3.813-12.273
			l4.213,1.085C471.29,207.774,469.949,212.041,468.461,216.157z M201.448,202.036c-1.058-4.289-1.932-8.665-2.564-13.014
			l4.305-0.633c0.611,4.21,1.458,8.446,2.493,12.597L201.448,202.036z M474.338,194.868l-4.275-0.83
			c0.803-4.189,1.421-8.471,1.803-12.729l4.355,0.406C475.801,186.101,475.162,190.521,474.338,194.868z M197.864,180.24
			c-0.328-3.931-0.487-7.907-0.487-11.847l0.004-1.402l4.354,0.038l-0.011,1.364c0,3.819,0.168,7.677,0.48,11.477L197.864,180.24z
			 M476.76,172.887l-4.347-0.133c0.042-1.446,0.071-2.892,0.071-4.365c0-2.859-0.1-5.686-0.273-8.49l4.364-0.268
			c0.168,2.895,0.27,5.816,0.27,8.753C476.84,169.896,476.806,171.408,476.76,172.887z M202.085,158.466l-4.338-0.313
			c0.323-4.408,0.853-8.839,1.58-13.165l4.296,0.719C202.909,149.909,202.396,154.205,202.085,158.466z M471.441,151.386
			c-0.542-4.246-1.27-8.507-2.216-12.667l4.255-0.941c0.95,4.288,1.711,8.684,2.262,13.06L471.441,151.386z M205.32,137.321
			l-4.254-0.99c1.002-4.305,2.243-8.593,3.664-12.747l4.12,1.39C207.462,129,206.287,133.153,205.32,137.321z M467.103,130.43
			c-1.202-4.091-2.614-8.189-4.191-12.141l4.04-1.615c1.627,4.099,3.085,8.313,4.322,12.536L467.103,130.43z M211.84,116.947
			l-4.037-1.663c1.692-4.071,3.585-8.111,5.631-12.01l3.845,2.041C215.298,109.078,213.47,112.994,211.84,116.947z M459.499,110.446
			c-1.841-3.857-3.877-7.666-6.054-11.33l3.75-2.23c2.25,3.775,4.347,7.71,6.223,11.687L459.499,110.446z M221.535,97.854
			l-3.718-2.27c2.299-3.748,4.794-7.447,7.438-10.973l3.492,2.608C226.176,90.639,223.748,94.212,221.535,97.854z M448.82,91.896
			c-2.413-3.516-5.023-6.959-7.752-10.232l3.326-2.793c2.837,3.384,5.516,6.93,8.008,10.573L448.82,91.896z M234.103,80.526
			l-3.311-2.814c2.871-3.353,5.919-6.608,9.079-9.668l3.022,3.134C239.837,74.13,236.892,77.281,234.103,80.526z M435.393,75.267
			c-2.968-3.1-6.096-6.1-9.291-8.885l2.875-3.293c3.296,2.888,6.517,5.984,9.551,9.186L435.393,75.267z M249.241,65.396
			l-2.832-3.307c3.34-2.854,6.865-5.587,10.483-8.12l2.497,3.561C255.892,59.988,252.47,62.64,249.241,65.396z M419.468,60.94
			c-3.396-2.604-6.945-5.062-10.543-7.332l2.329-3.688c3.699,2.329,7.374,4.876,10.872,7.563L419.468,60.94z M266.542,52.834
			l-2.26-3.725c3.762-2.298,7.668-4.446,11.611-6.367l1.911,3.91C273.969,48.515,270.189,50.605,266.542,52.834z M401.517,49.287
			c-3.762-2.032-7.643-3.914-11.57-5.579l1.691-4.004c4.052,1.713,8.076,3.651,11.964,5.743L401.517,49.287z M285.614,43.149
			l-1.658-4.017c4.082-1.68,8.267-3.182,12.489-4.464l1.266,4.166C293.628,40.065,289.565,41.524,285.614,43.149z M381.952,40.616
			c-4.036-1.411-8.173-2.646-12.318-3.672l1.051-4.228c4.267,1.056,8.546,2.333,12.692,3.794L381.952,40.616z M305.971,36.605
			l-0.985-4.238c4.267-0.998,8.651-1.82,13.026-2.412l0.603,4.305C314.369,34.848,310.108,35.637,305.971,36.605z M361.26,35.159
			c-4.208-0.754-8.492-1.317-12.738-1.67l0.361-4.345c4.397,0.372,8.812,0.944,13.138,1.728L361.26,35.159z M327.118,33.385
			l-0.316-4.349c4.362-0.318,8.873-0.452,13.256-0.353l-0.095,4.357C335.674,32.945,331.336,33.074,327.118,33.385z"/>
	</g>
</g>
<g id="Capa_2">
	<g>
		<g>
			<g>
				<g>
					<rect x="689.214" y="297.552" fill="#3964AA" width="1112.709" height="3.804"/>
				</g>
				<g>
					<rect x="686.097" y="294.414" fill="#3964AA" width="1118.94" height="10.071"/>
				</g>
			</g>
		</g>
		<g>
			<path fill="#365867" d="M800.182,267.881c-0.88,0-1.575-0.242-2.088-0.751c-0.5-0.518-0.771-1.213-0.771-2.096v-58.825
				c0-0.902,0.271-1.581,0.771-2.104c0.513-0.515,1.208-0.756,2.088-0.756h31.315c0.88,0,1.574,0.241,2.082,0.756
				c0.506,0.523,0.763,1.202,0.763,2.104v2.842c0,0.869-0.257,1.571-0.763,2.09c-0.508,0.508-1.202,0.754-2.082,0.754h-24.198
				c-0.647,0-0.953,0.328-0.953,0.928v17.095c0,0.64,0.306,0.959,0.953,0.959H829.6c0.877,0,1.562,0.242,2.084,0.746
				c0.493,0.518,0.732,1.203,0.732,2.099v2.845c0,0.879-0.247,1.588-0.732,2.098c-0.523,0.506-1.204,0.734-2.084,0.734h-22.301
				c-0.647,0-0.953,0.332-0.953,0.96v18.025c0,0.645,0.306,0.962,0.953,0.962h26.074c0.895,0,1.583,0.257,2.118,0.776
				c0.48,0.491,0.732,1.188,0.732,2.084v2.827c0,0.895-0.251,1.579-0.732,2.098c-0.535,0.516-1.216,0.75-2.118,0.75H800.182
				L800.182,267.881z"/>
			<path fill="#365867" d="M945.356,267.881c-0.875,0-1.583-0.242-2.078-0.751c-0.502-0.518-0.769-1.213-0.769-2.096v-58.825
				c0-0.902,0.267-1.581,0.769-2.104c0.495-0.515,1.203-0.756,2.078-0.756h3.338c0.881,0,1.569,0.241,2.076,0.756
				c0.498,0.523,0.754,1.202,0.754,2.104v52.176c0,0.627,0.314,0.951,0.963,0.951h25.907c0.875,0,1.58,0.268,2.089,0.773
				c0.484,0.502,0.754,1.202,0.754,2.083v2.841c0,0.883-0.274,1.57-0.754,2.096c-0.509,0.51-1.213,0.751-2.089,0.751H945.356
				L945.356,267.881z"/>
			<path fill="#365867" d="M1126.984,267.881c-0.63,0.507-1.351,0.714-2.138,0.668c-0.774-0.067-1.535-0.286-2.231-0.668
				l-27.602-16.142c-0.452-0.236-0.854-0.236-1.195,0c-0.352,0.276-0.587,0.585-0.711,0.958l-3.909,12.92
				c-0.419,1.514-1.503,2.263-3.204,2.263h-4.653c-1.825,0-2.5-0.893-1.991-2.657l18.974-59.325c0.311-0.993,0.74-1.676,1.287-2.021
				c0.547-0.348,1.232-0.521,2.133-0.521h6.636c0.898,0,1.604,0.174,2.146,0.521c0.513,0.344,0.947,1.012,1.276,2.021l18.111,56.773
				c0.462,1.457,0.208,2.606-0.753,3.393L1126.984,267.881z M1106.026,215.413c-0.206-0.699-0.501-1.033-0.969-1.033
				c-0.441,0-0.747,0.34-0.932,1.033l-7.506,25.053c-0.254,0.815-0.287,1.429-0.088,1.849c0.181,0.406,0.487,0.741,0.942,0.996
				l17.839,10.429c0.702,0.454,1.197,0.495,1.524,0.16c0.327-0.361,0.412-0.766,0.293-1.202L1106.026,215.413z"/>
			<path fill="#365867" d="M1243.6,267.881c-0.881,0-1.562-0.242-2.067-0.751c-0.51-0.518-0.764-1.213-0.764-2.096v-52.21
				c0-0.601-0.322-0.928-0.961-0.928h-14.223c-0.86,0-1.583-0.246-2.082-0.754c-0.507-0.51-0.788-1.221-0.788-2.09v-2.842
				c0-0.902,0.28-1.581,0.788-2.104c0.495-0.515,1.215-0.756,2.082-0.756h39.388c0.882,0,1.589,0.241,2.099,0.756
				c0.486,0.523,0.751,1.202,0.751,2.104v2.842c0,0.869-0.265,1.571-0.751,2.09c-0.51,0.508-1.217,0.754-2.099,0.754h-14.24
				c-0.636,0-0.936,0.328-0.936,0.928v52.21c0,0.883-0.255,1.57-0.77,2.096c-0.501,0.51-1.196,0.751-2.103,0.751H1243.6z"/>
			<path fill="#365867" d="M1374.104,267.881c-0.898,0-1.595-0.242-2.118-0.751c-0.491-0.518-0.746-1.213-0.746-2.096v-58.825
				c0-0.902,0.255-1.581,0.746-2.104c0.523-0.515,1.22-0.756,2.118-0.756h3.291c0.891,0,1.596,0.241,2.104,0.756
				c0.507,0.523,0.768,1.202,0.768,2.104v52.176c0,0.627,0.299,0.951,0.949,0.951h25.893c0.882,0,1.564,0.268,2.084,0.773
				c0.508,0.502,0.767,1.202,0.767,2.083v2.841c0,0.883-0.259,1.57-0.767,2.096c-0.508,0.51-1.202,0.751-2.084,0.751H1374.104
				L1374.104,267.881z"/>
			<path fill="#365867" d="M1555.718,267.881c-0.641,0.507-1.344,0.714-2.139,0.668c-0.78-0.067-1.544-0.286-2.234-0.668
				l-27.607-16.142c-0.459-0.236-0.841-0.236-1.208,0c-0.325,0.276-0.574,0.585-0.7,0.958l-3.881,12.92
				c-0.459,1.514-1.554,2.263-3.224,2.263h-4.663c-1.828,0-2.508-0.893-1.988-2.657l18.977-59.325
				c0.306-0.993,0.746-1.676,1.28-2.021c0.536-0.348,1.268-0.521,2.139-0.521h6.65c0.896,0,1.587,0.174,2.144,0.521
				c0.528,0.344,0.953,1.012,1.26,2.021l18.169,56.773c0.406,1.457,0.149,2.606-0.794,3.393L1555.718,267.881z M1534.754,215.413
				c-0.2-0.699-0.505-1.033-0.973-1.033c-0.445,0-0.743,0.34-0.937,1.033l-7.489,25.053c-0.263,0.815-0.309,1.429-0.108,1.849
				c0.199,0.406,0.507,0.741,0.954,0.996l17.835,10.429c0.716,0.454,1.203,0.495,1.527,0.16c0.323-0.361,0.406-0.766,0.29-1.202
				L1534.754,215.413z"/>
			<path fill="#365867" d="M1664.068,255.836c0.638-0.647,1.311-0.921,2.052-0.854c0.713,0.077,1.363,0.345,1.93,0.854
				c0.528,0.448,1.108,0.934,1.716,1.467c0.636,0.546,1.361,1.03,2.186,1.477c0.827,0.433,1.772,0.793,2.844,1.089
				c1.066,0.281,2.308,0.433,3.696,0.433c3.045,0,5.557-0.842,7.5-2.516c1.97-1.669,2.943-3.786,2.943-6.313
				c0-2.835-0.889-5.119-2.604-6.843c-1.735-1.708-4.5-3.479-8.285-5.3c-2.412-1.147-4.589-2.336-6.515-3.622
				c-1.934-1.239-3.588-2.67-4.993-4.246c-1.393-1.577-2.47-3.376-3.191-5.367c-0.712-1.994-1.08-4.286-1.08-6.889
				c0-2.151,0.428-4.233,1.242-6.256c0.82-2.023,2.018-3.799,3.594-5.357c1.579-1.541,3.522-2.783,5.756-3.737
				c2.241-0.967,4.753-1.438,7.529-1.438c3.62,0,6.698,0.696,9.267,2.085c2.559,1.388,4.628,2.871,6.116,4.381
				c1.336,1.308,1.336,2.635,0,3.966l-2.173,2.284c-0.63,0.655-1.217,0.986-1.812,0.999c-0.557,0.035-1.242-0.313-1.996-0.999
				c-0.789-0.744-2.085-1.63-3.799-2.647c-1.699-1.012-3.559-1.528-5.604-1.528c-1.387,0-2.651,0.242-3.846,0.716
				c-1.141,0.487-2.179,1.096-3.023,1.85c-0.855,0.753-1.522,1.649-1.987,2.608c-0.491,0.976-0.716,2.005-0.716,3.074
				c0,1.401,0.198,2.63,0.613,3.717c0.427,1.086,1.028,2.07,1.908,2.984c0.855,0.921,1.964,1.805,3.306,2.606
				c1.364,0.826,3.013,1.64,4.987,2.468c2.576,1.143,4.888,2.339,6.938,3.604c2.015,1.27,3.71,2.666,5.113,4.22
				c1.371,1.551,2.449,3.326,3.186,5.317c0.72,2.004,1.095,4.285,1.095,6.875c0,2.418-0.516,4.681-1.538,6.826
				c-1.02,2.155-2.409,4.044-4.163,5.648c-1.758,1.607-3.858,2.921-6.224,3.885c-2.371,0.972-4.875,1.476-7.546,1.476
				c-4.284,0-7.662-0.64-10.094-1.93c-2.431-1.307-4.581-2.951-6.41-5.006c-0.512-0.486-0.788-1.125-0.868-1.879
				c-0.056-0.753,0.241-1.463,0.868-2.08L1664.068,255.836z"/>
			
				<radialGradient id="SVGID_37_" cx="713.9502" cy="1149.6982" r="640.0898" gradientTransform="matrix(1 0 0 -1 504 764)" gradientUnits="userSpaceOnUse">
				<stop  offset="0" style="stop-color:#4F80C0"/>
				<stop  offset="0.32" style="stop-color:#4D7EBD"/>
				<stop  offset="0.5143" style="stop-color:#4578B5"/>
				<stop  offset="0.675" style="stop-color:#376EA7"/>
				<stop  offset="0.8175" style="stop-color:#256092"/>
				<stop  offset="0.9466" style="stop-color:#0C4D78"/>
				<stop  offset="1" style="stop-color:#00446B"/>
			</radialGradient>
			<path fill="url(#SVGID_37_)" d="M963.263,367.917c0.368,0.356,0.519,0.771,0.484,1.219c-0.037,0.433-0.211,0.811-0.484,1.103
				c-1.19,1.186-2.565,2.213-4.187,3.058c-1.589,0.854-3.631,1.272-6.143,1.272c-1.843,0-3.484-0.312-5.06-0.973
				c-1.537-0.634-2.884-1.542-4.027-2.71c-1.135-1.167-2.008-2.562-2.667-4.213c-0.647-1.643-0.96-3.459-0.96-5.421v-12.195
				c0-1.928,0.306-3.721,0.96-5.358c0.659-1.66,1.532-3.067,2.667-4.214c1.143-1.177,2.49-2.098,4.027-2.752
				c1.56-0.673,3.216-1.001,5.06-1.001c1.218,0,2.331,0.119,3.339,0.367c0.985,0.231,1.896,0.541,2.705,0.915
				c0.821,0.374,1.521,0.795,2.141,1.244c0.615,0.481,1.122,0.92,1.523,1.32c0.773,0.779,0.773,1.569,0,2.322l-1.269,1.276
				c-0.374,0.381-0.735,0.567-1.069,0.584c-0.333,0.015-0.713-0.16-1.161-0.584c-0.493-0.434-1.222-0.953-2.183-1.539
				c-0.996-0.616-2.344-0.898-4.039-0.898c-1.177,0-2.224,0.209-3.128,0.64c-0.92,0.429-1.708,1.008-2.349,1.791
				c-0.641,0.748-1.121,1.63-1.469,2.635c-0.326,1.023-0.493,2.117-0.493,3.267v12.191c0,2.514,0.652,4.501,1.962,6.039
				c1.314,1.536,3.153,2.3,5.477,2.3c1.628,0,3.009-0.3,4.133-0.913c1.14-0.601,2.033-1.235,2.756-1.859
				c0.329-0.311,0.709-0.466,1.135-0.504c0.428-0.041,0.835,0.148,1.188,0.504L963.263,367.917z"/>
			
				<radialGradient id="SVGID_38_" cx="713.9316" cy="1149.3398" r="639.812" gradientTransform="matrix(1 0 0 -1 504 764)" gradientUnits="userSpaceOnUse">
				<stop  offset="0" style="stop-color:#4F80C0"/>
				<stop  offset="0.32" style="stop-color:#4D7EBD"/>
				<stop  offset="0.5143" style="stop-color:#4578B5"/>
				<stop  offset="0.675" style="stop-color:#376EA7"/>
				<stop  offset="0.8175" style="stop-color:#256092"/>
				<stop  offset="0.9466" style="stop-color:#0C4D78"/>
				<stop  offset="1" style="stop-color:#00446B"/>
			</radialGradient>
			<path fill="url(#SVGID_38_)" d="M980.995,374.568c-1.802,0-3.49-0.327-5.079-1.022c-1.557-0.685-2.946-1.613-4.12-2.79
				c-1.182-1.199-2.13-2.571-2.805-4.141c-0.702-1.566-1.021-3.282-1.021-5.061c0-1.843,0.319-3.526,1.021-5.086
				c0.674-1.576,1.608-2.954,2.805-4.135c1.173-1.18,2.563-2.117,4.12-2.795c1.583-0.696,3.271-1.022,5.079-1.022
				c1.838,0,3.522,0.334,5.087,1.022c1.583,0.69,2.947,1.615,4.148,2.795c1.172,1.182,2.11,2.56,2.778,4.135
				c0.699,1.561,1.04,3.249,1.04,5.086c0,1.779-0.345,3.495-1.04,5.061c-0.668,1.569-1.606,2.953-2.778,4.141
				c-1.201,1.176-2.565,2.111-4.148,2.79C984.517,374.241,982.833,374.568,980.995,374.568z M980.995,369.847
				c1.163,0,2.23-0.211,3.199-0.651c1-0.442,1.836-1.028,2.551-1.782c0.726-0.743,1.289-1.637,1.709-2.633
				c0.408-1.028,0.611-2.103,0.611-3.252c0-1.147-0.203-2.242-0.611-3.25c-0.421-1.022-0.975-1.893-1.709-2.642
				c-0.708-0.745-1.542-1.354-2.551-1.772c-0.969-0.461-2.037-0.684-3.199-0.684c-1.146,0-2.194,0.214-3.19,0.684
				c-0.968,0.419-1.822,1.021-2.549,1.772c-0.715,0.736-1.291,1.62-1.689,2.642c-0.417,0.99-0.616,2.102-0.616,3.25
				c0,1.149,0.199,2.219,0.616,3.252c0.399,0.996,0.975,1.878,1.689,2.633c0.728,0.74,1.582,1.333,2.549,1.782
				C978.813,369.636,979.848,369.847,980.995,369.847z"/>
			
				<radialGradient id="SVGID_39_" cx="714.0029" cy="1149.46" r="639.9183" gradientTransform="matrix(1 0 0 -1 504 764)" gradientUnits="userSpaceOnUse">
				<stop  offset="0" style="stop-color:#4F80C0"/>
				<stop  offset="0.32" style="stop-color:#4D7EBD"/>
				<stop  offset="0.5143" style="stop-color:#4578B5"/>
				<stop  offset="0.675" style="stop-color:#376EA7"/>
				<stop  offset="0.8175" style="stop-color:#256092"/>
				<stop  offset="0.9466" style="stop-color:#0C4D78"/>
				<stop  offset="1" style="stop-color:#00446B"/>
			</radialGradient>
			<path fill="url(#SVGID_39_)" d="M1029.557,374.015c-0.501,0-0.909-0.16-1.202-0.442c-0.323-0.288-0.457-0.694-0.457-1.212
				v-14.436c0-0.59-0.091-1.165-0.274-1.71c-0.19-0.556-0.47-1.071-0.839-1.507c-0.381-0.448-0.841-0.804-1.408-1.083
				c-0.589-0.279-1.271-0.42-2.098-0.42c-0.804,0-1.496,0.141-2.055,0.42c-0.588,0.279-1.068,0.635-1.415,1.083
				c-0.387,0.431-0.668,0.951-0.832,1.507c-0.163,0.545-0.235,1.12-0.235,1.71v14.436c0,0.518-0.151,0.924-0.441,1.212
				c-0.324,0.283-0.709,0.442-1.209,0.442h-1.663c-0.542,0-0.928-0.16-1.244-0.442c-0.294-0.288-0.447-0.694-0.447-1.212v-14.436
				c0-0.59-0.078-1.165-0.273-1.71c-0.17-0.556-0.453-1.071-0.813-1.507c-0.391-0.448-0.856-0.804-1.429-1.083
				c-0.56-0.279-1.235-0.42-2.022-0.42c-0.772,0-1.463,0.141-2.051,0.42c-0.588,0.279-1.075,0.635-1.448,1.083
				c-0.368,0.431-0.634,0.951-0.83,1.507c-0.18,0.545-0.286,1.12-0.286,1.71v14.436c0,0.518-0.158,0.924-0.442,1.212
				c-0.293,0.283-0.699,0.442-1.236,0.442h-1.662c-0.504,0-0.899-0.16-1.207-0.442c-0.3-0.288-0.449-0.694-0.449-1.212v-14.436
				c0-1.322,0.219-2.578,0.702-3.753c0.475-1.159,1.116-2.154,1.95-2.984c0.833-0.833,1.815-1.494,3.009-1.983
				c1.203-0.452,2.511-0.708,3.95-0.708c1.401,0,2.66,0.257,3.755,0.787c1.056,0.487,1.991,1.064,2.751,1.698
				c0.347,0.333,0.695,0.333,1.03,0c0.699-0.695,1.616-1.287,2.696-1.779c1.108-0.466,2.377-0.715,3.845-0.715
				c1.47,0,2.747,0.25,3.967,0.715c1.174,0.487,2.164,1.146,3.013,1.981c0.84,0.821,1.475,1.831,1.942,2.99
				c0.466,1.162,0.693,2.42,0.693,3.739v14.437c0,0.526-0.132,0.938-0.446,1.216c-0.276,0.292-0.702,0.446-1.209,0.446h-1.682
				V374.015z"/>
			
				<radialGradient id="SVGID_40_" cx="714.0864" cy="1149.4893" r="639.9543" gradientTransform="matrix(1 0 0 -1 504 764)" gradientUnits="userSpaceOnUse">
				<stop  offset="0" style="stop-color:#4F80C0"/>
				<stop  offset="0.32" style="stop-color:#4D7EBD"/>
				<stop  offset="0.5143" style="stop-color:#4578B5"/>
				<stop  offset="0.675" style="stop-color:#376EA7"/>
				<stop  offset="0.8175" style="stop-color:#256092"/>
				<stop  offset="0.9466" style="stop-color:#0C4D78"/>
				<stop  offset="1" style="stop-color:#00446B"/>
			</radialGradient>
			<path fill="url(#SVGID_40_)" d="M1054.819,350.714c0-0.524,0.144-0.935,0.441-1.237c0.296-0.277,0.709-0.433,1.245-0.433h1.643
				c0.531,0,0.917,0.145,1.212,0.433c0.323,0.303,0.465,0.713,0.465,1.237v13.866c0,1.346-0.269,2.612-0.742,3.823
				c-0.482,1.238-1.135,2.298-2.017,3.203c-0.87,0.923-1.924,1.633-3.161,2.158c-1.248,0.547-2.644,0.803-4.199,0.803
				c-1.562,0-2.944-0.256-4.17-0.803c-1.25-0.525-2.32-1.247-3.201-2.158c-0.879-0.905-1.571-1.965-2.043-3.203
				c-0.493-1.211-0.733-2.472-0.733-3.823v-13.866c0-0.524,0.144-0.935,0.455-1.237c0.279-0.277,0.705-0.433,1.198-0.433h1.67
				c0.515,0,0.937,0.145,1.236,0.433c0.289,0.303,0.448,0.713,0.448,1.237v13.866c0,1.419,0.389,2.653,1.243,3.693
				c0.812,1.06,2.129,1.574,3.898,1.574c1.776,0,3.093-0.515,3.894-1.574c0.826-1.04,1.219-2.274,1.219-3.693V350.714z"/>
			
				<radialGradient id="SVGID_41_" cx="713.9678" cy="1149.377" r="639.8438" gradientTransform="matrix(1 0 0 -1 504 764)" gradientUnits="userSpaceOnUse">
				<stop  offset="0" style="stop-color:#4F80C0"/>
				<stop  offset="0.32" style="stop-color:#4D7EBD"/>
				<stop  offset="0.5143" style="stop-color:#4578B5"/>
				<stop  offset="0.675" style="stop-color:#376EA7"/>
				<stop  offset="0.8175" style="stop-color:#256092"/>
				<stop  offset="0.9466" style="stop-color:#0C4D78"/>
				<stop  offset="1" style="stop-color:#00446B"/>
			</radialGradient>
			<path fill="url(#SVGID_41_)" d="M1083.68,374.015c-0.525,0-0.937-0.16-1.22-0.442c-0.29-0.288-0.458-0.694-0.458-1.212v-13.863
				c0-1.394-0.407-2.646-1.301-3.686c-0.855-1.06-2.163-1.601-3.954-1.601c-1.778,0-3.096,0.541-3.979,1.601
				c-0.856,1.041-1.31,2.292-1.31,3.686v13.863c0,0.518-0.133,0.924-0.427,1.212c-0.31,0.283-0.706,0.442-1.241,0.442h-1.65
				c-0.52,0-0.936-0.16-1.222-0.442c-0.307-0.288-0.441-0.694-0.441-1.212v-13.863c0-1.333,0.245-2.628,0.746-3.846
				c0.51-1.229,1.19-2.268,2.056-3.178c0.91-0.922,1.981-1.643,3.234-2.174c1.265-0.523,2.672-0.792,4.232-0.792
				c1.555,0,2.953,0.269,4.204,0.792c1.271,0.531,2.338,1.26,3.234,2.174c0.88,0.91,1.575,1.949,2.069,3.178
				c0.509,1.229,0.748,2.513,0.748,3.846v13.863c0,0.518-0.153,0.924-0.435,1.212c-0.293,0.283-0.712,0.442-1.235,0.442H1083.68z"/>
			
				<radialGradient id="SVGID_42_" cx="714.0273" cy="1149.5029" r="639.9579" gradientTransform="matrix(1 0 0 -1 504 764)" gradientUnits="userSpaceOnUse">
				<stop  offset="0" style="stop-color:#4F80C0"/>
				<stop  offset="0.32" style="stop-color:#4D7EBD"/>
				<stop  offset="0.5143" style="stop-color:#4578B5"/>
				<stop  offset="0.675" style="stop-color:#376EA7"/>
				<stop  offset="0.8175" style="stop-color:#256092"/>
				<stop  offset="0.9466" style="stop-color:#0C4D78"/>
				<stop  offset="1" style="stop-color:#00446B"/>
			</radialGradient>
			<path fill="url(#SVGID_42_)" d="M1095.882,345.172c-0.52,0-0.919-0.162-1.215-0.441c-0.301-0.309-0.441-0.722-0.441-1.237v-2.771
				c0-0.52,0.14-0.922,0.441-1.222c0.295-0.305,0.695-0.434,1.215-0.434h1.673c0.513,0,0.918,0.134,1.213,0.434
				c0.305,0.3,0.452,0.703,0.452,1.222v2.771c0,0.509-0.147,0.928-0.452,1.237c-0.295,0.279-0.701,0.441-1.213,0.441H1095.882z
				 M1095.882,374.015c-0.52,0-0.919-0.16-1.215-0.442c-0.301-0.288-0.441-0.694-0.441-1.212v-21.646
				c0-0.524,0.14-0.935,0.441-1.237c0.295-0.277,0.695-0.433,1.215-0.433h1.673c0.513,0,0.918,0.145,1.213,0.433
				c0.305,0.303,0.452,0.713,0.452,1.237v21.646c0,0.518-0.147,0.924-0.452,1.212c-0.295,0.283-0.701,0.442-1.213,0.442H1095.882z"
				/>
			
				<radialGradient id="SVGID_43_" cx="714.0459" cy="1149.5293" r="639.9837" gradientTransform="matrix(1 0 0 -1 504 764)" gradientUnits="userSpaceOnUse">
				<stop  offset="0" style="stop-color:#4F80C0"/>
				<stop  offset="0.32" style="stop-color:#4D7EBD"/>
				<stop  offset="0.5143" style="stop-color:#4578B5"/>
				<stop  offset="0.675" style="stop-color:#376EA7"/>
				<stop  offset="0.8175" style="stop-color:#256092"/>
				<stop  offset="0.9466" style="stop-color:#0C4D78"/>
				<stop  offset="1" style="stop-color:#00446B"/>
			</radialGradient>
			<path fill="url(#SVGID_43_)" d="M1115.594,374.015c-1.458,0-2.766-0.227-3.968-0.71c-1.228-0.487-2.237-1.159-3.083-1.971
				c-0.864-0.831-1.512-1.832-1.97-2.994c-0.461-1.173-0.702-2.414-0.702-3.759v-6.097c0-1.331,0.241-2.588,0.715-3.752
				c0.487-1.172,1.148-2.156,1.988-2.997c0.829-0.838,1.824-1.491,2.986-1.989c1.146-0.463,2.431-0.701,3.806-0.701h5.496
				c0.382,0,0.547-0.193,0.547-0.559v-10.553c0-0.521,0.153-0.92,0.433-1.213c0.306-0.312,0.721-0.434,1.234-0.434h1.679
				c0.505,0,0.9,0.129,1.227,0.434c0.286,0.293,0.442,0.692,0.442,1.213v34.415c0,0.521-0.157,0.919-0.442,1.216
				c-0.326,0.281-0.722,0.438-1.227,0.438h-9.161V374.015z M1121.409,354.3c0-0.348-0.165-0.548-0.547-0.548h-5.268
				c-1.43,0-2.566,0.448-3.419,1.322c-0.881,0.877-1.317,2.024-1.317,3.418v6.088c0,1.419,0.483,2.566,1.397,3.413
				c0.933,0.868,2.049,1.307,3.339,1.307h5.273c0.376,0,0.548-0.175,0.548-0.547V354.3H1121.409z"/>
			
				<radialGradient id="SVGID_44_" cx="714.0078" cy="1149.4893" r="639.9387" gradientTransform="matrix(1 0 0 -1 504 764)" gradientUnits="userSpaceOnUse">
				<stop  offset="0" style="stop-color:#4F80C0"/>
				<stop  offset="0.32" style="stop-color:#4D7EBD"/>
				<stop  offset="0.5143" style="stop-color:#4578B5"/>
				<stop  offset="0.675" style="stop-color:#376EA7"/>
				<stop  offset="0.8175" style="stop-color:#256092"/>
				<stop  offset="0.9466" style="stop-color:#0C4D78"/>
				<stop  offset="1" style="stop-color:#00446B"/>
			</radialGradient>
			<path fill="url(#SVGID_44_)" d="M1150.271,374.015c-0.52,0-0.928-0.16-1.213-0.492c-0.308-0.332-0.439-0.71-0.439-1.109
				c0-0.207-0.097-0.35-0.256-0.42c-0.17-0.055-0.334,0.003-0.481,0.207c-0.501,0.694-1.282,1.267-2.302,1.728
				c-1.021,0.434-2.257,0.64-3.688,0.64c-1.287,0-2.477-0.229-3.542-0.713c-1.073-0.48-2.007-1.162-2.786-2.041
				c-0.787-0.909-1.392-1.967-1.849-3.212c-0.427-1.232-0.662-2.588-0.662-4.059v-4.95c0-1.444,0.274-2.812,0.781-4.12
				c0.536-1.29,1.249-2.411,2.192-3.345c0.956-0.947,2.054-1.711,3.372-2.243c1.288-0.574,2.716-0.841,4.265-0.841h8.251
				c0.526,0,0.949,0.145,1.245,0.433c0.278,0.303,0.43,0.713,0.43,1.237v21.646c0,0.518-0.152,0.924-0.43,1.212
				c-0.296,0.283-0.719,0.442-1.245,0.442H1150.271z M1148.619,354.3c0-0.348-0.194-0.548-0.576-0.548h-4.173
				c-1.823,0-3.266,0.585-4.279,1.726c-1.019,1.166-1.521,2.519-1.521,4.115v5.498c0,1.405,0.413,2.548,1.246,3.438
				c0.816,0.88,1.978,1.318,3.46,1.318c1.008,0,1.864-0.156,2.59-0.506c0.702-0.375,1.317-0.839,1.797-1.415
				c0.466-0.588,0.827-1.255,1.08-1.969c0.241-0.712,0.361-1.482,0.361-2.256V354.3H1148.619z"/>
			
				<radialGradient id="SVGID_45_" cx="714.0464" cy="1149.5293" r="639.9764" gradientTransform="matrix(1 0 0 -1 504 764)" gradientUnits="userSpaceOnUse">
				<stop  offset="0" style="stop-color:#4F80C0"/>
				<stop  offset="0.32" style="stop-color:#4D7EBD"/>
				<stop  offset="0.5143" style="stop-color:#4578B5"/>
				<stop  offset="0.675" style="stop-color:#376EA7"/>
				<stop  offset="0.8175" style="stop-color:#256092"/>
				<stop  offset="0.9466" style="stop-color:#0C4D78"/>
				<stop  offset="1" style="stop-color:#00446B"/>
			</radialGradient>
			<path fill="url(#SVGID_45_)" d="M1169.421,374.015c-1.455,0-2.75-0.227-3.967-0.71c-1.229-0.487-2.247-1.159-3.064-1.971
				c-0.871-0.831-1.54-1.832-1.997-2.994c-0.464-1.173-0.694-2.414-0.694-3.759v-6.097c0-1.331,0.229-2.588,0.708-3.752
				c0.494-1.172,1.143-2.156,1.997-2.997c0.835-0.838,1.821-1.491,2.983-1.989c1.164-0.463,2.437-0.701,3.828-0.701h5.467
				c0.374,0,0.548-0.193,0.548-0.559v-10.553c0-0.521,0.145-0.92,0.468-1.213c0.281-0.312,0.696-0.434,1.209-0.434h1.674
				c0.507,0,0.901,0.129,1.208,0.434c0.305,0.293,0.463,0.692,0.463,1.213v34.415c0,0.521-0.158,0.919-0.463,1.216
				c-0.307,0.281-0.701,0.438-1.208,0.438h-9.161V374.015z M1175.23,354.3c0-0.348-0.175-0.548-0.548-0.548h-5.273
				c-1.403,0-2.538,0.448-3.406,1.322c-0.869,0.877-1.301,2.024-1.301,3.418v6.088c0,1.419,0.445,2.566,1.389,3.413
				c0.921,0.868,2.028,1.307,3.318,1.307h5.273c0.374,0,0.548-0.175,0.548-0.547V354.3z"/>
			
				<radialGradient id="SVGID_46_" cx="714.0112" cy="1149.2695" r="639.7481" gradientTransform="matrix(1 0 0 -1 504 764)" gradientUnits="userSpaceOnUse">
				<stop  offset="0" style="stop-color:#4F80C0"/>
				<stop  offset="0.32" style="stop-color:#4D7EBD"/>
				<stop  offset="0.5143" style="stop-color:#4578B5"/>
				<stop  offset="0.675" style="stop-color:#376EA7"/>
				<stop  offset="0.8175" style="stop-color:#256092"/>
				<stop  offset="0.9466" style="stop-color:#0C4D78"/>
				<stop  offset="1" style="stop-color:#00446B"/>
			</radialGradient>
			<path fill="url(#SVGID_46_)" d="M1204.928,368.579c0.321,0.335,0.493,0.71,0.474,1.112c-0.027,0.414-0.167,0.806-0.474,1.173
				c-0.733,0.934-1.824,1.765-3.257,2.545c-1.448,0.781-3.152,1.159-5.167,1.159c-1.559,0-2.951-0.229-4.203-0.737
				c-1.247-0.51-2.295-1.202-3.182-2.073c-0.895-0.894-1.587-1.936-2.056-3.124c-0.475-1.177-0.728-2.423-0.728-3.775v-6.547
				c0-1.323,0.226-2.585,0.65-3.801c0.43-1.208,1.059-2.244,1.893-3.144c0.821-0.865,1.843-1.588,3.058-2.086
				c1.174-0.53,2.552-0.787,4.105-0.787c1.569,0,2.97,0.257,4.183,0.787c1.212,0.487,2.276,1.221,3.117,2.086
				c0.872,0.899,1.542,1.936,2.016,3.144c0.467,1.215,0.681,2.466,0.681,3.801v3.339c0,0.496-0.134,0.922-0.427,1.21
				c-0.31,0.292-0.716,0.455-1.23,0.455h-12.485c-0.375,0-0.56,0.175-0.56,0.536v1.001c0,1.401,0.415,2.597,1.247,3.549
				c0.842,0.965,2.143,1.444,3.922,1.444c1.4,0,2.506-0.249,3.255-0.748c0.784-0.498,1.381-0.973,1.778-1.406
				c0.427-0.422,0.842-0.6,1.248-0.583c0.386,0.035,0.769,0.189,1.087,0.524L1204.928,368.579z M1201.054,358.312
				c0-1.417-0.387-2.603-1.174-3.605c-0.768-0.993-2.042-1.503-3.847-1.503c-1.733,0-2.948,0.499-3.663,1.503
				c-0.682,1.002-1.035,2.188-1.035,3.605v0.28c0,0.387,0.177,0.547,0.56,0.547h8.586c0.381,0,0.558-0.16,0.558-0.547v-0.28
				H1201.054z"/>
			
				<radialGradient id="SVGID_47_" cx="714.0176" cy="1149.2949" r="639.7702" gradientTransform="matrix(1 0 0 -1 504 764)" gradientUnits="userSpaceOnUse">
				<stop  offset="0" style="stop-color:#4F80C0"/>
				<stop  offset="0.32" style="stop-color:#4D7EBD"/>
				<stop  offset="0.5143" style="stop-color:#4578B5"/>
				<stop  offset="0.675" style="stop-color:#376EA7"/>
				<stop  offset="0.8175" style="stop-color:#256092"/>
				<stop  offset="0.9466" style="stop-color:#0C4D78"/>
				<stop  offset="1" style="stop-color:#00446B"/>
			</radialGradient>
			<path fill="url(#SVGID_47_)" d="M1212.38,368.479c0.614-0.759,1.369-0.736,2.256,0.041c0.409,0.327,0.894,0.644,1.481,0.929
				c0.578,0.269,1.284,0.398,2.078,0.398c0.995,0,1.848-0.206,2.502-0.651c0.667-0.434,0.991-1.022,0.991-1.777
				c0-0.709-0.289-1.321-0.863-1.842c-0.559-0.516-1.635-1.162-3.208-1.937c-0.963-0.486-1.858-0.975-2.647-1.493
				c-0.776-0.536-1.43-1.092-1.977-1.698c-0.536-0.614-0.943-1.299-1.228-2.032c-0.294-0.734-0.442-1.587-0.442-2.603
				c0-1.002,0.174-1.937,0.564-2.845c0.337-0.865,0.866-1.657,1.561-2.31c0.682-0.672,1.522-1.202,2.49-1.604
				c0.996-0.369,2.079-0.56,3.305-0.56c1.471,0,2.804,0.269,3.941,0.816c1.146,0.574,1.989,1.105,2.502,1.668
				c0.291,0.358,0.446,0.775,0.476,1.192c0.011,0.43-0.147,0.797-0.476,1.146l-0.981,1.052c-0.36,0.337-0.688,0.542-1.064,0.646
				c-0.34,0.09-0.714-0.057-1.061-0.423c-0.999-0.941-2.111-1.394-3.337-1.394c-1.097,0-1.857,0.25-2.344,0.733
				c-0.512,0.466-0.766,1.092-0.766,1.869c0,0.741,0.336,1.375,1.053,1.881c0.68,0.521,1.59,1.014,2.67,1.511
				c1.015,0.432,1.965,0.935,2.792,1.427c0.842,0.521,1.542,1.09,2.136,1.704c0.601,0.609,1.042,1.299,1.406,2.076
				c0.335,0.728,0.491,1.614,0.491,2.603c0,1.243-0.24,2.328-0.717,3.258c-0.514,0.95-1.126,1.741-1.926,2.405
				c-0.789,0.639-1.683,1.11-2.71,1.431c-1.024,0.305-2.044,0.465-3.087,0.465c-1.688,0-3.104-0.224-4.231-0.694
				c-1.095-0.459-1.985-1.083-2.646-1.866c-0.3-0.311-0.46-0.709-0.48-1.145c-0.013-0.445,0.16-0.835,0.48-1.176L1212.38,368.479z"
				/>
			
				<radialGradient id="SVGID_48_" cx="714.0161" cy="1149.2695" r="639.7538" gradientTransform="matrix(1 0 0 -1 504 764)" gradientUnits="userSpaceOnUse">
				<stop  offset="0" style="stop-color:#4F80C0"/>
				<stop  offset="0.32" style="stop-color:#4D7EBD"/>
				<stop  offset="0.5143" style="stop-color:#4578B5"/>
				<stop  offset="0.675" style="stop-color:#376EA7"/>
				<stop  offset="0.8175" style="stop-color:#256092"/>
				<stop  offset="0.9466" style="stop-color:#0C4D78"/>
				<stop  offset="1" style="stop-color:#00446B"/>
			</radialGradient>
			<path fill="url(#SVGID_48_)" d="M1265.706,368.579c0.342,0.335,0.482,0.71,0.475,1.112c-0.025,0.414-0.165,0.806-0.475,1.173
				c-0.741,0.934-1.835,1.765-3.277,2.545c-1.436,0.781-3.158,1.159-5.172,1.159c-1.537,0-2.925-0.229-4.169-0.737
				c-1.262-0.51-2.31-1.202-3.2-2.073c-0.885-0.894-1.574-1.936-2.047-3.124c-0.478-1.177-0.73-2.423-0.73-3.775v-6.547
				c0-1.323,0.207-2.585,0.632-3.801c0.433-1.208,1.078-2.244,1.886-3.144c0.857-0.865,1.858-1.588,3.065-2.086
				c1.196-0.53,2.583-0.787,4.12-0.787c1.576,0,2.939,0.257,4.18,0.787c1.215,0.487,2.255,1.221,3.14,2.086
				c0.849,0.899,1.533,1.936,1.989,3.144c0.467,1.215,0.707,2.466,0.707,3.801v3.339c0,0.496-0.152,0.922-0.438,1.21
				c-0.304,0.292-0.696,0.455-1.231,0.455h-12.478c-0.394,0-0.569,0.175-0.569,0.536v1.001c0,1.401,0.428,2.597,1.252,3.549
				c0.825,0.965,2.14,1.444,3.896,1.444c1.422,0,2.493-0.249,3.294-0.748c0.787-0.498,1.346-0.973,1.779-1.406
				c0.381-0.422,0.811-0.6,1.203-0.583c0.435,0.035,0.787,0.189,1.135,0.524L1265.706,368.579z M1261.827,358.312
				c0-1.417-0.393-2.603-1.182-3.605c-0.787-0.993-2.044-1.503-3.832-1.503c-1.736,0-2.976,0.499-3.646,1.503
				c-0.697,1.002-1.063,2.188-1.063,3.605v0.28c0,0.387,0.168,0.547,0.567,0.547h8.601c0.373,0,0.555-0.16,0.555-0.547V358.312z"/>
			
				<radialGradient id="SVGID_49_" cx="713.9932" cy="1149.377" r="639.848" gradientTransform="matrix(1 0 0 -1 504 764)" gradientUnits="userSpaceOnUse">
				<stop  offset="0" style="stop-color:#4F80C0"/>
				<stop  offset="0.32" style="stop-color:#4D7EBD"/>
				<stop  offset="0.5143" style="stop-color:#4578B5"/>
				<stop  offset="0.675" style="stop-color:#376EA7"/>
				<stop  offset="0.8175" style="stop-color:#256092"/>
				<stop  offset="0.9466" style="stop-color:#0C4D78"/>
				<stop  offset="1" style="stop-color:#00446B"/>
			</radialGradient>
			<path fill="url(#SVGID_49_)" d="M1290.132,374.015c-0.521,0-0.928-0.16-1.218-0.442c-0.307-0.288-0.438-0.694-0.438-1.212
				v-13.863c0-1.394-0.45-2.646-1.318-3.686c-0.866-1.06-2.199-1.601-3.971-1.601c-1.749,0-3.088,0.541-3.972,1.601
				c-0.857,1.041-1.291,2.292-1.291,3.686v13.863c0,0.518-0.147,0.924-0.447,1.212c-0.286,0.283-0.701,0.442-1.208,0.442h-1.669
				c-0.512,0-0.936-0.16-1.215-0.442c-0.308-0.288-0.443-0.694-0.443-1.212v-13.863c0-1.333,0.24-2.628,0.723-3.846
				c0.522-1.229,1.202-2.268,2.108-3.178c0.872-0.922,1.966-1.643,3.22-2.174c1.257-0.523,2.67-0.792,4.202-0.792
				c1.567,0,2.983,0.269,4.212,0.792c1.284,0.531,2.354,1.26,3.237,2.174c0.874,0.91,1.583,1.949,2.091,3.178
				c0.484,1.229,0.747,2.513,0.747,3.846v13.863c0,0.518-0.176,0.924-0.469,1.212c-0.278,0.283-0.7,0.442-1.206,0.442H1290.132z"/>
			
				<radialGradient id="SVGID_50_" cx="714.019" cy="1149.5547" r="639.9977" gradientTransform="matrix(1 0 0 -1 504 764)" gradientUnits="userSpaceOnUse">
				<stop  offset="0" style="stop-color:#4F80C0"/>
				<stop  offset="0.32" style="stop-color:#4D7EBD"/>
				<stop  offset="0.5143" style="stop-color:#4578B5"/>
				<stop  offset="0.675" style="stop-color:#376EA7"/>
				<stop  offset="0.8175" style="stop-color:#256092"/>
				<stop  offset="0.9466" style="stop-color:#0C4D78"/>
				<stop  offset="1" style="stop-color:#00446B"/>
			</radialGradient>
			<path fill="url(#SVGID_50_)" d="M1343.679,374.015c-0.509,0-0.922-0.16-1.229-0.442c-0.286-0.288-0.427-0.694-0.427-1.212
				v-25.708c0-0.326-0.126-0.547-0.321-0.658c-0.251-0.105-0.426,0.044-0.559,0.443l-5.624,15.814
				c-0.358,1.001-1.02,1.501-2.001,1.501h-3.532c-0.982,0-1.636-0.5-2.024-1.501l-5.593-15.814
				c-0.145-0.333-0.336-0.505-0.563-0.505c-0.216,0-0.348,0.254-0.348,0.714v25.7c0,0.526-0.113,0.938-0.415,1.216
				c-0.306,0.292-0.708,0.446-1.24,0.446h-1.932c-0.521,0-0.94-0.154-1.235-0.446c-0.292-0.278-0.438-0.69-0.438-1.216v-34.399
				c0-0.531,0.146-0.936,0.438-1.229c0.295-0.305,0.714-0.429,1.235-0.429h4.887c0.504,0,0.917,0.117,1.242,0.355
				c0.265,0.229,0.484,0.554,0.638,0.97l6.584,19.374c0.07,0.373,0.264,0.545,0.506,0.521c0.247-0.029,0.421-0.189,0.571-0.521
				l6.547-19.374c0.158-0.417,0.385-0.728,0.666-0.97c0.314-0.238,0.722-0.355,1.235-0.355h4.875c0.526,0,0.929,0.136,1.232,0.429
				c0.295,0.293,0.443,0.699,0.443,1.229v34.399c0,0.526-0.148,0.938-0.443,1.216c-0.304,0.292-0.706,0.446-1.232,0.446h-1.943
				V374.015z"/>
			
				<radialGradient id="SVGID_51_" cx="714.0132" cy="1149.3398" r="639.821" gradientTransform="matrix(1 0 0 -1 504 764)" gradientUnits="userSpaceOnUse">
				<stop  offset="0" style="stop-color:#4F80C0"/>
				<stop  offset="0.32" style="stop-color:#4D7EBD"/>
				<stop  offset="0.5143" style="stop-color:#4578B5"/>
				<stop  offset="0.675" style="stop-color:#376EA7"/>
				<stop  offset="0.8175" style="stop-color:#256092"/>
				<stop  offset="0.9466" style="stop-color:#0C4D78"/>
				<stop  offset="1" style="stop-color:#00446B"/>
			</radialGradient>
			<path fill="url(#SVGID_51_)" d="M1366.432,374.568c-1.808,0-3.494-0.327-5.061-1.022c-1.581-0.685-2.969-1.613-4.139-2.79
				c-1.182-1.199-2.122-2.571-2.8-4.141c-0.67-1.566-1.02-3.282-1.02-5.061c0-1.843,0.355-3.526,1.02-5.086
				c0.678-1.576,1.618-2.954,2.8-4.135c1.176-1.18,2.558-2.117,4.139-2.795c1.57-0.696,3.261-1.022,5.061-1.022
				c1.832,0,3.486,0.334,5.076,1.022c1.576,0.69,2.937,1.615,4.142,2.795c1.175,1.182,2.128,2.56,2.803,4.135
				c0.686,1.561,1.022,3.249,1.022,5.086c0,1.779-0.345,3.495-1.022,5.061c-0.681,1.569-1.628,2.953-2.803,4.141
				c-1.205,1.176-2.565,2.111-4.142,2.79C1369.918,374.241,1368.248,374.568,1366.432,374.568z M1366.432,369.847
				c1.14,0,2.223-0.211,3.192-0.651c0.997-0.442,1.83-1.028,2.552-1.782c0.718-0.743,1.289-1.637,1.696-2.633
				c0.432-1.028,0.613-2.103,0.613-3.252c0-1.147-0.182-2.242-0.613-3.25c-0.407-1.022-0.979-1.893-1.696-2.642
				c-0.722-0.745-1.562-1.354-2.552-1.772c-0.97-0.461-2.053-0.684-3.192-0.684s-2.202,0.214-3.189,0.684
				c-0.987,0.419-1.832,1.021-2.565,1.772c-0.707,0.736-1.254,1.62-1.674,2.642c-0.424,0.99-0.621,2.102-0.621,3.25
				c0,1.149,0.197,2.219,0.621,3.252c0.42,0.996,0.967,1.878,1.674,2.633c0.733,0.74,1.578,1.333,2.565,1.782
				C1364.229,369.636,1365.292,369.847,1366.432,369.847z"/>
			
				<radialGradient id="SVGID_52_" cx="714.0508" cy="1149.5957" r="640.0252" gradientTransform="matrix(1 0 0 -1 504 764)" gradientUnits="userSpaceOnUse">
				<stop  offset="0" style="stop-color:#4F80C0"/>
				<stop  offset="0.32" style="stop-color:#4D7EBD"/>
				<stop  offset="0.5143" style="stop-color:#4578B5"/>
				<stop  offset="0.675" style="stop-color:#376EA7"/>
				<stop  offset="0.8175" style="stop-color:#256092"/>
				<stop  offset="0.9466" style="stop-color:#0C4D78"/>
				<stop  offset="1" style="stop-color:#00446B"/>
			</radialGradient>
			<path fill="url(#SVGID_52_)" d="M1392.513,374.015c-0.522,0-0.936-0.087-1.254-0.268c-0.282-0.185-0.564-0.606-0.723-1.217
				l-7.613-21.922c-0.186-0.483-0.157-0.882,0.055-1.142c0.22-0.266,0.601-0.422,1.109-0.422h2.067c0.997,0,1.616,0.433,1.87,1.336
				l5.277,16.486c0.107,0.405,0.292,0.585,0.561,0.585c0.218,0,0.424-0.181,0.547-0.585l5.274-16.486
				c0.261-0.908,0.869-1.336,1.869-1.336h2.058c0.519,0,0.889,0.145,1.12,0.422c0.203,0.259,0.227,0.658,0.053,1.142l-7.604,21.922
				c-0.169,0.611-0.436,1.016-0.755,1.217c-0.307,0.181-0.708,0.268-1.243,0.268H1392.513z"/>
			
				<radialGradient id="SVGID_53_" cx="714.0767" cy="1149.5029" r="639.9504" gradientTransform="matrix(1 0 0 -1 504 764)" gradientUnits="userSpaceOnUse">
				<stop  offset="0" style="stop-color:#4F80C0"/>
				<stop  offset="0.32" style="stop-color:#4D7EBD"/>
				<stop  offset="0.5143" style="stop-color:#4578B5"/>
				<stop  offset="0.675" style="stop-color:#376EA7"/>
				<stop  offset="0.8175" style="stop-color:#256092"/>
				<stop  offset="0.9466" style="stop-color:#0C4D78"/>
				<stop  offset="1" style="stop-color:#00446B"/>
			</radialGradient>
			<path fill="url(#SVGID_53_)" d="M1411.543,345.172c-0.517,0-0.897-0.162-1.218-0.441c-0.284-0.309-0.443-0.722-0.443-1.237
				v-2.771c0-0.52,0.159-0.922,0.443-1.222c0.32-0.305,0.701-0.434,1.218-0.434h1.669c0.521,0,0.946,0.134,1.225,0.434
				c0.283,0.3,0.445,0.703,0.445,1.222v2.771c0,0.509-0.162,0.928-0.445,1.237c-0.278,0.279-0.704,0.441-1.225,0.441H1411.543z
				 M1411.543,374.015c-0.517,0-0.897-0.16-1.218-0.442c-0.284-0.288-0.443-0.694-0.443-1.212v-21.646
				c0-0.524,0.159-0.935,0.443-1.237c0.32-0.277,0.701-0.433,1.218-0.433h1.669c0.521,0,0.946,0.145,1.225,0.433
				c0.283,0.303,0.445,0.713,0.445,1.237v21.646c0,0.518-0.162,0.924-0.445,1.212c-0.278,0.283-0.704,0.442-1.225,0.442H1411.543z"
				/>
			
				<radialGradient id="SVGID_54_" cx="714.0762" cy="1149.46" r="639.912" gradientTransform="matrix(1 0 0 -1 504 764)" gradientUnits="userSpaceOnUse">
				<stop  offset="0" style="stop-color:#4F80C0"/>
				<stop  offset="0.32" style="stop-color:#4D7EBD"/>
				<stop  offset="0.5143" style="stop-color:#4578B5"/>
				<stop  offset="0.675" style="stop-color:#376EA7"/>
				<stop  offset="0.8175" style="stop-color:#256092"/>
				<stop  offset="0.9466" style="stop-color:#0C4D78"/>
				<stop  offset="1" style="stop-color:#00446B"/>
			</radialGradient>
			<path fill="url(#SVGID_54_)" d="M1452.067,374.015c-0.514,0-0.935-0.16-1.238-0.442c-0.279-0.288-0.431-0.694-0.431-1.212
				v-14.436c0-0.59-0.09-1.165-0.298-1.71c-0.154-0.556-0.438-1.071-0.81-1.507c-0.367-0.448-0.838-0.804-1.423-1.083
				c-0.561-0.279-1.262-0.42-2.075-0.42c-0.827,0-1.523,0.141-2.083,0.42c-0.585,0.279-1.041,0.635-1.414,1.083
				c-0.376,0.431-0.634,0.951-0.804,1.507c-0.174,0.545-0.24,1.12-0.24,1.71v14.436c0,0.518-0.145,0.924-0.439,1.212
				c-0.302,0.283-0.706,0.442-1.231,0.442h-1.658c-0.516,0-0.93-0.16-1.237-0.442c-0.294-0.288-0.432-0.694-0.432-1.212v-14.436
				c0-0.59-0.097-1.165-0.264-1.71c-0.198-0.556-0.48-1.071-0.839-1.507c-0.38-0.448-0.857-0.804-1.417-1.083
				c-0.573-0.279-1.243-0.42-2.042-0.42c-0.775,0-1.456,0.141-2.05,0.42c-0.58,0.279-1.062,0.635-1.445,1.083
				c-0.345,0.431-0.64,0.951-0.825,1.507c-0.194,0.545-0.286,1.12-0.286,1.71v14.436c0,0.518-0.134,0.924-0.427,1.212
				c-0.31,0.283-0.717,0.442-1.218,0.442h-1.694c-0.51,0-0.909-0.16-1.215-0.442c-0.296-0.288-0.429-0.694-0.429-1.212v-14.436
				c0-1.322,0.24-2.578,0.688-3.753c0.445-1.159,1.104-2.154,1.956-2.984c0.82-0.833,1.856-1.494,3.005-1.983
				c1.201-0.452,2.504-0.708,3.939-0.708c1.407,0,2.658,0.257,3.752,0.787c1.088,0.487,2.016,1.064,2.737,1.698
				c0.372,0.333,0.719,0.333,1.062,0c0.695-0.695,1.596-1.287,2.714-1.779c1.078-0.466,2.367-0.715,3.836-0.715
				c1.432,0,2.753,0.25,3.94,0.715c1.175,0.487,2.188,1.146,3.022,1.981c0.831,0.821,1.478,1.831,1.91,2.99
				c0.502,1.162,0.702,2.42,0.702,3.739v14.437c0,0.526-0.109,0.938-0.424,1.216c-0.289,0.292-0.711,0.446-1.235,0.446h-1.642
				V374.015z"/>
			
				<radialGradient id="SVGID_55_" cx="713.6782" cy="1149.5029" r="640.0524" gradientTransform="matrix(1 0 0 -1 504 764)" gradientUnits="userSpaceOnUse">
				<stop  offset="0" style="stop-color:#4F80C0"/>
				<stop  offset="0.32" style="stop-color:#4D7EBD"/>
				<stop  offset="0.5143" style="stop-color:#4578B5"/>
				<stop  offset="0.675" style="stop-color:#376EA7"/>
				<stop  offset="0.8175" style="stop-color:#256092"/>
				<stop  offset="0.9466" style="stop-color:#0C4D78"/>
				<stop  offset="1" style="stop-color:#00446B"/>
			</radialGradient>
			<path fill="url(#SVGID_55_)" d="M1464.264,345.172c-0.511,0-0.924-0.162-1.206-0.441c-0.32-0.309-0.447-0.722-0.447-1.237v-2.771
				c0-0.52,0.136-0.922,0.447-1.222c0.282-0.305,0.695-0.434,1.206-0.434h1.666c0.508,0,0.942,0.134,1.25,0.434
				c0.278,0.3,0.435,0.703,0.435,1.222v2.771c0,0.509-0.147,0.928-0.435,1.237c-0.308,0.279-0.736,0.441-1.25,0.441H1464.264z
				 M1464.264,374.015c-0.511,0-0.924-0.16-1.206-0.442c-0.32-0.288-0.447-0.694-0.447-1.212v-21.646
				c0-0.524,0.136-0.935,0.447-1.237c0.282-0.277,0.695-0.433,1.206-0.433h1.666c0.508,0,0.942,0.145,1.25,0.433
				c0.278,0.303,0.435,0.713,0.435,1.237v21.646c0,0.518-0.147,0.924-0.435,1.212c-0.308,0.283-0.736,0.442-1.25,0.442H1464.264z"/>
			
				<radialGradient id="SVGID_56_" cx="714.1934" cy="1149.2695" r="639.7369" gradientTransform="matrix(1 0 0 -1 504 764)" gradientUnits="userSpaceOnUse">
				<stop  offset="0" style="stop-color:#4F80C0"/>
				<stop  offset="0.32" style="stop-color:#4D7EBD"/>
				<stop  offset="0.5143" style="stop-color:#4578B5"/>
				<stop  offset="0.675" style="stop-color:#376EA7"/>
				<stop  offset="0.8175" style="stop-color:#256092"/>
				<stop  offset="0.9466" style="stop-color:#0C4D78"/>
				<stop  offset="1" style="stop-color:#00446B"/>
			</radialGradient>
			<path fill="url(#SVGID_56_)" d="M1492.854,368.579c0.332,0.335,0.491,0.71,0.479,1.112c-0.028,0.414-0.188,0.806-0.479,1.173
				c-0.737,0.934-1.831,1.765-3.26,2.545c-1.456,0.781-3.179,1.159-5.194,1.159c-1.529,0-2.934-0.229-4.17-0.737
				c-1.26-0.51-2.307-1.202-3.217-2.073c-0.868-0.894-1.554-1.936-2.022-3.124c-0.472-1.177-0.728-2.423-0.728-3.775v-6.547
				c0-1.323,0.213-2.585,0.648-3.801c0.418-1.208,1.061-2.244,1.865-3.144c0.851-0.865,1.86-1.588,3.05-2.086
				c1.22-0.53,2.582-0.787,4.146-0.787c1.554,0,2.943,0.257,4.165,0.787c1.236,0.487,2.255,1.221,3.111,2.086
				c0.867,0.899,1.555,1.936,2.003,3.144c0.468,1.215,0.708,2.466,0.708,3.801v3.339c0,0.496-0.148,0.922-0.462,1.21
				c-0.273,0.292-0.694,0.455-1.199,0.455h-12.486c-0.368,0-0.562,0.175-0.562,0.536v1.001c0,1.401,0.432,2.597,1.234,3.549
				c0.84,0.965,2.157,1.444,3.914,1.444c1.44,0,2.517-0.249,3.298-0.748c0.761-0.498,1.374-0.973,1.762-1.406
				c0.426-0.422,0.821-0.6,1.227-0.583c0.407,0.035,0.777,0.189,1.123,0.524L1492.854,368.579z M1488.978,358.312
				c0-1.417-0.394-2.603-1.174-3.605c-0.787-0.993-2.033-1.503-3.828-1.503c-1.74,0-2.97,0.499-3.657,1.503
				c-0.688,1.007-1.062,2.188-1.062,3.605v0.28c0,0.387,0.193,0.547,0.563,0.547h8.601c0.377,0,0.558-0.16,0.558-0.547V358.312z"/>
			
				<radialGradient id="SVGID_57_" cx="713.8579" cy="1149.377" r="639.9186" gradientTransform="matrix(1 0 0 -1 504 764)" gradientUnits="userSpaceOnUse">
				<stop  offset="0" style="stop-color:#4F80C0"/>
				<stop  offset="0.32" style="stop-color:#4D7EBD"/>
				<stop  offset="0.5143" style="stop-color:#4578B5"/>
				<stop  offset="0.675" style="stop-color:#376EA7"/>
				<stop  offset="0.8175" style="stop-color:#256092"/>
				<stop  offset="0.9466" style="stop-color:#0C4D78"/>
				<stop  offset="1" style="stop-color:#00446B"/>
			</radialGradient>
			<path fill="url(#SVGID_57_)" d="M1517.261,374.015c-0.501,0-0.908-0.16-1.229-0.442c-0.268-0.288-0.419-0.694-0.419-1.212
				v-13.863c0-1.394-0.449-2.646-1.316-3.686c-0.869-1.06-2.177-1.601-3.952-1.601c-1.792,0-3.098,0.541-3.966,1.601
				c-0.885,1.041-1.313,2.292-1.313,3.686v13.863c0,0.518-0.145,0.924-0.448,1.212c-0.287,0.283-0.696,0.442-1.211,0.442h-1.667
				c-0.517,0-0.924-0.16-1.234-0.442c-0.282-0.288-0.443-0.694-0.443-1.212v-13.863c0-1.333,0.262-2.628,0.754-3.846
				c0.487-1.229,1.189-2.268,2.076-3.178c0.895-0.922,1.984-1.643,3.234-2.174c1.262-0.523,2.663-0.792,4.219-0.792
				c1.561,0,2.967,0.269,4.193,0.792c1.267,0.531,2.335,1.26,3.231,2.174c0.907,0.91,1.599,1.949,2.103,3.178
				c0.499,1.229,0.74,2.513,0.74,3.846v13.863c0,0.518-0.145,0.924-0.445,1.212c-0.295,0.283-0.689,0.442-1.224,0.442H1517.261z"/>
			
				<radialGradient id="SVGID_58_" cx="714.0181" cy="1149.5156" r="639.9753" gradientTransform="matrix(1 0 0 -1 504 764)" gradientUnits="userSpaceOnUse">
				<stop  offset="0" style="stop-color:#4F80C0"/>
				<stop  offset="0.32" style="stop-color:#4D7EBD"/>
				<stop  offset="0.5143" style="stop-color:#4578B5"/>
				<stop  offset="0.675" style="stop-color:#376EA7"/>
				<stop  offset="0.8175" style="stop-color:#256092"/>
				<stop  offset="0.9466" style="stop-color:#0C4D78"/>
				<stop  offset="1" style="stop-color:#00446B"/>
			</radialGradient>
			<path fill="url(#SVGID_58_)" d="M1537.332,374.015c-2.778,0-4.859-0.749-6.153-2.257c-1.292-1.529-1.966-3.643-1.966-6.336V354.3
				c0-0.348-0.188-0.548-0.56-0.548h-1.657c-0.521,0-0.922-0.143-1.227-0.434c-0.296-0.305-0.436-0.709-0.436-1.214v-1.389
				c0-0.524,0.14-0.935,0.436-1.237c0.305-0.277,0.705-0.433,1.227-0.433h1.657c0.372,0,0.56-0.186,0.56-0.549v-3.906
				c0-0.505,0.146-0.898,0.439-1.202c0.295-0.299,0.683-0.444,1.201-0.444h1.676c0.523,0,0.957,0.145,1.239,0.444
				c0.292,0.304,0.419,0.696,0.419,1.202v3.906c0,0.363,0.219,0.549,0.574,0.549h4.158c0.521,0,0.94,0.145,1.229,0.433
				c0.31,0.303,0.441,0.713,0.441,1.237v1.389c0,0.505-0.14,0.909-0.441,1.214c-0.288,0.307-0.707,0.434-1.229,0.434h-4.158
				c-0.355,0-0.574,0.201-0.574,0.548v10.834c0,1.31,0.261,2.324,0.786,3.066c0.503,0.729,1.436,1.101,2.853,1.101h1.094
				c0.521,0,0.94,0.142,1.229,0.434c0.31,0.314,0.441,0.687,0.441,1.235v1.377c0,0.526-0.14,0.938-0.441,1.216
				c-0.288,0.292-0.707,0.446-1.229,0.446h-1.588V374.015z"/>
			
				<radialGradient id="SVGID_59_" cx="714.1772" cy="1149.3398" r="639.8007" gradientTransform="matrix(1 0 0 -1 504 764)" gradientUnits="userSpaceOnUse">
				<stop  offset="0" style="stop-color:#4F80C0"/>
				<stop  offset="0.32" style="stop-color:#4D7EBD"/>
				<stop  offset="0.5143" style="stop-color:#4578B5"/>
				<stop  offset="0.675" style="stop-color:#376EA7"/>
				<stop  offset="0.8175" style="stop-color:#256092"/>
				<stop  offset="0.9466" style="stop-color:#0C4D78"/>
				<stop  offset="1" style="stop-color:#00446B"/>
			</radialGradient>
			<path fill="url(#SVGID_59_)" d="M1557.509,374.568c-1.843,0-3.499-0.327-5.086-1.022c-1.564-0.685-2.927-1.613-4.13-2.79
				c-1.199-1.199-2.115-2.571-2.797-4.141c-0.687-1.566-1.015-3.282-1.015-5.061c0-1.843,0.344-3.526,1.015-5.086
				c0.688-1.576,1.598-2.954,2.797-4.135c1.203-1.18,2.565-2.117,4.13-2.795c1.587-0.696,3.257-1.022,5.086-1.022
				c1.831,0,3.512,0.334,5.075,1.022c1.571,0.69,2.977,1.615,4.14,2.795c1.187,1.182,2.129,2.56,2.804,4.135
				c0.681,1.561,1.015,3.249,1.015,5.086c0,1.779-0.334,3.495-1.015,5.061c-0.682,1.569-1.617,2.953-2.804,4.141
				c-1.168,1.176-2.568,2.111-4.14,2.79C1561.021,374.241,1559.34,374.568,1557.509,374.568z M1557.509,369.847
				c1.183,0,2.204-0.211,3.205-0.651c0.976-0.442,1.829-1.028,2.562-1.782c0.711-0.743,1.271-1.637,1.673-2.633
				c0.412-1.028,0.612-2.103,0.612-3.252c0-1.147-0.2-2.242-0.612-3.25c-0.415-1.022-0.962-1.893-1.673-2.642
				c-0.732-0.745-1.586-1.354-2.562-1.772c-1.001-0.461-2.022-0.684-3.205-0.684c-1.145,0-2.203,0.214-3.185,0.684
				c-0.984,0.419-1.822,1.021-2.546,1.772c-0.74,0.736-1.292,1.62-1.715,2.642c-0.407,0.99-0.604,2.102-0.604,3.25
				c0,1.149,0.197,2.219,0.604,3.252c0.423,0.996,0.975,1.878,1.715,2.633c0.724,0.74,1.562,1.333,2.546,1.782
				C1555.306,369.636,1556.364,369.847,1557.509,369.847z"/>
		</g>
	</g>
</g>
</svg>
