<?xml version="1.0" encoding="utf-8"?>
<!-- Generator: Adobe Illustrator 16.0.0, SVG Export Plug-In . SVG Version: 6.00 Build 0)  -->
<!DOCTYPE svg PUBLIC "-//W3C//DTD SVG 1.1//EN" "http://www.w3.org/Graphics/SVG/1.1/DTD/svg11.dtd">
<svg version="1.1" xmlns="http://www.w3.org/2000/svg" xmlns:xlink="http://www.w3.org/1999/xlink" x="0px" y="0px" width="48.99px"
	 height="48.984px" viewBox="0 0 48.99 48.984" enable-background="new 0 0 48.99 48.984" xml:space="preserve">
<g id="Capa_2_1_" display="none">
	<rect y="0" display="inline" fill="#DBD7D7" width="48.99" height="48.984"/>
</g>
<g id="Capa_1" display="none">
	<g id="Capa_2">
		<rect y="0" display="inline" fill="#E2E1E0" width="49" height="49"/>
	</g>
	<path display="inline" fill-rule="evenodd" clip-rule="evenodd" fill="#FFFFFF" d="M24.295,48.592
		c13.423,0,24.304-10.876,24.304-24.296C48.6,10.876,37.719,0,24.295,0C10.88,0,0,10.876,0,24.296
		C0,37.716,10.88,48.592,24.295,48.592L24.295,48.592z"/>
	<path display="inline" fill-rule="evenodd" clip-rule="evenodd" fill="#30BF39" d="M23.977,44.871h0.646
		c11.214-0.171,20.253-9.314,20.253-20.572c0-11.362-9.21-20.574-20.58-20.574c-11.362,0-20.57,9.212-20.57,20.574
		C3.725,35.556,12.762,44.7,23.977,44.871L23.977,44.871z"/>
	<g display="inline">
		<g>
			<path fill="#FFFFFF" d="M42.28,15.68c-1.004,0.565-2.655,1.497-3.902,2.197c0.078-0.036,0.118-0.055,0.118-0.055
				s-0.278,0.175-0.764,0.481c-0.123,0.078-0.258,0.158-0.401,0.254c-0.143,0.1-0.295,0.207-0.458,0.321
				c-0.165,0.114-0.34,0.235-0.521,0.363c-0.18,0.131-0.364,0.278-0.558,0.426c-0.194,0.152-0.398,0.302-0.604,0.469
				c-0.201,0.17-0.408,0.347-0.622,0.527c-0.105,0.091-0.213,0.183-0.321,0.276c-0.105,0.097-0.211,0.198-0.318,0.297
				c-0.214,0.2-0.434,0.401-0.652,0.614c-0.423,0.437-0.87,0.874-1.283,1.358c-0.432,0.467-0.823,0.979-1.228,1.477
				c-0.378,0.521-0.768,1.029-1.105,1.562c-0.358,0.518-0.66,1.059-0.969,1.568c-0.146,0.262-0.28,0.522-0.416,0.775
				c-0.068,0.127-0.134,0.251-0.2,0.374c-0.06,0.127-0.121,0.252-0.179,0.374c-0.117,0.247-0.229,0.488-0.341,0.718
				c-0.106,0.233-0.195,0.465-0.288,0.682c-0.09,0.218-0.183,0.428-0.258,0.628c-0.072,0.198-0.14,0.386-0.204,0.563
				c-0.063,0.174-0.124,0.339-0.179,0.495c-0.055,0.155-0.1,0.312-0.144,0.45c-0.051,0.16-0.094,0.298-0.131,0.418
				c3.464,1.62,7.852,0.292,9.583-3.462c0.476-1.038,0.915-2.226,1.293-3.594c2.709-9.833,5.125-10.558,5.125-10.558
				S42.327,15.68,42.28,15.68"/>
			<path fill="#FFFFFF" d="M21.469,25.624c0.085-0.423,0.198-0.826,0.335-1.212c0.103-0.294,0.22-0.579,0.35-0.854
				c-3.266-6.358-14.995-6.36-15.938-6.35l3.275,1.844c0.114,0.054,0.302,0.142,0.557,0.262c0.108,0.052,0.23,0.105,0.359,0.173
				c0.128,0.067,0.267,0.14,0.415,0.22c0.148,0.078,0.305,0.162,0.471,0.25c0.166,0.09,0.333,0.195,0.512,0.299
				c0.178,0.107,0.366,0.214,0.553,0.333c0.187,0.123,0.38,0.25,0.578,0.381c0.1,0.065,0.2,0.133,0.302,0.199
				c0.098,0.073,0.198,0.146,0.299,0.219c0.202,0.148,0.41,0.296,0.618,0.454c0.403,0.328,0.833,0.657,1.237,1.029
				c0.419,0.355,0.81,0.754,1.213,1.144c0.381,0.409,0.774,0.812,1.125,1.24c0.369,0.413,0.692,0.854,1.017,1.271
				c0.156,0.214,0.302,0.43,0.449,0.639c0.075,0.104,0.146,0.208,0.218,0.31c0.067,0.104,0.134,0.208,0.198,0.312
				c0.13,0.208,0.257,0.408,0.379,0.602c0.119,0.197,0.225,0.391,0.332,0.576c0.104,0.187,0.208,0.36,0.301,0.534
				c0.089,0.179,0.174,0.346,0.254,0.504c0.08,0.158,0.155,0.307,0.224,0.445c0.037,0.078,0.07,0.149,0.101,0.218
				c0.029-0.028,0.06-0.056,0.09-0.087c0.048-0.051,0.096-0.1,0.142-0.148c0.197-0.203,0.369-0.417,0.52-0.633
				c-0.648-1.422-0.67-2.727-0.67-2.727C21.313,26.567,21.376,26.085,21.469,25.624"/>
			<path fill="#FFFFFF" d="M23.022,23.557c-0.131,0.275-0.247,0.56-0.351,0.854c-0.136,0.386-0.249,0.79-0.334,1.212
				c-0.093,0.461-0.156,0.943-0.184,1.447c0,0,0.022,1.305,0.669,2.727c0.271,0.595,0.65,1.207,1.184,1.755
				c0.056,0.059,0.114,0.121,0.172,0.181c0.034,0.036,0.071,0.069,0.107,0.104c0.037-0.082,0.075-0.169,0.121-0.265
				c0.084-0.165,0.173-0.343,0.269-0.532c0.095-0.191,0.198-0.393,0.305-0.604c0.111-0.209,0.235-0.421,0.361-0.644
				c0.127-0.221,0.255-0.457,0.397-0.69c0.146-0.234,0.3-0.475,0.456-0.722c0.078-0.123,0.157-0.248,0.239-0.375
				c0.085-0.123,0.172-0.247,0.261-0.372c0.177-0.252,0.353-0.51,0.54-0.765c0.391-0.502,0.779-1.03,1.22-1.529
				c0.42-0.514,0.894-0.996,1.352-1.488c0.483-0.468,0.952-0.946,1.456-1.375c0.483-0.446,1-0.841,1.484-1.234
				c0.25-0.19,0.501-0.367,0.742-0.544c0.122-0.088,0.239-0.176,0.358-0.262c0.123-0.082,0.244-0.164,0.363-0.241
				c0.237-0.157,0.471-0.311,0.693-0.458c0.226-0.144,0.452-0.271,0.665-0.4c0.214-0.125,0.415-0.25,0.612-0.359
				c0.201-0.106,0.391-0.207,0.568-0.302c0.177-0.094,0.343-0.182,0.495-0.263c0.156-0.08,0.302-0.145,0.433-0.206
				c0.305-0.145,0.531-0.252,0.668-0.316l3.933-2.212C41.136,15.667,26.759,15.671,23.022,23.557"/>
			<path fill="#FFFFFF" d="M19.254,31.154c-0.046-0.125-0.097-0.261-0.149-0.407c-0.053-0.149-0.109-0.306-0.17-0.471
				c-0.063-0.167-0.14-0.341-0.214-0.523c-0.078-0.181-0.152-0.372-0.241-0.568c-0.092-0.191-0.187-0.392-0.283-0.595
				c-0.049-0.103-0.098-0.209-0.149-0.314c-0.055-0.103-0.111-0.206-0.167-0.31c-0.114-0.212-0.225-0.43-0.347-0.648
				c-0.255-0.425-0.508-0.874-0.806-1.305c-0.281-0.444-0.606-0.867-0.92-1.302c-0.338-0.414-0.666-0.842-1.024-1.229
				c-0.344-0.404-0.717-0.769-1.068-1.132c-0.182-0.176-0.366-0.344-0.543-0.512c-0.09-0.083-0.178-0.166-0.265-0.247
				c-0.091-0.078-0.181-0.155-0.269-0.229c-0.178-0.152-0.351-0.298-0.518-0.44c-0.169-0.14-0.339-0.266-0.501-0.391
				c-0.162-0.124-0.315-0.247-0.465-0.355c-0.154-0.107-0.298-0.207-0.434-0.303c-0.137-0.094-0.265-0.184-0.383-0.266
				c-0.12-0.081-0.233-0.148-0.334-0.212c-0.405-0.256-0.638-0.401-0.638-0.401s0.035,0.017,0.1,0.046
				c-1.039-0.583-2.416-1.359-3.252-1.831c-0.038,0.001-0.061,0.001-0.061,0.001s2.013,0.604,4.27,8.796
				c0.313,1.138,0.68,2.13,1.077,2.99c1.442,3.131,5.097,4.235,7.982,2.886c-0.03-0.099-0.066-0.214-0.109-0.35
				C19.338,31.42,19.299,31.288,19.254,31.154"/>
		</g>
	</g>
</g>
<g id="Capa_3">
	<path fill-rule="evenodd" clip-rule="evenodd" fill="#FFFFFF" d="M24.428,48.855c13.496,0,24.436-10.936,24.436-24.428
		S37.924,0,24.428,0C10.938,0,0,10.935,0,24.427S10.938,48.855,24.428,48.855L24.428,48.855z"/>
	<path fill-rule="evenodd" clip-rule="evenodd" fill="#0A819F" d="M24.106,45.115h0.649c11.276-0.174,20.362-9.366,20.362-20.684
		c0-11.424-9.259-20.686-20.69-20.686c-11.424,0-20.682,9.261-20.682,20.686C3.746,35.749,12.832,44.941,24.106,45.115
		L24.106,45.115z"/>
	<path fill="#FBFBFC" d="M13.432,20.855c0.88,0,0.534-0.838,0.187-1.04c-0.346-0.564,0.824-1.126,1.026-1.3
		c0.202-0.173,0.91-0.563,0.866-1.358c-0.014-0.332,1.546,0.361,2.037,0.448c0.491,0.086,1.516,0.072,1.689-0.116
		c0.173-0.188-0.39,2.86,0.621,3.062c1.011,0.203,1.502-0.188,1.256-0.592c-0.245-0.405-0.794-0.304-0.506-1.401
		c0.29-1.098,0.015-1.142,0-1.199c-0.014-0.058,1.531-1.574,1.56-2.282c0.028-0.708-0.23-1.877,0.679-2.253s0.693-0.867,0.664-0.997
		c-0.028-0.129-1.011-0.101-1.011-0.101s-0.1-0.477-0.822-0.477l-0.144-0.52l-0.29,0.303l-0.145-0.39c0,0-1.415,1.792-1.863,2.629
		c-0.448,0.838-2.788,1.069-3.105,1.069s-1.848-0.13-1.285-0.91c0.333-0.246,0.809,0.506,0.852,0.621s1.3,0.289,0.678-1.155
		c-0.621-1.445-2.571-1.56-3.177-0.419c-0.606,1.141,0.318,2.714,0.419,2.801c0,0-1.213,1.184-0.274,2.542
		c0.214,0.356-0.549,0.78-0.694,1.126S12.551,20.855,13.432,20.855z"/>
	<path fill="#FBFBFC" d="M17.183,26.359c0.73-1.364,2.952-2.809,2.952-2.809l0.365-0.73l0.254,0.778l0.381-0.778l0.08,1.08
		c0.413,0.38,0.349,0.889,0.349,0.889l0.333,0.554c0.334,0.621,0.27,1.016,0.27,1.016c-0.555,0.509-0.952-0.063-0.952-0.063
		c-0.35-0.158-0.587-0.523-0.587-0.523c-0.667-0.032-0.667,0.922-0.667,0.922l-0.127,2.713c0,0-0.056-0.597,0.015-0.064
		c0.006,0.037,0.011,0.079,0.018,0.127c0.095,0.745-0.698,1.826-0.698,1.826c-0.159,0.792-0.54,2.253-0.54,2.253
		c-0.095,0.539,0.032,1.556,0.032,1.556c0.317,0.205,0.476,0.808,0.476,0.808c0.033,0.255-0.333,0.159-0.333,0.159
		c0.255,0.143-0.015,0.286-0.015,0.286h-0.793c-0.35-0.017-0.127-0.524-0.127-0.524c-0.174-0.285,0.063-0.698,0.063-0.698
		l-0.031-1.143c-0.254-0.269-0.191-1.588-0.191-1.588c-0.366-0.634-0.159-1.57-0.159-1.57c-1.096,0.381-2.698,0.047-2.698,0.047
		c-0.126,0.636-0.936,1.383-0.936,1.383c-0.508,0.538,0.476,1.426,0.476,1.426c0.524,0.128,0.603,0.923,0.603,0.923
		c0.683,0.634-0.158,0.602-0.158,0.602c-0.889,0-0.651-0.428-0.651-0.428c-0.048-0.207,0.237-0.334,0.237-0.334
		c-0.174-0.158-0.126-0.396-0.126-0.396c-0.254-0.08-1.301-1.063-1.301-1.063c-0.587-0.415,0.254-1.223,0.254-1.223
		c0.206-0.825-0.285-0.747-0.285-0.747c-0.271,0.73-1.477,0.984-1.477,0.984c-0.238,0.048-0.524,0.698-0.524,0.698
		c-0.237,2.001-0.099,1.96,0.318,2.396c0.609,0.643-0.349,0.7-0.349,0.7c-0.984,0-0.476-0.684-0.476-0.684
		c0.174-0.253,0.11-0.381,0.11-0.381c-0.348-0.366-0.126-2.126-0.126-2.126c-0.175-1.017,0.572-1.238,0.572-1.238
		c0.857-0.381,0.65-1.064,0.65-1.064c-0.54-1.078-0.127-1.84-0.127-1.84c-0.413,0.254-0.286,0.778-0.286,0.778
		c-0.667,2.475-2.126,1.998-2.126,1.998c0.952-0.317,1.047-2.127,1.047-2.127c0.508-2.222,2.063-1.714,2.063-1.714
		c1.079-0.539,2.253-0.063,2.253-0.063C16.39,27.565,17.183,26.359,17.183,26.359z"/>
	<path fill="#FBFBFC" d="M39.969,19.589c-0.225-0.132-0.576,0-0.887,0.026c-0.311,0.027-0.516-0.026-0.84-0.066
		c-0.324-0.039-0.529,0.02-1.025,0.08c-0.497,0.059-0.654,0.105-0.774-0.033c-0.119-0.139,0.054-0.463,0.1-0.854
		c0.046-0.391-0.132-0.549-0.191-0.781s0.073-0.278-0.02-0.841c-0.093-0.562-0.49-1.574-1.232-2.209
		c-0.74-0.635-1.389-0.582-1.984-0.781c-0.595-0.199-1.018-0.708-1.249-0.86c-0.231-0.152-0.483-0.476-0.629-0.628
		s-0.377-0.219-0.377-0.219s-0.133-0.198-0.226-0.284c-0.092-0.086-0.297-0.152-0.363-0.152s-0.159,0.092-0.198,0.238
		c-0.04,0.146,0.025,0.344-0.04,0.397c-0.066,0.053-0.397-0.026-0.636-0.053c-0.237-0.026-0.533-0.229-0.595-0.118
		c-0.062,0.109,0.485,0.568,0.503,0.696c0.017,0.128-0.009,0.318-0.116,0.468c-0.104,0.15-0.083,0.371-0.061,0.476
		c0.021,0.106,0.221,0.273,0.193,0.323c-0.025,0.048-0.017,0.22-0.017,0.22s0.029,0.044,0.123,0.159s0.18,0.137,0.265,0.154
		c0.084,0.018,0.08,0.102,0.221,0.146c0.141,0.044,0.179,0.011,0.238,0.13c0.059,0.119,0.132,0.708,0.252,1.091
		c0.118,0.384,0.78,0.878,0.912,1.05c0.133,0.172,0.322,0.847,0.345,1.01c0.021,0.163-0.079,0.427-0.115,0.644
		c-0.035,0.216-0.22,0.583-0.313,0.759c-0.092,0.176-0.08,0.229-0.08,0.229s-0.033,0.013-0.109-0.014
		c-0.074-0.026-0.198,0.023-0.26,0.128c-0.062,0.106-0.093,0.331,0.062,0.441c0.154,0.109,0.648,0.022,0.824-0.031
		c0.177-0.053,0.226-0.229,0.226-0.229s0.199,0.034,0.3,0.004c0.102-0.031,0.146-0.079,0.146-0.079s0.198,0.021,0.348,0.026
		c0.149,0.005,0.454-0.018,0.454-0.018s-0.007,0.035,0.04,0.128c0.046,0.093,0.581,0.166,0.84,0.105
		c0.258-0.059,0.629-0.032,0.787,0.008c0.158,0.039,0.503,0,0.675-0.015c0.172-0.012,0.378,0.1,0.655,0.081
		c0.277-0.02,0.324-0.146,0.324-0.146s0.105,0.006,0.403-0.041c0.298-0.045,0.979,0.053,1.249,0.014
		c0.273-0.04,1.001,0.02,1.443,0.046c0.444,0.026,0.754-0.04,0.834-0.199C40.472,20.059,40.193,19.721,39.969,19.589z
		 M32.859,19.697c-0.014,0.036-0.085,0.04-0.222,0.03c-0.136-0.008-0.114,0.036-0.107-0.365c0.003-0.401,0.112-0.477,0.145-0.463
		c0.03,0.013,0.026,0.401,0.048,0.52C32.745,19.539,32.873,19.662,32.859,19.697z"/>
	<path fill="#FBFBFC" d="M42.075,31.634c-0.059-0.038-0.109-0.086-0.165-0.126c-0.206-0.147-0.415-0.143-0.652-0.121
		c-0.249,0.022-0.32,0.009-0.549-0.15c-0.358-0.25-0.65-0.599-0.827-0.999c-0.136-0.308-0.207-0.64-0.311-0.96
		c-0.106-0.319-0.252-0.637-0.503-0.86c-0.182-0.162-0.43-0.264-0.67-0.254c-0.301-0.326-0.713-0.561-1.146-0.677
		c-0.689-0.185-1.421-0.114-2.123,0.02c-0.702,0.133-1.395,0.327-2.106,0.387c-1.038,0.085-2.097-0.126-3.022-0.603
		c-0.479-0.247-0.932-0.567-1.455-0.698c-0.522-0.128-1.091-0.052-1.56,0.209c-0.13-0.143-0.313-0.217-0.504-0.231
		c0.012-0.031,0.019-0.064,0.015-0.098c-0.009-0.168-0.178-0.229-0.321-0.217c-0.115,0.009-0.227,0.052-0.342,0.063
		c-0.07,0.008-0.142,0.003-0.212-0.006c-0.568-0.062-1.111-0.317-1.525-0.711c-0.029-0.028-0.074,0.008-0.055,0.043
		c0.13,0.232,0.279,0.453,0.441,0.661c0.26,0.332,0.601,0.651,1.02,0.667c0.013,0.002,0.025,0,0.034,0
		c-0.028,0.031-0.058,0.063-0.086,0.095c-0.448-0.108-0.867-0.338-1.202-0.654c-0.028-0.028-0.073,0.008-0.054,0.042
		c0.13,0.231,0.278,0.452,0.442,0.662c0.128,0.164,0.275,0.323,0.442,0.446c-0.202,0.305-0.408,0.617-0.702,0.835
		c-0.13,0.096-0.277,0.173-0.381,0.299c-0.105,0.124-0.151,0.317-0.053,0.446c0.122,0.161,0.367,0.125,0.561,0.073
		c0.063,0.085,0.082,0.2,0.052,0.303c0.233,0.13,0.499-0.174,0.765-0.144c0.105,0.014,0.196,0.078,0.294,0.115
		c0.282,0.108,0.598-0.004,0.896,0.03c0.478,0.055,0.836,0.477,1.039,0.913c0.203,0.438,0.308,0.92,0.561,1.331
		c0.129,0.205,0.289,0.387,0.474,0.542c-0.088,0.118-0.175,0.236-0.262,0.356c-0.126,0.173-0.253,0.357-0.274,0.569
		c0.457,0.166,0.751,0.6,1.015,1.007c0.507-0.049,1-0.232,1.415-0.525c-0.157-0.129-0.339-0.227-0.529-0.293
		c-0.057,0.124-0.123,0.258-0.247,0.314c-0.124,0.056-0.311-0.033-0.288-0.168c-0.027,0.095-0.153,0.131-0.245,0.098
		c-0.095-0.033-0.161-0.111-0.224-0.188c-0.087-0.104-0.173-0.208-0.26-0.312c0.247-0.075,0.483-0.182,0.704-0.317l-0.038-0.088
		c0.212,0.085,0.432,0.15,0.653,0.194c0.383,0.077,0.771,0.099,1.161,0.094c0.287,0.4,0.574,0.8,0.86,1.199
		c0.082,0.114,0.168,0.235,0.185,0.374c0.036,0.313-0.271,0.569-0.287,0.882c0.303-0.09,0.61-0.161,0.922-0.214
		c0.008-0.068-0.026-0.135-0.058-0.197s-0.06-0.134-0.038-0.202c0.021-0.065,0.116-0.106,0.163-0.055
		c0.069-0.192-0.11-0.374-0.254-0.521c-0.172-0.175-0.313-0.379-0.415-0.6c-0.037-0.08-0.07-0.165-0.068-0.252
		c0.002-0.085,0.036-0.166,0.032-0.251c-0.006-0.082-0.046-0.151-0.101-0.213c0.065-0.006,0.128-0.011,0.19-0.016
		c1.118-0.091,2.035-0.365,2.986-0.718c0.035,0.1,0.155,0.171,0.272,0.1c0.354-0.212,0.717-0.406,1.089-0.585
		c0.063,0.312,0.168,0.632,0.438,0.784c0.219,0.124,0.559,0.17,0.575,0.42c0.005,0.061-0.017,0.118-0.037,0.174
		c-0.291,0.812-0.778,1.552-1.408,2.143c0.271-0.028,0.545-0.028,0.816-0.001c0.12-0.019,0.168-0.161,0.203-0.278
		c0.036-0.115,0.122-0.25,0.24-0.222c0.035,0.008,0.065,0.03,0.101,0.043c0.096,0.029,0.199-0.043,0.243-0.134
		s0.044-0.196,0.052-0.296c0.031-0.396,0.189-0.783,0.447-1.087c0.073-0.085,0.156-0.173,0.173-0.285
		c0.008-0.066-0.009-0.134-0.028-0.198c0.011,0.007,0.021,0.014,0.032,0.021c0.494,0.373,0.724,1.062,0.552,1.655
		c-0.089,0.308-0.271,0.58-0.453,0.844c0.352-0.008,0.702-0.065,1.039-0.17c-0.124-0.208-0.024-0.513,0.198-0.608
		c-0.317-0.529-0.14-1.25-0.458-1.779c-0.159-0.267-0.43-0.453-0.6-0.712c-0.274-0.413-0.258-0.924-0.153-1.421
		c0.048-0.075,0.087-0.171,0.124-0.315c0.11-0.439,0.188-0.907,0.099-1.349c0.318,0.203,0.433,0.609,0.589,0.955
		c0.317,0.705,0.901,1.277,1.62,1.561c-0.106,0.224,0.004,0.521,0.229,0.622c0.256,0.115,0.55-0.021,0.799-0.154
		c0.212-0.113,0.422-0.226,0.633-0.339C42.516,31.763,42.26,31.756,42.075,31.634z"/>
</g>
</svg>
