<?xml version="1.0" encoding="utf-8"?>
<!-- Generator: Adobe Illustrator 16.0.0, SVG Export Plug-In . SVG Version: 6.00 Build 0)  -->
<!DOCTYPE svg PUBLIC "-//W3C//DTD SVG 1.1//EN" "http://www.w3.org/Graphics/SVG/1.1/DTD/svg11.dtd">
<svg version="1.1" xmlns="http://www.w3.org/2000/svg" xmlns:xlink="http://www.w3.org/1999/xlink" x="0px" y="0px" width="48.99px"
	 height="48.984px" viewBox="0 0 48.99 48.984" enable-background="new 0 0 48.99 48.984" xml:space="preserve">
<g id="Capa_2" display="none">
	<rect display="inline" fill="#E2E1E0" width="49" height="49"/>
</g>
<g id="Capa_1">
	<path fill-rule="evenodd" clip-rule="evenodd" fill="#FFFFFF" d="M24.493,48.984c13.531,0,24.497-10.964,24.497-24.492
		C48.99,10.964,38.024,0,24.493,0C10.968,0,0,10.964,0,24.492C0,38.021,10.968,48.984,24.493,48.984L24.493,48.984z"/>
	<path fill-rule="evenodd" clip-rule="evenodd" fill="#E52D27" d="M24.171,45.231h0.649c11.306-0.169,20.415-9.387,20.415-20.735
		c0-11.454-9.279-20.741-20.742-20.741c-11.455,0-20.738,9.287-20.738,20.741C3.755,35.845,12.866,45.063,24.171,45.231
		L24.171,45.231z"/>
	<path fill="#FBFBFC" d="M21.385,29.584L21.385,29.584c0.065-0.12,0.128-0.244,0.185-0.377c0.147-0.343,0.26-0.714,0.307-1.12
		c0.056-0.38,0.026-0.903-0.058-1.252c-0.167-0.722-0.459-1.48-0.991-2.129c-0.068-0.084-0.14-0.167-0.214-0.246c0,0,0,0,0,0
		c-0.19-0.198-0.398-0.375-0.621-0.531l0,0c0,0,0,0,0-0.001c-0.361-0.253-0.756-0.447-1.155-0.565l0,0
		c-0.008-0.003-0.016-0.007-0.023-0.009c-0.142-0.042-0.285-0.075-0.425-0.103c-0.023-0.006-0.045-0.011-0.069-0.015
		c-0.139-0.025-0.279-0.044-0.419-0.059c-0.013-0.001-0.027-0.001-0.039-0.002c-0.297-0.026-0.593-0.023-0.882,0.005
		c-0.002,0-0.003,0-0.004,0l0,0c-0.125,0.012-0.25,0.027-0.373,0.048c-0.357,0.064-0.706,0.162-1.056,0.33
		c-0.138,0.066-0.259,0.139-0.371,0.215L13.939,22.3c-0.03-0.04-0.062-0.079-0.094-0.117c0.02-0.063,0.041-0.125,0.059-0.188
		c0.19-0.63,0.35-1.254,0.455-1.934c0.102-0.676,0.165-1.401-0.006-2.219c-0.182-0.823-0.62-1.619-1.391-2.194
		c-0.752-0.576-1.929-0.729-2.74-0.11c-0.403,0.295-0.67,0.765-0.754,1.237c-0.047,0.238-0.053,0.47-0.03,0.699
		c0.019,0.168,0.019,0.29,0.056,0.498c0.127,0.82,0.432,1.507,0.817,2.134c0.381,0.618,0.811,1.157,1.246,1.653l0.246,0.283
		c-0.319,0.877-0.666,1.794-0.913,2.773c-0.164,0.639-0.295,1.311-0.325,2.042c-0.033,0.72,0.049,1.517,0.351,2.294
		c0.302,0.774,0.792,1.467,1.416,2.005c0.556,0.499,1.248,0.921,1.972,1.186c1.475,0.552,3.062,0.393,4.33-0.197
		c0.417-0.201,0.813-0.439,1.18-0.718l1.037,1.315c0.021,0.023,0.042,0.049,0.063,0.069c0.054,0.051,0.145,0.153,0.211,0.236
		c0.072,0.085,0.139,0.178,0.2,0.268c0.12,0.182,0.208,0.365,0.25,0.52c0.041,0.155,0.031,0.256,0.002,0.349
		c-0.019,0.045-0.047,0.093-0.089,0.146c-0.025,0.026-0.046,0.052-0.077,0.075c-0.004,0.004-0.031,0.027-0.032,0.027l-0.068,0.05
		l-0.076,0.053l-0.043,0.021c-0.024,0.014-0.057,0.031-0.1,0.045c-0.077,0.035-0.16,0.06-0.241,0.075
		c-0.161,0.025-0.317,0.014-0.434-0.025c-0.12-0.04-0.199-0.103-0.271-0.199c-0.036-0.05-0.074-0.104-0.097-0.182
		c-0.034-0.067-0.046-0.16-0.071-0.247l-0.033-0.114c-0.112-0.38-0.498-0.631-0.874-0.556c-0.387,0.073-0.617,0.455-0.517,0.852
		c0.045,0.182,0.083,0.361,0.167,0.545c0.068,0.181,0.177,0.368,0.308,0.54c0.257,0.347,0.651,0.619,1.047,0.739
		c0.398,0.126,0.788,0.126,1.14,0.056c0.176-0.034,0.344-0.089,0.503-0.16c0.134-0.049,0.38-0.201,0.454-0.256l0.079-0.062
		c0.082-0.062,0.082-0.065,0.126-0.103c0.068-0.056,0.133-0.126,0.196-0.197c0.125-0.146,0.237-0.317,0.314-0.519
		c0.161-0.4,0.148-0.862,0.045-1.232c-0.102-0.377-0.268-0.69-0.453-0.973c-0.091-0.14-0.19-0.273-0.292-0.4
		c-0.1-0.12-0.183-0.219-0.305-0.341l-1.08-1.374C21.021,30.195,21.216,29.901,21.385,29.584L21.385,29.584z M11.108,17.905
		c-0.021-0.105-0.021-0.3-0.035-0.445c-0.006-0.086,0-0.17,0.018-0.233c0.034-0.134,0.095-0.217,0.184-0.274
		c0.169-0.115,0.472-0.105,0.732,0.109c0.262,0.201,0.507,0.617,0.577,1.035c0.113,0.649-0.017,1.463-0.232,2.272
		c-0.267-0.343-0.509-0.684-0.707-1.024C11.358,18.87,11.165,18.343,11.108,17.905z M17.744,30.327
		c-0.922,0.404-1.96,0.476-2.874,0.114c-0.46-0.179-0.886-0.434-1.287-0.803c-0.347-0.315-0.638-0.699-0.799-1.124
		c-0.348-0.848-0.248-1.964,0.031-3.069c0.138-0.549,0.311-1.095,0.498-1.652l0.866,1.013c-0.266,0.395-0.466,0.832-0.597,1.314
		c-0.092,0.367-0.137,0.771-0.083,1.199c0.029,0.221,0.066,0.414,0.176,0.678c0.025,0.06,0.057,0.133,0.078,0.174l0.061,0.106
		l0.09,0.158l0.101,0.14c0.271,0.379,0.712,0.685,1.157,0.82c0.458,0.128,0.853,0.148,1.31,0.05
		c0.027-0.004,0.056-0.013,0.083-0.024c0.372-0.126,0.548-0.546,0.393-0.933c-0.154-0.389-0.579-0.596-0.95-0.469l-0.005,0.004
		c-0.77,0.268-1.312-0.481-1.014-1.422c0.061-0.193,0.144-0.387,0.248-0.572l0.125,0.146l3.17,3.729
		C18.274,30.071,18.014,30.215,17.744,30.327z M19.53,28.957l-3.1-3.683l-0.218-0.261c0.018-0.008,0.037-0.018,0.056-0.023
		c0.195-0.086,0.439-0.148,0.685-0.184c0.09-0.012,0.182-0.02,0.272-0.025c0.315-0.019,0.629,0.007,0.927,0.076
		c0.003,0.001,0.007,0.002,0.009,0.002c0.294,0.07,0.569,0.183,0.81,0.336c0.006,0.006,0.013,0.008,0.02,0.012
		c0.077,0.052,0.152,0.105,0.221,0.165c0.003,0.001,0.003,0.001,0.003,0.002c0.072,0.063,0.141,0.128,0.202,0.198l0,0
		c0.044,0.05,0.084,0.1,0.123,0.152c0.059,0.075,0.111,0.156,0.162,0.24c0.095,0.16,0.176,0.338,0.242,0.525
		c0.001,0,0.001,0.002,0.001,0.004c0.031,0.086,0.06,0.177,0.083,0.268c0.005,0.016,0.008,0.034,0.014,0.048
		c0.022,0.091,0.044,0.182,0.063,0.275c0.044,0.276,0.032,0.389,0,0.622c-0.03,0.213-0.104,0.432-0.206,0.643
		C19.8,28.561,19.676,28.764,19.53,28.957z"/>
	<g>
		<path opacity="0.1" fill="#FBFBFC" d="M43.001,18.48c0,0-3.848-0.183-6.184-1.057c-2.286-0.855-5.665-3.376-5.665-3.376
			s-0.056,0.162-0.154,0.439l-3.215-3.213c0,0-2.869,2.569-5.147,3.585c-2.229,0.996-6.403,1.57-6.403,1.57s2.78,6.02,4.068,7.795
			c0.327,0.453,0.816,0.945,1.404,1.404L35.76,39.683l12.806-15.635L43.001,18.48z"/>
		<g>
			<path fill="#FBFBFC" d="M36.817,17.424c-2.286-0.855-5.665-3.376-5.665-3.376s-2.243,6.238-2.569,8.407
				c-0.328,2.147,0.638,6.409,3.42,7.45c2.776,1.041,6.276-1.569,7.432-3.401c1.17-1.852,3.566-8.023,3.566-8.023
				S39.153,18.298,36.817,17.424z M33.896,23.156c0.035-0.015,0.076,0,0.089,0.035c0.153,0.331,0.547,0.478,0.878,0.326
				c0.032-0.015,0.073,0,0.089,0.035c0.017,0.034,0,0.074-0.032,0.089c-0.2,0.092-0.42,0.093-0.612,0.021
				c-0.19-0.071-0.353-0.214-0.445-0.415C33.847,23.212,33.861,23.171,33.896,23.156z M31.856,17.549
				c0.12-0.004,0.262-0.006,0.412-0.002c0.149,0.002,0.309,0.011,0.47,0.022c0.16,0.013,0.317,0.028,0.469,0.049
				c0.149,0.019,0.288,0.041,0.405,0.064c0.239,0.042,0.396,0.09,0.396,0.09s-0.162,0.025-0.404,0.032
				c-0.122,0.005-0.262,0.006-0.412,0.001c-0.148-0.002-0.31-0.009-0.468-0.021c-0.161-0.013-0.321-0.03-0.47-0.05
				c-0.149-0.019-0.288-0.04-0.408-0.063c-0.236-0.044-0.393-0.091-0.393-0.091S31.614,17.556,31.856,17.549z M31.007,19.303
				c0.123-0.331,0.769-0.395,1.441-0.144c0.673,0.253,1.119,0.725,0.996,1.056c-0.127,0.331-0.771,0.395-1.444,0.144
				C31.329,20.106,30.883,19.634,31.007,19.303z M36.01,27.437c-0.119,0.053-0.25,0.055-0.364,0.012
				c-0.114-0.041-0.211-0.128-0.265-0.248c-0.729-1.592-2.612-2.298-4.204-1.572c-0.238,0.108-0.521,0.002-0.631-0.235
				c-0.11-0.239-0.003-0.522,0.238-0.632c2.067-0.942,4.52-0.026,5.462,2.045C36.355,27.044,36.249,27.326,36.01,27.437z
				 M38.482,22.785c-0.675-0.251-1.12-0.724-0.995-1.055c0.125-0.332,0.771-0.396,1.442-0.144c0.673,0.252,1.119,0.725,0.994,1.056
				C39.803,22.973,39.154,23.037,38.482,22.785z M40.363,20.859c-0.105-0.061-0.227-0.135-0.351-0.219
				c-0.126-0.084-0.254-0.177-0.385-0.271c-0.129-0.096-0.253-0.195-0.37-0.292c-0.113-0.095-0.217-0.188-0.306-0.272
				c-0.179-0.164-0.285-0.287-0.285-0.287s0.148,0.067,0.357,0.19c0.104,0.06,0.224,0.135,0.347,0.218
				c0.127,0.084,0.257,0.175,0.388,0.271c0.127,0.096,0.251,0.196,0.368,0.292c0.113,0.095,0.221,0.189,0.31,0.271
				c0.176,0.165,0.282,0.289,0.282,0.289S40.571,20.981,40.363,20.859z"/>
		</g>
		<path fill="#FBFBFC" d="M22.636,14.859c-2.229,0.996-6.403,1.57-6.403,1.57s2.78,6.02,4.068,7.795
			c1.275,1.759,4.955,4.114,7.666,2.905c2.71-1.211,3.373-5.522,2.909-7.64c-0.468-2.14-3.093-8.215-3.093-8.215
			S24.914,13.842,22.636,14.859z M24.579,20.992c0.015-0.034,0.053-0.053,0.088-0.038c0.34,0.13,0.723-0.042,0.854-0.382
			c0.014-0.035,0.052-0.052,0.086-0.04c0.035,0.014,0.053,0.053,0.039,0.087c-0.076,0.207-0.232,0.36-0.417,0.443
			c-0.187,0.083-0.405,0.095-0.61,0.017C24.584,21.067,24.565,21.028,24.579,20.992z M19.191,18.43
			c0.083-0.088,0.183-0.187,0.292-0.29c0.11-0.104,0.229-0.211,0.351-0.314c0.122-0.104,0.248-0.203,0.368-0.293
			c0.12-0.092,0.233-0.174,0.333-0.241c0.199-0.137,0.346-0.212,0.346-0.212s-0.099,0.131-0.266,0.306
			c-0.083,0.088-0.183,0.186-0.292,0.29c-0.108,0.104-0.227,0.211-0.35,0.314c-0.122,0.104-0.247,0.204-0.367,0.293
			c-0.12,0.092-0.233,0.174-0.334,0.241c-0.2,0.137-0.346,0.211-0.346,0.211S19.025,18.604,19.191,18.43z M19.817,20.276
			c-0.143-0.322,0.271-0.822,0.928-1.114c0.656-0.293,1.304-0.27,1.449,0.055c0.145,0.322-0.271,0.822-0.926,1.115
			C20.61,20.624,19.961,20.6,19.817,20.276z M28.607,21.48c-0.405,1.062-1.206,1.859-2.17,2.291
			c-0.964,0.43-2.093,0.495-3.155,0.088c-0.246-0.093-0.369-0.369-0.275-0.615c0.094-0.245,0.37-0.369,0.615-0.275
			c1.634,0.626,3.472-0.194,4.1-1.829c0.094-0.245,0.368-0.369,0.613-0.274S28.703,21.235,28.607,21.48z M27.586,17.508
			c-0.654,0.293-1.304,0.27-1.448-0.053c-0.144-0.322,0.271-0.823,0.924-1.116c0.66-0.291,1.307-0.268,1.451,0.054
			C28.656,16.717,28.242,17.216,27.586,17.508z M27.573,14.818c-0.117,0.029-0.254,0.061-0.402,0.087
			c-0.146,0.029-0.306,0.056-0.465,0.078c-0.157,0.021-0.316,0.038-0.468,0.052c-0.148,0.011-0.289,0.02-0.409,0.023
			c-0.243,0.008-0.405-0.005-0.405-0.005s0.152-0.059,0.388-0.116c0.117-0.031,0.254-0.061,0.401-0.089
			c0.147-0.028,0.306-0.055,0.463-0.076c0.161-0.022,0.321-0.04,0.47-0.052c0.148-0.013,0.291-0.021,0.411-0.024
			c0.239-0.007,0.404,0.007,0.404,0.007S27.809,14.758,27.573,14.818z"/>
	</g>
</g>
</svg>
