<?xml version="1.0" encoding="utf-8"?>
<!-- Generator: Adobe Illustrator 16.0.0, SVG Export Plug-In . SVG Version: 6.00 Build 0)  -->
<!DOCTYPE svg PUBLIC "-//W3C//DTD SVG 1.1//EN" "http://www.w3.org/Graphics/SVG/1.1/DTD/svg11.dtd">
<svg version="1.1" xmlns="http://www.w3.org/2000/svg" xmlns:xlink="http://www.w3.org/1999/xlink" x="0px" y="0px" width="48.99px"
	 height="48.984px" viewBox="0 0 48.99 48.984" enable-background="new 0 0 48.99 48.984" xml:space="preserve">
<g id="Capa_2_1_" display="none">
	<rect y="0" display="inline" fill="#DBD7D7" width="48.99" height="48.984"/>
</g>
<g id="Capa_4">
	<path fill-rule="evenodd" clip-rule="evenodd" fill="#FFFFFF" d="M24.42,48.916c13.492,0,24.428-10.932,24.428-24.418
		c0-13.488-10.936-24.419-24.428-24.419C10.935,0.078,0,11.01,0,24.497C0,37.984,10.935,48.916,24.42,48.916L24.42,48.916z"/>
	<path fill-rule="evenodd" clip-rule="evenodd" fill="#EF712B" d="M24.099,45.176h0.648c11.273-0.172,20.354-9.36,20.354-20.673
		c0-11.421-9.254-20.68-20.682-20.68c-11.421,0-20.676,9.259-20.676,20.68C3.744,35.815,12.828,45.004,24.099,45.176L24.099,45.176z
		"/>
	<g>
		<path fill="#FBFBFC" d="M40.576,19.601c0.793,0,1.437-0.644,1.437-1.436s-0.644-1.436-1.437-1.436
			c-0.791,0-1.435,0.644-1.435,1.436S39.785,19.601,40.576,19.601z"/>
		<path fill="#FBFBFC" d="M43.73,24.089c0.008-0.026,0.01-0.054,0.004-0.082l-0.659-3.492c-0.052-0.327-0.33-0.563-0.659-0.563
			h-3.678c-0.331,0-0.609,0.237-0.659,0.559l-0.659,3.497c-0.006,0.028-0.004,0.056,0.004,0.082
			c-0.006,0.032-0.008,0.063-0.008,0.094c0,0.37,0.301,0.669,0.671,0.669c0.322,0,0.599-0.229,0.658-0.552l0.416-2.597l-0.006,8.287
			c0,0.369,0.302,0.67,0.671,0.67s0.671-0.301,0.671-0.67v-4.103h0.16v4.103c0,0.369,0.3,0.67,0.671,0.67
			c0.369,0,0.671-0.301,0.671-0.67l-0.006-8.287l0.415,2.601c0.059,0.318,0.335,0.548,0.659,0.548c0.37,0,0.671-0.299,0.671-0.669
			C43.738,24.151,43.734,24.12,43.73,24.089z"/>
	</g>
	<path fill="#FBFBFC" d="M30.878,19.662c0.82,0,1.486-0.667,1.486-1.486c0-0.82-0.666-1.487-1.486-1.487
		c-0.819,0-1.486,0.667-1.486,1.487C29.392,18.996,30.059,19.662,30.878,19.662z"/>
	<path fill="#FBFBFC" d="M34.143,24.308c0.008-0.026,0.01-0.055,0.004-0.084l-0.68-3.616c-0.055-0.338-0.343-0.583-0.685-0.583
		h-3.809c-0.342,0-0.63,0.245-0.684,0.579l-0.683,3.621c-0.006,0.029-0.004,0.058,0.006,0.084c-0.006,0.034-0.008,0.065-0.008,0.098
		c0,0.382,0.312,0.694,0.694,0.694c0.334,0,0.62-0.24,0.682-0.572l0.43-2.689l-0.006,8.581c0,0.383,0.313,0.694,0.695,0.694
		c0.383,0,0.694-0.312,0.694-0.694v-4.247h0.166v4.247c0,0.383,0.312,0.694,0.694,0.694s0.694-0.312,0.694-0.694l-0.006-8.581
		l0.431,2.693c0.062,0.328,0.348,0.568,0.683,0.568c0.383,0,0.693-0.312,0.693-0.694C34.15,24.373,34.148,24.341,34.143,24.308z"/>
	<g>
		<path fill="#FBFBFC" d="M19.394,19.662c0.82,0,1.486-0.667,1.486-1.486c0-0.82-0.667-1.487-1.486-1.487
			c-0.82,0-1.486,0.667-1.486,1.487C17.907,18.996,18.573,19.662,19.394,19.662z"/>
		<path fill="#FBFBFC" d="M22.659,24.308c0.008-0.026,0.01-0.055,0.004-0.084l-0.681-3.616c-0.055-0.338-0.343-0.583-0.684-0.583
			h-3.809c-0.342,0-0.629,0.245-0.683,0.579l-0.682,3.621c-0.006,0.029-0.004,0.058,0.004,0.084
			c-0.005,0.034-0.008,0.065-0.008,0.098c0,0.382,0.311,0.694,0.694,0.694c0.334,0,0.622-0.24,0.683-0.572l0.43-2.689l-0.006,8.581
			c0,0.383,0.312,0.694,0.695,0.694s0.695-0.312,0.695-0.694v-4.247h0.166v4.247c0,0.383,0.312,0.694,0.694,0.694
			c0.383,0,0.694-0.312,0.694-0.694l-0.005-8.581l0.43,2.693c0.061,0.328,0.347,0.568,0.683,0.568c0.383,0,0.694-0.312,0.694-0.694
			C22.667,24.373,22.664,24.341,22.659,24.308z"/>
	</g>
	<g>
		<g>
			<path fill="#FBFBFC" d="M9.803,19.815c0.792,0,1.437-0.645,1.437-1.436s-0.645-1.435-1.437-1.435
				c-0.792,0-1.435,0.644-1.435,1.435S9.011,19.815,9.803,19.815z"/>
			<path fill="#FBFBFC" d="M12.957,24.302c0.008-0.025,0.01-0.054,0.005-0.082l-0.659-3.493c-0.053-0.327-0.33-0.563-0.66-0.563
				H7.964c-0.331,0-0.608,0.237-0.66,0.559l-0.658,3.497c-0.005,0.028-0.004,0.057,0.003,0.082
				c-0.004,0.032-0.007,0.063-0.007,0.094c0,0.369,0.3,0.67,0.67,0.67c0.323,0,0.601-0.232,0.659-0.553l0.415-2.597l-0.005,8.286
				c0,0.371,0.301,0.671,0.67,0.671c0.371,0,0.671-0.302,0.671-0.671V26.1h0.16v4.102c0,0.371,0.301,0.671,0.67,0.671
				c0.37,0,0.67-0.302,0.67-0.671l-0.005-8.286l0.416,2.601c0.059,0.317,0.335,0.549,0.659,0.549c0.37,0,0.671-0.302,0.671-0.67
				C12.964,24.365,12.962,24.334,12.957,24.302z"/>
		</g>
	</g>
	<g>
		<path fill="#FBFBFC" d="M35.788,19.844c1.073,0,1.942-0.871,1.942-1.943c0-1.07-0.869-1.941-1.942-1.941
			c-1.071,0-1.942,0.871-1.942,1.941C33.846,18.973,34.717,19.844,35.788,19.844z"/>
		<path fill="#FBFBFC" d="M40.055,25.917c0.011-0.035,0.013-0.073,0.007-0.112l-0.891-4.725c-0.071-0.442-0.446-0.763-0.894-0.763
			H33.3c-0.446,0-0.823,0.321-0.893,0.756l-0.892,4.731c-0.007,0.039-0.005,0.077,0.006,0.112c-0.008,0.042-0.009,0.085-0.009,0.126
			c0,0.5,0.405,0.906,0.906,0.906c0.437,0,0.812-0.312,0.893-0.748l0.561-3.514L33.866,33.9c0,0.501,0.406,0.906,0.907,0.906
			c0.5,0,0.906-0.407,0.906-0.906v-5.55h0.217v5.55c0,0.501,0.407,0.906,0.908,0.906s0.906-0.407,0.906-0.908l-0.007-11.211
			l0.564,3.52c0.077,0.431,0.452,0.742,0.891,0.742c0.499,0,0.906-0.406,0.906-0.906C40.065,26.002,40.062,25.959,40.055,25.917z"/>
	</g>
	<g>
		<path fill="#FBFBFC" d="M15.631,19.5c1.071,0,1.943-0.871,1.943-1.942c0-1.071-0.872-1.942-1.943-1.942
			c-1.071,0-1.942,0.872-1.942,1.942C13.689,18.63,14.561,19.5,15.631,19.5z"/>
		<path fill="#FBFBFC" d="M19.898,25.573c0.011-0.035,0.014-0.074,0.006-0.112l-0.891-4.725c-0.071-0.442-0.447-0.763-0.894-0.763
			h-4.978c-0.446,0-0.822,0.321-0.892,0.756l-0.892,4.731c-0.008,0.038-0.005,0.077,0.006,0.112c-0.007,0.042-0.01,0.083-0.01,0.125
			c0,0.501,0.407,0.909,0.908,0.909c0.437,0,0.812-0.313,0.892-0.75l0.563-3.513l-0.008,11.212c0,0.5,0.407,0.906,0.907,0.906
			c0.501,0,0.908-0.406,0.908-0.906v-5.55h0.217v5.55c0,0.5,0.407,0.906,0.907,0.906c0.501,0,0.907-0.406,0.907-0.906l-0.007-11.212
			l0.563,3.518c0.08,0.432,0.454,0.745,0.891,0.745c0.5,0,0.908-0.408,0.908-0.909C19.909,25.656,19.905,25.615,19.898,25.573z"/>
	</g>
	<g>
		<path fill="#FBFBFC" d="M25.667,18.674c1.208,0,2.191-0.982,2.191-2.19c0-1.208-0.983-2.191-2.191-2.191
			c-1.208,0-2.191,0.982-2.191,2.191C23.476,17.692,24.458,18.674,25.667,18.674z"/>
		<path fill="#FBFBFC" d="M30.478,25.522c0.014-0.04,0.016-0.083,0.008-0.126l-1.005-5.329c-0.079-0.499-0.503-0.86-1.007-0.86
			H22.86c-0.503,0-0.928,0.361-1.006,0.853l-1.006,5.336c-0.008,0.043-0.005,0.086,0.007,0.126
			c-0.008,0.049-0.012,0.095-0.012,0.142c0,0.564,0.459,1.024,1.023,1.024c0.494,0,0.917-0.354,1.006-0.845l0.634-3.962
			l-0.008,12.645c0,0.564,0.458,1.022,1.023,1.022s1.024-0.46,1.024-1.022v-6.259h0.245v6.259c0,0.564,0.459,1.022,1.023,1.022
			s1.022-0.46,1.022-1.024l-0.008-12.643l0.634,3.968c0.089,0.484,0.512,0.839,1.005,0.839c0.564,0,1.022-0.46,1.022-1.024
			C30.489,25.617,30.487,25.571,30.478,25.522z"/>
	</g>
</g>
</svg>
