<?xml version="1.0" encoding="utf-8"?>
<!-- Generator: Adobe Illustrator 16.0.0, SVG Export Plug-In . SVG Version: 6.00 Build 0)  -->
<!DOCTYPE svg PUBLIC "-//W3C//DTD SVG 1.1//EN" "http://www.w3.org/Graphics/SVG/1.1/DTD/svg11.dtd">
<svg version="1.1" xmlns="http://www.w3.org/2000/svg" xmlns:xlink="http://www.w3.org/1999/xlink" x="0px" y="0px" width="48.99px"
	 height="48.984px" viewBox="0 0 48.99 48.984" enable-background="new 0 0 48.99 48.984" xml:space="preserve">
<g id="Capa_2_1_" display="none">
	<rect y="0" display="inline" fill="#DBD7D7" width="48.99" height="48.984"/>
</g>
<g id="Capa_4">
	<path fill-rule="evenodd" clip-rule="evenodd" fill="#FFFFFF" d="M24.36,48.984c13.459,0,24.368-10.905,24.368-24.361
		c0-13.455-10.909-24.361-24.368-24.361C10.908,0.262,0,11.168,0,24.623C0,38.079,10.908,48.984,24.36,48.984L24.36,48.984z"/>
	<path fill-rule="evenodd" clip-rule="evenodd" fill="#EADF0A" d="M24.041,45.252h0.647c11.245-0.171,20.306-9.337,20.306-20.625
		c0-11.393-9.233-20.629-20.634-20.629c-11.393,0-20.625,9.237-20.625,20.629C3.735,35.915,12.796,45.081,24.041,45.252
		L24.041,45.252z"/>
	<g>
		<path fill-rule="evenodd" clip-rule="evenodd" fill="#FFFFFF" d="M25.244,18.903c1.4,0,2.533-1.429,2.533-3.19
			c0-1.768-1.133-3.196-2.533-3.196c-1.395,0-2.527,1.428-2.527,3.196C22.717,17.474,23.85,18.903,25.244,18.903L25.244,18.903z
			 M25.298,19.794c0,0,2.474,0.497,5.868,0.354c2.767-0.116,6.153-0.653,9.31-2.245c0,0-13.592,6.448-15.287,22.663
			C25.257,27.139,9.213,17.454,9.213,17.454S15.811,21.957,25.298,19.794L25.298,19.794z"/>
	</g>
</g>
</svg>
