<?xml version="1.0" standalone="no"?>
<!DOCTYPE svg PUBLIC "-//W3C//DTD SVG 20010904//EN"
 "http://www.w3.org/TR/2001/REC-SVG-20010904/DTD/svg10.dtd">
<svg version="1.0" xmlns="http://www.w3.org/2000/svg"
 width="260.000000pt" height="260.000000pt" viewBox="0 0 260.000000 260.000000"
 preserveAspectRatio="xMidYMid meet">
<metadata>
Created by potrace 1.11, written by Peter Selinger 2001-2013
</metadata>
<g transform="translate(0.000000,260.000000) scale(0.100000,-0.100000)"
fill="#000000" stroke="none">
<path d="M1240 2377 c0 -9 10 -12 30 -9 17 2 30 8 30 13 0 5 -13 9 -30 9 -18
0 -30 -5 -30 -13z"/>
<path d="M1336 2382 c-3 -3 -3 -9 0 -13 7 -12 54 -12 54 0 0 10 -47 21 -54 13z"/>
<path d="M1150 2364 c0 -11 5 -14 16 -10 9 3 22 6 30 6 9 0 12 5 9 10 -10 17
-55 12 -55 -6z"/>
<path d="M1420 2361 c0 -5 14 -14 30 -20 33 -11 41 2 11 19 -24 12 -41 13 -41
1z"/>
<path d="M1078 2353 c-10 -2 -18 -11 -18 -18 0 -11 6 -12 30 -4 16 6 27 15 24
20 -5 9 -8 10 -36 2z"/>
<path d="M1510 2330 c0 -14 39 -32 52 -24 7 4 2 12 -13 20 -29 16 -39 17 -39
4z"/>
<path d="M992 2311 c-13 -9 -20 -20 -16 -23 7 -8 54 12 54 23 0 17 -17 17 -38
0z"/>
<path d="M1590 2282 c0 -4 9 -13 20 -20 27 -17 47 -5 23 14 -20 15 -43 18 -43
6z"/>
<path d="M915 2260 c-25 -28 -12 -37 19 -12 14 10 22 22 19 26 -10 10 -19 7
-38 -14z"/>
<path d="M1666 2231 c-6 -10 32 -47 39 -39 9 8 -5 36 -20 42 -8 3 -17 1 -19
-3z"/>
<path d="M846 2201 c-19 -21 -20 -31 -3 -31 15 0 39 37 28 44 -5 3 -16 -3 -25
-13z"/>
<path d="M1178 2183 c-77 -65 -77 -65 -28 -76 22 -5 29 1 57 49 35 61 25 71
-29 27z"/>
<path d="M1237 2178 c-23 -31 -47 -72 -47 -81 0 -2 18 -4 40 -5 l40 -2 0 60
c0 33 -2 60 -4 60 -3 0 -16 -15 -29 -32z"/>
<path d="M1282 2150 l1 -62 35 6 c19 3 37 8 40 10 7 8 -50 98 -65 103 -8 3
-11 -14 -11 -57z"/>
<path d="M1340 2178 c12 -18 24 -41 27 -50 6 -19 57 -26 67 -9 7 12 -82 91
-101 91 -12 0 -10 -7 7 -32z"/>
<path d="M1150 2193 c-82 -32 -104 -45 -90 -53 23 -15 32 -12 75 25 40 35 42
38 15 28z"/>
<path d="M1410 2175 c34 -36 57 -48 76 -37 20 11 6 22 -56 46 l-45 18 25 -27z"/>
<path d="M1736 2145 c15 -23 34 -34 34 -19 0 16 -23 44 -36 44 -12 0 -12 -4 2
-25z"/>
<path d="M790 2130 c-6 -11 -8 -25 -4 -32 6 -10 33 25 34 45 0 15 -20 6 -30
-13z"/>
<path d="M1494 2125 c-19 -13 -18 -14 3 -37 11 -13 31 -43 44 -68 12 -25 24
-47 25 -48 4 -6 74 30 74 38 0 10 -47 68 -75 93 -37 33 -51 37 -71 22z"/>
<path d="M995 2102 c-36 -32 -75 -81 -75 -94 0 -7 59 -38 74 -38 2 0 7 11 10
24 3 13 21 46 40 74 29 41 32 51 20 56 -27 10 -38 7 -69 -22z"/>
<path d="M1066 2075 c-23 -30 -56 -94 -56 -109 0 -5 34 -14 82 -21 l36 -6 12
53 c7 29 17 61 22 71 7 14 3 20 -26 32 -20 8 -37 15 -39 15 -3 0 -17 -16 -31
-35z"/>
<path d="M1417 2098 c-22 -8 -26 -14 -21 -31 4 -12 13 -42 21 -67 7 -25 15
-47 16 -50 2 -6 62 -3 94 5 26 6 22 32 -13 85 -50 76 -50 75 -97 58z"/>
<path d="M1780 2092 c0 -19 19 -52 30 -52 16 0 12 16 -10 41 -11 14 -19 18
-20 11z"/>
<path d="M1349 2086 c-3 -3 -19 -6 -36 -8 l-31 -2 1 -71 2 -70 60 0 c53 0 60
2 63 21 2 12 -5 45 -15 74 -17 49 -32 68 -44 56z"/>
<path d="M1165 2023 c-9 -32 -18 -63 -20 -70 -5 -15 10 -19 70 -19 l50 1 0 70
0 69 -42 4 -42 3 -16 -58z"/>
<path d="M742 2045 c-14 -29 2 -44 17 -16 6 11 11 24 11 30 0 20 -17 11 -28
-14z"/>
<path d="M1825 1983 c8 -32 13 -39 21 -30 10 9 -5 57 -17 57 -7 0 -9 -10 -4
-27z"/>
<path d="M881 1936 c-11 -30 -22 -74 -23 -97 l-3 -41 54 -2 c29 0 55 4 57 9 3
10 12 64 20 122 3 27 0 32 -24 41 -15 5 -34 13 -44 17 -13 5 -20 -5 -37 -49z"/>
<path d="M1602 1972 l-33 -16 7 -61 c4 -33 7 -68 8 -77 0 -11 9 -18 21 -19 50
-3 88 0 96 8 16 16 -34 184 -55 182 -6 -1 -26 -9 -44 -17z"/>
<path d="M711 1958 c-7 -20 3 -39 13 -27 11 13 16 49 6 49 -6 0 -14 -10 -19
-22z"/>
<path d="M1006 1939 c-13 -36 -22 -119 -15 -130 7 -12 113 -18 124 -7 8 7 13
118 6 122 -3 2 -22 7 -42 10 -20 3 -43 8 -52 12 -10 3 -19 0 -21 -7z"/>
<path d="M1525 1942 c-11 -2 -36 -8 -57 -13 l-36 -9 1 -54 c1 -30 5 -58 9 -61
4 -4 33 -8 65 -8 l58 -1 -2 63 c-3 73 -10 88 -38 83z"/>
<path d="M1144 1915 c-1 -5 -5 -34 -7 -62 -4 -57 -6 -55 58 -55 81 0 76 -4 73
60 l-3 57 -59 5 c-35 3 -60 1 -62 -5z"/>
<path d="M1285 1910 c-1 -3 -3 -29 -4 -57 -1 -59 -11 -53 97 -55 l37 -1 1 61
2 62 -65 -2 c-35 -1 -66 -5 -68 -8z"/>
<path d="M1848 1895 c7 -37 22 -41 22 -6 0 20 -5 31 -14 31 -9 0 -12 -8 -8
-25z"/>
<path d="M696 1885 c-9 -24 -7 -55 3 -55 12 0 22 53 12 63 -5 5 -11 1 -15 -8z"/>
<path d="M1858 1800 c5 -35 22 -30 22 6 0 13 -6 24 -13 24 -9 0 -12 -10 -9
-30z"/>
<path d="M687 1788 c-5 -18 3 -48 14 -48 5 0 9 14 9 30 0 30 -15 41 -23 18z"/>
<path d="M854 1726 c6 -56 34 -139 45 -134 3 2 23 10 44 18 36 14 38 16 32 51
-3 19 -6 54 -7 77 l0 42 -60 0 -60 0 6 -54z"/>
<path d="M991 1723 c4 -85 7 -92 36 -87 69 13 94 20 93 27 0 4 0 32 0 62 l0
55 -66 0 -65 0 2 -57z"/>
<path d="M1135 1733 c2 -27 3 -55 4 -65 1 -10 8 -15 19 -13 9 2 38 4 65 4 l47
1 0 60 0 60 -69 0 -69 0 3 -47z"/>
<path d="M1285 1726 c0 -30 3 -57 6 -60 3 -3 33 -9 67 -12 l62 -5 0 65 0 66
-68 0 -68 0 1 -54z"/>
<path d="M1434 1715 c-1 -70 -2 -69 65 -80 19 -3 38 -8 42 -11 13 -8 20 15 26
86 l6 70 -69 0 -69 0 -1 -65z"/>
<path d="M1580 1735 c0 -54 1 -48 -10 -85 -8 -28 -6 -31 32 -51 22 -11 44 -17
48 -12 15 17 40 95 46 143 l6 50 -61 0 -61 0 0 -45z"/>
<path d="M1850 1710 c0 -16 5 -30 10 -30 6 0 10 14 10 30 0 17 -4 30 -10 30
-5 0 -10 -13 -10 -30z"/>
<path d="M700 1680 c0 -18 5 -30 13 -30 9 0 12 10 9 30 -2 17 -8 30 -13 30 -5
0 -9 -13 -9 -30z"/>
<path d="M1168 1642 c-16 -2 -28 -6 -28 -9 0 -3 9 -35 21 -73 l20 -68 37 5
c20 3 39 7 41 8 6 7 7 115 1 126 -8 11 -51 17 -92 11z"/>
<path d="M1279 1641 c-5 -49 -2 -142 6 -144 6 -2 25 -3 44 -3 33 1 35 3 57 68
l23 68 -22 5 c-38 8 -107 12 -108 6z"/>
<path d="M1835 1635 c-3 -8 -7 -22 -10 -30 -2 -8 0 -15 5 -15 10 0 30 32 30
49 0 17 -20 13 -25 -4z"/>
<path d="M535 1624 c-39 -39 10 -105 61 -82 29 13 37 47 18 75 -17 27 -55 30
-79 7z"/>
<path d="M1047 1626 l-48 -11 36 -73 37 -74 37 7 c20 4 41 10 47 13 15 10 -28
145 -47 147 -8 1 -36 -3 -62 -9z"/>
<path d="M2002 1628 c-21 -21 -14 -66 13 -84 23 -15 27 -15 49 -1 30 20 38 50
19 76 -16 23 -62 28 -81 9z"/>
<path d="M1400 1559 c-12 -38 -20 -71 -19 -72 2 -2 21 -9 43 -16 32 -11 40
-11 48 0 12 18 68 127 68 133 0 5 -84 26 -104 26 -9 0 -22 -25 -36 -71z"/>
<path d="M720 1603 c0 -22 17 -49 25 -41 8 8 -5 58 -16 58 -5 0 -9 -8 -9 -17z"/>
<path d="M943 1595 c-18 -8 -33 -21 -33 -29 0 -16 101 -126 115 -126 6 0 16 4
24 9 11 7 7 23 -25 85 -21 42 -41 76 -44 76 -3 -1 -20 -7 -37 -15z"/>
<path d="M1539 1568 c-7 -18 -23 -50 -36 -70 -28 -45 -28 -45 -4 -58 17 -9 28
-2 75 46 31 31 56 62 56 70 0 13 -48 44 -68 44 -5 0 -15 -15 -23 -32z"/>
<path d="M310 1541 c-19 -15 -25 -29 -25 -59 0 -47 21 -70 69 -78 30 -4 40 -1
61 22 32 34 32 74 0 108 -29 31 -69 34 -105 7z"/>
<path d="M1792 1535 c-9 -20 -9 -25 3 -25 16 0 38 34 28 44 -12 11 -20 6 -31
-19z"/>
<path d="M2208 1543 c-67 -42 -24 -148 56 -139 64 8 90 96 40 135 -32 25 -60
26 -96 4z"/>
<path d="M762 1505 c6 -14 17 -25 24 -25 11 0 11 5 2 25 -6 14 -17 25 -24 25
-11 0 -11 -5 -2 -25z"/>
<path d="M1213 1483 c-13 -2 -23 -7 -23 -9 0 -19 54 -114 63 -111 24 8 11 131
-13 125 -3 0 -15 -3 -27 -5z"/>
<path d="M1279 1463 c-6 -119 10 -135 51 -50 28 58 26 67 -15 67 -26 0 -35 -4
-36 -17z"/>
<path d="M1750 1460 c-6 -11 -8 -25 -4 -32 6 -10 33 25 34 45 0 15 -20 6 -30
-13z"/>
<path d="M1111 1459 l-24 -9 24 -27 c13 -15 29 -32 34 -38 15 -17 78 -28 72
-12 -42 107 -47 110 -106 86z"/>
<path d="M1350 1424 c-26 -60 -25 -66 8 -58 25 6 92 60 92 74 0 9 -47 30 -65
30 -8 0 -23 -21 -35 -46z"/>
<path d="M806 1452 c-3 -5 2 -20 12 -33 24 -29 36 -11 13 20 -11 14 -21 19
-25 13z"/>
<path d="M1045 1430 c9 -15 65 -42 65 -32 0 15 -35 42 -54 42 -9 0 -14 -5 -11
-10z"/>
<path d="M1450 1415 c-13 -14 -21 -25 -17 -25 13 0 57 24 57 31 0 19 -19 16
-40 -6z"/>
<path d="M1692 1390 c-15 -12 -19 -21 -11 -25 6 -4 20 2 31 13 26 26 10 36
-20 12z"/>
<path d="M866 1382 c-7 -11 31 -48 41 -38 4 3 -2 16 -14 27 -11 12 -23 17 -27
11z"/>
<path d="M199 1342 c-44 -6 -81 -46 -86 -96 -11 -95 79 -153 166 -107 47 25
65 106 34 151 -9 14 -17 26 -18 27 -6 10 -75 28 -96 25z"/>
<path d="M1621 1331 c-17 -13 -20 -20 -11 -26 7 -4 20 1 32 13 26 26 9 36 -21
13z"/>
<path d="M2361 1336 c-68 -22 -96 -100 -57 -158 43 -65 118 -74 168 -20 33 36
42 74 25 114 -25 59 -78 84 -136 64z"/>
<path d="M935 1321 c-7 -12 35 -42 47 -35 11 7 2 21 -22 34 -11 6 -21 6 -25 1z"/>
<path d="M1494 1168 c-77 -72 -137 -148 -185 -235 l-35 -62 -34 52 c-75 114
-200 265 -200 243 0 -4 11 -28 24 -54 23 -46 65 -169 85 -247 47 -187 30 -398
-41 -512 -11 -18 -17 -33 -14 -33 3 0 28 21 57 47 67 62 162 189 185 248 l17
47 42 -85 c51 -102 107 -186 169 -252 l47 -50 -24 50 c-33 68 -84 220 -92 275
-26 172 -26 245 1 400 7 45 41 144 64 192 10 21 14 38 9 38 -4 0 -38 -28 -75
-62z"/>
<path d="M1273 1189 c-30 -11 -38 -45 -19 -74 19 -29 57 -33 80 -9 40 40 -6
104 -61 83z"/>
<path d="M897 1107 c82 -120 116 -233 117 -387 1 -130 -6 -183 -34 -265 -26
-75 -25 -77 8 -24 113 180 128 358 43 527 -32 63 -109 162 -146 186 -20 13
-18 8 12 -37z"/>
<path d="M1602 1043 c-17 -43 -33 -96 -37 -118 -4 -22 -9 -49 -12 -60 -8 -42
-4 -197 7 -250 15 -71 53 -164 91 -223 17 -26 29 -40 26 -31 -3 8 -16 51 -30
95 -23 71 -29 101 -43 194 -5 39 -5 220 1 275 3 27 12 81 20 119 8 38 13 71
11 74 -2 2 -18 -32 -34 -75z"/>
<path d="M1719 1097 c-48 -24 -29 -97 25 -97 26 0 56 28 53 50 -7 42 -43 64
-78 47z"/>
<path d="M748 1089 c-27 -16 -23 -65 7 -85 23 -15 27 -15 50 0 61 40 6 122
-57 85z"/>
<path d="M362 1047 c-39 -12 -91 -68 -93 -100 -6 -85 8 -123 57 -156 45 -31
115 -33 162 -6 39 24 75 92 68 132 -2 15 -5 33 -5 40 -2 19 -53 74 -78 84 -40
15 -76 17 -111 6z"/>
<path d="M2169 1050 c-68 -20 -108 -69 -111 -137 -3 -84 62 -148 148 -147 179
1 195 256 19 286 -16 3 -42 2 -56 -2z"/>
<path d="M938 612 c-10 -26 -43 -86 -74 -133 -33 -49 -46 -76 -33 -64 69 58
115 130 128 198 11 61 0 60 -21 -1z"/>
<path d="M1680 619 c0 -58 57 -166 100 -189 16 -9 18 -8 13 7 -15 39 -113 197
-113 182z"/>
</g>
</svg>
