<?xml version="1.0" encoding="utf-8"?>
<!-- Generator: Adobe Illustrator 23.0.0, SVG Export Plug-In . SVG Version: 6.00 Build 0)  -->
<svg version="1.1" xmlns="http://www.w3.org/2000/svg" xmlns:xlink="http://www.w3.org/1999/xlink" x="0px" y="0px"
	 viewBox="0 0 1197 553" style="enable-background:new 0 0 1197 553;" xml:space="preserve">
<style type="text/css">
	.st0{fill:#2C2C2C;}
	.st1{fill:#73B8E9;}
	.st2{fill:#48803E;}
	.st3{fill:url(#XMLID_3_);}
	.st4{fill:#E4DF24;}
	.st5{fill:#FDFFFF;}
</style>
<g id="Capa_1">
	<g id="XMLID_175_">
		<path id="XMLID_105_" class="st0" d="M227.1,322.9c-3.2,0-5.6-0.9-7.4-2.7c-1.8-1.7-2.7-4.3-2.7-7.3V105.4c0-3.1,0.9-5.6,2.7-7.3
			c1.8-1.7,4.3-2.7,7.4-2.7h111c3.2,0,5.6,0.9,7.4,2.7c1.8,1.7,2.7,4.3,2.7,7.3v10c0,3.1-0.9,5.6-2.7,7.3c-1.8,1.7-4.3,2.7-7.4,2.7
			h-85.8c-2.2,0-3.4,1.2-3.4,3.4v60.3c0,2.2,1.2,3.4,3.4,3.4h79c3.1,0,5.6,0.9,7.4,2.7c1.8,1.7,2.7,4.3,2.7,7.3v10
			c0,3.1-0.9,5.6-2.7,7.3c-1.8,1.7-4.3,2.7-7.4,2.7h-79c-2.2,0-3.4,1.2-3.4,3.4v63.6c0,2.2,1.2,3.4,3.4,3.4h92.6
			c3.1,0,5.6,0.9,7.4,2.7c1.8,1.7,2.7,4.3,2.7,7.3v10c0,3.1-0.9,5.6-2.7,7.3c-1.8,1.7-4.3,2.7-7.4,2.7H227.1L227.1,322.9z"/>
		<path id="XMLID_103_" class="st0" d="M436,322.9c-14.4,0-24.7-3.9-31.1-11.7c-6.4-7.8-9.6-18.4-9.6-31.8v-174
			c0-3.1,0.9-5.6,2.7-7.3c1.8-1.7,4.3-2.7,7.4-2.7h10c3.2,0,5.6,0.9,7.4,2.7c1.8,1.7,2.7,4.3,2.7,7.3v177.4c0,3.6,1,6.4,3,8.5
			s4.9,3.2,8.8,3.2h3.4c3.2,0,5.6,0.9,7.4,2.7c1.8,1.7,2.7,4.3,2.7,7.3v8.4c0,3.1-0.9,5.6-2.7,7.3c-1.8,1.7-4.3,2.7-7.4,2.7H436
			L436,322.9z"/>
		<path id="XMLID_98_" class="st0" d="M733.8,322.9c-16.8,0-29.2-4.5-37.2-13.7c-7.9-9.2-12-21.8-12-38.2v-67c0-2.2-1.2-3.4-3.4-3.4
			h-10c-3.2,0-5.6-0.9-7.4-2.7c-1.8-1.7-2.7-4.3-2.7-7.3v-8.4c0-3.1,0.9-5.6,2.7-7.3s4.3-2.7,7.4-2.7h10c2.2,0,3.4-1.2,3.4-3.4
			v-23.4c0-3.1,0.9-5.6,2.7-7.3s4.3-2.7,7.4-2.7h10c3.2,0,5.6,0.9,7.4,2.7c1.8,1.7,2.7,4.3,2.7,7.3v23.4c0,2.2,1.2,3.4,3.4,3.4h25.2
			c3.1,0,5.6,0.9,7.4,2.7c1.8,1.8,2.7,4.3,2.7,7.3v8.4c0,3.1-0.9,5.6-2.7,7.3s-4.3,2.7-7.4,2.7h-25.2c-2.2,0-3.4,1.2-3.4,3.4v65.2
			c0,7.8,1.5,13.9,4.5,18.5c3,4.4,8.8,6.7,17.3,6.7h6.8c3.1,0,5.6,0.9,7.4,2.7c1.8,1.7,2.7,4.3,2.7,7.3v8.4c0,3.1-0.9,5.6-2.7,7.3
			c-1.8,1.7-4.3,2.7-7.4,2.7h-9.6V322.9z"/>
		<path id="XMLID_96_" class="st0" d="M828,322.9c-14.4,0-24.7-3.9-31.1-11.7c-6.4-7.8-9.6-18.4-9.6-31.8v-174
			c0-3.1,0.9-5.6,2.7-7.3c1.8-1.7,4.3-2.7,7.4-2.7h10c3.2,0,5.6,0.9,7.4,2.7c1.8,1.7,2.7,4.3,2.7,7.3v177.4c0,3.6,1,6.4,3,8.5
			s4.9,3.2,8.8,3.2h3.4c3.2,0,5.6,0.9,7.4,2.7c1.8,1.7,2.7,4.3,2.7,7.3v8.4c0,3.1-0.9,5.6-2.7,7.3c-1.8,1.7-4.3,2.7-7.4,2.7H828
			L828,322.9z"/>
		<path id="XMLID_77_" class="st0" d="M974,322.9c-3.2,0-5.6-1-7.4-3s-2.7-4.3-2.7-6.7c0-1.4-0.5-2.1-1.5-2.5
			c-1-0.3-1.9,0.1-2.9,1.2c-3.2,4.3-7.8,7.7-14,10.3c-6.2,2.7-13.6,4.1-22.4,4.1c-7.8,0-15.1-1.4-21.5-4.3
			c-6.5-2.9-12.1-7.1-16.8-12.4s-8.4-11.8-11.1-19.2c-2.7-7.4-4.1-15.7-4.1-24.6V236c0-8.7,1.5-16.9,4.7-24.7
			c3.1-7.8,7.5-14.6,13.3-20.3c5.7-5.7,12.5-10.2,20.4-13.5c7.8-3.4,16.5-5,25.9-5H984c3.1,0,5.6,0.9,7.4,2.7
			c1.8,1.8,2.7,4.3,2.7,7.3V313c0,3.1-0.9,5.6-2.7,7.3c-1.8,1.7-4.3,2.7-7.4,2.7L974,322.9L974,322.9z M964,204.2
			c0-2.2-1.2-3.4-3.4-3.4h-25.2c-11.2,0-19.9,3.5-26.1,10.3c-6.2,7-9.3,15.2-9.3,24.7V269c0,8.5,2.5,15.4,7.5,20.8
			c5,5.3,12.1,8,21.1,8c6.1,0,11.3-1.1,15.7-3.2c4.3-2.1,8-4.9,10.9-8.5s5.1-7.5,6.6-11.9c1.4-4.3,2.2-8.9,2.2-13.5V204.2z"/>
		<path id="XMLID_1_" class="st0" d="M1036,289.5c3.8-4.4,8.4-4.3,13.8,0.3c2.5,2,5.4,3.9,8.9,5.5s7.7,2.5,12.7,2.5
			c6.1,0,11.1-1.4,15.2-4.1c4.1-2.7,6.1-6.3,6.1-10.7c0-4.3-1.7-7.9-5.2-11s-10-7.1-19.3-11.7c-6.1-2.9-11.4-5.9-16.1-9.1
			c-4.7-3.1-8.7-6.6-12-10.2c-3.3-3.7-5.8-7.7-7.5-12.2c-1.8-4.4-2.7-9.7-2.7-15.7s1.2-11.7,3.4-17.1c2.2-5.3,5.4-10,9.6-14
			c4.2-4.1,9.2-7.1,15.2-9.6c5.9-2.3,12.7-3.5,20-3.5c9,0,16.9,1.6,23.9,5s12,6.7,15.2,10c1.8,2.2,2.7,4.6,2.9,7.1
			c0.1,2.6-0.9,4.8-2.9,6.9l-6.1,6.4c-2,2-4.1,3.3-6.2,3.9c-2.1,0.6-4.3-0.3-6.6-2.5c-6.1-5.6-12.8-8.4-20.2-8.4
			c-6.5,0-11.3,1.4-14.3,4.3s-4.5,6.7-4.5,11.4c0,4.4,2.1,8.2,6.4,11.4c4.3,3.2,9.7,6.1,16.1,9c6.3,2.7,12,5.6,17,8.7
			s9.4,6.6,12.9,10.2c3.6,3.7,6.4,7.8,8.4,12.4c2,4.5,3,9.9,3,15.9c0,7.3-1.4,13.9-4.3,19.6s-6.8,10.5-11.6,14.4
			c-4.8,3.9-10.3,6.8-16.5,8.7c-6.2,1.9-12.4,2.8-18.6,2.8c-10.3,0-18.8-1.4-25.6-4.2c-6.8-2.8-12.1-6.6-16.1-11.2
			c-1.8-2-2.7-4.3-2.9-7.1c-0.1-2.7,0.9-5,2.9-7.1L1036,289.5z"/>
	</g>
	<g id="XMLID_209_">
		<path id="XMLID_210_" class="st0" d="M259.6,471.1c0,3-0.5,5.8-1.5,8.2c-1.1,2.5-2.5,4.5-4.3,6.4c-1.8,1.7-4.2,3.1-6.8,4.1
			s-5.5,1.4-8.6,1.4c-3,0-5.8-0.5-8.3-1.5c-2.5-1.1-4.7-2.5-6.6-4.3c-1.8-1.8-3.3-4.2-4.3-6.8c-1.1-2.6-1.5-5.5-1.5-8.7v-19.6
			c0-3.1,0.6-6,1.6-8.6c1.1-2.6,2.5-4.9,4.4-6.8c1.8-1.8,4.2-3.4,6.7-4.4c2.6-1.1,5.4-1.6,8.4-1.6c2,0,3.9,0.2,5.5,0.6
			s3.2,0.9,4.5,1.4c1.4,0.6,2.5,1.3,3.6,2s1.8,1.4,2.5,2.1c1.3,1.3,1.3,2.5,0,3.8l-2.1,2c-0.6,0.6-1.2,0.9-1.7,1
			c-0.6,0.1-1.2-0.3-1.9-1s-2-1.5-3.7-2.5s-3.9-1.4-6.7-1.4c-1.9,0-3.7,0.4-5.2,1.1s-2.8,1.6-3.9,2.9c-1.1,1.3-1.9,2.6-2.4,4.3
			c-0.6,1.6-0.9,3.4-0.9,5.2V470c0,4,1.1,7.2,3.1,9.7s5,3.7,8.9,3.7c4.2,0,7.3-1.2,9.4-3.4c2.1-2.2,3.2-5.1,3.2-8.7v-0.7
			c0-0.5-0.1-0.8-0.2-1c-0.1-0.2-0.4-0.3-0.7-0.5l-16.1-8.8c-0.7-0.4-1.2-1-1.4-1.6c-0.2-0.7-0.1-1.4,0.3-2l1.4-2.3
			c0.4-0.7,0.9-1.2,1.6-1.4c0.7-0.2,1.4-0.1,2.1,0.3l19.6,10.9c0.8,0.5,1.4,1,1.5,1.4c0.3,0.5,0.4,1.1,0.4,1.9
			C259.6,467.3,259.6,471.1,259.6,471.1z"/>
		<path id="XMLID_212_" class="st0" d="M298.4,481.5c0.6,0.6,0.8,1.2,0.8,1.7c0,0.7-0.3,1.3-0.8,1.8c-1.3,1.4-3.1,2.9-5.4,4.2
			c-2.4,1.3-5.2,1.8-8.6,1.8c-2.6,0-4.9-0.4-7-1.2c-2-0.8-3.9-1.9-5.3-3.4c-1.4-1.4-2.6-3.1-3.4-5c-0.8-1.9-1.2-4-1.2-6.1V465
			c0-2.1,0.4-4.2,1.1-6.1c0.7-1.9,1.7-3.6,3.1-5c1.4-1.4,3.1-2.5,5.1-3.4s4.3-1.3,6.9-1.3c2.6,0,4.9,0.4,7,1.3
			c2,0.9,3.8,1.9,5.2,3.4c1.4,1.4,2.5,3.1,3.3,5s1.2,4,1.2,6.1v5.3c0,0.9-0.3,1.4-0.8,1.9s-1.2,0.7-2,0.7h-20.9c-0.6,0-1,0.3-1,0.9
			v1.6c0,2.2,0.7,4.2,2,5.7s3.6,2.3,6.5,2.3c2.3,0,4.2-0.4,5.4-1.2c1.3-0.8,2.3-1.5,3-2.3c0.7-0.7,1.4-1,2-1c0.7,0,1.3,0.3,1.8,0.9
			L298.4,481.5z M291.9,465c0-2.2-0.7-4.2-1.9-5.8c-1.3-1.6-3.4-2.4-6.4-2.4c-2.9,0-4.9,0.8-6.1,2.4s-1.7,3.6-1.7,5.8v0.5
			c0,0.6,0.3,0.9,1,0.9H291c0.6,0,1-0.3,1-0.9L291.9,465L291.9,465z"/>
		<path id="XMLID_289_" class="st0" d="M330.2,491.2c-3,0-5.8-0.6-8.4-1.6c-2.6-1.1-4.9-2.6-6.9-4.5s-3.5-4.2-4.6-6.7
			c-1.2-2.5-1.7-5.2-1.7-8.2c0-2.9,0.6-5.6,1.7-8.2c1.2-2.5,2.7-4.7,4.6-6.7s4.3-3.4,6.9-4.5s5.4-1.6,8.4-1.6s5.8,0.6,8.4,1.6
			c2.6,1.1,4.9,2.6,6.9,4.5s3.5,4.2,4.6,6.7c1.2,2.5,1.7,5.2,1.7,8.2c0,2.9-0.6,5.6-1.7,8.2c-1.2,2.5-2.7,4.7-4.6,6.7
			s-4.3,3.4-6.9,4.5C336,490.6,333.2,491.2,330.2,491.2z M330.2,483.5c1.9,0,3.7-0.4,5.3-1.1c1.6-0.7,3.1-1.6,4.3-2.9
			c1.2-1.2,2.1-2.6,2.8-4.3c0.7-1.6,1.1-3.4,1.1-5.2c0-1.8-0.4-3.6-1.1-5.2s-1.6-3.1-2.8-4.3s-2.6-2.1-4.3-2.9
			c-1.6-0.8-3.4-1.1-5.3-1.1s-3.7,0.4-5.3,1.1c-1.6,0.7-3.1,1.6-4.3,2.9c-1.2,1.2-2.1,2.6-2.8,4.3c-0.7,1.6-1.1,3.4-1.1,5.2
			c0,1.8,0.4,3.6,1.1,5.2s1.6,3.1,2.8,4.3c1.2,1.2,2.6,2.1,4.3,2.9C326.6,483.2,328.3,483.5,330.2,483.5z"/>
		<path id="XMLID_292_" class="st0" d="M381.4,505.5c-1.1-1.4-0.8-2.5,0.8-3.7c0.8-0.6,1.4-1.2,2-2s0.9-1.9,0.9-3.3
			c0-1.9-0.8-3.5-2.2-4.6c-1.5-1.2-3.5-1.7-5.8-1.7h-15.8c-0.9,0-1.5-0.2-2-0.7s-0.8-1.2-0.8-1.9v-2.2c0-1.4,0.5-2.6,1.5-4.1
			l4.3-5.8c0.3-0.5,0.4-1,0.3-1.4s-0.3-0.9-0.5-1.2c-1-1.2-1.6-2.5-2.1-4.1c-0.5-1.4-0.8-3-0.8-4.5c0-2.1,0.5-4.1,1.4-5.9
			s2-3.5,3.6-4.8c1.4-1.4,3.2-2.4,5.1-3.3c1.9-0.8,4-1.2,6.2-1.2c0.6,0,1.3,0,1.9,0.1c0.7,0.1,1.4,0.2,2.2,0.6
			c0.9,0.2,1.4,0.3,1.8,0.1s0.7-0.5,1.1-0.9l3-3.9c0.5-0.7,1.1-1.1,1.8-1.2c0.7-0.1,1.4,0.1,2.1,0.6l1.8,1.3
			c0.7,0.5,1.1,1.1,1.2,1.7c0.1,0.7-0.1,1.4-0.6,2l-3,3.9c-0.3,0.5-0.4,1-0.2,1.5s0.4,1.1,0.8,1.5c1.5,2.4,2.3,5,2.3,7.8
			c0,2.1-0.5,4.1-1.4,5.9s-2.1,3.5-3.6,4.7c-1.4,1.4-3.2,2.4-5.1,3.2c-1.9,0.8-4,1.2-6.2,1.2c-0.9,0-1.6-0.1-2.4-0.2
			s-1.4-0.2-1.9-0.4c-0.5-0.1-1-0.1-1.4,0s-0.8,0.4-1.1,0.9l-1.4,1.9c-0.6,0.9-0.3,1.3,0.9,1.3h7.1c2.2,0,4.3,0.3,6.3,1
			s3.8,1.5,5.2,2.8c1.5,1.2,2.7,2.6,3.6,4.3c0.9,1.7,1.3,3.6,1.3,5.7c0,3-0.7,5.5-2,7.3c-1.4,1.8-2.8,3.3-4.3,4.3
			c-0.7,0.4-1.4,0.6-2,0.4c-0.7-0.2-1.3-0.5-1.7-1.1L381.4,505.5z M377.3,471.9c1.1,0,2-0.2,3-0.6s1.7-1,2.5-1.6s1.3-1.4,1.7-2.4
			c0.4-1,0.7-1.9,0.7-3s-0.2-2-0.7-3c-0.4-1-1-1.7-1.7-2.4s-1.5-1.3-2.5-1.6c-1-0.4-1.9-0.6-3-0.6s-2,0.2-3,0.6s-1.7,1-2.5,1.6
			c-0.7,0.7-1.3,1.4-1.7,2.4c-0.4,1-0.7,1.9-0.7,3s0.2,2,0.7,3c0.4,1,1,1.7,1.7,2.4c0.7,0.7,1.5,1.3,2.5,1.6
			C375.3,471.7,376.2,471.9,377.3,471.9z"/>
		<path id="XMLID_295_" class="st0" d="M404.8,490.3c-0.9,0-1.5-0.2-2-0.7s-0.8-1.2-0.8-1.9v-22.8c0-4.3,1.3-7.9,3.9-10.6
			s6.2-4.2,10.8-4.2h3.3c0.9,0,1.5,0.2,2,0.7s0.8,1.2,0.8,1.9v2.2c0,0.9-0.3,1.4-0.8,1.9s-1.2,0.7-2,0.7h-2.8
			c-2.3,0-4.1,0.7-5.2,2.1c-1.2,1.4-1.7,3.2-1.7,5.5v22.3c0,0.9-0.3,1.4-0.8,1.9s-1.2,0.7-2,0.7h-2.6L404.8,490.3L404.8,490.3z"/>
		<path id="XMLID_297_" class="st0" d="M458,490.3c-0.9,0-1.5-0.3-2-0.8c-0.5-0.6-0.8-1.2-0.8-1.7c0-0.4-0.1-0.6-0.4-0.7
			s-0.6,0-0.8,0.3c-0.9,1.2-2.1,2-3.9,2.8c-1.7,0.7-3.8,1.1-6.2,1.1c-2.1,0-4.2-0.4-5.9-1.2c-1.7-0.8-3.3-1.8-4.6-3.3
			c-1.3-1.4-2.3-3.1-3.1-5.1c-0.8-2-1.1-4.2-1.1-6.6v-7.9c0-2.3,0.4-4.5,1.3-6.6s2-3.9,3.7-5.4c1.5-1.5,3.5-2.7,5.6-3.6
			s4.5-1.4,7.1-1.4h13.7c0.9,0,1.5,0.2,2,0.7s0.8,1.2,0.8,1.9v34.8c0,0.9-0.3,1.4-0.8,1.9s-1.2,0.7-2,0.7L458,490.3L458,490.3z
			 M455.2,458.6c0-0.6-0.3-0.9-1-0.9h-7c-3.1,0-5.5,1-7.1,2.8c-1.7,1.8-2.5,4.1-2.5,6.6v8.8c0,2.2,0.7,4.2,2,5.5
			c1.4,1.4,3.3,2.1,5.8,2.1c1.6,0,3.1-0.3,4.3-0.9c1.2-0.6,2.2-1.4,3-2.3c0.8-1,1.4-2,1.8-3.2s0.6-2.3,0.6-3.6L455.2,458.6
			L455.2,458.6z"/>
		<path id="XMLID_300_" class="st0" d="M481.9,490.3c-0.9,0-1.5-0.2-2-0.7s-0.8-1.2-0.8-1.9v-29c0-0.6-0.3-0.9-1-0.9h-4.6
			c-0.9,0-1.5-0.2-2-0.7s-0.8-1.2-0.8-1.9V453c0-0.9,0.3-1.4,0.8-1.9s1.2-0.7,2-0.7h4.6c0.6,0,1-0.3,1-0.9v-4.8c0-2.1,0.4-4.2,1.1-6
			s1.6-3.5,3-4.8c1.3-1.4,2.9-2.4,4.7-3.2c1.8-0.8,3.9-1.2,6.2-1.2h1.7c0.9,0,1.5,0.2,2,0.7s0.8,1.2,0.8,1.9v2.2
			c0,0.9-0.3,1.4-0.8,1.9s-1.2,0.7-2,0.7h-1.4c-2.3,0-4.1,0.7-5.2,2c-1.2,1.4-1.7,3.2-1.7,5.5v4.4c0,0.6,0.3,0.9,1,0.9h7.3
			c0.9,0,1.5,0.2,2,0.7s0.8,1.2,0.8,1.9v2.2c0,0.9-0.3,1.4-0.8,1.9s-1.2,0.7-2,0.7h-7.3c-0.6,0-1,0.3-1,0.9v29
			c0,0.9-0.3,1.4-0.8,1.9s-1.2,0.7-2,0.7h-2.8L481.9,490.3L481.9,490.3z"/>
		<path id="XMLID_302_" class="st0" d="M509.7,490.3c-0.9,0-1.5-0.2-2-0.7s-0.8-1.2-0.8-1.9v-34.8c0-0.9,0.3-1.4,0.8-1.9
			s1.2-0.7,2-0.7h2.8c0.9,0,1.5,0.2,2,0.7s0.8,1.2,0.8,1.9v34.8c0,0.9-0.3,1.4-0.8,1.9s-1.2,0.7-2,0.7H509.7z M515.2,443
			c-0.5,0.6-1.1,1-1.8,1c-0.7,0.1-1.4-0.2-2-0.6l-1.8-1.4c-0.7-0.5-1.1-1.1-1.1-1.7c0-0.7,0.2-1.4,0.7-2l6.7-7.8
			c0.6-0.7,1.2-1,1.9-1.1c0.7-0.1,1.4,0.2,2,0.7l1.8,1.4c0.7,0.6,1.1,1.2,1.1,1.8s-0.2,1.4-0.8,2L515.2,443z"/>
		<path id="XMLID_305_" class="st0" d="M555.9,490.3c-0.9,0-1.5-0.3-2-0.8s-0.8-1.2-0.8-1.7c0-0.4-0.1-0.6-0.4-0.7s-0.6,0-0.8,0.3
			c-0.9,1.2-2.1,2-3.9,2.8c-1.7,0.7-3.8,1.1-6.2,1.1c-2.1,0-4.2-0.4-5.9-1.2c-1.7-0.8-3.3-1.8-4.6-3.3c-1.3-1.4-2.3-3.1-3.1-5.1
			s-1.1-4.2-1.1-6.6v-7.9c0-2.3,0.4-4.5,1.3-6.6c0.9-2.1,2-3.9,3.7-5.4c1.5-1.5,3.5-2.7,5.6-3.6s4.5-1.4,7.1-1.4h13.7
			c0.9,0,1.5,0.2,2,0.7s0.8,1.2,0.8,1.9v34.8c0,0.9-0.3,1.4-0.8,1.9s-1.2,0.7-2,0.7L555.9,490.3L555.9,490.3z M553,458.6
			c0-0.6-0.3-0.9-1-0.9h-6.9c-3.1,0-5.5,1-7.1,2.8c-1.7,1.8-2.5,4.1-2.5,6.6v8.8c0,2.2,0.7,4.2,2,5.5c1.4,1.4,3.3,2.1,5.8,2.1
			c1.6,0,3.1-0.3,4.3-0.9c1.2-0.6,2.2-1.4,3-2.3c0.8-1,1.4-2,1.8-3.2s0.6-2.3,0.6-3.6V458.6L553,458.6z"/>
		<path id="XMLID_308_" class="st0" d="M610.8,490.3c-0.9,0-1.5-0.2-2.1-0.5c-0.5-0.3-1-1-1.3-1.9l-12.7-35.3
			c-0.3-0.8-0.3-1.4,0.1-1.8c0.4-0.5,1-0.7,1.8-0.7h3.4c1.6,0,2.7,0.7,3.2,2.1l8.8,26.5c0.2,0.7,0.5,1,1,1c0.4,0,0.8-0.3,1-1
			l8.8-26.5c0.4-1.4,1.4-2.1,3.1-2.1h3.4c0.9,0,1.4,0.2,1.8,0.7c0.4,0.5,0.4,1.1,0.1,1.8l-12.7,35.3c-0.3,1-0.7,1.6-1.3,1.9
			c-0.5,0.3-1.3,0.5-2,0.5H610.8z"/>
		<path id="XMLID_310_" class="st0" d="M642.5,443.8c-0.9,0-1.5-0.2-2-0.7s-0.8-1.2-0.8-1.9v-4.4c0-0.9,0.3-1.4,0.8-1.9
			s1.2-0.7,2-0.7h2.8c0.9,0,1.5,0.2,2,0.7s0.8,1.2,0.8,1.9v4.4c0,0.9-0.3,1.4-0.8,1.9s-1.2,0.7-2,0.7H642.5z M642.5,490.3
			c-0.9,0-1.5-0.2-2-0.7s-0.8-1.2-0.8-1.9v-34.8c0-0.9,0.3-1.4,0.8-1.9s1.2-0.7,2-0.7h2.8c0.9,0,1.5,0.2,2,0.7s0.8,1.2,0.8,1.9v34.8
			c0,0.9-0.3,1.4-0.8,1.9s-1.2,0.7-2,0.7H642.5z"/>
		<path id="XMLID_313_" class="st0" d="M672.5,490.3c-0.9,0-1.5-0.2-2.1-0.5c-0.5-0.3-1-1-1.3-1.9l-12.7-35.3
			c-0.3-0.8-0.3-1.4,0.1-1.8c0.4-0.5,1-0.7,1.8-0.7h3.4c1.6,0,2.7,0.7,3.2,2.1l8.8,26.5c0.2,0.7,0.5,1,1,1c0.4,0,0.8-0.3,1-1
			l8.8-26.5c0.4-1.4,1.4-2.1,3.1-2.1h3.4c0.9,0,1.4,0.2,1.8,0.7c0.4,0.5,0.4,1.1,0.1,1.8l-12.7,35.3c-0.3,1-0.7,1.6-1.3,1.9
			c-0.5,0.3-1.3,0.5-2,0.5H672.5z"/>
		<path id="XMLID_315_" class="st0" d="M729.1,490.3c-0.9,0-1.5-0.3-2-0.8c-0.5-0.6-0.8-1.2-0.8-1.7c0-0.4-0.1-0.6-0.4-0.7
			c-0.3-0.1-0.6,0-0.8,0.3c-0.9,1.2-2.1,2-3.9,2.8c-1.7,0.7-3.8,1.1-6.2,1.1c-2.1,0-4.2-0.4-5.9-1.2c-1.7-0.8-3.3-1.8-4.6-3.3
			c-1.3-1.4-2.3-3.1-3.1-5.1s-1.1-4.2-1.1-6.6v-7.9c0-2.3,0.4-4.5,1.3-6.6c0.9-2.1,2-3.9,3.7-5.4c1.5-1.5,3.5-2.7,5.6-3.6
			s4.5-1.4,7.2-1.4h13.7c0.9,0,1.5,0.2,2,0.7s0.8,1.2,0.8,1.9v34.8c0,0.9-0.3,1.4-0.8,1.9s-1.2,0.7-2,0.7L729.1,490.3L729.1,490.3z
			 M726.3,458.6c0-0.6-0.3-0.9-1-0.9h-7c-3.1,0-5.5,1-7.1,2.8c-1.7,1.8-2.5,4.1-2.5,6.6v8.8c0,2.2,0.7,4.2,2,5.5
			c1.4,1.4,3.3,2.1,5.8,2.1c1.6,0,3.1-0.3,4.3-0.9s2.2-1.4,3-2.3c0.8-1,1.4-2,1.8-3.2c0.4-1.2,0.6-2.3,0.6-3.6L726.3,458.6
			L726.3,458.6z"/>
		<path id="XMLID_318_" class="st0" d="M796.5,491.2c0-0.6-0.3-0.9-1-0.9H787c-2.3,0-4.3-0.4-6.3-1.2c-1.9-0.8-3.6-1.7-4.9-3.1
			c-1.4-1.4-2.4-2.9-3.1-4.6c-0.8-1.8-1.1-3.8-1.1-5.9v-22.7c0-0.9,0.3-1.4,0.8-1.9s1.2-0.7,2-0.7h2.8c0.9,0,1.5,0.2,2,0.7
			s0.8,1.2,0.8,1.9v22.7c0,2.2,0.7,4.1,2,5.3c1.4,1.3,3.2,1.9,5.5,1.9h8.2c0.6,0,1-0.3,1-0.9v-29c0-0.9,0.3-1.4,0.8-1.9
			s1.2-0.7,2-0.7h2.8c0.9,0,1.5,0.2,2,0.7s0.8,1.2,0.8,1.9V495c0,2.2-0.4,4.4-1.2,6.5s-1.9,3.8-3.4,5.3c-1.4,1.5-3.3,2.7-5.3,3.6
			c-2.1,0.9-4.4,1.4-7.2,1.4c-3.1,0-5.8-0.3-7.8-1c-2.1-0.6-4-1.4-5.5-2.4c-0.7-0.4-1.2-1-1.4-1.6c-0.2-0.7-0.1-1.4,0.2-1.9l1.1-2
			c0.8-1.4,2-1.8,3.6-1.1c1.3,0.7,2.7,1.4,4.3,1.7c1.5,0.5,3.4,0.7,5.5,0.7c3.2,0,5.4-0.8,6.8-2.4s2-3.9,2-6.7v-4h-0.3V491.2z"/>
		<path id="XMLID_320_" class="st0" d="M870.5,490.3c-0.9,0-1.5-0.3-2-0.8c-0.5-0.6-0.8-1.2-0.8-1.7c0-0.4-0.1-0.6-0.4-0.7
			c-0.3-0.1-0.6,0-0.8,0.3c-0.9,1.2-2.1,2-3.9,2.8c-1.7,0.7-3.8,1.1-6.2,1.1c-2.1,0-4.2-0.4-5.9-1.2c-1.7-0.8-3.3-1.8-4.6-3.3
			c-1.3-1.4-2.3-3.1-3.1-5.1s-1.1-4.2-1.1-6.6v-7.9c0-2.3,0.4-4.5,1.3-6.6c0.9-2.1,2-3.9,3.7-5.4c1.5-1.5,3.5-2.7,5.6-3.6
			s4.5-1.4,7.2-1.4h13.7c0.9,0,1.5,0.2,2,0.7s0.8,1.2,0.8,1.9v34.8c0,0.9-0.3,1.4-0.8,1.9s-1.2,0.7-2,0.7L870.5,490.3L870.5,490.3z
			 M867.6,458.6c0-0.6-0.3-0.9-1-0.9h-7c-3.1,0-5.5,1-7.2,2.8s-2.5,4.1-2.5,6.6v8.8c0,2.2,0.7,4.2,2,5.5c1.4,1.4,3.3,2.1,5.8,2.1
			c1.6,0,3.1-0.3,4.3-0.9s2.2-1.4,3-2.3c0.8-1,1.4-2,1.8-3.2c0.4-1.2,0.6-2.3,0.6-3.6L867.6,458.6L867.6,458.6z"/>
		<path id="XMLID_323_" class="st0" d="M894.4,490.3c-0.9,0-1.5-0.2-2-0.7s-0.8-1.2-0.8-1.9v-29c0-0.6-0.3-0.9-1-0.9H886
			c-0.9,0-1.5-0.2-2-0.7s-0.8-1.2-0.8-1.9V453c0-0.9,0.3-1.4,0.8-1.9s1.2-0.7,2-0.7h4.6c0.6,0,1-0.3,1-0.9v-4.8c0-2.1,0.4-4.2,1.1-6
			c0.7-1.8,1.6-3.5,3-4.8c1.3-1.4,2.9-2.4,4.7-3.2c1.8-0.8,3.9-1.2,6.2-1.2h1.7c0.9,0,1.5,0.2,2,0.7s0.8,1.2,0.8,1.9v2.2
			c0,0.9-0.3,1.4-0.8,1.9s-1.2,0.7-2,0.7H907c-2.3,0-4.1,0.7-5.2,2c-1.2,1.4-1.7,3.2-1.7,5.5v4.4c0,0.6,0.3,0.9,1,0.9h7.3
			c0.9,0,1.5,0.2,2,0.7s0.8,1.2,0.8,1.9v2.2c0,0.9-0.3,1.4-0.8,1.9s-1.2,0.7-2,0.7H901c-0.6,0-1,0.3-1,0.9v29c0,0.9-0.3,1.4-0.8,1.9
			s-1.2,0.7-2,0.7h-2.8V490.3z"/>
		<path id="XMLID_325_" class="st0" d="M948.4,481.5c0.6,0.6,0.8,1.2,0.8,1.7c0,0.7-0.3,1.3-0.8,1.8c-1.3,1.4-3.1,2.9-5.4,4.2
			c-2.4,1.3-5.2,1.8-8.6,1.8c-2.6,0-4.9-0.4-7-1.2s-3.9-1.9-5.3-3.4c-1.4-1.4-2.6-3.1-3.4-5c-0.8-1.9-1.2-4-1.2-6.1V465
			c0-2.1,0.4-4.2,1.1-6.1s1.7-3.6,3.1-5c1.4-1.4,3.1-2.5,5.1-3.4s4.3-1.3,6.9-1.3s4.9,0.4,7,1.3c2,0.9,3.8,1.9,5.2,3.4
			c1.4,1.4,2.5,3.1,3.3,5s1.2,4,1.2,6.1v5.3c0,0.9-0.3,1.4-0.8,1.9s-1.2,0.7-2,0.7h-20.8c-0.6,0-1,0.3-1,0.9v1.6
			c0,2.2,0.7,4.2,2,5.7c1.4,1.5,3.6,2.3,6.5,2.3c2.3,0,4.2-0.4,5.4-1.2c1.3-0.8,2.3-1.5,3-2.3c0.7-0.7,1.4-1,2-1s1.3,0.3,1.8,0.9
			L948.4,481.5z M942,465c0-2.2-0.7-4.2-1.9-5.8c-1.3-1.6-3.4-2.4-6.4-2.4c-2.9,0-4.9,0.8-6.1,2.4c-1.2,1.6-1.7,3.6-1.7,5.8v0.5
			c0,0.6,0.3,0.9,1,0.9h14.3c0.6,0,1-0.3,1-0.9L942,465L942,465z"/>
		<path id="XMLID_328_" class="st0" d="M988.6,482.3c0.6,0.6,0.8,1.2,0.8,1.7c-0.1,0.7-0.4,1.3-0.9,1.8c-1.1,1.2-2.7,2.3-4.8,3.5
			c-2.2,1.2-4.7,1.7-7.5,1.7c-2.7,0-5.1-0.4-7.2-1.3c-2-0.9-3.8-2-5.2-3.5c-1.4-1.4-2.5-3.2-3.2-5.1s-1.1-4.1-1.1-6.2V465
			c0-2.1,0.4-4.2,1.2-6.2c0.8-1.9,1.8-3.7,3.3-5.1c1.4-1.4,3.2-2.6,5.2-3.5s4.3-1.3,7-1.3c2.5,0,4.7,0.4,6.8,1.3
			c1.9,0.9,3.6,1.9,4.9,3.2c0.6,0.6,0.9,1.2,0.9,1.8c0,0.7-0.3,1.4-0.9,1.8l-1.7,1.7c-1.2,1.2-2.4,1.1-3.8-0.1
			c-0.7-0.6-1.5-1.2-2.6-1.5c-1.1-0.5-2.2-0.7-3.5-0.7c-3,0-5.1,0.9-6.4,2.5c-1.3,1.7-1.9,3.7-1.9,5.9v9.9c0,1.2,0.1,2.2,0.4,3.3
			s0.8,1.9,1.4,2.7c0.7,0.8,1.4,1.4,2.5,1.8c1.1,0.5,2.4,0.7,4,0.7s3-0.3,4.2-1s2.1-1.3,2.8-1.8c1.4-1.2,2.7-1.2,3.9,0L988.6,482.3z
			"/>
		<path id="XMLID_330_" class="st0" d="M1014,490.3c-4.6,0-8-1.3-10.2-3.7c-2.2-2.4-3.3-5.8-3.3-10.1v-17.9c0-0.6-0.3-0.9-1-0.9
			h-2.8c-0.9,0-1.5-0.2-2-0.7s-0.8-1.2-0.8-1.9v-2.2c0-0.9,0.3-1.4,0.8-1.9s1.2-0.7,2-0.7h2.8c0.6,0,1-0.3,1-0.9v-6.3
			c0-0.9,0.3-1.4,0.8-1.9s1.2-0.7,2-0.7h2.8c0.9,0,1.5,0.2,2,0.7s0.8,1.2,0.8,1.9v6.3c0,0.6,0.3,0.9,1,0.9h7c0.9,0,1.5,0.2,2,0.7
			s0.8,1.2,0.8,1.9v2.2c0,0.9-0.3,1.4-0.8,1.9s-1.2,0.7-2,0.7h-7c-0.6,0-1,0.3-1,0.9V476c0,2.1,0.4,3.8,1.3,4.9
			c0.9,1.2,2.4,1.7,4.7,1.7h1.8c0.9,0,1.5,0.2,2,0.7s0.8,1.2,0.8,1.9v2.2c0,0.9-0.3,1.4-0.8,1.9s-1.2,0.7-2,0.7h-2.7V490.3z"/>
		<path id="XMLID_332_" class="st0" d="M1031.5,443.8c-0.9,0-1.5-0.2-2-0.7s-0.8-1.2-0.8-1.9v-4.4c0-0.9,0.3-1.4,0.8-1.9
			s1.2-0.7,2-0.7h2.8c0.9,0,1.5,0.2,2,0.7s0.8,1.2,0.8,1.9v4.4c0,0.9-0.3,1.4-0.8,1.9s-1.2,0.7-2,0.7H1031.5z M1031.5,490.3
			c-0.9,0-1.5-0.2-2-0.7s-0.8-1.2-0.8-1.9v-34.8c0-0.9,0.3-1.4,0.8-1.9s1.2-0.7,2-0.7h2.8c0.9,0,1.5,0.2,2,0.7s0.8,1.2,0.8,1.9v34.8
			c0,0.9-0.3,1.4-0.8,1.9s-1.2,0.7-2,0.7H1031.5z"/>
		<path id="XMLID_335_" class="st0" d="M1061.5,490.3c-0.9,0-1.5-0.2-2.1-0.5c-0.5-0.3-1-1-1.3-1.9l-12.7-35.3
			c-0.3-0.8-0.3-1.4,0.1-1.8c0.4-0.5,1-0.7,1.8-0.7h3.4c1.6,0,2.7,0.7,3.2,2.1l8.8,26.5c0.2,0.7,0.5,1,1,1c0.4,0,0.8-0.3,1-1
			l8.8-26.5c0.4-1.4,1.4-2.1,3.1-2.1h3.4c0.9,0,1.4,0.2,1.8,0.7c0.4,0.5,0.4,1.1,0.1,1.8l-12.7,35.3c-0.3,1-0.8,1.6-1.3,1.9
			s-1.3,0.5-2.1,0.5H1061.5z"/>
		<path id="XMLID_337_" class="st0" d="M1118.1,490.3c-0.9,0-1.5-0.3-2-0.8c-0.5-0.6-0.8-1.2-0.8-1.7c0-0.4-0.1-0.6-0.4-0.7
			s-0.6,0-0.8,0.3c-0.9,1.2-2.1,2-3.9,2.8c-1.7,0.7-3.8,1.1-6.2,1.1c-2.1,0-4.2-0.4-5.9-1.2c-1.7-0.8-3.3-1.8-4.6-3.3
			c-1.3-1.4-2.3-3.1-3.1-5.1s-1.1-4.2-1.1-6.6v-7.9c0-2.3,0.4-4.5,1.3-6.6c0.9-2.1,2.1-3.9,3.7-5.4c1.5-1.5,3.5-2.7,5.6-3.6
			s4.5-1.4,7.2-1.4h13.7c0.9,0,1.5,0.2,2,0.7s0.8,1.2,0.8,1.9v34.8c0,0.9-0.3,1.4-0.8,1.9s-1.2,0.7-2,0.7L1118.1,490.3L1118.1,490.3
			z M1115.3,458.6c0-0.6-0.3-0.9-1-0.9h-7c-3.1,0-5.5,1-7.2,2.8s-2.5,4.1-2.5,6.6v8.8c0,2.2,0.7,4.2,2.1,5.5
			c1.4,1.4,3.3,2.1,5.8,2.1c1.6,0,3.1-0.3,4.3-0.9c1.2-0.6,2.2-1.4,3-2.3c0.8-1,1.4-2,1.8-3.2s0.6-2.3,0.6-3.6L1115.3,458.6
			L1115.3,458.6z"/>
	</g>
</g>
<g id="simbolo">
	<g id="XMLID_1049_">
		<g id="XMLID_1051_">
			<polygon id="XMLID_1052_" class="st1" points="573.1,313.7 573.9,41 482.8,392.8 573.1,313.7 			"/>
		</g>
		<polygon id="XMLID_1050_" class="st2" points="666.7,392.9 573.1,313.7 573.9,41 		"/>
	</g>
	<g id="XMLID_975_">
		<g id="XMLID_1047_">
			<path id="XMLID_1048_" class="st1" d="M592.6,186.7c0.1,5.5-0.9,8.9-1.3,10.2c2.4,0.8,4,1.7,5.2,2.5c2.1-3.8,3.3-8.1,3.4-12.7
				H592.6z"/>
		</g>
		<g id="XMLID_1045_">
			<path id="XMLID_1046_" class="st1" d="M592.9,185.6h7.3c-0.1-4.4-1.3-8.6-3.4-12.2c-1.1,0.8-2.8,1.8-5.2,2.6
				C592.4,179.6,592.8,182.8,592.9,185.6z"/>
		</g>
		<g id="XMLID_976_">
			<g id="XMLID_1043_">
				<path id="XMLID_1044_" class="st2" d="M572.5,159.7c-1.3,1.5-3,3.8-4.5,7c1.4,0.2,3,0.4,4.7,0.4v-7.4
					C572.7,159.7,572.6,159.7,572.5,159.7z"/>
			</g>
			<g id="XMLID_1041_">
				<path id="XMLID_1042_" class="st2" d="M569.4,160c-1.8,1.3-4.2,3.1-6.5,5.3c1.2,0.4,2.5,0.8,3.9,1.1c1.3-2.9,2.8-5.1,4.1-6.7
					C570.4,159.8,569.9,159.9,569.4,160z"/>
			</g>
			<g id="XMLID_1039_">
				<path id="XMLID_1040_" class="st1" d="M573.9,159.7v7.4c1.6,0,3.2-0.2,5-0.6c-1.5-3.1-3.2-5.4-4.4-6.8
					C574.3,159.7,574.1,159.7,573.9,159.7z"/>
			</g>
			<g id="XMLID_1037_">
				<path id="XMLID_1038_" class="st1" d="M582.5,186.7h-8.6v7.6c3.1,0.1,5.8,0.3,8.2,0.6C582.3,193.6,582.5,191,582.5,186.7z"/>
			</g>
			<g id="XMLID_1035_">
				<path id="XMLID_1036_" class="st1" d="M591.4,174.8c2.3-0.8,3.8-1.7,4.9-2.5c-2-3.2-4.6-5.9-7.6-8c-0.9,0.5-1.8,0.9-2.7,1.2
					C588.4,168.2,590.5,171.4,591.4,174.8z"/>
			</g>
			<g id="XMLID_1033_">
				<path id="XMLID_1034_" class="st1" d="M583.1,177.8c0.3,3,0.4,5.6,0.5,7.8h8.2c-0.1-2.7-0.4-5.8-1.2-9.3
					C588.5,176.9,586.1,177.4,583.1,177.8z"/>
			</g>
			<g id="XMLID_1031_">
				<path id="XMLID_1032_" class="st1" d="M591.8,186.7h-8.2c0.1,4.3-0.2,7-0.4,8.3c2.9,0.4,5.4,1,7.4,1.6
					C591,195.4,591.9,192,591.8,186.7z"/>
			</g>
			<g id="XMLID_1029_">
				<path id="XMLID_1030_" class="st1" d="M574.5,178.3c-0.2,0-0.4,0-0.7,0v7.3h8.5c-0.1-2.2-0.2-4.7-0.5-7.7
					C579.7,178.1,577.3,178.3,574.5,178.3z"/>
			</g>
			<g id="XMLID_1027_">
				<path id="XMLID_1028_" class="st2" d="M565.1,177.8c-0.3,3-0.4,5.6-0.5,7.8h8.1v-7.3C569.9,178.2,567.3,178,565.1,177.8z"/>
			</g>
			<g id="XMLID_1025_">
				<path id="XMLID_1026_" class="st2" d="M556.4,176.2c-0.8,3.6-1.1,6.7-1.2,9.4h8.2c0.1-2.2,0.2-4.9,0.5-7.9
					C561,177.3,558.5,176.8,556.4,176.2z"/>
			</g>
			<g id="XMLID_1023_">
				<path id="XMLID_1024_" class="st1" d="M580.5,167.3c1.1,2.6,2,5.7,2.4,9.3c3-0.4,5.4-0.9,7.4-1.5c-0.8-3.4-3-6.5-5.5-9.1
					C583.3,166.6,581.9,167,580.5,167.3z"/>
			</g>
			<g id="XMLID_1021_">
				<path id="XMLID_1022_" class="st1" d="M573.9,168.2v8.9c3,0,5.6-0.1,7.9-0.3c-0.4-3.5-1.3-6.6-2.5-9.2
					C577.4,168,575.6,168.2,573.9,168.2z"/>
			</g>
			<g id="XMLID_1019_">
				<path id="XMLID_1020_" class="st2" d="M562.1,166.2c-2.4,2.6-4.5,5.6-5.4,8.9c2,0.6,4.4,1.1,7.4,1.4c0.4-3.4,1.3-6.4,2.3-9
					C564.8,167.1,563.3,166.7,562.1,166.2z"/>
			</g>
			<g id="XMLID_1017_">
				<path id="XMLID_1018_" class="st2" d="M567.6,167.7c-1.1,2.5-2,5.5-2.4,8.9c2.2,0.2,4.7,0.4,7.5,0.5v-8.9
					C570.9,168.2,569.2,168,567.6,167.7z"/>
			</g>
			<g id="XMLID_1015_">
				<path id="XMLID_1016_" class="st2" d="M561.8,207.4c1.2,1.7,2.6,3.3,4.1,4.6c1.3,0.4,2.7,0.7,4.1,0.8c-1.2-2.1-2.2-4.5-3.1-6.8
					C565.2,206.3,563.5,206.8,561.8,207.4z"/>
			</g>
			<g id="XMLID_1013_">
				<path id="XMLID_1014_" class="st2" d="M564.6,186.7c-0.1,3.9,0.2,6.5,0.4,7.8c2.3-0.2,4.9-0.3,7.8-0.3v-7.5H564.6z"/>
			</g>
			<g id="XMLID_1011_">
				<path id="XMLID_1012_" class="st2" d="M555.2,197.4c-2.3,0.7-3.9,1.6-5.1,2.3c1.9,3.2,4.4,6,7.4,8.2c0.8-0.4,1.6-0.8,2.4-1.1
					C557.1,202.5,555.4,198,555.2,197.4z"/>
			</g>
			<g id="XMLID_1009_">
				<path id="XMLID_1010_" class="st2" d="M558.6,208.7c1.5,0.9,3,1.8,4.6,2.4c-1-1-1.8-2.1-2.6-3.3
					C560,208.1,559.3,208.4,558.6,208.7z"/>
			</g>
			<g id="XMLID_1007_">
				<path id="XMLID_1008_" class="st2" d="M572.4,213v-7.6c-1.4,0-2.8,0.1-4.3,0.4c1,2.5,2.1,5.1,3.4,7.2
					C571.7,213,572.1,213,572.4,213z"/>
			</g>
			<g id="XMLID_1005_">
				<path id="XMLID_1006_" class="st1" d="M584.3,207.8c-1.4-0.6-3-1.2-4.9-1.6c-0.9,2.3-1.9,4.7-3.1,6.7c1.4-0.2,2.8-0.4,4.1-0.8
					C581.8,210.8,583.2,209.3,584.3,207.8z"/>
			</g>
			<g id="XMLID_1003_">
				<path id="XMLID_1004_" class="st2" d="M563.4,186.7h-8.2c0,4.7,0.6,7.8,1.1,9.3c2-0.6,4.5-1.1,7.5-1.4
					C563.6,193.2,563.4,190.7,563.4,186.7z"/>
			</g>
			<g id="XMLID_1001_">
				<path id="XMLID_1002_" class="st1" d="M573.5,205.4v7.6c0.5,0,0.9,0,1.4,0c1.2-2.1,2.4-4.6,3.3-7.1
					C576.8,205.6,575.2,205.5,573.5,205.4z"/>
			</g>
			<g id="XMLID_999_">
				<path id="XMLID_1000_" class="st2" d="M566.5,204.9c-1.7-4.6-2.8-8.7-2.8-9c0,0,0-0.1,0-0.1c-2.9,0.3-5.3,0.8-7.3,1.3
					c0.3,0.8,2,5.1,4.8,9.4C563,205.8,564.7,205.3,566.5,204.9z"/>
			</g>
			<g id="XMLID_997_">
				<path id="XMLID_998_" class="st1" d="M586.1,207.3c0.8,0.4,1.5,0.8,2.1,1.2c3.1-2.1,5.8-4.9,7.7-8.1c-1.1-0.7-2.7-1.6-5-2.4
					C590.3,199.5,588.7,203.4,586.1,207.3z"/>
			</g>
			<g id="XMLID_995_">
				<path id="XMLID_996_" class="st1" d="M583,211.2c1.4-0.6,2.8-1.2,4.1-2c-0.5-0.3-1-0.6-1.7-0.9
					C584.7,209.3,583.9,210.3,583,211.2z"/>
			</g>
			<g id="XMLID_993_">
				<path id="XMLID_994_" class="st2" d="M560.9,165.7c-1-0.4-1.9-0.9-2.6-1.3c-3.1,2.2-5.7,4.9-7.7,8.2c1.2,0.7,2.8,1.5,5,2.2
					C556.5,171.4,558.5,168.3,560.9,165.7z"/>
			</g>
			<g id="XMLID_991_">
				<path id="XMLID_992_" class="st2" d="M555.3,175.9c-2.3-0.7-4-1.5-5.3-2.3c-1.9,3.6-3.1,7.6-3.2,12h7.2
					C554.2,182.8,554.5,179.5,555.3,175.9z"/>
			</g>
			<g id="XMLID_989_">
				<path id="XMLID_990_" class="st2" d="M566.6,160.6c-2.6,0.7-5,1.8-7.2,3.1c0.7,0.4,1.5,0.7,2.4,1.1
					C563.3,163.2,565,161.7,566.6,160.6z"/>
			</g>
			<g id="XMLID_987_">
				<path id="XMLID_988_" class="st1" d="M585.1,164.7c0.8-0.3,1.6-0.7,2.4-1.1c-2.2-1.4-4.6-2.4-7.2-3.1
					C581.9,161.7,583.5,163.1,585.1,164.7z"/>
			</g>
			<g id="XMLID_985_">
				<path id="XMLID_986_" class="st1" d="M576.1,159.8c1.2,1.5,2.7,3.7,4,6.5c1.2-0.3,2.5-0.7,3.9-1.1c-2.2-2.2-4.5-3.9-6.3-5.2
					C577.1,159.9,576.6,159.8,576.1,159.8z"/>
			</g>
			<g id="XMLID_983_">
				<path id="XMLID_984_" class="st1" d="M585,206.8c2.6-3.7,4.2-7.7,4.8-9.2c-1.9-0.6-4.3-1.1-7.2-1.5c-0.2,0.9-1.3,4.7-2.8,9
					C581.8,205.5,583.5,206.2,585,206.8z"/>
			</g>
			<g id="XMLID_981_">
				<path id="XMLID_982_" class="st1" d="M578.6,204.8c1.5-4,2.5-7.8,2.8-8.9c-2.3-0.3-4.9-0.5-7.9-0.5v8.9
					C575.4,204.3,577.1,204.5,578.6,204.8z"/>
			</g>
			<g id="XMLID_979_">
				<path id="XMLID_980_" class="st2" d="M572.4,204.3v-8.9c-2.8,0-5.4,0.1-7.6,0.3c0.1,0.3,1.2,4.5,2.9,9
					C569.3,204.4,570.9,204.3,572.4,204.3z"/>
			</g>
			<g id="XMLID_977_">
				<path id="XMLID_978_" class="st2" d="M553.7,186.7h-7.2c0.1,4.3,1.2,8.4,3,12c1.2-0.8,2.9-1.7,5.3-2.4
					C554.4,194.8,553.7,191.5,553.7,186.7z"/>
			</g>
		</g>
	</g>
	<g id="XMLID_380_">
		<g id="XMLID_1192_">
			<g id="XMLID_1254_">
				<g id="XMLID_1255_">
					
						<radialGradient id="XMLID_3_" cx="569.7585" cy="-15977.6309" r="0.1245" gradientTransform="matrix(1 0 0 -1 0 -15830)" gradientUnits="userSpaceOnUse">
						<stop  offset="0" style="stop-color:#4F80C0"/>
						<stop  offset="0.32" style="stop-color:#4D7EBD"/>
						<stop  offset="0.5143" style="stop-color:#4578B5"/>
						<stop  offset="0.675" style="stop-color:#376EA7"/>
						<stop  offset="0.8175" style="stop-color:#256092"/>
						<stop  offset="0.9466" style="stop-color:#0C4D78"/>
						<stop  offset="1" style="stop-color:#00446B"/>
					</radialGradient>
					<path id="XMLID_1256_" class="st3" d="M569.9,147.5c-0.1,0.1-0.2,0.2-0.2,0.3c0.1,0,0.2,0,0.2,0V147.5z"/>
				</g>
			</g>
			<g id="XMLID_1252_">
				<path id="XMLID_1253_" class="st4" d="M573.5,233c-2.8-0.1-4.9-2.4-4.8-5.1c0.1-2.8,2.4-4.9,5.1-4.9c2.8,0.1,4.9,2.4,4.8,5.1
					C578.6,230.9,576.3,233.1,573.5,233z"/>
			</g>
			<g id="XMLID_1239_">
				<g id="XMLID_1248_">
					<g id="XMLID_1249_">
						<path id="XMLID_1250_" class="st4" d="M554.7,293.4l0.3-0.5c10-19.5,8.3-37.6,5-49.4c-3.5-12.7-9.5-20.9-9.6-21l-0.2-0.2
							l0.3,0c0.3,0,0.5,0,0.8,0c9.1,0.3,20,19.2,21.4,21.7c14.9-24.7,24.1-25.4,24.5-25.4l0.3,0l-0.1,0.2
							c-11.5,19.1-10.3,38.4-7.2,51.1c3.3,13.8,9.4,23.3,9.5,23.4l0.2,0.4l-0.4-0.1c-12.2-3.7-20.5-20.7-21.7-23.4
							c-4.3,11.8-22.3,22.9-22.5,23.1L554.7,293.4z"/>
					</g>
				</g>
				<g id="XMLID_1246_">
					<path id="XMLID_1247_" class="st4" d="M542.1,293l0.6-1c12.6-20.4,9.6-39.3,4.8-51.5c-5.2-13.3-13.5-21.8-13.6-21.9l0.2-0.2
						c15.4,11.4,23.6,24.1,24.3,37.7c1.1,20.5-15.3,36-15.5,36.1L542.1,293z"/>
				</g>
				<g id="XMLID_1244_">
					<path id="XMLID_1245_" class="st4" d="M607.1,293.6l-0.6-0.6c-7.6-8.1-12.3-17.3-14.1-27.1c-1.4-7.9-1-16.2,1.3-24.8
						c3.9-14.6,12-24.9,12-25l0.3,0.2c-9.2,15.6-8.5,35.6-6.3,49.6c2.4,15.2,7,26.8,7,27L607.1,293.6z"/>
				</g>
				<g id="XMLID_1242_">
					<path id="XMLID_1243_" class="st4" d="M535.4,239.5c-2.8-0.1-4.9-2.4-4.9-5.1c0.1-2.8,2.4-4.9,5.1-4.8c2.8,0.1,4.9,2.4,4.9,5.1
						C540.5,237.4,538.2,239.6,535.4,239.5z"/>
				</g>
				<g id="XMLID_1240_">
					<path id="XMLID_1241_" class="st4" d="M607,229.1c-2.6-0.1-4.7,2-4.8,4.5c-0.1,2.6,2,4.7,4.5,4.8c2.6,0.1,4.7-2,4.8-4.5
						C611.6,231.4,609.5,229.2,607,229.1z"/>
				</g>
			</g>
			<g id="XMLID_1237_">
				<path id="XMLID_1238_" class="st4" d="M613,282L613,282c-11-0.3-11.8-20.6-11.8-20.8l0-0.7l0.3,0.6
					c9.6,18.1,12.2,20.6,12.2,20.6l0.3,0.3l-0.4,0C613.4,282,613.2,282,613,282z"/>
			</g>
			<g id="XMLID_1235_">
				<path id="XMLID_1236_" class="st4" d="M533.4,286.5l0.6-0.7c0.1-0.1,11.1-13.9,14.9-28.3l0.2-0.7l0.1,0.7c0,0.1,0.9,6-0.4,12.4
					c0,0.1-2.4,8.7-14.7,16.1L533.4,286.5z"/>
			</g>
		</g>
		<g id="XMLID_1167_">
			<g id="XMLID_1189_">
				<g id="XMLID_1190_">
					<path id="XMLID_1191_" class="st5" d="M577.6,227.6c-0.1,2.1-1.8,3.8-4,3.8c-2.1-0.1-3.8-1.8-3.8-4c0.1-2.1,1.8-3.8,4-3.8
						C575.9,223.7,577.6,225.5,577.6,227.6z"/>
				</g>
			</g>
			<g id="XMLID_1186_">
				<g id="XMLID_1187_">
					<path id="XMLID_1188_" class="st5" d="M539,234.6c-0.1,2.1-1.8,3.8-4,3.8c-2.1-0.1-3.8-1.8-3.8-4c0.1-2.1,1.8-3.8,4-3.8
						C537.3,230.7,539,232.5,539,234.6z"/>
				</g>
			</g>
			<g id="XMLID_1183_">
				<g id="XMLID_1184_">
					<path id="XMLID_1185_" class="st5" d="M611,234.4c-0.1,2.1-1.8,3.8-4,3.8c-2.1-0.1-3.8-1.8-3.8-4c0.1-2.1,1.8-3.8,4-3.8
						C609.4,230.5,611.1,232.2,611,234.4z"/>
				</g>
			</g>
			<g id="XMLID_1180_">
				<g id="XMLID_1181_">
					<path id="XMLID_1182_" class="st5" d="M594.8,220.3c0,0-14.5,9.6-22.7,28c0,0-12.1-19.2-18-23.3c0,0,21.4,38.9,4,64.4
						c0,0,16.7-13.1,20-27c0,0,5.6,17.4,19.1,29.6C597.2,292,575.7,257.6,594.8,220.3z"/>
				</g>
			</g>
			<g id="XMLID_1177_">
				<g id="XMLID_1178_">
					<path id="XMLID_1179_" class="st5" d="M599.5,228.6c0,0-18,30.5,3.8,59.2C603.2,287.8,590.2,264.9,599.5,228.6z"/>
				</g>
			</g>
			<g id="XMLID_1174_">
				<g id="XMLID_1175_">
					<path id="XMLID_1176_" class="st5" d="M602.5,265.7c0,0,0.9,12.5,9,15.6L602.5,265.7z"/>
				</g>
			</g>
			<g id="XMLID_1171_">
				<g id="XMLID_1172_">
					<path id="XMLID_1173_" class="st5" d="M541.2,226.1c0,0,32.2,23,7.1,57.8C548.4,283.9,563.1,253.7,541.2,226.1z"/>
				</g>
			</g>
			<g id="XMLID_1168_">
				<g id="XMLID_1169_">
					<path id="XMLID_1170_" class="st5" d="M548.6,262.4c0,0,2.2,10.4-11.8,21.1C536.8,283.6,546.2,273.2,548.6,262.4z"/>
				</g>
			</g>
		</g>
		<g id="XMLID_381_">
			<g id="XMLID_1091_">
				<path id="XMLID_1092_" class="st4" d="M576,227.9c-0.1,2.1-1.8,3.8-4,3.8c-2.1-0.1-3.8-1.8-3.8-4c0.1-2.1,1.8-3.8,4-3.8
					C574.4,224,576.1,225.8,576,227.9z"/>
			</g>
			<g id="XMLID_1089_">
				<path id="XMLID_1090_" class="st4" d="M537.4,234.9c-0.1,2.1-1.9,3.8-4,3.8c-2.1-0.1-3.8-1.8-3.8-4c0.1-2.1,1.8-3.8,4-3.8
					C535.8,231,537.4,232.8,537.4,234.9z"/>
			</g>
			<g id="XMLID_1087_">
				<path id="XMLID_1088_" class="st4" d="M609.4,234.7c-0.1,2.1-1.8,3.8-4,3.8c-2.1-0.1-3.8-1.8-3.8-4c0.1-2.1,1.8-3.8,4-3.8
					C607.8,230.7,609.5,232.5,609.4,234.7z"/>
			</g>
			<g id="XMLID_1085_">
				<path id="XMLID_1086_" class="st4" d="M593.3,220.6c0,0-14.5,9.6-22.7,28c0,0-12.1-19.3-18-23.3c0,0,21.4,38.9,4,64.4
					c0,0,16.7-13.1,20-27c0,0,5.6,17.4,19.1,29.6C595.7,292.3,574.2,257.9,593.3,220.6z"/>
			</g>
			<g id="XMLID_1083_">
				<path id="XMLID_1084_" class="st4" d="M597.9,228.9c0,0-18,30.5,3.8,59.2C601.7,288.1,588.6,265.2,597.9,228.9z"/>
			</g>
			<g id="XMLID_1081_">
				<path id="XMLID_1082_" class="st4" d="M600.9,266c0,0,0.9,12.5,9,15.6L600.9,266z"/>
			</g>
			<g id="XMLID_1079_">
				<path id="XMLID_1080_" class="st4" d="M539.7,226.4c0,0,32.2,23,7.1,57.8C546.8,284.2,561.5,253.9,539.7,226.4z"/>
			</g>
			<g id="XMLID_1077_">
				<path id="XMLID_1078_" class="st4" d="M547,262.7c0,0,2.2,10.4-11.8,21.1C535.2,283.8,544.6,273.4,547,262.7z"/>
			</g>
		</g>
	</g>
</g>
</svg>
