<?xml version="1.0" encoding="utf-8"?>
<!-- Generator: Adobe Illustrator 16.0.0, SVG Export Plug-In . SVG Version: 6.00 Build 0)  -->
<!DOCTYPE svg PUBLIC "-//W3C//DTD SVG 1.1//EN" "http://www.w3.org/Graphics/SVG/1.1/DTD/svg11.dtd">
<svg version="1.1" id="Capa_1" xmlns="http://www.w3.org/2000/svg" xmlns:xlink="http://www.w3.org/1999/xlink" x="0px" y="0px"
	 width="172px" height="158px" viewBox="0 0 172 158" enable-background="new 0 0 172 158" xml:space="preserve">
<g>
	<g>
		<g>
			<g>
				<radialGradient id="SVGID_1_" cx="80.4971" cy="13.6836" r="0.0907" gradientUnits="userSpaceOnUse">
					<stop  offset="0" style="stop-color:#4F80C0"/>
					<stop  offset="0.32" style="stop-color:#4D7EBD"/>
					<stop  offset="0.5143" style="stop-color:#4578B5"/>
					<stop  offset="0.675" style="stop-color:#376EA7"/>
					<stop  offset="0.8175" style="stop-color:#256092"/>
					<stop  offset="0.9466" style="stop-color:#0C4D78"/>
					<stop  offset="1" style="stop-color:#00446B"/>
				</radialGradient>
				<path fill="url(#SVGID_1_)" d="M80.579,13.584c-0.053,0.061-0.112,0.128-0.164,0.198c0.052-0.002,0.109-0.004,0.164-0.005
					V13.584z"/>
			</g>
		</g>
		<g>
			<path fill="#E4DF24" d="M83.256,76.021c-2.011-0.056-3.598-1.738-3.54-3.749c0.055-2.009,1.738-3.601,3.75-3.543
				c2.008,0.059,3.597,1.74,3.54,3.75C86.951,74.489,85.267,76.079,83.256,76.021z"/>
		</g>
		<g>
			<g>
				<g>
					<path fill="#E4DF24" d="M69.526,120.099l0.187-0.36c7.336-14.267,6.047-27.481,3.672-36.059
						c-2.575-9.295-6.943-15.295-6.988-15.354l-0.118-0.162l0.2-0.018c0.185-0.017,0.375-0.023,0.564-0.017
						c6.671,0.188,14.631,14.006,15.643,15.816c10.859-18.063,17.572-18.523,17.851-18.533l0.211-0.007l-0.105,0.179
						c-8.39,13.979-7.495,28.021-5.273,37.336c2.412,10.104,6.871,16.988,6.912,17.057l0.173,0.263l-0.303-0.093
						c-8.934-2.737-14.97-15.137-15.878-17.094c-3.146,8.645-16.267,16.755-16.399,16.836L69.526,120.099z"/>
				</g>
			</g>
			<g>
				<path fill="#E4DF24" d="M60.335,119.799l0.449-0.721c9.231-14.891,6.993-28.676,3.489-37.617
					c-3.8-9.697-9.865-15.953-9.928-16.015l0.152-0.169c11.231,8.345,17.204,17.617,17.748,27.555
					c0.82,14.95-11.166,26.276-11.287,26.387L60.335,119.799z"/>
			</g>
			<g>
				<path fill="#E4DF24" d="M107.771,120.292l-0.416-0.451c-5.513-5.946-8.976-12.598-10.284-19.772
					c-1.049-5.737-0.731-11.816,0.943-18.074c2.85-10.644,8.729-18.207,8.792-18.28l0.187,0.128
					c-6.693,11.381-6.188,25.965-4.586,36.195c1.738,11.092,5.105,19.6,5.138,19.682L107.771,120.292z"/>
			</g>
			<g>
				<path fill="#E4DF24" d="M55.417,80.768c-2.01-0.061-3.6-1.742-3.542-3.753c0.058-2.01,1.739-3.597,3.748-3.54
					c2.011,0.055,3.602,1.739,3.544,3.749C59.11,79.233,57.426,80.822,55.417,80.768z"/>
			</g>
			<g>
				<path fill="#E4DF24" d="M107.664,73.181c-1.886-0.052-3.461,1.437-3.518,3.32c-0.053,1.884,1.439,3.463,3.319,3.514
					c1.89,0.053,3.467-1.436,3.519-3.321C111.036,74.813,109.547,73.235,107.664,73.181z"/>
			</g>
		</g>
		<g>
			<path fill="#E4DF24" d="M112.096,111.816L112.096,111.816c-8.059-0.23-8.583-15.04-8.588-15.188l-0.013-0.49l0.229,0.434
				c7.022,13.207,8.879,15.027,8.896,15.046l0.2,0.185l-0.274,0.012C112.392,111.821,112.242,111.821,112.096,111.816z"/>
		</g>
		<g>
			<path fill="#E4DF24" d="M53.959,115.039l0.406-0.502c0.081-0.101,8.14-10.135,10.913-20.626l0.142-0.535l0.083,0.548
				c0.008,0.043,0.624,4.349-0.257,9.038c-0.021,0.07-1.749,6.338-10.733,11.746L53.959,115.039z"/>
		</g>
		<g>
			<g>
				<path fill="#60A443" d="M69.693,63.923c-0.631-0.276-1.257-0.572-1.858-0.887l0.469-0.897c0.581,0.303,1.182,0.592,1.791,0.857
					L69.693,63.923z M96.822,62.102l-0.524-0.864c0.392-0.238,0.778-0.483,1.16-0.739l0.563,0.838
					C97.631,61.601,97.231,61.857,96.822,62.102z M66.046,62.024c-0.582-0.358-1.159-0.74-1.718-1.139l0.589-0.822
					c0.54,0.385,1.097,0.753,1.654,1.094L66.046,62.024z M99.687,60.128l-0.62-0.796c0.524-0.409,1.038-0.839,1.522-1.276
					l0.677,0.752C100.762,59.261,100.232,59.704,99.687,60.128z M62.699,59.636c-0.528-0.436-1.048-0.893-1.542-1.361l0.694-0.736
					c0.479,0.455,0.981,0.896,1.49,1.316L62.699,59.636z M102.75,57.383l-0.727-0.706c0.453-0.468,0.901-0.966,1.332-1.472
					l0.773,0.652C103.684,56.382,103.221,56.896,102.75,57.383z M59.712,56.812c-0.468-0.506-0.917-1.034-1.34-1.562l0.79-0.631
					c0.408,0.511,0.846,1.018,1.292,1.506L59.712,56.812z M105.4,54.242l-0.813-0.597c0.384-0.527,0.758-1.08,1.112-1.645
					l0.856,0.539C106.187,53.123,105.802,53.694,105.4,54.242z M57.141,53.599c-0.384-0.558-0.757-1.139-1.112-1.731L56.9,51.35
					c0.339,0.574,0.7,1.134,1.073,1.673L57.141,53.599z M107.593,50.764l-0.889-0.48c0.31-0.579,0.605-1.181,0.878-1.781
					l0.923,0.414C108.223,49.542,107.918,50.163,107.593,50.764z M55.043,50.063c-0.309-0.613-0.601-1.241-0.861-1.868l0.934-0.39
					c0.25,0.605,0.528,1.21,0.829,1.806L55.043,50.063z M109.283,47.015l-0.948-0.352c0.228-0.617,0.437-1.251,0.621-1.886
					l0.973,0.283C109.736,45.72,109.517,46.377,109.283,47.015z M53.455,46.271c-0.218-0.644-0.417-1.305-0.592-1.97l0.98-0.257
					c0.167,0.642,0.36,1.282,0.567,1.902L53.455,46.271z M110.436,43.064l-0.99-0.213c0.139-0.635,0.257-1.294,0.353-1.957
					l1.001,0.146C110.7,41.725,110.577,42.407,110.436,43.064z M52.413,42.294c-0.127-0.663-0.233-1.345-0.313-2.033l1.003-0.118
					c0.08,0.663,0.182,1.326,0.303,1.963L52.413,42.294z M111.023,38.996l-1.01-0.08c0.05-0.646,0.077-1.313,0.08-1.981l1.011,0.004
					C111.102,37.632,111.074,38.325,111.023,38.996z M51.929,38.213c-0.021-0.481-0.032-0.961-0.032-1.444
					c0-0.205,0.004-0.41,0.004-0.613l1.013,0.019c-0.003,0.199-0.005,0.395-0.005,0.594c-0.001,0.466,0.009,0.932,0.031,1.394
					L51.929,38.213z M110.036,34.946c-0.04-0.652-0.104-1.317-0.194-1.977l1.003-0.131c0.09,0.681,0.158,1.369,0.202,2.044
					L110.036,34.946z M53.023,34.192l-1.008-0.089c0.059-0.685,0.145-1.372,0.252-2.041l0.998,0.16
					C53.163,32.869,53.082,33.53,53.023,34.192z M109.513,31.013c-0.13-0.654-0.29-1.302-0.465-1.933l0.977-0.272
					c0.179,0.653,0.34,1.325,0.479,1.999L109.513,31.013z M53.648,30.271l-0.988-0.229c0.154-0.661,0.337-1.329,0.538-1.985
					l0.965,0.297C53.968,28.989,53.795,29.634,53.648,30.271z M108.448,27.188c-0.217-0.616-0.463-1.237-0.729-1.845l0.926-0.405
					c0.278,0.629,0.533,1.273,0.757,1.911L108.448,27.188z M54.815,26.474l-0.943-0.366c0.248-0.64,0.519-1.278,0.808-1.892
					l0.916,0.429C55.318,25.239,55.058,25.854,54.815,26.474z M106.865,23.553c-0.305-0.579-0.634-1.159-0.98-1.727l0.857-0.528
					c0.364,0.586,0.705,1.189,1.019,1.787L106.865,23.553z M56.502,22.876l-0.883-0.493c0.335-0.601,0.691-1.193,1.064-1.763
					l0.847,0.553C57.17,21.723,56.825,22.295,56.502,22.876z M104.787,20.17c-0.378-0.531-0.786-1.06-1.209-1.575l0.78-0.645
					c0.437,0.534,0.86,1.082,1.253,1.632L104.787,20.17z M58.672,19.546l-0.807-0.609c0.413-0.547,0.852-1.083,1.297-1.596
					l0.761,0.663C59.495,18.5,59.074,19.019,58.672,19.546z M102.264,17.107c-0.458-0.482-0.932-0.951-1.418-1.395l0.684-0.745
					c0.501,0.46,0.998,0.946,1.467,1.444L102.264,17.107z M61.282,16.548l-0.716-0.712c0.483-0.484,0.988-0.958,1.5-1.403
					l0.668,0.762C62.235,15.626,61.745,16.083,61.282,16.548z M99.337,14.419c-0.521-0.415-1.056-0.813-1.595-1.186l0.577-0.832
					c0.556,0.384,1.112,0.799,1.649,1.228L99.337,14.419z M64.275,13.945l-0.609-0.808c0.55-0.416,1.118-0.814,1.68-1.182
					l0.555,0.848C65.355,13.158,64.805,13.543,64.275,13.945z M96.07,12.158c-0.57-0.337-1.158-0.657-1.746-0.951l0.457-0.905
					c0.606,0.305,1.213,0.637,1.803,0.988L96.07,12.158z M67.6,11.774l-0.491-0.882c0.592-0.33,1.205-0.645,1.826-0.937l0.432,0.913
					C68.767,11.152,68.171,11.458,67.6,11.774z M92.519,10.375c-0.616-0.257-1.242-0.494-1.858-0.701l0.321-0.958
					c0.642,0.215,1.29,0.461,1.926,0.726L92.519,10.375z M71.192,10.092l-0.366-0.945c0.636-0.248,1.29-0.474,1.943-0.675
					l0.296,0.968C72.437,9.634,71.806,9.854,71.192,10.092z M88.757,9.104c-0.644-0.167-1.295-0.314-1.94-0.434l0.189-0.995
					c0.664,0.125,1.34,0.278,2.002,0.45L88.757,9.104z M74.982,8.922l-0.228-0.986c0.668-0.156,1.35-0.288,2.019-0.396l0.157,1
					C76.284,8.643,75.63,8.77,74.982,8.922z M84.855,8.37c-0.661-0.077-1.328-0.132-1.981-0.163l0.045-1.009
					c0.679,0.032,1.365,0.087,2.053,0.167L84.855,8.37z M78.903,8.292l-0.089-1.008c0.679-0.062,1.37-0.1,2.055-0.115l0.018,1.012
					C80.228,8.195,79.562,8.232,78.903,8.292z"/>
			</g>
		</g>
		<g>
			<g>
				<rect x="4.456" y="143.035" fill="#3964AA" width="162.748" height="0.557"/>
			</g>
			<g>
				<rect x="4" y="142.576" fill="#3964AA" width="163.659" height="1.473"/>
			</g>
		</g>
	</g>
	<g>
		<g>
			<g>
				<path fill="#FDFFFF" d="M86.201,72.085c-0.044,1.565-1.346,2.797-2.91,2.751c-1.562-0.046-2.797-1.349-2.752-2.913
					c0.045-1.561,1.351-2.793,2.911-2.749C85.016,69.218,86.247,70.521,86.201,72.085z"/>
			</g>
		</g>
		<g>
			<g>
				<path fill="#FDFFFF" d="M58.014,77.188c-0.049,1.565-1.351,2.795-2.914,2.751c-1.562-0.043-2.795-1.347-2.75-2.911
					c0.045-1.563,1.348-2.796,2.91-2.75C56.825,74.323,58.058,75.628,58.014,77.188z"/>
			</g>
		</g>
		<g>
			<g>
				<path fill="#FDFFFF" d="M110.615,77.027c-0.045,1.563-1.351,2.795-2.911,2.75c-1.562-0.045-2.797-1.351-2.752-2.914
					c0.045-1.562,1.351-2.792,2.911-2.75C109.43,74.159,110.659,75.462,110.615,77.027z"/>
			</g>
		</g>
		<g>
			<g>
				<path fill="#FDFFFF" d="M98.811,66.725c0,0-10.592,7.028-16.56,20.444c0,0-8.855-14.052-13.109-17.04
					c0,0,15.596,28.419,2.888,47.009c0,0,12.207-9.584,14.578-19.681c0,0,4.12,12.679,13.952,21.636
					C100.56,119.093,84.867,93.982,98.811,66.725z"/>
			</g>
		</g>
		<g>
			<g>
				<path fill="#FDFFFF" d="M102.208,72.788c0,0-13.108,22.276,2.739,43.257C104.947,116.045,95.437,99.306,102.208,72.788z"/>
			</g>
		</g>
		<g>
			<g>
				<path fill="#FDFFFF" d="M104.376,99.884c0,0,0.652,9.15,6.605,11.378L104.376,99.884z"/>
			</g>
		</g>
		<g>
			<g>
				<path fill="#FDFFFF" d="M59.675,71c0,0,23.503,16.806,5.199,42.167C64.874,113.167,75.625,91.093,59.675,71z"/>
			</g>
		</g>
		<g>
			<g>
				<path fill="#FDFFFF" d="M65.014,97.491c0,0,1.614,7.581-8.584,15.437C56.43,112.928,63.269,105.331,65.014,97.491z"/>
			</g>
		</g>
	</g>
	<g>
		<g>
			<g>
				<linearGradient id="SVGID_2_" gradientUnits="userSpaceOnUse" x1="45.377" y1="43.2329" x2="118.8223" y2="42.6659">
					<stop  offset="0" style="stop-color:#00446B"/>
					<stop  offset="0.1098" style="stop-color:#044770"/>
					<stop  offset="0.2373" style="stop-color:#12517E"/>
					<stop  offset="0.3737" style="stop-color:#276295"/>
					<stop  offset="0.5154" style="stop-color:#4579B6"/>
					<stop  offset="0.555" style="stop-color:#4F80C0"/>
					<stop  offset="0.6132" style="stop-color:#3C71AB"/>
					<stop  offset="0.7099" style="stop-color:#225E8F"/>
					<stop  offset="0.8069" style="stop-color:#0F4F7B"/>
					<stop  offset="0.9037" style="stop-color:#04476F"/>
					<stop  offset="1" style="stop-color:#00446B"/>
				</linearGradient>
				<path fill="url(#SVGID_2_)" d="M97.872,37.307c0.059,4.767-0.766,7.769-1.132,8.853c2.07,0.711,3.521,1.483,4.528,2.163
					c1.83-3.265,2.891-7.019,2.945-11.016H97.872z"/>
			</g>
			<g>
				<linearGradient id="SVGID_3_" gradientUnits="userSpaceOnUse" x1="45.2637" y1="31.436" x2="118.7351" y2="30.8688">
					<stop  offset="0" style="stop-color:#00446B"/>
					<stop  offset="0.1098" style="stop-color:#044770"/>
					<stop  offset="0.2373" style="stop-color:#12517E"/>
					<stop  offset="0.3737" style="stop-color:#276295"/>
					<stop  offset="0.5154" style="stop-color:#4579B6"/>
					<stop  offset="0.555" style="stop-color:#4F80C0"/>
					<stop  offset="0.6132" style="stop-color:#3C71AB"/>
					<stop  offset="0.7099" style="stop-color:#225E8F"/>
					<stop  offset="0.8069" style="stop-color:#0F4F7B"/>
					<stop  offset="0.9037" style="stop-color:#04476F"/>
					<stop  offset="1" style="stop-color:#00446B"/>
				</linearGradient>
				<path fill="url(#SVGID_3_)" d="M98.141,36.307h6.359c-0.108-3.854-1.159-7.471-2.929-10.634
					c-0.996,0.728-2.448,1.539-4.521,2.254C97.734,31.111,98.054,33.913,98.141,36.307z"/>
			</g>
			<g>
				<g>
					<linearGradient id="SVGID_4_" gradientUnits="userSpaceOnUse" x1="45.1646" y1="17.271" x2="118.6213" y2="16.7039">
						<stop  offset="0" style="stop-color:#00446B"/>
						<stop  offset="0.1098" style="stop-color:#044770"/>
						<stop  offset="0.2373" style="stop-color:#12517E"/>
						<stop  offset="0.3737" style="stop-color:#276295"/>
						<stop  offset="0.5154" style="stop-color:#4579B6"/>
						<stop  offset="0.555" style="stop-color:#4F80C0"/>
						<stop  offset="0.6132" style="stop-color:#3C71AB"/>
						<stop  offset="0.7099" style="stop-color:#225E8F"/>
						<stop  offset="0.8069" style="stop-color:#0F4F7B"/>
						<stop  offset="0.9037" style="stop-color:#04476F"/>
						<stop  offset="1" style="stop-color:#00446B"/>
					</linearGradient>
					<path fill="url(#SVGID_4_)" d="M80.415,13.782c-1.09,1.275-2.59,3.313-3.884,6.079c1.25,0.213,2.604,0.346,4.048,0.357v-6.441
						C80.524,13.778,80.467,13.78,80.415,13.782z"/>
				</g>
				<g>
					<linearGradient id="SVGID_5_" gradientUnits="userSpaceOnUse" x1="45.1606" y1="17.0146" x2="118.6247" y2="16.4475">
						<stop  offset="0" style="stop-color:#00446B"/>
						<stop  offset="0.1098" style="stop-color:#044770"/>
						<stop  offset="0.2373" style="stop-color:#12517E"/>
						<stop  offset="0.3737" style="stop-color:#276295"/>
						<stop  offset="0.5154" style="stop-color:#4579B6"/>
						<stop  offset="0.555" style="stop-color:#4F80C0"/>
						<stop  offset="0.6132" style="stop-color:#3C71AB"/>
						<stop  offset="0.7099" style="stop-color:#225E8F"/>
						<stop  offset="0.8069" style="stop-color:#0F4F7B"/>
						<stop  offset="0.9037" style="stop-color:#04476F"/>
						<stop  offset="1" style="stop-color:#00446B"/>
					</linearGradient>
					<path fill="url(#SVGID_5_)" d="M77.681,14.04c-1.602,1.111-3.675,2.702-5.618,4.632c1.018,0.374,2.165,0.721,3.432,0.991
						c1.135-2.495,2.443-4.429,3.525-5.792C78.571,13.917,78.125,13.971,77.681,14.04z"/>
				</g>
				<g>
					<linearGradient id="SVGID_6_" gradientUnits="userSpaceOnUse" x1="45.165" y1="17.2681" x2="118.6216" y2="16.701">
						<stop  offset="0" style="stop-color:#00446B"/>
						<stop  offset="0.1098" style="stop-color:#044770"/>
						<stop  offset="0.2373" style="stop-color:#12517E"/>
						<stop  offset="0.3737" style="stop-color:#276295"/>
						<stop  offset="0.5154" style="stop-color:#4579B6"/>
						<stop  offset="0.555" style="stop-color:#4F80C0"/>
						<stop  offset="0.6132" style="stop-color:#3C71AB"/>
						<stop  offset="0.7099" style="stop-color:#225E8F"/>
						<stop  offset="0.8069" style="stop-color:#0F4F7B"/>
						<stop  offset="0.9037" style="stop-color:#04476F"/>
						<stop  offset="1" style="stop-color:#00446B"/>
					</linearGradient>
					<path fill="url(#SVGID_6_)" d="M81.58,13.767v6.439c1.375-0.041,2.817-0.191,4.336-0.484c-1.283-2.699-2.752-4.689-3.819-5.942
						C81.924,13.775,81.755,13.77,81.58,13.767z"/>
				</g>
				<g>
					<linearGradient id="SVGID_7_" gradientUnits="userSpaceOnUse" x1="45.3521" y1="41.1392" x2="118.8025" y2="40.5721">
						<stop  offset="0" style="stop-color:#00446B"/>
						<stop  offset="0.1098" style="stop-color:#044770"/>
						<stop  offset="0.2373" style="stop-color:#12517E"/>
						<stop  offset="0.3737" style="stop-color:#276295"/>
						<stop  offset="0.5154" style="stop-color:#4579B6"/>
						<stop  offset="0.555" style="stop-color:#4F80C0"/>
						<stop  offset="0.6132" style="stop-color:#3C71AB"/>
						<stop  offset="0.7099" style="stop-color:#225E8F"/>
						<stop  offset="0.8069" style="stop-color:#0F4F7B"/>
						<stop  offset="0.9037" style="stop-color:#04476F"/>
						<stop  offset="1" style="stop-color:#00446B"/>
					</linearGradient>
					<path fill="url(#SVGID_7_)" d="M89.063,37.307h-7.448v6.57c2.664,0.062,5.026,0.23,7.096,0.481
						C88.874,43.31,89.115,41.031,89.063,37.307z"/>
				</g>
				<g>
					<linearGradient id="SVGID_8_" gradientUnits="userSpaceOnUse" x1="45.1963" y1="22.7778" x2="118.671" y2="22.2106">
						<stop  offset="0" style="stop-color:#00446B"/>
						<stop  offset="0.1098" style="stop-color:#044770"/>
						<stop  offset="0.2373" style="stop-color:#12517E"/>
						<stop  offset="0.3737" style="stop-color:#276295"/>
						<stop  offset="0.5154" style="stop-color:#4579B6"/>
						<stop  offset="0.555" style="stop-color:#4F80C0"/>
						<stop  offset="0.6132" style="stop-color:#3C71AB"/>
						<stop  offset="0.7099" style="stop-color:#225E8F"/>
						<stop  offset="0.8069" style="stop-color:#0F4F7B"/>
						<stop  offset="0.9037" style="stop-color:#04476F"/>
						<stop  offset="1" style="stop-color:#00446B"/>
					</linearGradient>
					<path fill="url(#SVGID_8_)" d="M96.822,26.935c1.974-0.699,3.327-1.475,4.235-2.146c-1.702-2.75-3.962-5.118-6.619-6.947
						c-0.798,0.394-1.582,0.744-2.357,1.06C94.216,21.216,96.068,23.947,96.822,26.935z"/>
				</g>
				<g>
					<linearGradient id="SVGID_9_" gradientUnits="userSpaceOnUse" x1="45.2861" y1="32.6704" x2="118.7414" y2="32.1033">
						<stop  offset="0" style="stop-color:#00446B"/>
						<stop  offset="0.1098" style="stop-color:#044770"/>
						<stop  offset="0.2373" style="stop-color:#12517E"/>
						<stop  offset="0.3737" style="stop-color:#276295"/>
						<stop  offset="0.5154" style="stop-color:#4579B6"/>
						<stop  offset="0.555" style="stop-color:#4F80C0"/>
						<stop  offset="0.6132" style="stop-color:#3C71AB"/>
						<stop  offset="0.7099" style="stop-color:#225E8F"/>
						<stop  offset="0.8069" style="stop-color:#0F4F7B"/>
						<stop  offset="0.9037" style="stop-color:#04476F"/>
						<stop  offset="1" style="stop-color:#00446B"/>
					</linearGradient>
					<path fill="url(#SVGID_9_)" d="M89.574,29.545c0.25,2.605,0.385,4.852,0.438,6.761h7.115c-0.082-2.314-0.38-5.013-1.031-8.066
						C94.343,28.773,92.195,29.237,89.574,29.545z"/>
				</g>
				<g>
					<linearGradient id="SVGID_10_" gradientUnits="userSpaceOnUse" x1="45.3418" y1="41.9478" x2="118.8225" y2="41.3805">
						<stop  offset="0" style="stop-color:#00446B"/>
						<stop  offset="0.1098" style="stop-color:#044770"/>
						<stop  offset="0.2373" style="stop-color:#12517E"/>
						<stop  offset="0.3737" style="stop-color:#276295"/>
						<stop  offset="0.5154" style="stop-color:#4579B6"/>
						<stop  offset="0.555" style="stop-color:#4F80C0"/>
						<stop  offset="0.6132" style="stop-color:#3C71AB"/>
						<stop  offset="0.7099" style="stop-color:#225E8F"/>
						<stop  offset="0.8069" style="stop-color:#0F4F7B"/>
						<stop  offset="0.9037" style="stop-color:#04476F"/>
						<stop  offset="1" style="stop-color:#00446B"/>
					</linearGradient>
					<path fill="url(#SVGID_10_)" d="M97.187,37.307h-7.12c0.058,3.76-0.187,6.068-0.359,7.182c2.562,0.356,4.675,0.835,6.406,1.364
						C96.444,44.839,97.231,41.919,97.187,37.307z"/>
				</g>
				<g>
					<linearGradient id="SVGID_11_" gradientUnits="userSpaceOnUse" x1="45.2866" y1="33.314" x2="118.7475" y2="32.7468">
						<stop  offset="0" style="stop-color:#00446B"/>
						<stop  offset="0.1098" style="stop-color:#044770"/>
						<stop  offset="0.2373" style="stop-color:#12517E"/>
						<stop  offset="0.3737" style="stop-color:#276295"/>
						<stop  offset="0.5154" style="stop-color:#4579B6"/>
						<stop  offset="0.555" style="stop-color:#4F80C0"/>
						<stop  offset="0.6132" style="stop-color:#3C71AB"/>
						<stop  offset="0.7099" style="stop-color:#225E8F"/>
						<stop  offset="0.8069" style="stop-color:#0F4F7B"/>
						<stop  offset="0.9037" style="stop-color:#04476F"/>
						<stop  offset="1" style="stop-color:#00446B"/>
					</linearGradient>
					<path fill="url(#SVGID_11_)" d="M82.161,29.946c-0.192,0-0.385-0.003-0.582-0.005v6.366h7.426
						c-0.049-1.881-0.179-4.094-0.424-6.658C86.681,29.835,84.553,29.946,82.161,29.946z"/>
				</g>
				<g>
					<linearGradient id="SVGID_12_" gradientUnits="userSpaceOnUse" x1="45.2915" y1="33.1655" x2="118.7393" y2="32.5985">
						<stop  offset="0" style="stop-color:#00446B"/>
						<stop  offset="0.1098" style="stop-color:#044770"/>
						<stop  offset="0.2373" style="stop-color:#12517E"/>
						<stop  offset="0.3737" style="stop-color:#276295"/>
						<stop  offset="0.5154" style="stop-color:#4579B6"/>
						<stop  offset="0.555" style="stop-color:#4F80C0"/>
						<stop  offset="0.6132" style="stop-color:#3C71AB"/>
						<stop  offset="0.7099" style="stop-color:#225E8F"/>
						<stop  offset="0.8069" style="stop-color:#0F4F7B"/>
						<stop  offset="0.9037" style="stop-color:#04476F"/>
						<stop  offset="1" style="stop-color:#00446B"/>
					</linearGradient>
					<path fill="url(#SVGID_12_)" d="M73.934,29.53c-0.254,2.614-0.384,4.865-0.437,6.776h7.082v-6.38
						C78.112,29.881,75.905,29.739,73.934,29.53z"/>
				</g>
				<g>
					<linearGradient id="SVGID_13_" gradientUnits="userSpaceOnUse" x1="45.2817" y1="32.4175" x2="118.7406" y2="31.8504">
						<stop  offset="0" style="stop-color:#00446B"/>
						<stop  offset="0.1098" style="stop-color:#044770"/>
						<stop  offset="0.2373" style="stop-color:#12517E"/>
						<stop  offset="0.3737" style="stop-color:#276295"/>
						<stop  offset="0.5154" style="stop-color:#4579B6"/>
						<stop  offset="0.555" style="stop-color:#4F80C0"/>
						<stop  offset="0.6132" style="stop-color:#3C71AB"/>
						<stop  offset="0.7099" style="stop-color:#225E8F"/>
						<stop  offset="0.8069" style="stop-color:#0F4F7B"/>
						<stop  offset="0.9037" style="stop-color:#04476F"/>
						<stop  offset="1" style="stop-color:#00446B"/>
					</linearGradient>
					<path fill="url(#SVGID_13_)" d="M66.425,28.153c-0.662,3.09-0.965,5.82-1.048,8.153h7.118c0.052-1.94,0.189-4.228,0.446-6.891
						C70.362,29.096,68.208,28.653,66.425,28.153z"/>
				</g>
				<g>
					<linearGradient id="SVGID_14_" gradientUnits="userSpaceOnUse" x1="45.2207" y1="24.2729" x2="118.6775" y2="23.7059">
						<stop  offset="0" style="stop-color:#00446B"/>
						<stop  offset="0.1098" style="stop-color:#044770"/>
						<stop  offset="0.2373" style="stop-color:#12517E"/>
						<stop  offset="0.3737" style="stop-color:#276295"/>
						<stop  offset="0.5154" style="stop-color:#4579B6"/>
						<stop  offset="0.555" style="stop-color:#4F80C0"/>
						<stop  offset="0.6132" style="stop-color:#3C71AB"/>
						<stop  offset="0.7099" style="stop-color:#225E8F"/>
						<stop  offset="0.8069" style="stop-color:#0F4F7B"/>
						<stop  offset="0.9037" style="stop-color:#04476F"/>
						<stop  offset="1" style="stop-color:#00446B"/>
					</linearGradient>
					<path fill="url(#SVGID_14_)" d="M87.348,20.438c0.957,2.277,1.752,4.983,2.121,8.107c2.591-0.309,4.699-0.771,6.405-1.297
						c-0.723-2.938-2.633-5.655-4.814-7.944C89.787,19.778,88.551,20.152,87.348,20.438z"/>
				</g>
				<g>
					<linearGradient id="SVGID_15_" gradientUnits="userSpaceOnUse" x1="45.2192" y1="25.105" x2="118.6891" y2="24.5378">
						<stop  offset="0" style="stop-color:#00446B"/>
						<stop  offset="0.1098" style="stop-color:#044770"/>
						<stop  offset="0.2373" style="stop-color:#12517E"/>
						<stop  offset="0.3737" style="stop-color:#276295"/>
						<stop  offset="0.5154" style="stop-color:#4579B6"/>
						<stop  offset="0.555" style="stop-color:#4F80C0"/>
						<stop  offset="0.6132" style="stop-color:#3C71AB"/>
						<stop  offset="0.7099" style="stop-color:#225E8F"/>
						<stop  offset="0.8069" style="stop-color:#0F4F7B"/>
						<stop  offset="0.9037" style="stop-color:#04476F"/>
						<stop  offset="1" style="stop-color:#00446B"/>
					</linearGradient>
					<path fill="url(#SVGID_15_)" d="M81.58,21.209v7.732c2.595,0.018,4.884-0.088,6.895-0.288
						c-0.363-3.084-1.172-5.752-2.138-7.993C84.671,20.996,83.083,21.167,81.58,21.209z"/>
				</g>
				<g>
					<linearGradient id="SVGID_16_" gradientUnits="userSpaceOnUse" x1="45.2144" y1="24.1401" x2="118.6848" y2="23.5729">
						<stop  offset="0" style="stop-color:#00446B"/>
						<stop  offset="0.1098" style="stop-color:#044770"/>
						<stop  offset="0.2373" style="stop-color:#12517E"/>
						<stop  offset="0.3737" style="stop-color:#276295"/>
						<stop  offset="0.5154" style="stop-color:#4579B6"/>
						<stop  offset="0.555" style="stop-color:#4F80C0"/>
						<stop  offset="0.6132" style="stop-color:#3C71AB"/>
						<stop  offset="0.7099" style="stop-color:#225E8F"/>
						<stop  offset="0.8069" style="stop-color:#0F4F7B"/>
						<stop  offset="0.9037" style="stop-color:#04476F"/>
						<stop  offset="1" style="stop-color:#00446B"/>
					</linearGradient>
					<path fill="url(#SVGID_16_)" d="M71.307,19.447c-2.103,2.241-3.932,4.875-4.655,7.714c1.736,0.493,3.85,0.936,6.399,1.255
						c0.367-2.998,1.122-5.609,2.043-7.823C73.679,20.279,72.417,19.877,71.307,19.447z"/>
				</g>
				<g>
					<linearGradient id="SVGID_17_" gradientUnits="userSpaceOnUse" x1="45.2285" y1="25.1196" x2="118.6781" y2="24.5526">
						<stop  offset="0" style="stop-color:#00446B"/>
						<stop  offset="0.1098" style="stop-color:#044770"/>
						<stop  offset="0.2373" style="stop-color:#12517E"/>
						<stop  offset="0.3737" style="stop-color:#276295"/>
						<stop  offset="0.5154" style="stop-color:#4579B6"/>
						<stop  offset="0.555" style="stop-color:#4F80C0"/>
						<stop  offset="0.6132" style="stop-color:#3C71AB"/>
						<stop  offset="0.7099" style="stop-color:#225E8F"/>
						<stop  offset="0.8069" style="stop-color:#0F4F7B"/>
						<stop  offset="0.9037" style="stop-color:#04476F"/>
						<stop  offset="1" style="stop-color:#00446B"/>
					</linearGradient>
					<path fill="url(#SVGID_17_)" d="M76.112,20.8c-0.928,2.183-1.701,4.767-2.068,7.733c1.934,0.21,4.104,0.351,6.536,0.395v-7.71
						C78.979,21.203,77.486,21.049,76.112,20.8z"/>
				</g>
				<g>
					<linearGradient id="SVGID_18_" gradientUnits="userSpaceOnUse" x1="45.4712" y1="57.3071" x2="118.9383" y2="56.74">
						<stop  offset="0" style="stop-color:#00446B"/>
						<stop  offset="0.1098" style="stop-color:#044770"/>
						<stop  offset="0.2373" style="stop-color:#12517E"/>
						<stop  offset="0.3737" style="stop-color:#276295"/>
						<stop  offset="0.5154" style="stop-color:#4579B6"/>
						<stop  offset="0.555" style="stop-color:#4F80C0"/>
						<stop  offset="0.6132" style="stop-color:#3C71AB"/>
						<stop  offset="0.7099" style="stop-color:#225E8F"/>
						<stop  offset="0.8069" style="stop-color:#0F4F7B"/>
						<stop  offset="0.9037" style="stop-color:#04476F"/>
						<stop  offset="1" style="stop-color:#00446B"/>
					</linearGradient>
					<path fill="url(#SVGID_18_)" d="M71.048,55.332c1.042,1.46,2.242,2.856,3.584,3.992c1.163,0.33,2.366,0.572,3.596,0.719
						c-1.016-1.81-1.934-3.912-2.723-5.955C74.079,54.367,72.589,54.771,71.048,55.332z"/>
				</g>
				<g>
					<linearGradient id="SVGID_19_" gradientUnits="userSpaceOnUse" x1="45.3496" y1="40.9165" x2="118.8039" y2="40.3494">
						<stop  offset="0" style="stop-color:#00446B"/>
						<stop  offset="0.1098" style="stop-color:#044770"/>
						<stop  offset="0.2373" style="stop-color:#12517E"/>
						<stop  offset="0.3737" style="stop-color:#276295"/>
						<stop  offset="0.5154" style="stop-color:#4579B6"/>
						<stop  offset="0.555" style="stop-color:#4F80C0"/>
						<stop  offset="0.6132" style="stop-color:#3C71AB"/>
						<stop  offset="0.7099" style="stop-color:#225E8F"/>
						<stop  offset="0.8069" style="stop-color:#0F4F7B"/>
						<stop  offset="0.9037" style="stop-color:#04476F"/>
						<stop  offset="1" style="stop-color:#00446B"/>
					</linearGradient>
					<path fill="url(#SVGID_19_)" d="M73.51,37.307c-0.05,3.435,0.157,5.637,0.312,6.783c2.006-0.175,4.259-0.265,6.795-0.233v-6.55
						H73.51z"/>
				</g>
				<g>
					<linearGradient id="SVGID_20_" gradientUnits="userSpaceOnUse" x1="45.4292" y1="51.3765" x2="118.8851" y2="50.8094">
						<stop  offset="0" style="stop-color:#00446B"/>
						<stop  offset="0.1098" style="stop-color:#044770"/>
						<stop  offset="0.2373" style="stop-color:#12517E"/>
						<stop  offset="0.3737" style="stop-color:#276295"/>
						<stop  offset="0.5154" style="stop-color:#4579B6"/>
						<stop  offset="0.555" style="stop-color:#4F80C0"/>
						<stop  offset="0.6132" style="stop-color:#3C71AB"/>
						<stop  offset="0.7099" style="stop-color:#225E8F"/>
						<stop  offset="0.8069" style="stop-color:#0F4F7B"/>
						<stop  offset="0.9037" style="stop-color:#04476F"/>
						<stop  offset="1" style="stop-color:#00446B"/>
					</linearGradient>
					<path fill="url(#SVGID_20_)" d="M65.346,46.631c-1.998,0.643-3.423,1.371-4.423,2.036c1.634,2.802,3.838,5.23,6.458,7.131
						c0.713-0.346,1.414-0.658,2.108-0.938C66.951,50.999,65.522,47.116,65.346,46.631z"/>
				</g>
				<g>
					<linearGradient id="SVGID_21_" gradientUnits="userSpaceOnUse" x1="45.4805" y1="57.3247" x2="118.9179" y2="56.7578">
						<stop  offset="0" style="stop-color:#00446B"/>
						<stop  offset="0.1098" style="stop-color:#044770"/>
						<stop  offset="0.2373" style="stop-color:#12517E"/>
						<stop  offset="0.3737" style="stop-color:#276295"/>
						<stop  offset="0.5154" style="stop-color:#4579B6"/>
						<stop  offset="0.555" style="stop-color:#4F80C0"/>
						<stop  offset="0.6132" style="stop-color:#3C71AB"/>
						<stop  offset="0.7099" style="stop-color:#225E8F"/>
						<stop  offset="0.8069" style="stop-color:#0F4F7B"/>
						<stop  offset="0.9037" style="stop-color:#04476F"/>
						<stop  offset="1" style="stop-color:#00446B"/>
					</linearGradient>
					<path fill="url(#SVGID_21_)" d="M68.331,56.452c1.265,0.822,2.612,1.527,4.026,2.095c-0.833-0.89-1.597-1.857-2.29-2.844
						C69.496,55.931,68.915,56.182,68.331,56.452z"/>
				</g>
				<g>
					<linearGradient id="SVGID_22_" gradientUnits="userSpaceOnUse" x1="45.48" y1="57.1548" x2="118.921" y2="56.5878">
						<stop  offset="0" style="stop-color:#00446B"/>
						<stop  offset="0.1098" style="stop-color:#044770"/>
						<stop  offset="0.2373" style="stop-color:#12517E"/>
						<stop  offset="0.3737" style="stop-color:#276295"/>
						<stop  offset="0.5154" style="stop-color:#4579B6"/>
						<stop  offset="0.555" style="stop-color:#4F80C0"/>
						<stop  offset="0.6132" style="stop-color:#3C71AB"/>
						<stop  offset="0.7099" style="stop-color:#225E8F"/>
						<stop  offset="0.8069" style="stop-color:#0F4F7B"/>
						<stop  offset="0.9037" style="stop-color:#04476F"/>
						<stop  offset="1" style="stop-color:#00446B"/>
					</linearGradient>
					<path fill="url(#SVGID_22_)" d="M80.285,60.193v-6.614c-1.195,0.018-2.455,0.12-3.767,0.328
						c0.845,2.188,1.841,4.424,2.929,6.247C79.729,60.174,80.008,60.184,80.285,60.193z"/>
				</g>
				<g>
					<linearGradient id="SVGID_23_" gradientUnits="userSpaceOnUse" x1="45.4731" y1="57.4399" x2="118.9348" y2="56.8728">
						<stop  offset="0" style="stop-color:#00446B"/>
						<stop  offset="0.1098" style="stop-color:#044770"/>
						<stop  offset="0.2373" style="stop-color:#12517E"/>
						<stop  offset="0.3737" style="stop-color:#276295"/>
						<stop  offset="0.5154" style="stop-color:#4579B6"/>
						<stop  offset="0.555" style="stop-color:#4F80C0"/>
						<stop  offset="0.6132" style="stop-color:#3C71AB"/>
						<stop  offset="0.7099" style="stop-color:#225E8F"/>
						<stop  offset="0.8069" style="stop-color:#0F4F7B"/>
						<stop  offset="0.9037" style="stop-color:#04476F"/>
						<stop  offset="1" style="stop-color:#00446B"/>
					</linearGradient>
					<path fill="url(#SVGID_23_)" d="M90.66,55.614c-1.201-0.518-2.644-1.022-4.3-1.4c-0.775,2.005-1.68,4.063-2.678,5.838
						c1.221-0.14,2.41-0.376,3.565-0.7C88.515,58.29,89.658,56.984,90.66,55.614z"/>
				</g>
				<g>
					<linearGradient id="SVGID_24_" gradientUnits="userSpaceOnUse" x1="45.3511" y1="41.5024" x2="118.8138" y2="40.9353">
						<stop  offset="0" style="stop-color:#00446B"/>
						<stop  offset="0.1098" style="stop-color:#044770"/>
						<stop  offset="0.2373" style="stop-color:#12517E"/>
						<stop  offset="0.3737" style="stop-color:#276295"/>
						<stop  offset="0.5154" style="stop-color:#4579B6"/>
						<stop  offset="0.555" style="stop-color:#4F80C0"/>
						<stop  offset="0.6132" style="stop-color:#3C71AB"/>
						<stop  offset="0.7099" style="stop-color:#225E8F"/>
						<stop  offset="0.8069" style="stop-color:#0F4F7B"/>
						<stop  offset="0.9037" style="stop-color:#04476F"/>
						<stop  offset="1" style="stop-color:#00446B"/>
					</linearGradient>
					<path fill="url(#SVGID_24_)" d="M72.51,37.307h-7.121c-0.043,4.047,0.558,6.788,0.928,8.075c1.772-0.5,3.917-0.923,6.504-1.196
						C72.656,42.979,72.452,40.756,72.51,37.307z"/>
				</g>
				<g>
					<linearGradient id="SVGID_25_" gradientUnits="userSpaceOnUse" x1="45.4585" y1="57.1714" x2="118.9433" y2="56.6041">
						<stop  offset="0" style="stop-color:#00446B"/>
						<stop  offset="0.1098" style="stop-color:#044770"/>
						<stop  offset="0.2373" style="stop-color:#12517E"/>
						<stop  offset="0.3737" style="stop-color:#276295"/>
						<stop  offset="0.5154" style="stop-color:#4579B6"/>
						<stop  offset="0.555" style="stop-color:#4F80C0"/>
						<stop  offset="0.6132" style="stop-color:#3C71AB"/>
						<stop  offset="0.7099" style="stop-color:#225E8F"/>
						<stop  offset="0.8069" style="stop-color:#0F4F7B"/>
						<stop  offset="0.9037" style="stop-color:#04476F"/>
						<stop  offset="1" style="stop-color:#00446B"/>
					</linearGradient>
					<path fill="url(#SVGID_25_)" d="M81.285,53.584v6.62c0.396-0.005,0.789-0.021,1.175-0.043c1.075-1.796,2.06-3.995,2.899-6.155
						C84.11,53.771,82.745,53.619,81.285,53.584z"/>
				</g>
				<g>
					<linearGradient id="SVGID_26_" gradientUnits="userSpaceOnUse" x1="45.416" y1="50.0278" x2="118.8802" y2="49.4607">
						<stop  offset="0" style="stop-color:#00446B"/>
						<stop  offset="0.1098" style="stop-color:#044770"/>
						<stop  offset="0.2373" style="stop-color:#12517E"/>
						<stop  offset="0.3737" style="stop-color:#276295"/>
						<stop  offset="0.5154" style="stop-color:#4579B6"/>
						<stop  offset="0.555" style="stop-color:#4F80C0"/>
						<stop  offset="0.6132" style="stop-color:#3C71AB"/>
						<stop  offset="0.7099" style="stop-color:#225E8F"/>
						<stop  offset="0.8069" style="stop-color:#0F4F7B"/>
						<stop  offset="0.9037" style="stop-color:#04476F"/>
						<stop  offset="1" style="stop-color:#00446B"/>
					</linearGradient>
					<path fill="url(#SVGID_26_)" d="M75.151,53.136c-1.48-4.024-2.4-7.579-2.465-7.839c-0.005-0.016-0.012-0.057-0.028-0.123
						c-2.54,0.27-4.632,0.681-6.354,1.166c0.25,0.669,1.707,4.458,4.159,8.139C72.083,53.876,73.647,53.441,75.151,53.136z"/>
				</g>
				<g>
					<linearGradient id="SVGID_27_" gradientUnits="userSpaceOnUse" x1="45.4336" y1="52.0522" x2="118.8937" y2="51.4851">
						<stop  offset="0" style="stop-color:#00446B"/>
						<stop  offset="0.1098" style="stop-color:#044770"/>
						<stop  offset="0.2373" style="stop-color:#12517E"/>
						<stop  offset="0.3737" style="stop-color:#276295"/>
						<stop  offset="0.5154" style="stop-color:#4579B6"/>
						<stop  offset="0.555" style="stop-color:#4F80C0"/>
						<stop  offset="0.6132" style="stop-color:#3C71AB"/>
						<stop  offset="0.7099" style="stop-color:#225E8F"/>
						<stop  offset="0.8069" style="stop-color:#0F4F7B"/>
						<stop  offset="0.9037" style="stop-color:#04476F"/>
						<stop  offset="1" style="stop-color:#00446B"/>
					</linearGradient>
					<path fill="url(#SVGID_27_)" d="M92.185,55.219c0.726,0.357,1.338,0.703,1.832,1.001c2.708-1.835,5.008-4.231,6.734-7.02
						c-0.94-0.634-2.338-1.388-4.365-2.083C95.896,48.392,94.462,51.855,92.185,55.219z"/>
				</g>
				<g>
					<linearGradient id="SVGID_28_" gradientUnits="userSpaceOnUse" x1="45.4751" y1="57.6685" x2="118.9365" y2="57.1013">
						<stop  offset="0" style="stop-color:#00446B"/>
						<stop  offset="0.1098" style="stop-color:#044770"/>
						<stop  offset="0.2373" style="stop-color:#12517E"/>
						<stop  offset="0.3737" style="stop-color:#276295"/>
						<stop  offset="0.5154" style="stop-color:#4579B6"/>
						<stop  offset="0.555" style="stop-color:#4F80C0"/>
						<stop  offset="0.6132" style="stop-color:#3C71AB"/>
						<stop  offset="0.7099" style="stop-color:#225E8F"/>
						<stop  offset="0.8069" style="stop-color:#0F4F7B"/>
						<stop  offset="0.9037" style="stop-color:#04476F"/>
						<stop  offset="1" style="stop-color:#00446B"/>
					</linearGradient>
					<path fill="url(#SVGID_28_)" d="M89.513,58.593c1.245-0.491,2.44-1.081,3.564-1.769c-0.415-0.242-0.907-0.507-1.47-0.778
						C90.971,56.93,90.267,57.792,89.513,58.593z"/>
				</g>
				<g>
					<linearGradient id="SVGID_29_" gradientUnits="userSpaceOnUse" x1="45.2036" y1="22.5581" x2="118.6684" y2="21.9909">
						<stop  offset="0" style="stop-color:#00446B"/>
						<stop  offset="0.1098" style="stop-color:#044770"/>
						<stop  offset="0.2373" style="stop-color:#12517E"/>
						<stop  offset="0.3737" style="stop-color:#276295"/>
						<stop  offset="0.5154" style="stop-color:#4579B6"/>
						<stop  offset="0.555" style="stop-color:#4F80C0"/>
						<stop  offset="0.6132" style="stop-color:#3C71AB"/>
						<stop  offset="0.7099" style="stop-color:#225E8F"/>
						<stop  offset="0.8069" style="stop-color:#0F4F7B"/>
						<stop  offset="0.9037" style="stop-color:#04476F"/>
						<stop  offset="1" style="stop-color:#00446B"/>
					</linearGradient>
					<path fill="url(#SVGID_29_)" d="M70.301,19.033c-0.878-0.384-1.636-0.772-2.252-1.125c-2.688,1.871-4.961,4.288-6.659,7.096
						c1.006,0.601,2.405,1.262,4.309,1.87C66.444,23.965,68.231,21.301,70.301,19.033z"/>
				</g>
				<g>
					<linearGradient id="SVGID_30_" gradientUnits="userSpaceOnUse" x1="45.2739" y1="31.2329" x2="118.7287" y2="30.6658">
						<stop  offset="0" style="stop-color:#00446B"/>
						<stop  offset="0.1098" style="stop-color:#044770"/>
						<stop  offset="0.2373" style="stop-color:#12517E"/>
						<stop  offset="0.3737" style="stop-color:#276295"/>
						<stop  offset="0.5154" style="stop-color:#4579B6"/>
						<stop  offset="0.555" style="stop-color:#4F80C0"/>
						<stop  offset="0.6132" style="stop-color:#3C71AB"/>
						<stop  offset="0.7099" style="stop-color:#225E8F"/>
						<stop  offset="0.8069" style="stop-color:#0F4F7B"/>
						<stop  offset="0.9037" style="stop-color:#04476F"/>
						<stop  offset="1" style="stop-color:#00446B"/>
					</linearGradient>
					<path fill="url(#SVGID_30_)" d="M65.465,27.869c-2.011-0.633-3.498-1.333-4.583-1.979c-1.695,3.109-2.696,6.654-2.8,10.417
						h6.281C64.452,33.896,64.774,31.076,65.465,27.869z"/>
				</g>
				<g>
					<linearGradient id="SVGID_31_" gradientUnits="userSpaceOnUse" x1="45.1631" y1="16.6279" x2="118.6168" y2="16.0609">
						<stop  offset="0" style="stop-color:#00446B"/>
						<stop  offset="0.1098" style="stop-color:#044770"/>
						<stop  offset="0.2373" style="stop-color:#12517E"/>
						<stop  offset="0.3737" style="stop-color:#276295"/>
						<stop  offset="0.5154" style="stop-color:#4579B6"/>
						<stop  offset="0.555" style="stop-color:#4F80C0"/>
						<stop  offset="0.6132" style="stop-color:#3C71AB"/>
						<stop  offset="0.7099" style="stop-color:#225E8F"/>
						<stop  offset="0.8069" style="stop-color:#0F4F7B"/>
						<stop  offset="0.9037" style="stop-color:#04476F"/>
						<stop  offset="1" style="stop-color:#00446B"/>
					</linearGradient>
					<path fill="url(#SVGID_31_)" d="M75.243,14.56c-2.237,0.602-4.34,1.53-6.259,2.73c0.582,0.313,1.263,0.646,2.046,0.974
						C72.425,16.836,73.899,15.589,75.243,14.56z"/>
				</g>
				<g>
					<linearGradient id="SVGID_32_" gradientUnits="userSpaceOnUse" x1="45.1577" y1="16.667" x2="118.6202" y2="16.0999">
						<stop  offset="0" style="stop-color:#00446B"/>
						<stop  offset="0.1098" style="stop-color:#044770"/>
						<stop  offset="0.2373" style="stop-color:#12517E"/>
						<stop  offset="0.3737" style="stop-color:#276295"/>
						<stop  offset="0.5154" style="stop-color:#4579B6"/>
						<stop  offset="0.555" style="stop-color:#4F80C0"/>
						<stop  offset="0.6132" style="stop-color:#3C71AB"/>
						<stop  offset="0.7099" style="stop-color:#225E8F"/>
						<stop  offset="0.8069" style="stop-color:#0F4F7B"/>
						<stop  offset="0.9037" style="stop-color:#04476F"/>
						<stop  offset="1" style="stop-color:#00446B"/>
					</linearGradient>
					<path fill="url(#SVGID_32_)" d="M91.339,18.128c0.697-0.277,1.404-0.583,2.12-0.925c-1.913-1.18-4.012-2.09-6.241-2.678
						C88.529,15.527,89.969,16.741,91.339,18.128z"/>
				</g>
				<g>
					<linearGradient id="SVGID_33_" gradientUnits="userSpaceOnUse" x1="45.1475" y1="16.9946" x2="118.6325" y2="16.4273">
						<stop  offset="0" style="stop-color:#00446B"/>
						<stop  offset="0.1098" style="stop-color:#044770"/>
						<stop  offset="0.2373" style="stop-color:#12517E"/>
						<stop  offset="0.3737" style="stop-color:#276295"/>
						<stop  offset="0.5154" style="stop-color:#4579B6"/>
						<stop  offset="0.555" style="stop-color:#4F80C0"/>
						<stop  offset="0.6132" style="stop-color:#3C71AB"/>
						<stop  offset="0.7099" style="stop-color:#225E8F"/>
						<stop  offset="0.8069" style="stop-color:#0F4F7B"/>
						<stop  offset="0.9037" style="stop-color:#04476F"/>
						<stop  offset="1" style="stop-color:#00446B"/>
					</linearGradient>
					<path fill="url(#SVGID_33_)" d="M83.478,13.866c1.063,1.334,2.341,3.217,3.461,5.639c1.083-0.25,2.202-0.574,3.351-0.985
						c-1.904-1.872-3.927-3.413-5.489-4.497C84.364,13.956,83.925,13.905,83.478,13.866z"/>
				</g>
				<g>
					<linearGradient id="SVGID_34_" gradientUnits="userSpaceOnUse" x1="45.4106" y1="50.4771" x2="118.8878" y2="49.9098">
						<stop  offset="0" style="stop-color:#00446B"/>
						<stop  offset="0.1098" style="stop-color:#044770"/>
						<stop  offset="0.2373" style="stop-color:#12517E"/>
						<stop  offset="0.3737" style="stop-color:#276295"/>
						<stop  offset="0.5154" style="stop-color:#4579B6"/>
						<stop  offset="0.555" style="stop-color:#4F80C0"/>
						<stop  offset="0.6132" style="stop-color:#3C71AB"/>
						<stop  offset="0.7099" style="stop-color:#225E8F"/>
						<stop  offset="0.8069" style="stop-color:#0F4F7B"/>
						<stop  offset="0.9037" style="stop-color:#04476F"/>
						<stop  offset="1" style="stop-color:#00446B"/>
					</linearGradient>
					<path fill="url(#SVGID_34_)" d="M91.246,54.787c2.229-3.26,3.673-6.678,4.188-7.982c-1.683-0.513-3.743-0.98-6.251-1.33
						c-0.217,0.822-1.11,4.129-2.468,7.798C88.464,53.684,89.986,54.23,91.246,54.787z"/>
				</g>
				<g>
					<linearGradient id="SVGID_35_" gradientUnits="userSpaceOnUse" x1="45.4067" y1="49.2622" x2="118.8727" y2="48.695">
						<stop  offset="0" style="stop-color:#00446B"/>
						<stop  offset="0.1098" style="stop-color:#044770"/>
						<stop  offset="0.2373" style="stop-color:#12517E"/>
						<stop  offset="0.3737" style="stop-color:#276295"/>
						<stop  offset="0.5154" style="stop-color:#4579B6"/>
						<stop  offset="0.555" style="stop-color:#4F80C0"/>
						<stop  offset="0.6132" style="stop-color:#3C71AB"/>
						<stop  offset="0.7099" style="stop-color:#225E8F"/>
						<stop  offset="0.8069" style="stop-color:#0F4F7B"/>
						<stop  offset="0.9037" style="stop-color:#04476F"/>
						<stop  offset="1" style="stop-color:#00446B"/>
					</linearGradient>
					<path fill="url(#SVGID_35_)" d="M85.718,53.059c1.308-3.516,2.202-6.744,2.465-7.713c-2.013-0.244-4.303-0.409-6.897-0.469
						v7.708C82.877,52.62,84.36,52.794,85.718,53.059z"/>
				</g>
				<g>
					<linearGradient id="SVGID_36_" gradientUnits="userSpaceOnUse" x1="45.4189" y1="49.1489" x2="118.8596" y2="48.582">
						<stop  offset="0" style="stop-color:#00446B"/>
						<stop  offset="0.1098" style="stop-color:#044770"/>
						<stop  offset="0.2373" style="stop-color:#12517E"/>
						<stop  offset="0.3737" style="stop-color:#276295"/>
						<stop  offset="0.5154" style="stop-color:#4579B6"/>
						<stop  offset="0.555" style="stop-color:#4F80C0"/>
						<stop  offset="0.6132" style="stop-color:#3C71AB"/>
						<stop  offset="0.7099" style="stop-color:#225E8F"/>
						<stop  offset="0.8069" style="stop-color:#0F4F7B"/>
						<stop  offset="0.9037" style="stop-color:#04476F"/>
						<stop  offset="1" style="stop-color:#00446B"/>
					</linearGradient>
					<path fill="url(#SVGID_36_)" d="M80.285,52.579v-7.724c-2.475-0.031-4.67,0.057-6.621,0.225
						c0.072,0.286,1.016,3.877,2.495,7.872C77.598,52.715,78.979,52.599,80.285,52.579z"/>
				</g>
				<g>
					<linearGradient id="SVGID_37_" gradientUnits="userSpaceOnUse" x1="45.3589" y1="42.647" x2="118.825" y2="42.0798">
						<stop  offset="0" style="stop-color:#00446B"/>
						<stop  offset="0.1098" style="stop-color:#044770"/>
						<stop  offset="0.2373" style="stop-color:#12517E"/>
						<stop  offset="0.3737" style="stop-color:#276295"/>
						<stop  offset="0.5154" style="stop-color:#4579B6"/>
						<stop  offset="0.555" style="stop-color:#4F80C0"/>
						<stop  offset="0.6132" style="stop-color:#3C71AB"/>
						<stop  offset="0.7099" style="stop-color:#225E8F"/>
						<stop  offset="0.8069" style="stop-color:#0F4F7B"/>
						<stop  offset="0.9037" style="stop-color:#04476F"/>
						<stop  offset="1" style="stop-color:#00446B"/>
					</linearGradient>
					<path fill="url(#SVGID_37_)" d="M64.044,37.307h-6.267c0.051,3.776,1.001,7.333,2.651,10.468
						c1.07-0.702,2.554-1.45,4.593-2.104C64.623,44.32,63.994,41.499,64.044,37.307z"/>
				</g>
			</g>
		</g>
		<g>
			<path fill="#E4DF24" d="M85.044,72.289c-0.044,1.563-1.347,2.796-2.908,2.751c-1.564-0.045-2.797-1.349-2.749-2.912
				c0.042-1.562,1.347-2.794,2.908-2.75C83.859,69.422,85.092,70.726,85.044,72.289z"/>
		</g>
		<g>
			<path fill="#E4DF24" d="M56.859,77.392c-0.05,1.565-1.354,2.797-2.917,2.751c-1.561-0.043-2.792-1.346-2.748-2.911
				c0.045-1.563,1.348-2.793,2.91-2.75C55.668,74.527,56.902,75.832,56.859,77.392z"/>
		</g>
		<g>
			<circle fill="#60A443" cx="42.692" cy="47.773" r="2.832"/>
		</g>
		<g>
			<path fill="#60A443" d="M35.319,53.785c-0.068,2.347-2.021,4.192-4.367,4.124c-2.337-0.067-4.186-2.02-4.118-4.364
				c0.066-2.34,2.019-4.184,4.359-4.122C33.538,49.491,35.384,51.445,35.319,53.785z"/>
		</g>
		<g>
			<path fill="#60A443" d="M29.314,67.343c-0.094,3.299-2.842,5.892-6.138,5.8c-3.292-0.095-5.889-2.841-5.792-6.139
				c0.09-3.291,2.84-5.886,6.131-5.795C26.811,61.302,29.409,64.053,29.314,67.343z"/>
		</g>
		<g>
			<path fill="#60A443" d="M41.724,85.157c-0.126,4.383-3.777,7.83-8.156,7.705c-4.375-0.127-7.827-3.775-7.7-8.156
				c0.12-4.377,3.774-7.822,8.147-7.703C38.396,77.128,41.85,80.781,41.724,85.157z"/>
		</g>
		<g>
			<path fill="#60A443" d="M120.104,47.853c0.045,1.566,1.347,2.797,2.908,2.753c1.564-0.045,2.797-1.35,2.752-2.913
				c-0.044-1.562-1.35-2.795-2.908-2.75C121.29,44.987,120.06,46.292,120.104,47.853z"/>
		</g>
		<g>
			<path fill="#60A443" d="M130.313,53.785c0.064,2.347,2.019,4.192,4.359,4.124c2.344-0.067,4.188-2.02,4.122-4.364
				c-0.064-2.34-2.02-4.184-4.36-4.122C132.091,49.491,130.242,51.445,130.313,53.785z"/>
		</g>
		<g>
			<path fill="#60A443" d="M136.313,67.343c0.096,3.299,2.84,5.892,6.136,5.8c3.292-0.095,5.89-2.841,5.795-6.139
				c-0.095-3.291-2.839-5.886-6.13-5.795C138.815,61.302,136.22,64.053,136.313,67.343z"/>
		</g>
		<g>
			<path fill="#60A443" d="M123.905,85.157c0.125,4.383,3.775,7.83,8.155,7.705c4.374-0.127,7.824-3.775,7.701-8.156
				c-0.124-4.377-3.777-7.822-8.152-7.703C127.232,77.128,123.776,80.781,123.905,85.157z"/>
		</g>
		<g>
			<path fill="#E4DF24" d="M109.461,77.229c-0.046,1.563-1.349,2.796-2.913,2.751c-1.563-0.046-2.797-1.349-2.75-2.914
				c0.044-1.562,1.349-2.792,2.911-2.749C108.27,74.362,109.504,75.667,109.461,77.229z"/>
		</g>
		<g>
			<path fill="#E4DF24" d="M97.655,66.93c0,0-10.59,7.027-16.559,20.444c0,0-8.856-14.056-13.11-17.042
				c0,0,15.596,28.417,2.887,47.009c0,0,12.208-9.586,14.578-19.68c0,0,4.123,12.676,13.953,21.633
				C99.404,119.295,83.71,94.186,97.655,66.93z"/>
		</g>
		<g>
			<path fill="#E4DF24" d="M101.051,72.992c0,0-13.109,22.275,2.738,43.257C103.789,116.249,94.28,99.509,101.051,72.992z"/>
		</g>
		<g>
			<path fill="#E4DF24" d="M103.221,100.087c0,0,0.653,9.153,6.603,11.377L103.221,100.087z"/>
		</g>
		<g>
			<path fill="#E4DF24" d="M58.52,71.205c0,0,23.504,16.806,5.196,42.167C63.716,113.372,74.468,91.297,58.52,71.205z"/>
		</g>
		<g>
			<path fill="#E4DF24" d="M63.857,97.696c0,0,1.613,7.58-8.582,15.434C55.275,113.13,62.112,105.533,63.857,97.696z"/>
		</g>
		<g>
			<path fill="#437239" d="M64.899,64.506c-0.878-0.525-1.742-1.098-2.566-1.703l0.595-0.815c0.801,0.585,1.64,1.14,2.491,1.646
				L64.899,64.506z M99.538,63.596l-0.563-0.84c0.82-0.55,1.629-1.146,2.397-1.775l0.639,0.784
				C101.221,62.413,100.384,63.029,99.538,63.596z M60.713,61.538c-0.786-0.656-1.548-1.356-2.267-2.082l0.719-0.712
				c0.694,0.703,1.433,1.381,2.199,2.017L60.713,61.538z M103.563,60.414l-0.687-0.74c0.73-0.677,1.43-1.395,2.09-2.13l0.757,0.672
				C105.041,58.978,104.319,59.716,103.563,60.414z M57.043,57.951c-0.669-0.77-1.313-1.582-1.91-2.413l0.82-0.591
				c0.579,0.807,1.202,1.593,1.854,2.34L57.043,57.951z M107.039,56.644l-0.795-0.625c0.608-0.777,1.194-1.594,1.73-2.433
				l0.849,0.546C108.27,54.999,107.669,55.842,107.039,56.644z M53.987,53.832c-0.546-0.867-1.055-1.772-1.513-2.681l0.904-0.455
				c0.444,0.883,0.934,1.757,1.465,2.598L53.987,53.832z M109.881,52.369l-0.883-0.49c0.482-0.872,0.931-1.77,1.323-2.674
				l0.927,0.406C110.842,50.542,110.38,51.469,109.881,52.369z M51.613,49.287c-0.402-0.94-0.76-1.911-1.07-2.89l0.966-0.307
				c0.298,0.947,0.646,1.89,1.034,2.799L51.613,49.287z M112.014,47.702l-0.952-0.344c0.339-0.927,0.639-1.887,0.886-2.851
				l0.979,0.252C112.671,45.755,112.359,46.746,112.014,47.702z M49.988,44.422c-0.246-0.996-0.449-2.013-0.596-3.023l1-0.147
				c0.142,0.978,0.339,1.962,0.579,2.926L49.988,44.422z M113.379,42.757l-0.993-0.193c0.186-0.973,0.33-1.968,0.419-2.957
				l1.011,0.094C113.719,40.72,113.57,41.747,113.379,42.757z M49.155,39.359c-0.076-0.913-0.113-1.837-0.113-2.752l0.001-0.326
				l1.011,0.009l-0.002,0.317c0,0.887,0.039,1.783,0.111,2.666L49.155,39.359z M113.942,37.651l-1.01-0.031
				c0.009-0.336,0.016-0.672,0.016-1.014c0-0.664-0.023-1.321-0.063-1.972l1.014-0.062c0.039,0.672,0.062,1.351,0.062,2.033
				C113.96,36.956,113.952,37.307,113.942,37.651z M50.136,34.301l-1.008-0.073c0.075-1.024,0.198-2.053,0.367-3.058l0.998,0.167
				C50.327,32.313,50.208,33.311,50.136,34.301z M112.706,32.656c-0.126-0.986-0.295-1.976-0.515-2.942l0.988-0.219
				c0.222,0.996,0.398,2.017,0.526,3.034L112.706,32.656z M50.887,29.389l-0.988-0.23c0.233-1,0.521-1.996,0.851-2.961l0.957,0.323
				C51.385,27.456,51.112,28.421,50.887,29.389z M111.698,27.788c-0.279-0.95-0.607-1.902-0.973-2.82l0.938-0.375
				c0.378,0.952,0.717,1.931,1.004,2.912L111.698,27.788z M52.402,24.656l-0.938-0.386c0.393-0.946,0.833-1.884,1.308-2.79
				l0.893,0.474C53.205,22.828,52.78,23.738,52.402,24.656z M109.932,23.146c-0.428-0.896-0.901-1.781-1.407-2.632l0.871-0.518
				c0.523,0.877,1.01,1.791,1.446,2.715L109.932,23.146z M54.654,20.221l-0.864-0.527c0.534-0.871,1.114-1.73,1.728-2.549
				l0.811,0.606C55.732,18.545,55.168,19.375,54.654,20.221z M107.451,18.837c-0.561-0.817-1.167-1.617-1.8-2.377l0.772-0.649
				c0.659,0.786,1.281,1.61,1.86,2.456L107.451,18.837z M57.573,16.196l-0.769-0.654c0.667-0.779,1.375-1.535,2.109-2.246
				l0.702,0.728C58.905,14.71,58.221,15.442,57.573,16.196z M104.332,14.974c-0.689-0.72-1.416-1.417-2.158-2.064l0.668-0.765
				c0.766,0.671,1.514,1.39,2.218,2.134L104.332,14.974z M61.09,12.681l-0.658-0.768c0.776-0.663,1.595-1.298,2.435-1.886
				l0.58,0.827C62.635,11.425,61.84,12.041,61.09,12.681z M100.633,11.646c-0.789-0.605-1.613-1.176-2.45-1.703l0.541-0.857
				c0.86,0.541,1.713,1.133,2.526,1.757L100.633,11.646z M65.109,9.763l-0.525-0.865c0.874-0.534,1.781-1.033,2.697-1.479
				l0.444,0.908C66.834,8.76,65.956,9.245,65.109,9.763z M96.463,8.939c-0.874-0.472-1.776-0.909-2.687-1.296l0.392-0.93
				c0.942,0.398,1.876,0.848,2.779,1.334L96.463,8.939z M69.539,7.513L69.154,6.58c0.948-0.39,1.92-0.739,2.901-1.037l0.294,0.968
				C71.401,6.797,70.457,7.136,69.539,7.513z M91.918,6.925c-0.937-0.328-1.898-0.615-2.862-0.853l0.245-0.982
				c0.991,0.245,1.985,0.542,2.948,0.881L91.918,6.925z M74.268,5.993l-0.229-0.984c0.991-0.232,2.01-0.423,3.026-0.561l0.14,1
				C76.219,5.585,75.229,5.768,74.268,5.993z M87.111,5.657c-0.977-0.175-1.972-0.306-2.958-0.388l0.083-1.009
				c1.022,0.086,2.047,0.219,3.052,0.401L87.111,5.657z M79.18,5.245l-0.073-1.01c1.013-0.074,2.061-0.105,3.079-0.082l-0.022,1.012
				C81.168,5.143,80.16,5.173,79.18,5.245z"/>
		</g>
		<path fill="#365867" d="M20.686,138.695c-0.129,0-0.23-0.035-0.305-0.11c-0.074-0.075-0.112-0.177-0.112-0.306v-8.604
			c0-0.132,0.038-0.231,0.112-0.308c0.075-0.075,0.176-0.11,0.305-0.11h4.58c0.13,0,0.231,0.035,0.305,0.11
			c0.075,0.076,0.112,0.176,0.112,0.308v0.416c0,0.127-0.038,0.23-0.112,0.305c-0.074,0.074-0.175,0.111-0.305,0.111h-3.538
			c-0.095,0-0.14,0.047-0.14,0.136v2.5c0,0.094,0.045,0.14,0.14,0.14h3.261c0.128,0,0.229,0.036,0.305,0.11
			c0.072,0.075,0.108,0.176,0.108,0.306v0.416c0,0.129-0.037,0.232-0.108,0.307c-0.076,0.074-0.176,0.108-0.305,0.108h-3.261
			c-0.095,0-0.14,0.048-0.14,0.14v2.637c0,0.093,0.045,0.14,0.14,0.14h3.813c0.131,0,0.231,0.038,0.309,0.113
			c0.071,0.073,0.108,0.175,0.108,0.305v0.415c0,0.129-0.037,0.23-0.108,0.306c-0.078,0.075-0.177,0.11-0.309,0.11H20.686z"/>
		<path fill="#365867" d="M41.92,138.695c-0.128,0-0.231-0.035-0.304-0.11s-0.112-0.177-0.112-0.306v-8.604
			c0-0.132,0.039-0.231,0.112-0.308c0.073-0.075,0.176-0.11,0.304-0.11h0.488c0.129,0,0.23,0.035,0.304,0.11
			c0.073,0.076,0.11,0.176,0.11,0.308v7.631c0,0.093,0.046,0.14,0.141,0.14h3.789c0.128,0,0.231,0.038,0.305,0.113
			c0.072,0.073,0.111,0.175,0.111,0.305v0.415c0,0.129-0.04,0.23-0.111,0.306c-0.074,0.075-0.177,0.11-0.305,0.11H41.92z"/>
		<path fill="#365867" d="M68.485,138.695c-0.092,0.074-0.197,0.105-0.312,0.098c-0.114-0.01-0.225-0.042-0.327-0.098l-4.037-2.361
			c-0.066-0.034-0.125-0.034-0.174,0c-0.052,0.041-0.086,0.086-0.105,0.141l-0.571,1.889c-0.061,0.222-0.22,0.332-0.469,0.332h-0.68
			c-0.267,0-0.366-0.131-0.291-0.389l2.775-8.677c0.045-0.146,0.107-0.245,0.188-0.296c0.079-0.051,0.18-0.076,0.312-0.076h0.971
			c0.13,0,0.234,0.025,0.313,0.076c0.076,0.051,0.139,0.149,0.187,0.296l2.649,8.303c0.068,0.213,0.03,0.381-0.11,0.497
			L68.485,138.695z M65.42,131.021c-0.03-0.102-0.074-0.151-0.141-0.151c-0.065,0-0.11,0.05-0.137,0.151l-1.098,3.664
			c-0.037,0.119-0.042,0.21-0.013,0.271c0.027,0.06,0.072,0.108,0.138,0.146l2.61,1.525c0.102,0.066,0.174,0.072,0.222,0.023
			c0.048-0.053,0.06-0.112,0.043-0.176L65.42,131.021z"/>
		<path fill="#365867" d="M85.542,138.695c-0.129,0-0.229-0.035-0.303-0.11c-0.074-0.075-0.111-0.177-0.111-0.306v-7.636
			c0-0.089-0.047-0.136-0.141-0.136h-2.08c-0.126,0-0.231-0.037-0.305-0.111c-0.074-0.074-0.114-0.178-0.114-0.305v-0.416
			c0-0.132,0.04-0.231,0.114-0.308c0.073-0.075,0.178-0.11,0.305-0.11h5.761c0.129,0,0.232,0.035,0.306,0.11
			c0.072,0.076,0.111,0.176,0.111,0.308v0.416c0,0.127-0.039,0.23-0.111,0.305c-0.073,0.074-0.177,0.111-0.306,0.111h-2.083
			c-0.093,0-0.137,0.047-0.137,0.136v7.636c0,0.129-0.037,0.23-0.112,0.306c-0.073,0.075-0.175,0.11-0.307,0.11H85.542z"/>
		<path fill="#365867" d="M104.63,138.695c-0.132,0-0.233-0.035-0.31-0.11c-0.072-0.075-0.109-0.177-0.109-0.306v-8.604
			c0-0.132,0.037-0.231,0.109-0.308c0.076-0.075,0.178-0.11,0.31-0.11h0.481c0.13,0,0.234,0.035,0.308,0.11
			c0.074,0.076,0.112,0.176,0.112,0.308v7.631c0,0.093,0.044,0.14,0.139,0.14h3.787c0.129,0,0.229,0.038,0.305,0.113
			c0.074,0.073,0.112,0.175,0.112,0.305v0.415c0,0.129-0.038,0.23-0.112,0.306c-0.075,0.075-0.176,0.11-0.305,0.11H104.63z"/>
		<path fill="#365867" d="M131.193,138.695c-0.093,0.074-0.197,0.105-0.313,0.098c-0.115-0.01-0.225-0.042-0.326-0.098l-4.039-2.361
			c-0.067-0.034-0.122-0.034-0.176,0c-0.048,0.041-0.084,0.086-0.102,0.141l-0.568,1.889c-0.067,0.222-0.228,0.332-0.472,0.332
			h-0.682c-0.267,0-0.366-0.131-0.29-0.389l2.775-8.677c0.045-0.146,0.11-0.245,0.187-0.296c0.078-0.051,0.186-0.076,0.313-0.076
			h0.973c0.131,0,0.232,0.025,0.313,0.076c0.077,0.051,0.14,0.149,0.185,0.296l2.657,8.303c0.06,0.213,0.023,0.381-0.116,0.497
			L131.193,138.695z M128.127,131.021c-0.03-0.102-0.074-0.151-0.142-0.151c-0.065,0-0.109,0.05-0.138,0.151l-1.095,3.664
			c-0.038,0.119-0.045,0.21-0.016,0.271c0.03,0.06,0.075,0.108,0.14,0.146l2.609,1.525c0.104,0.066,0.175,0.072,0.223,0.023
			c0.047-0.053,0.06-0.112,0.042-0.176L128.127,131.021z"/>
		<path fill="#365867" d="M147.041,136.934c0.093-0.095,0.192-0.135,0.3-0.126c0.104,0.013,0.199,0.051,0.282,0.126
			c0.077,0.065,0.162,0.136,0.251,0.214c0.093,0.081,0.199,0.151,0.32,0.216c0.12,0.063,0.259,0.117,0.416,0.16
			c0.156,0.04,0.337,0.063,0.541,0.063c0.444,0,0.812-0.123,1.096-0.368c0.288-0.245,0.431-0.554,0.431-0.923
			c0-0.415-0.13-0.749-0.381-1.001c-0.254-0.25-0.659-0.509-1.212-0.775c-0.353-0.169-0.671-0.343-0.953-0.53
			c-0.282-0.181-0.524-0.391-0.729-0.621c-0.205-0.231-0.362-0.494-0.468-0.785c-0.104-0.292-0.157-0.627-0.157-1.008
			c0-0.314,0.062-0.619,0.181-0.915c0.12-0.296,0.295-0.556,0.525-0.783c0.232-0.226,0.516-0.408,0.842-0.547
			c0.329-0.141,0.696-0.21,1.102-0.21c0.529,0,0.979,0.101,1.355,0.305c0.374,0.203,0.677,0.419,0.895,0.64
			c0.195,0.192,0.195,0.386,0,0.58l-0.318,0.335c-0.093,0.095-0.179,0.144-0.265,0.146c-0.082,0.005-0.182-0.046-0.292-0.146
			c-0.116-0.109-0.305-0.239-0.556-0.387c-0.248-0.148-0.52-0.224-0.819-0.224c-0.203,0-0.388,0.035-0.563,0.104
			c-0.167,0.072-0.318,0.161-0.442,0.271c-0.125,0.111-0.223,0.241-0.291,0.382c-0.071,0.143-0.105,0.293-0.105,0.449
			c0,0.205,0.03,0.385,0.09,0.544c0.063,0.159,0.151,0.303,0.28,0.436c0.125,0.135,0.286,0.264,0.483,0.382
			c0.199,0.12,0.441,0.239,0.73,0.361c0.376,0.167,0.714,0.342,1.014,0.527c0.295,0.186,0.543,0.39,0.748,0.618
			c0.2,0.226,0.359,0.485,0.466,0.777c0.105,0.293,0.16,0.626,0.16,1.006c0,0.353-0.075,0.684-0.225,0.998
			c-0.149,0.315-0.352,0.591-0.609,0.826s-0.564,0.428-0.91,0.568c-0.347,0.142-0.713,0.216-1.103,0.216
			c-0.628,0-1.122-0.094-1.477-0.282c-0.356-0.191-0.67-0.432-0.937-0.732c-0.076-0.072-0.116-0.165-0.128-0.275
			c-0.008-0.11,0.035-0.214,0.128-0.305L147.041,136.934z"/>
		<radialGradient id="SVGID_38_" cx="81.7964" cy="43.0986" r="93.6247" gradientUnits="userSpaceOnUse">
			<stop  offset="0" style="stop-color:#4F80C0"/>
			<stop  offset="0.32" style="stop-color:#4D7EBD"/>
			<stop  offset="0.5143" style="stop-color:#4578B5"/>
			<stop  offset="0.675" style="stop-color:#376EA7"/>
			<stop  offset="0.8175" style="stop-color:#256092"/>
			<stop  offset="0.9466" style="stop-color:#0C4D78"/>
			<stop  offset="1" style="stop-color:#00446B"/>
		</radialGradient>
		<path fill="url(#SVGID_38_)" d="M44.539,153.327c0.054,0.052,0.076,0.112,0.072,0.178c-0.006,0.064-0.032,0.119-0.072,0.161
			c-0.174,0.174-0.375,0.324-0.612,0.448c-0.232,0.125-0.531,0.186-0.899,0.186c-0.269,0-0.51-0.046-0.74-0.143
			c-0.225-0.093-0.422-0.225-0.589-0.396c-0.166-0.171-0.294-0.375-0.389-0.617c-0.095-0.24-0.141-0.505-0.141-0.793v-1.783
			c0-0.282,0.045-0.544,0.141-0.784c0.095-0.242,0.223-0.448,0.389-0.616c0.167-0.172,0.364-0.306,0.589-0.402
			c0.229-0.099,0.471-0.147,0.74-0.147c0.178,0,0.341,0.018,0.488,0.054c0.145,0.034,0.278,0.079,0.396,0.134
			c0.12,0.055,0.223,0.116,0.313,0.182c0.09,0.069,0.164,0.134,0.223,0.193c0.114,0.114,0.114,0.229,0,0.339l-0.186,0.187
			c-0.054,0.056-0.107,0.083-0.155,0.085c-0.049,0.003-0.105-0.024-0.17-0.085c-0.073-0.064-0.179-0.14-0.32-0.226
			c-0.145-0.089-0.343-0.131-0.59-0.131c-0.173,0-0.326,0.031-0.458,0.095c-0.135,0.062-0.249,0.147-0.343,0.261
			c-0.094,0.109-0.164,0.238-0.215,0.386c-0.048,0.149-0.073,0.309-0.073,0.478v1.783c0,0.366,0.096,0.658,0.288,0.882
			c0.192,0.225,0.46,0.337,0.801,0.337c0.237,0,0.44-0.044,0.604-0.134c0.167-0.088,0.298-0.18,0.403-0.271
			c0.048-0.046,0.104-0.068,0.166-0.074c0.063-0.006,0.122,0.021,0.174,0.074L44.539,153.327z"/>
		<radialGradient id="SVGID_39_" cx="81.7944" cy="43.1499" r="93.5855" gradientUnits="userSpaceOnUse">
			<stop  offset="0" style="stop-color:#4F80C0"/>
			<stop  offset="0.32" style="stop-color:#4D7EBD"/>
			<stop  offset="0.5143" style="stop-color:#4578B5"/>
			<stop  offset="0.675" style="stop-color:#376EA7"/>
			<stop  offset="0.8175" style="stop-color:#256092"/>
			<stop  offset="0.9466" style="stop-color:#0C4D78"/>
			<stop  offset="1" style="stop-color:#00446B"/>
		</radialGradient>
		<path fill="url(#SVGID_39_)" d="M47.133,154.3c-0.264,0-0.511-0.048-0.744-0.15c-0.227-0.1-0.43-0.236-0.602-0.408
			c-0.173-0.175-0.311-0.376-0.41-0.605c-0.103-0.23-0.15-0.481-0.15-0.741c0-0.269,0.047-0.515,0.15-0.744
			c0.099-0.23,0.236-0.432,0.41-0.604c0.172-0.173,0.375-0.31,0.602-0.409c0.232-0.102,0.479-0.15,0.744-0.15
			c0.269,0,0.514,0.049,0.744,0.15c0.231,0.1,0.431,0.236,0.607,0.409c0.171,0.173,0.308,0.374,0.405,0.604
			c0.103,0.229,0.153,0.476,0.153,0.744c0,0.26-0.051,0.511-0.153,0.741c-0.097,0.229-0.234,0.431-0.405,0.605
			c-0.176,0.172-0.376,0.309-0.607,0.408C47.647,154.252,47.402,154.3,47.133,154.3z M47.133,153.609
			c0.17,0,0.326-0.031,0.467-0.096c0.147-0.064,0.269-0.15,0.374-0.26c0.106-0.109,0.188-0.24,0.249-0.385
			c0.06-0.15,0.09-0.308,0.09-0.475c0-0.169-0.03-0.329-0.09-0.476c-0.061-0.149-0.142-0.277-0.249-0.386
			c-0.104-0.109-0.226-0.198-0.374-0.26c-0.141-0.067-0.297-0.099-0.467-0.099c-0.168,0-0.321,0.031-0.467,0.099
			c-0.142,0.062-0.267,0.15-0.373,0.26c-0.105,0.108-0.189,0.236-0.247,0.386c-0.06,0.146-0.09,0.307-0.09,0.476
			c0,0.167,0.03,0.324,0.09,0.475c0.058,0.145,0.142,0.275,0.247,0.385c0.106,0.109,0.231,0.195,0.373,0.26
			C46.813,153.578,46.965,153.609,47.133,153.609z"/>
		<radialGradient id="SVGID_40_" cx="81.7983" cy="43.1411" r="93.5924" gradientUnits="userSpaceOnUse">
			<stop  offset="0" style="stop-color:#4F80C0"/>
			<stop  offset="0.32" style="stop-color:#4D7EBD"/>
			<stop  offset="0.5143" style="stop-color:#4578B5"/>
			<stop  offset="0.675" style="stop-color:#376EA7"/>
			<stop  offset="0.8175" style="stop-color:#256092"/>
			<stop  offset="0.9466" style="stop-color:#0C4D78"/>
			<stop  offset="1" style="stop-color:#00446B"/>
		</radialGradient>
		<path fill="url(#SVGID_40_)" d="M54.236,154.219c-0.074,0-0.133-0.023-0.177-0.065c-0.046-0.042-0.066-0.101-0.066-0.178v-2.111
			c0-0.085-0.014-0.17-0.04-0.25c-0.028-0.081-0.069-0.156-0.123-0.22c-0.055-0.066-0.123-0.117-0.206-0.158
			c-0.086-0.042-0.186-0.062-0.307-0.062c-0.118,0-0.218,0.02-0.301,0.062c-0.085,0.041-0.156,0.092-0.207,0.158
			c-0.056,0.063-0.097,0.139-0.12,0.22c-0.025,0.08-0.036,0.165-0.036,0.25v2.111c0,0.077-0.021,0.136-0.064,0.178
			c-0.047,0.042-0.103,0.065-0.177,0.065h-0.243c-0.079,0-0.136-0.023-0.181-0.065c-0.043-0.042-0.066-0.101-0.066-0.178v-2.111
			c0-0.085-0.012-0.17-0.04-0.25c-0.026-0.081-0.067-0.156-0.12-0.22c-0.056-0.066-0.125-0.117-0.208-0.158
			c-0.083-0.042-0.181-0.062-0.296-0.062c-0.113,0-0.214,0.02-0.3,0.062c-0.086,0.041-0.157,0.092-0.212,0.158
			c-0.054,0.063-0.093,0.139-0.121,0.22c-0.027,0.08-0.042,0.165-0.042,0.25v2.111c0,0.077-0.023,0.136-0.064,0.178
			c-0.043,0.042-0.103,0.065-0.181,0.065h-0.243c-0.074,0-0.132-0.023-0.177-0.065c-0.044-0.042-0.065-0.101-0.065-0.178v-2.111
			c0-0.193,0.032-0.377,0.102-0.548c0.069-0.17,0.163-0.316,0.285-0.437c0.122-0.122,0.266-0.219,0.441-0.29
			c0.176-0.067,0.367-0.104,0.577-0.104c0.205,0,0.389,0.038,0.549,0.115c0.155,0.072,0.292,0.156,0.403,0.249
			c0.051,0.048,0.102,0.048,0.151,0c0.102-0.102,0.236-0.189,0.394-0.261c0.162-0.067,0.348-0.104,0.563-0.104
			c0.214,0,0.401,0.036,0.579,0.104c0.172,0.071,0.317,0.168,0.441,0.29c0.123,0.12,0.216,0.267,0.284,0.437
			c0.068,0.171,0.102,0.354,0.102,0.548v2.111c0,0.077-0.02,0.136-0.066,0.178c-0.04,0.042-0.102,0.065-0.177,0.065H54.236z"/>
		<radialGradient id="SVGID_41_" cx="81.8081" cy="43.1406" r="93.594" gradientUnits="userSpaceOnUse">
			<stop  offset="0" style="stop-color:#4F80C0"/>
			<stop  offset="0.32" style="stop-color:#4D7EBD"/>
			<stop  offset="0.5143" style="stop-color:#4578B5"/>
			<stop  offset="0.675" style="stop-color:#376EA7"/>
			<stop  offset="0.8175" style="stop-color:#256092"/>
			<stop  offset="0.9466" style="stop-color:#0C4D78"/>
			<stop  offset="1" style="stop-color:#00446B"/>
		</radialGradient>
		<path fill="url(#SVGID_41_)" d="M57.93,150.81c0-0.076,0.021-0.136,0.065-0.18c0.043-0.041,0.104-0.063,0.182-0.063h0.24
			c0.078,0,0.135,0.021,0.178,0.063c0.047,0.044,0.067,0.104,0.067,0.18v2.029c0,0.196-0.039,0.381-0.108,0.56
			c-0.07,0.18-0.167,0.336-0.295,0.467c-0.127,0.135-0.281,0.239-0.462,0.315c-0.183,0.08-0.387,0.119-0.614,0.119
			c-0.229,0-0.431-0.039-0.611-0.119c-0.182-0.076-0.338-0.181-0.468-0.315c-0.128-0.131-0.229-0.287-0.299-0.467
			c-0.071-0.179-0.107-0.363-0.107-0.56v-2.029c0-0.076,0.022-0.136,0.066-0.18c0.041-0.041,0.104-0.063,0.177-0.063h0.244
			c0.075,0,0.136,0.021,0.18,0.063c0.042,0.044,0.065,0.104,0.065,0.18v2.029c0,0.207,0.058,0.387,0.182,0.54
			c0.119,0.155,0.312,0.23,0.571,0.23c0.26,0,0.452-0.075,0.569-0.23c0.121-0.153,0.178-0.333,0.178-0.54V150.81z"/>
		<radialGradient id="SVGID_42_" cx="81.79" cy="43.1411" r="93.591" gradientUnits="userSpaceOnUse">
			<stop  offset="0" style="stop-color:#4F80C0"/>
			<stop  offset="0.32" style="stop-color:#4D7EBD"/>
			<stop  offset="0.5143" style="stop-color:#4578B5"/>
			<stop  offset="0.675" style="stop-color:#376EA7"/>
			<stop  offset="0.8175" style="stop-color:#256092"/>
			<stop  offset="0.9466" style="stop-color:#0C4D78"/>
			<stop  offset="1" style="stop-color:#00446B"/>
		</radialGradient>
		<path fill="url(#SVGID_42_)" d="M62.152,154.219c-0.077,0-0.137-0.023-0.179-0.065c-0.042-0.042-0.067-0.101-0.067-0.178v-2.027
			c0-0.204-0.06-0.387-0.19-0.539c-0.125-0.155-0.317-0.234-0.579-0.234c-0.259,0-0.452,0.079-0.581,0.234
			c-0.126,0.152-0.192,0.335-0.192,0.539v2.027c0,0.077-0.019,0.136-0.062,0.178c-0.045,0.042-0.104,0.065-0.182,0.065h-0.241
			c-0.076,0-0.137-0.023-0.179-0.065c-0.045-0.042-0.064-0.101-0.064-0.178v-2.027c0-0.195,0.036-0.384,0.109-0.563
			c0.074-0.179,0.174-0.332,0.301-0.464c0.133-0.135,0.289-0.24,0.472-0.318c0.186-0.077,0.391-0.116,0.619-0.116
			c0.228,0,0.432,0.039,0.616,0.116c0.185,0.078,0.342,0.184,0.472,0.318c0.129,0.132,0.231,0.285,0.304,0.464
			c0.073,0.18,0.108,0.368,0.108,0.563v2.027c0,0.077-0.022,0.136-0.063,0.178c-0.043,0.042-0.104,0.065-0.18,0.065H62.152z"/>
		<radialGradient id="SVGID_43_" cx="81.814" cy="43.1211" r="93.6107" gradientUnits="userSpaceOnUse">
			<stop  offset="0" style="stop-color:#4F80C0"/>
			<stop  offset="0.32" style="stop-color:#4D7EBD"/>
			<stop  offset="0.5143" style="stop-color:#4578B5"/>
			<stop  offset="0.675" style="stop-color:#376EA7"/>
			<stop  offset="0.8175" style="stop-color:#256092"/>
			<stop  offset="0.9466" style="stop-color:#0C4D78"/>
			<stop  offset="1" style="stop-color:#00446B"/>
		</radialGradient>
		<path fill="url(#SVGID_43_)" d="M63.936,150c-0.076,0-0.134-0.023-0.177-0.065c-0.044-0.045-0.065-0.105-0.065-0.18v-0.406
			c0-0.076,0.021-0.134,0.065-0.178c0.043-0.045,0.102-0.064,0.177-0.064h0.245c0.075,0,0.135,0.02,0.177,0.064
			c0.045,0.044,0.067,0.102,0.067,0.178v0.406c0,0.074-0.022,0.135-0.067,0.18c-0.042,0.042-0.102,0.065-0.177,0.065H63.936z
			 M63.936,154.219c-0.076,0-0.134-0.023-0.177-0.065c-0.044-0.042-0.065-0.101-0.065-0.178v-3.166c0-0.076,0.021-0.136,0.065-0.18
			c0.043-0.041,0.102-0.063,0.177-0.063h0.245c0.075,0,0.135,0.021,0.177,0.063c0.045,0.044,0.067,0.104,0.067,0.18v3.166
			c0,0.077-0.022,0.136-0.067,0.178c-0.042,0.042-0.102,0.065-0.177,0.065H63.936z"/>
		<radialGradient id="SVGID_44_" cx="81.7983" cy="43.1255" r="93.605" gradientUnits="userSpaceOnUse">
			<stop  offset="0" style="stop-color:#4F80C0"/>
			<stop  offset="0.32" style="stop-color:#4D7EBD"/>
			<stop  offset="0.5143" style="stop-color:#4578B5"/>
			<stop  offset="0.675" style="stop-color:#376EA7"/>
			<stop  offset="0.8175" style="stop-color:#256092"/>
			<stop  offset="0.9466" style="stop-color:#0C4D78"/>
			<stop  offset="1" style="stop-color:#00446B"/>
		</radialGradient>
		<path fill="url(#SVGID_44_)" d="M66.819,154.219c-0.212,0-0.404-0.034-0.58-0.104c-0.179-0.071-0.327-0.169-0.451-0.289
			c-0.126-0.121-0.221-0.267-0.288-0.437c-0.067-0.172-0.102-0.354-0.102-0.55v-0.891c0-0.195,0.035-0.379,0.104-0.55
			c0.071-0.171,0.168-0.315,0.291-0.438c0.121-0.123,0.267-0.218,0.437-0.291c0.167-0.067,0.355-0.103,0.556-0.103h0.804
			c0.055,0,0.08-0.028,0.08-0.081v-1.543c0-0.077,0.022-0.136,0.064-0.179c0.045-0.045,0.105-0.063,0.18-0.063h0.245
			c0.075,0,0.132,0.019,0.18,0.063c0.042,0.043,0.064,0.102,0.064,0.179v5.032c0,0.077-0.022,0.136-0.064,0.178
			c-0.048,0.042-0.105,0.065-0.18,0.065H66.819z M67.67,151.335c0-0.051-0.025-0.08-0.08-0.08h-0.771
			c-0.208,0-0.375,0.065-0.5,0.193c-0.128,0.128-0.192,0.296-0.192,0.5v0.891c0,0.207,0.07,0.375,0.204,0.499
			c0.137,0.127,0.3,0.191,0.489,0.191h0.771c0.055,0,0.08-0.025,0.08-0.08V151.335z"/>
		<radialGradient id="SVGID_45_" cx="81.7993" cy="43.1406" r="93.5918" gradientUnits="userSpaceOnUse">
			<stop  offset="0" style="stop-color:#4F80C0"/>
			<stop  offset="0.32" style="stop-color:#4D7EBD"/>
			<stop  offset="0.5143" style="stop-color:#4578B5"/>
			<stop  offset="0.675" style="stop-color:#376EA7"/>
			<stop  offset="0.8175" style="stop-color:#256092"/>
			<stop  offset="0.9466" style="stop-color:#0C4D78"/>
			<stop  offset="1" style="stop-color:#00446B"/>
		</radialGradient>
		<path fill="url(#SVGID_45_)" d="M71.891,154.219c-0.075,0-0.135-0.024-0.177-0.072c-0.045-0.05-0.065-0.104-0.065-0.162
			c0-0.031-0.013-0.052-0.037-0.062c-0.025-0.008-0.048,0.001-0.07,0.03c-0.073,0.102-0.187,0.186-0.337,0.253
			c-0.149,0.063-0.33,0.094-0.539,0.094c-0.188,0-0.362-0.035-0.519-0.105c-0.157-0.07-0.292-0.17-0.407-0.299
			c-0.115-0.132-0.204-0.286-0.27-0.469c-0.063-0.18-0.097-0.378-0.097-0.594v-0.724c0-0.211,0.04-0.411,0.115-0.602
			c0.078-0.189,0.182-0.353,0.319-0.49c0.14-0.138,0.302-0.249,0.494-0.328c0.188-0.083,0.397-0.122,0.624-0.122h1.207
			c0.077,0,0.138,0.021,0.182,0.063c0.04,0.044,0.063,0.104,0.063,0.18v3.166c0,0.077-0.023,0.136-0.063,0.178
			c-0.044,0.042-0.105,0.065-0.182,0.065H71.891z M71.649,151.335c0-0.051-0.028-0.08-0.083-0.08h-0.611
			c-0.267,0-0.477,0.086-0.626,0.253c-0.149,0.17-0.222,0.368-0.222,0.602v0.803c0,0.206,0.06,0.373,0.182,0.503
			c0.119,0.129,0.289,0.194,0.506,0.194c0.147,0,0.272-0.024,0.379-0.075c0.102-0.054,0.192-0.123,0.262-0.207
			c0.069-0.086,0.122-0.184,0.159-0.288c0.035-0.105,0.053-0.217,0.053-0.33V151.335z"/>
		<radialGradient id="SVGID_46_" cx="81.8032" cy="43.1255" r="93.6045" gradientUnits="userSpaceOnUse">
			<stop  offset="0" style="stop-color:#4F80C0"/>
			<stop  offset="0.32" style="stop-color:#4D7EBD"/>
			<stop  offset="0.5143" style="stop-color:#4578B5"/>
			<stop  offset="0.675" style="stop-color:#376EA7"/>
			<stop  offset="0.8175" style="stop-color:#256092"/>
			<stop  offset="0.9466" style="stop-color:#0C4D78"/>
			<stop  offset="1" style="stop-color:#00446B"/>
		</radialGradient>
		<path fill="url(#SVGID_46_)" d="M74.692,154.219c-0.213,0-0.402-0.034-0.579-0.104c-0.18-0.071-0.33-0.169-0.449-0.289
			c-0.127-0.121-0.225-0.267-0.292-0.437c-0.068-0.172-0.102-0.354-0.102-0.55v-0.891c0-0.195,0.034-0.379,0.104-0.55
			c0.072-0.171,0.167-0.315,0.292-0.438c0.122-0.123,0.267-0.218,0.437-0.291c0.169-0.067,0.356-0.103,0.559-0.103h0.8
			c0.055,0,0.08-0.028,0.08-0.081v-1.543c0-0.077,0.022-0.136,0.068-0.179c0.042-0.045,0.102-0.063,0.177-0.063h0.245
			c0.075,0,0.132,0.019,0.177,0.063c0.045,0.043,0.067,0.102,0.067,0.179v5.032c0,0.077-0.022,0.136-0.067,0.178
			s-0.103,0.065-0.177,0.065H74.692z M75.542,151.335c0-0.051-0.025-0.08-0.08-0.08h-0.771c-0.205,0-0.372,0.065-0.499,0.193
			s-0.19,0.296-0.19,0.5v0.891c0,0.207,0.065,0.375,0.203,0.499c0.135,0.127,0.297,0.191,0.486,0.191h0.771
			c0.055,0,0.08-0.025,0.08-0.08V151.335z"/>
		<radialGradient id="SVGID_47_" cx="81.7993" cy="43.1499" r="93.5835" gradientUnits="userSpaceOnUse">
			<stop  offset="0" style="stop-color:#4F80C0"/>
			<stop  offset="0.32" style="stop-color:#4D7EBD"/>
			<stop  offset="0.5143" style="stop-color:#4578B5"/>
			<stop  offset="0.675" style="stop-color:#376EA7"/>
			<stop  offset="0.8175" style="stop-color:#256092"/>
			<stop  offset="0.9466" style="stop-color:#0C4D78"/>
			<stop  offset="1" style="stop-color:#00446B"/>
		</radialGradient>
		<path fill="url(#SVGID_47_)" d="M79.886,153.424c0.047,0.048,0.072,0.103,0.069,0.162c-0.004,0.06-0.024,0.118-0.069,0.172
			c-0.107,0.136-0.267,0.258-0.477,0.372c-0.212,0.114-0.461,0.17-0.756,0.17c-0.227,0-0.431-0.035-0.614-0.108
			c-0.182-0.075-0.336-0.176-0.466-0.303c-0.13-0.131-0.232-0.284-0.3-0.457c-0.07-0.172-0.107-0.355-0.107-0.552v-0.958
			c0-0.194,0.033-0.378,0.095-0.556c0.063-0.176,0.155-0.328,0.277-0.46c0.12-0.127,0.27-0.232,0.447-0.305
			c0.172-0.077,0.374-0.115,0.601-0.115c0.23,0,0.434,0.038,0.611,0.115c0.178,0.072,0.333,0.178,0.457,0.305
			c0.127,0.132,0.225,0.284,0.294,0.46c0.068,0.178,0.1,0.361,0.1,0.556v0.488c0,0.073-0.02,0.135-0.062,0.178
			c-0.045,0.042-0.105,0.066-0.18,0.066H77.98c-0.055,0-0.082,0.025-0.082,0.079v0.146c0,0.205,0.06,0.38,0.182,0.519
			c0.123,0.141,0.314,0.211,0.573,0.211c0.205,0,0.367-0.036,0.477-0.109c0.114-0.073,0.202-0.142,0.259-0.206
			c0.063-0.061,0.123-0.088,0.183-0.085c0.057,0.005,0.112,0.027,0.16,0.076L79.886,153.424z M79.319,151.922
			c0-0.207-0.057-0.381-0.172-0.527c-0.112-0.146-0.299-0.22-0.562-0.22c-0.254,0-0.432,0.073-0.536,0.22
			c-0.1,0.146-0.152,0.32-0.152,0.527v0.041c0,0.056,0.027,0.08,0.082,0.08h1.257c0.055,0,0.082-0.024,0.082-0.08V151.922z"/>
		<radialGradient id="SVGID_48_" cx="81.8003" cy="43.1499" r="93.5835" gradientUnits="userSpaceOnUse">
			<stop  offset="0" style="stop-color:#4F80C0"/>
			<stop  offset="0.32" style="stop-color:#4D7EBD"/>
			<stop  offset="0.5143" style="stop-color:#4578B5"/>
			<stop  offset="0.675" style="stop-color:#376EA7"/>
			<stop  offset="0.8175" style="stop-color:#256092"/>
			<stop  offset="0.9466" style="stop-color:#0C4D78"/>
			<stop  offset="1" style="stop-color:#00446B"/>
		</radialGradient>
		<path fill="url(#SVGID_48_)" d="M80.976,153.409c0.089-0.111,0.2-0.108,0.329,0.006c0.06,0.048,0.132,0.094,0.217,0.136
			c0.085,0.039,0.188,0.059,0.304,0.059c0.145,0,0.27-0.031,0.367-0.096c0.097-0.064,0.144-0.15,0.144-0.26
			c0-0.104-0.042-0.193-0.126-0.269c-0.082-0.076-0.24-0.17-0.469-0.284c-0.142-0.071-0.272-0.142-0.387-0.218
			c-0.114-0.078-0.209-0.16-0.29-0.249c-0.077-0.09-0.137-0.189-0.179-0.296c-0.043-0.108-0.065-0.233-0.065-0.382
			c0-0.146,0.025-0.283,0.082-0.415c0.05-0.128,0.127-0.243,0.229-0.338c0.1-0.099,0.222-0.176,0.364-0.234
			c0.145-0.056,0.304-0.083,0.484-0.083c0.214,0,0.409,0.039,0.576,0.12c0.168,0.083,0.29,0.162,0.366,0.244
			c0.043,0.053,0.066,0.113,0.069,0.174c0.002,0.063-0.021,0.117-0.069,0.167l-0.144,0.155c-0.052,0.048-0.1,0.079-0.155,0.093
			c-0.05,0.014-0.105-0.007-0.155-0.061c-0.146-0.138-0.309-0.204-0.489-0.204c-0.16,0-0.271,0.037-0.342,0.107
			c-0.075,0.068-0.113,0.161-0.113,0.274c0,0.108,0.05,0.201,0.155,0.275c0.1,0.076,0.232,0.148,0.39,0.221
			c0.149,0.063,0.287,0.136,0.409,0.209c0.122,0.076,0.225,0.159,0.312,0.249c0.088,0.089,0.152,0.19,0.205,0.303
			c0.05,0.107,0.072,0.237,0.072,0.382c0,0.181-0.035,0.339-0.104,0.476c-0.075,0.138-0.165,0.255-0.283,0.352
			c-0.114,0.093-0.246,0.162-0.396,0.209c-0.149,0.044-0.299,0.068-0.451,0.068c-0.247,0-0.454-0.033-0.619-0.102
			c-0.16-0.067-0.29-0.158-0.387-0.272c-0.044-0.046-0.067-0.104-0.07-0.168c-0.002-0.066,0.023-0.122,0.07-0.172L80.976,153.409z"
			/>
		<radialGradient id="SVGID_49_" cx="81.7988" cy="43.1499" r="93.5844" gradientUnits="userSpaceOnUse">
			<stop  offset="0" style="stop-color:#4F80C0"/>
			<stop  offset="0.32" style="stop-color:#4D7EBD"/>
			<stop  offset="0.5143" style="stop-color:#4578B5"/>
			<stop  offset="0.675" style="stop-color:#376EA7"/>
			<stop  offset="0.8175" style="stop-color:#256092"/>
			<stop  offset="0.9466" style="stop-color:#0C4D78"/>
			<stop  offset="1" style="stop-color:#00446B"/>
		</radialGradient>
		<path fill="url(#SVGID_49_)" d="M88.775,153.424c0.05,0.048,0.071,0.103,0.07,0.162c-0.004,0.06-0.025,0.118-0.07,0.172
			c-0.108,0.136-0.268,0.258-0.479,0.372c-0.21,0.114-0.462,0.17-0.757,0.17c-0.225,0-0.428-0.035-0.61-0.108
			c-0.184-0.075-0.337-0.176-0.467-0.303c-0.13-0.131-0.23-0.284-0.3-0.457c-0.069-0.172-0.107-0.355-0.107-0.552v-0.958
			c0-0.194,0.031-0.378,0.092-0.556c0.064-0.176,0.158-0.328,0.277-0.46c0.125-0.127,0.272-0.232,0.448-0.305
			c0.175-0.077,0.378-0.115,0.603-0.115c0.23,0,0.43,0.038,0.611,0.115c0.177,0.072,0.33,0.178,0.459,0.305
			c0.124,0.132,0.225,0.284,0.291,0.46c0.068,0.178,0.104,0.361,0.104,0.556v0.488c0,0.073-0.023,0.135-0.065,0.178
			c-0.044,0.042-0.102,0.066-0.18,0.066h-1.825c-0.058,0-0.083,0.025-0.083,0.079v0.146c0,0.205,0.063,0.38,0.183,0.519
			c0.121,0.141,0.313,0.211,0.57,0.211c0.208,0,0.365-0.036,0.482-0.109c0.115-0.073,0.197-0.142,0.26-0.206
			c0.056-0.061,0.119-0.088,0.176-0.085c0.063,0.005,0.115,0.027,0.166,0.076L88.775,153.424z M88.208,151.922
			c0-0.207-0.058-0.381-0.173-0.527s-0.299-0.22-0.561-0.22c-0.254,0-0.435,0.073-0.533,0.22c-0.102,0.146-0.155,0.32-0.155,0.527
			v0.041c0,0.056,0.025,0.08,0.083,0.08h1.258c0.054,0,0.081-0.024,0.081-0.08V151.922z"/>
		<radialGradient id="SVGID_50_" cx="81.7979" cy="43.1411" r="93.592" gradientUnits="userSpaceOnUse">
			<stop  offset="0" style="stop-color:#4F80C0"/>
			<stop  offset="0.32" style="stop-color:#4D7EBD"/>
			<stop  offset="0.5143" style="stop-color:#4578B5"/>
			<stop  offset="0.675" style="stop-color:#376EA7"/>
			<stop  offset="0.8175" style="stop-color:#256092"/>
			<stop  offset="0.9466" style="stop-color:#0C4D78"/>
			<stop  offset="1" style="stop-color:#00446B"/>
		</radialGradient>
		<path fill="url(#SVGID_50_)" d="M92.348,154.219c-0.076,0-0.136-0.023-0.178-0.065c-0.045-0.042-0.065-0.101-0.065-0.178v-2.027
			c0-0.204-0.065-0.387-0.192-0.539c-0.127-0.155-0.321-0.234-0.581-0.234c-0.256,0-0.451,0.079-0.581,0.234
			c-0.125,0.152-0.189,0.335-0.189,0.539v2.027c0,0.077-0.021,0.136-0.065,0.178c-0.042,0.042-0.102,0.065-0.177,0.065h-0.244
			c-0.075,0-0.136-0.023-0.177-0.065c-0.045-0.042-0.065-0.101-0.065-0.178v-2.027c0-0.195,0.035-0.384,0.106-0.563
			c0.076-0.179,0.175-0.332,0.308-0.464c0.127-0.135,0.287-0.24,0.471-0.318c0.183-0.077,0.39-0.116,0.614-0.116
			c0.229,0,0.436,0.039,0.616,0.116c0.188,0.078,0.345,0.184,0.474,0.318c0.128,0.132,0.231,0.285,0.306,0.464
			c0.071,0.18,0.109,0.368,0.109,0.563v2.027c0,0.077-0.025,0.136-0.069,0.178c-0.04,0.042-0.102,0.065-0.176,0.065H92.348z"/>
		<radialGradient id="SVGID_51_" cx="81.7998" cy="43.1255" r="93.6047" gradientUnits="userSpaceOnUse">
			<stop  offset="0" style="stop-color:#4F80C0"/>
			<stop  offset="0.32" style="stop-color:#4D7EBD"/>
			<stop  offset="0.5143" style="stop-color:#4578B5"/>
			<stop  offset="0.675" style="stop-color:#376EA7"/>
			<stop  offset="0.8175" style="stop-color:#256092"/>
			<stop  offset="0.9466" style="stop-color:#0C4D78"/>
			<stop  offset="1" style="stop-color:#00446B"/>
		</radialGradient>
		<path fill="url(#SVGID_51_)" d="M100.179,154.219c-0.074,0-0.134-0.023-0.179-0.065c-0.042-0.042-0.063-0.101-0.063-0.178v-3.759
			c0-0.048-0.018-0.08-0.047-0.097c-0.036-0.015-0.062,0.007-0.082,0.065l-0.822,2.313c-0.053,0.146-0.149,0.22-0.292,0.22h-0.517
			c-0.144,0-0.24-0.074-0.296-0.22l-0.818-2.313c-0.021-0.049-0.05-0.074-0.082-0.074s-0.051,0.037-0.051,0.105v3.759
			c0,0.077-0.017,0.136-0.061,0.178c-0.045,0.042-0.103,0.065-0.181,0.065h-0.283c-0.076,0-0.137-0.023-0.18-0.065
			s-0.065-0.101-0.065-0.178v-5.032c0-0.077,0.022-0.136,0.065-0.179c0.043-0.045,0.104-0.063,0.18-0.063h0.715
			c0.074,0,0.134,0.017,0.182,0.052c0.038,0.034,0.07,0.081,0.093,0.141l0.962,2.834c0.011,0.055,0.039,0.08,0.074,0.076
			c0.037-0.003,0.062-0.026,0.084-0.076l0.957-2.834c0.024-0.06,0.057-0.106,0.099-0.141c0.045-0.035,0.105-0.052,0.18-0.052h0.713
			c0.077,0,0.135,0.019,0.18,0.063c0.043,0.043,0.065,0.102,0.065,0.179v5.032c0,0.077-0.022,0.136-0.065,0.178
			c-0.045,0.042-0.103,0.065-0.18,0.065H100.179z"/>
		<radialGradient id="SVGID_52_" cx="81.7979" cy="43.1499" r="93.5856" gradientUnits="userSpaceOnUse">
			<stop  offset="0" style="stop-color:#4F80C0"/>
			<stop  offset="0.32" style="stop-color:#4D7EBD"/>
			<stop  offset="0.5143" style="stop-color:#4578B5"/>
			<stop  offset="0.675" style="stop-color:#376EA7"/>
			<stop  offset="0.8175" style="stop-color:#256092"/>
			<stop  offset="0.9466" style="stop-color:#0C4D78"/>
			<stop  offset="1" style="stop-color:#00446B"/>
		</radialGradient>
		<path fill="url(#SVGID_52_)" d="M103.508,154.3c-0.265,0-0.512-0.048-0.74-0.15c-0.232-0.1-0.435-0.236-0.606-0.408
			c-0.173-0.175-0.311-0.376-0.409-0.605c-0.099-0.23-0.15-0.481-0.15-0.741c0-0.269,0.052-0.515,0.15-0.744
			c0.099-0.23,0.236-0.432,0.409-0.604c0.172-0.173,0.374-0.31,0.606-0.409c0.229-0.102,0.476-0.15,0.74-0.15
			c0.267,0,0.51,0.049,0.742,0.15c0.23,0.1,0.43,0.236,0.606,0.409c0.172,0.173,0.311,0.374,0.41,0.604
			c0.1,0.229,0.149,0.476,0.149,0.744c0,0.26-0.05,0.511-0.149,0.741c-0.1,0.229-0.238,0.431-0.41,0.605
			c-0.177,0.172-0.376,0.309-0.606,0.408C104.018,154.252,103.774,154.3,103.508,154.3z M103.508,153.609
			c0.167,0,0.325-0.031,0.466-0.096c0.146-0.064,0.268-0.15,0.374-0.26c0.105-0.109,0.188-0.24,0.248-0.385
			c0.063-0.15,0.089-0.308,0.089-0.475c0-0.169-0.026-0.329-0.089-0.476c-0.06-0.149-0.143-0.277-0.248-0.386
			c-0.106-0.109-0.229-0.198-0.374-0.26c-0.141-0.067-0.299-0.099-0.466-0.099s-0.323,0.031-0.467,0.099
			c-0.145,0.062-0.267,0.15-0.375,0.26c-0.104,0.108-0.184,0.236-0.245,0.386c-0.061,0.146-0.091,0.307-0.091,0.476
			c0,0.167,0.03,0.324,0.091,0.475c0.062,0.145,0.142,0.275,0.245,0.385c0.108,0.109,0.23,0.195,0.375,0.26
			C103.185,153.578,103.341,153.609,103.508,153.609z"/>
		<radialGradient id="SVGID_53_" cx="81.8047" cy="43.1289" r="93.6018" gradientUnits="userSpaceOnUse">
			<stop  offset="0" style="stop-color:#4F80C0"/>
			<stop  offset="0.32" style="stop-color:#4D7EBD"/>
			<stop  offset="0.5143" style="stop-color:#4578B5"/>
			<stop  offset="0.675" style="stop-color:#376EA7"/>
			<stop  offset="0.8175" style="stop-color:#256092"/>
			<stop  offset="0.9466" style="stop-color:#0C4D78"/>
			<stop  offset="1" style="stop-color:#00446B"/>
		</radialGradient>
		<path fill="url(#SVGID_53_)" d="M107.322,154.219c-0.076,0-0.136-0.013-0.183-0.04c-0.042-0.027-0.082-0.088-0.106-0.178
			l-1.113-3.206c-0.027-0.07-0.024-0.129,0.008-0.167c0.032-0.039,0.088-0.061,0.162-0.061h0.302c0.146,0,0.237,0.063,0.274,0.194
			l0.772,2.412c0.015,0.059,0.043,0.086,0.081,0.086c0.033,0,0.063-0.027,0.08-0.086l0.772-2.412
			c0.038-0.132,0.127-0.194,0.273-0.194h0.301c0.077,0,0.13,0.021,0.164,0.061c0.03,0.038,0.034,0.097,0.008,0.167l-1.112,3.206
			c-0.025,0.09-0.063,0.15-0.11,0.178c-0.045,0.027-0.104,0.04-0.182,0.04H107.322z"/>
		<radialGradient id="SVGID_54_" cx="81.8228" cy="43.1211" r="93.6044" gradientUnits="userSpaceOnUse">
			<stop  offset="0" style="stop-color:#4F80C0"/>
			<stop  offset="0.32" style="stop-color:#4D7EBD"/>
			<stop  offset="0.5143" style="stop-color:#4578B5"/>
			<stop  offset="0.675" style="stop-color:#376EA7"/>
			<stop  offset="0.8175" style="stop-color:#256092"/>
			<stop  offset="0.9466" style="stop-color:#0C4D78"/>
			<stop  offset="1" style="stop-color:#00446B"/>
		</radialGradient>
		<path fill="url(#SVGID_54_)" d="M110.106,150c-0.076,0-0.132-0.023-0.178-0.065c-0.042-0.045-0.065-0.105-0.065-0.18v-0.406
			c0-0.076,0.023-0.134,0.065-0.178c0.046-0.045,0.102-0.064,0.178-0.064h0.243c0.077,0,0.139,0.02,0.18,0.064
			c0.042,0.044,0.065,0.102,0.065,0.178v0.406c0,0.074-0.023,0.135-0.065,0.18c-0.041,0.042-0.103,0.065-0.18,0.065H110.106z
			 M110.106,154.219c-0.076,0-0.132-0.023-0.178-0.065c-0.042-0.042-0.065-0.101-0.065-0.178v-3.166c0-0.076,0.023-0.136,0.065-0.18
			c0.046-0.041,0.102-0.063,0.178-0.063h0.243c0.077,0,0.139,0.021,0.18,0.063c0.042,0.044,0.065,0.104,0.065,0.18v3.166
			c0,0.077-0.023,0.136-0.065,0.178c-0.041,0.042-0.103,0.065-0.18,0.065H110.106z"/>
		<radialGradient id="SVGID_55_" cx="81.8032" cy="43.1411" r="93.5932" gradientUnits="userSpaceOnUse">
			<stop  offset="0" style="stop-color:#4F80C0"/>
			<stop  offset="0.32" style="stop-color:#4D7EBD"/>
			<stop  offset="0.5143" style="stop-color:#4578B5"/>
			<stop  offset="0.675" style="stop-color:#376EA7"/>
			<stop  offset="0.8175" style="stop-color:#256092"/>
			<stop  offset="0.9466" style="stop-color:#0C4D78"/>
			<stop  offset="1" style="stop-color:#00446B"/>
		</radialGradient>
		<path fill="url(#SVGID_55_)" d="M116.033,154.219c-0.075,0-0.137-0.023-0.181-0.065c-0.042-0.042-0.063-0.101-0.063-0.178v-2.111
			c0-0.085-0.013-0.17-0.044-0.25c-0.023-0.081-0.063-0.156-0.118-0.22c-0.054-0.066-0.123-0.117-0.208-0.158
			c-0.082-0.042-0.184-0.062-0.304-0.062c-0.121,0-0.223,0.02-0.305,0.062c-0.085,0.041-0.152,0.092-0.206,0.158
			c-0.055,0.063-0.093,0.139-0.118,0.22c-0.025,0.08-0.035,0.165-0.035,0.25v2.111c0,0.077-0.022,0.136-0.064,0.178
			c-0.044,0.042-0.104,0.065-0.18,0.065h-0.243c-0.076,0-0.136-0.023-0.181-0.065c-0.043-0.042-0.063-0.101-0.063-0.178v-2.111
			c0-0.085-0.014-0.17-0.039-0.25c-0.029-0.081-0.069-0.156-0.122-0.22c-0.056-0.066-0.125-0.117-0.208-0.158
			c-0.084-0.042-0.181-0.062-0.298-0.062c-0.113,0-0.213,0.02-0.3,0.062c-0.085,0.041-0.155,0.092-0.211,0.158
			c-0.051,0.063-0.094,0.139-0.121,0.22c-0.029,0.08-0.042,0.165-0.042,0.25v2.111c0,0.077-0.02,0.136-0.063,0.178
			c-0.045,0.042-0.104,0.065-0.178,0.065h-0.248c-0.073,0-0.132-0.023-0.177-0.065c-0.043-0.042-0.063-0.101-0.063-0.178v-2.111
			c0-0.193,0.036-0.377,0.101-0.548c0.066-0.17,0.161-0.316,0.286-0.437c0.12-0.122,0.271-0.219,0.439-0.29
			c0.176-0.067,0.367-0.104,0.577-0.104c0.206,0,0.388,0.038,0.548,0.115c0.16,0.072,0.295,0.156,0.401,0.249
			c0.055,0.048,0.105,0.048,0.155,0c0.102-0.102,0.233-0.189,0.397-0.261c0.158-0.067,0.347-0.104,0.561-0.104
			c0.209,0,0.403,0.036,0.576,0.104c0.172,0.071,0.321,0.168,0.443,0.29c0.121,0.12,0.215,0.267,0.279,0.437
			c0.074,0.171,0.103,0.354,0.103,0.548v2.111c0,0.077-0.016,0.136-0.062,0.178c-0.043,0.042-0.104,0.065-0.181,0.065H116.033z"/>
		<radialGradient id="SVGID_56_" cx="81.7959" cy="43.1211" r="93.6097" gradientUnits="userSpaceOnUse">
			<stop  offset="0" style="stop-color:#4F80C0"/>
			<stop  offset="0.32" style="stop-color:#4D7EBD"/>
			<stop  offset="0.5143" style="stop-color:#4578B5"/>
			<stop  offset="0.675" style="stop-color:#376EA7"/>
			<stop  offset="0.8175" style="stop-color:#256092"/>
			<stop  offset="0.9466" style="stop-color:#0C4D78"/>
			<stop  offset="1" style="stop-color:#00446B"/>
		</radialGradient>
		<path fill="url(#SVGID_56_)" d="M117.816,150c-0.074,0-0.135-0.023-0.176-0.065c-0.046-0.045-0.065-0.105-0.065-0.18v-0.406
			c0-0.076,0.02-0.134,0.065-0.178c0.041-0.045,0.102-0.064,0.176-0.064h0.245c0.074,0,0.137,0.02,0.182,0.064
			c0.041,0.044,0.063,0.102,0.063,0.178v0.406c0,0.074-0.021,0.135-0.063,0.18c-0.045,0.042-0.107,0.065-0.182,0.065H117.816z
			 M117.816,154.219c-0.074,0-0.135-0.023-0.176-0.065c-0.046-0.042-0.065-0.101-0.065-0.178v-3.166c0-0.076,0.02-0.136,0.065-0.18
			c0.041-0.041,0.102-0.063,0.176-0.063h0.245c0.074,0,0.137,0.021,0.182,0.063c0.041,0.044,0.063,0.104,0.063,0.18v3.166
			c0,0.077-0.021,0.136-0.063,0.178c-0.045,0.042-0.107,0.065-0.182,0.065H117.816z"/>
		<radialGradient id="SVGID_57_" cx="81.8208" cy="43.1499" r="93.5818" gradientUnits="userSpaceOnUse">
			<stop  offset="0" style="stop-color:#4F80C0"/>
			<stop  offset="0.32" style="stop-color:#4D7EBD"/>
			<stop  offset="0.5143" style="stop-color:#4578B5"/>
			<stop  offset="0.675" style="stop-color:#376EA7"/>
			<stop  offset="0.8175" style="stop-color:#256092"/>
			<stop  offset="0.9466" style="stop-color:#0C4D78"/>
			<stop  offset="1" style="stop-color:#00446B"/>
		</radialGradient>
		<path fill="url(#SVGID_57_)" d="M121.998,153.424c0.049,0.048,0.072,0.103,0.07,0.162c-0.003,0.06-0.027,0.118-0.07,0.172
			c-0.107,0.136-0.267,0.258-0.477,0.372c-0.212,0.114-0.464,0.17-0.759,0.17c-0.224,0-0.429-0.035-0.61-0.108
			c-0.184-0.075-0.338-0.176-0.471-0.303c-0.127-0.131-0.227-0.284-0.295-0.457c-0.07-0.172-0.107-0.355-0.107-0.552v-0.958
			c0-0.194,0.032-0.378,0.095-0.556c0.062-0.176,0.155-0.328,0.273-0.46c0.125-0.127,0.272-0.232,0.446-0.305
			c0.178-0.077,0.378-0.115,0.606-0.115c0.228,0,0.431,0.038,0.609,0.115c0.181,0.072,0.331,0.178,0.456,0.305
			c0.127,0.132,0.227,0.284,0.292,0.46c0.069,0.178,0.104,0.361,0.104,0.556v0.488c0,0.073-0.021,0.135-0.067,0.178
			c-0.04,0.042-0.102,0.066-0.176,0.066h-1.826c-0.054,0-0.082,0.025-0.082,0.079v0.146c0,0.205,0.063,0.38,0.181,0.519
			c0.123,0.141,0.315,0.211,0.572,0.211c0.21,0,0.368-0.036,0.482-0.109c0.111-0.073,0.201-0.142,0.258-0.206
			c0.062-0.061,0.12-0.088,0.179-0.085c0.06,0.005,0.114,0.027,0.165,0.076L121.998,153.424z M121.432,151.922
			c0-0.207-0.058-0.381-0.172-0.527c-0.115-0.146-0.297-0.22-0.56-0.22c-0.254,0-0.434,0.073-0.535,0.22s-0.155,0.32-0.155,0.527
			v0.041c0,0.056,0.028,0.08,0.082,0.08h1.257c0.056,0,0.083-0.024,0.083-0.08V151.922z"/>
		<radialGradient id="SVGID_58_" cx="81.7832" cy="43.1411" r="93.5995" gradientUnits="userSpaceOnUse">
			<stop  offset="0" style="stop-color:#4F80C0"/>
			<stop  offset="0.32" style="stop-color:#4D7EBD"/>
			<stop  offset="0.5143" style="stop-color:#4578B5"/>
			<stop  offset="0.675" style="stop-color:#376EA7"/>
			<stop  offset="0.8175" style="stop-color:#256092"/>
			<stop  offset="0.9466" style="stop-color:#0C4D78"/>
			<stop  offset="1" style="stop-color:#00446B"/>
		</radialGradient>
		<path fill="url(#SVGID_58_)" d="M125.569,154.219c-0.074,0-0.134-0.023-0.18-0.065c-0.04-0.042-0.062-0.101-0.062-0.178v-2.027
			c0-0.204-0.065-0.387-0.192-0.539c-0.127-0.155-0.319-0.234-0.579-0.234c-0.261,0-0.453,0.079-0.58,0.234
			c-0.128,0.152-0.192,0.335-0.192,0.539v2.027c0,0.077-0.021,0.136-0.065,0.178c-0.042,0.042-0.102,0.065-0.177,0.065h-0.244
			c-0.076,0-0.135-0.023-0.181-0.065c-0.041-0.042-0.064-0.101-0.064-0.178v-2.027c0-0.195,0.038-0.384,0.11-0.563
			c0.071-0.179,0.174-0.332,0.304-0.464c0.13-0.135,0.29-0.24,0.472-0.318c0.185-0.077,0.39-0.116,0.618-0.116
			s0.433,0.039,0.613,0.116c0.186,0.078,0.342,0.184,0.473,0.318c0.132,0.132,0.233,0.285,0.307,0.464
			c0.073,0.18,0.108,0.368,0.108,0.563v2.027c0,0.077-0.021,0.136-0.065,0.178c-0.043,0.042-0.101,0.065-0.178,0.065H125.569z"/>
		<radialGradient id="SVGID_59_" cx="81.8081" cy="43.1191" r="93.6079" gradientUnits="userSpaceOnUse">
			<stop  offset="0" style="stop-color:#4F80C0"/>
			<stop  offset="0.32" style="stop-color:#4D7EBD"/>
			<stop  offset="0.5143" style="stop-color:#4578B5"/>
			<stop  offset="0.675" style="stop-color:#376EA7"/>
			<stop  offset="0.8175" style="stop-color:#256092"/>
			<stop  offset="0.9466" style="stop-color:#0C4D78"/>
			<stop  offset="1" style="stop-color:#00446B"/>
		</radialGradient>
		<path fill="url(#SVGID_59_)" d="M128.504,154.219c-0.407,0-0.711-0.109-0.901-0.33c-0.188-0.224-0.287-0.533-0.287-0.927v-1.627
			c0-0.051-0.027-0.08-0.081-0.08h-0.243c-0.076,0-0.134-0.02-0.179-0.063c-0.043-0.045-0.064-0.104-0.064-0.178v-0.204
			c0-0.076,0.021-0.136,0.064-0.18c0.045-0.041,0.103-0.063,0.179-0.063h0.243c0.054,0,0.081-0.028,0.081-0.081v-0.571
			c0-0.074,0.022-0.132,0.065-0.176s0.1-0.065,0.176-0.065h0.245c0.076,0,0.139,0.021,0.181,0.065s0.061,0.102,0.061,0.176v0.571
			c0,0.053,0.032,0.081,0.084,0.081h0.608c0.077,0,0.138,0.021,0.18,0.063c0.045,0.044,0.064,0.104,0.064,0.18v0.204
			c0,0.074-0.02,0.133-0.064,0.178c-0.042,0.044-0.103,0.063-0.18,0.063h-0.608c-0.052,0-0.084,0.029-0.084,0.08v1.585
			c0,0.191,0.038,0.34,0.115,0.448c0.074,0.107,0.21,0.161,0.417,0.161h0.16c0.077,0,0.138,0.021,0.18,0.064
			c0.045,0.045,0.064,0.101,0.064,0.18v0.202c0,0.077-0.02,0.136-0.064,0.178c-0.042,0.042-0.103,0.065-0.18,0.065H128.504z"/>
		<radialGradient id="SVGID_60_" cx="81.8198" cy="43.1499" r="93.5833" gradientUnits="userSpaceOnUse">
			<stop  offset="0" style="stop-color:#4F80C0"/>
			<stop  offset="0.32" style="stop-color:#4D7EBD"/>
			<stop  offset="0.5143" style="stop-color:#4578B5"/>
			<stop  offset="0.675" style="stop-color:#376EA7"/>
			<stop  offset="0.8175" style="stop-color:#256092"/>
			<stop  offset="0.9466" style="stop-color:#0C4D78"/>
			<stop  offset="1" style="stop-color:#00446B"/>
		</radialGradient>
		<path fill="url(#SVGID_60_)" d="M131.455,154.3c-0.269,0-0.512-0.048-0.744-0.15c-0.229-0.1-0.428-0.236-0.603-0.408
			c-0.176-0.175-0.31-0.376-0.41-0.605c-0.1-0.23-0.148-0.481-0.148-0.741c0-0.269,0.049-0.515,0.148-0.744
			c0.101-0.23,0.234-0.432,0.41-0.604c0.175-0.173,0.374-0.31,0.603-0.409c0.232-0.102,0.476-0.15,0.744-0.15
			c0.268,0,0.514,0.049,0.742,0.15c0.23,0.1,0.436,0.236,0.606,0.409c0.173,0.173,0.311,0.374,0.41,0.604
			c0.1,0.229,0.149,0.476,0.149,0.744c0,0.26-0.05,0.511-0.149,0.741c-0.1,0.229-0.237,0.431-0.41,0.605
			c-0.171,0.172-0.376,0.309-0.606,0.408C131.969,154.252,131.723,154.3,131.455,154.3z M131.455,153.609
			c0.173,0,0.323-0.031,0.469-0.096c0.143-0.064,0.267-0.15,0.375-0.26c0.104-0.109,0.185-0.24,0.244-0.385
			c0.06-0.15,0.09-0.308,0.09-0.475c0-0.169-0.03-0.329-0.09-0.476c-0.06-0.149-0.141-0.277-0.244-0.386
			c-0.108-0.109-0.232-0.198-0.375-0.26c-0.146-0.067-0.296-0.099-0.469-0.099c-0.168,0-0.322,0.031-0.466,0.099
			c-0.143,0.062-0.267,0.15-0.372,0.26c-0.108,0.108-0.189,0.236-0.251,0.386c-0.06,0.146-0.089,0.307-0.089,0.476
			c0,0.167,0.029,0.324,0.089,0.475c0.062,0.145,0.143,0.275,0.251,0.385c0.105,0.109,0.229,0.195,0.372,0.26
			C131.133,153.578,131.287,153.609,131.455,153.609z"/>
	</g>
</g>
</svg>
