<?xml version="1.0" encoding="utf-8"?>
<!-- Generator: Adobe Illustrator 16.0.0, SVG Export Plug-In . SVG Version: 6.00 Build 0)  -->
<!DOCTYPE svg PUBLIC "-//W3C//DTD SVG 1.1//EN" "http://www.w3.org/Graphics/SVG/1.1/DTD/svg11.dtd">
<svg version="1.1" id="Capa_1" xmlns="http://www.w3.org/2000/svg" xmlns:xlink="http://www.w3.org/1999/xlink" x="0px" y="0px"
	 width="48.99px" height="48.984px" viewBox="0 0 48.99 48.984" enable-background="new 0 0 48.99 48.984" xml:space="preserve">
<g id="Capa_2_1_" display="none">
	<rect y="0" display="inline" fill="#DBD7D7" width="48.99" height="48.984"/>
</g>
<path fill-rule="evenodd" clip-rule="evenodd" fill="#FFFFFF" d="M24.491,48.982c13.531,0,24.499-10.963,24.499-24.49
	S38.022,0.001,24.491,0.001C10.967,0.001,0,10.965,0,24.492S10.967,48.982,24.491,48.982L24.491,48.982z"/>
<path fill-rule="evenodd" clip-rule="evenodd" fill="#83358B" d="M23.927,45.541h0.651c11.306-0.173,20.415-9.389,20.415-20.736
	c0-11.454-9.282-20.74-20.744-20.74c-11.454,0-20.736,9.286-20.736,20.74C3.513,36.152,12.624,45.368,23.927,45.541L23.927,45.541z"
	/>
<g>
	<path fill="#FBFBFC" d="M15.817,19.325c0.366,0,0.719,0.056,1.052,0.158c1.257-1.409,2.649-2.689,4.158-3.827
		c-0.063-0.266-0.1-0.541-0.1-0.827c0-0.396,0.067-0.775,0.186-1.13c-1.689-1.212-3.527-2.229-5.482-3.017
		c-1.833,1.133-3.431,2.611-4.706,4.341c0.946,1.674,2.071,3.236,3.349,4.658C14.741,19.455,15.264,19.325,15.817,19.325z
		 M12.252,22.89c0-0.501,0.104-0.977,0.291-1.41c-1.145-1.256-2.182-2.612-3.089-4.057c-1.14,2.262-1.785,4.818-1.785,7.523
		c0,3.134,0.862,6.064,2.359,8.573c0.534-3.016,1.55-5.864,2.952-8.478C12.525,24.445,12.252,23.701,12.252,22.89z M24.493,11.263
		c0.941,0,1.796,0.367,2.433,0.963c1.861-0.801,3.819-1.413,5.858-1.806c-2.46-1.418-5.312-2.233-8.355-2.233
		c-2.075,0-4.061,0.38-5.896,1.069c1.456,0.718,2.843,1.559,4.148,2.504C23.213,11.446,23.831,11.263,24.493,11.263z M29.825,28.057
		c0.223-0.462,0.537-0.87,0.927-1.194c-1.052-3.24-2.72-6.203-4.867-8.751c-0.428,0.182-0.898,0.282-1.392,0.282
		c-0.773,0-1.487-0.25-2.072-0.667c-1.292,0.981-2.489,2.083-3.576,3.284c0.339,0.546,0.539,1.188,0.539,1.879
		c0,0.373-0.058,0.73-0.164,1.069C22.349,26.049,25.947,27.481,29.825,28.057z M34.451,32.872c0.049,0.675,0.075,1.356,0.075,2.044
		c0,1.209-0.077,2.4-0.223,3.572c2.842-2.077,5.006-5.024,6.097-8.451c-1.293,0.313-2.619,0.536-3.973,0.666
		C36.11,31.678,35.384,32.469,34.451,32.872z M28.99,30.454c-4.137-0.686-7.973-2.263-11.312-4.524
		c-0.542,0.332-1.178,0.527-1.86,0.527c-0.25,0-0.495-0.027-0.731-0.075c-1.598,3.029-2.62,6.41-2.913,9.994
		c1.596,1.709,3.543,3.088,5.73,4.014C20.619,36.214,24.416,32.759,28.99,30.454z M35.681,12.525
		c-2.687,0.259-5.252,0.933-7.641,1.947c0.014,0.117,0.02,0.236,0.02,0.357c0,0.563-0.135,1.092-0.366,1.566
		c2.386,2.801,4.238,6.065,5.408,9.64c1.449,0.024,2.69,0.914,3.224,2.176c1.613-0.165,3.184-0.473,4.698-0.918
		c0.106-0.768,0.166-1.549,0.166-2.346C41.189,20.021,39.063,15.591,35.681,12.525z M30.784,32.36c-4.27,2-7.84,5.08-10.426,8.847
		c1.303,0.325,2.666,0.5,4.071,0.5c2.528,0,4.924-0.563,7.073-1.565c0.346-1.688,0.528-3.437,0.528-5.226
		c0-0.647-0.029-1.288-0.078-1.922C31.521,32.855,31.128,32.639,30.784,32.36z"/>
</g>
</svg>
