<?xml version="1.0" encoding="utf-8"?>
<!-- Generator: Adobe Illustrator 16.0.0, SVG Export Plug-In . SVG Version: 6.00 Build 0)  -->
<!DOCTYPE svg PUBLIC "-//W3C//DTD SVG 1.1//EN" "http://www.w3.org/Graphics/SVG/1.1/DTD/svg11.dtd">
<svg version="1.1" xmlns="http://www.w3.org/2000/svg" xmlns:xlink="http://www.w3.org/1999/xlink" x="0px" y="0px" width="48.99px"
	 height="48.984px" viewBox="0 0 48.99 48.984" enable-background="new 0 0 48.99 48.984" xml:space="preserve">
<g id="Capa_2_1_" display="none">
	<rect y="0" display="inline" fill="#DBD7D7" width="48.99" height="48.984"/>
</g>
<g id="Capa_4">
	<path fill-rule="evenodd" clip-rule="evenodd" fill="#FFFFFF" d="M24.491,48.864c13.467,0,24.38-10.912,24.38-24.372
		c0-13.462-10.913-24.372-24.38-24.372c-13.458,0-24.372,10.91-24.372,24.372C0.119,37.952,11.033,48.864,24.491,48.864
		L24.491,48.864z"/>
	<path fill-rule="evenodd" clip-rule="evenodd" fill="#30BF39" d="M24.171,45.13h0.647c11.25-0.171,20.315-9.342,20.315-20.634
		c0-11.398-9.237-20.639-20.643-20.639c-11.398,0-20.635,9.241-20.635,20.639C3.856,35.788,12.921,44.959,24.171,45.13L24.171,45.13
		z"/>
	<g>
		<path fill="#FFFFFF" d="M7.964,23.604l7.233,14.305c0,0,5.741-8.08,12.157-6.886L21.1,18.654
			C21.1,18.654,13.712,16.789,7.964,23.604z"/>
		<path fill="#FFFFFF" d="M33.631,10.627l7.233,14.305c0,0-9.912-0.166-12.753,5.709l-6.255-12.37
			C21.856,18.272,24.735,11.215,33.631,10.627z"/>
	</g>
</g>
</svg>
