<?xml version="1.0" encoding="utf-8"?>
<!-- Generator: Adobe Illustrator 16.0.0, SVG Export Plug-In . SVG Version: 6.00 Build 0)  -->
<!DOCTYPE svg PUBLIC "-//W3C//DTD SVG 1.1//EN" "http://www.w3.org/Graphics/SVG/1.1/DTD/svg11.dtd">
<svg version="1.1" xmlns="http://www.w3.org/2000/svg" xmlns:xlink="http://www.w3.org/1999/xlink" x="0px" y="0px" width="48.99px"
	 height="48.984px" viewBox="0 0 48.99 48.984" enable-background="new 0 0 48.99 48.984" xml:space="preserve">
<g id="Capa_2_1_" display="none">
	<rect y="0" display="inline" fill="#DBD7D7" width="48.99" height="48.984"/>
</g>
<g id="Capa_4">
	<path fill-rule="evenodd" clip-rule="evenodd" fill="#FFFFFF" d="M24.318,48.968c13.435,0,24.325-10.887,24.325-24.318
		S37.753,0.332,24.318,0.332C10.89,0.332,0,11.219,0,24.65S10.89,48.968,24.318,48.968L24.318,48.968z"/>
	<path fill-rule="evenodd" clip-rule="evenodd" fill="#2C4762" d="M23.998,45.242h0.646c11.226-0.171,20.271-9.32,20.271-20.588
		c0-11.373-9.218-20.593-20.596-20.593c-11.373,0-20.589,9.22-20.589,20.593C3.729,35.922,12.774,45.071,23.998,45.242
		L23.998,45.242z"/>
	<path fill-rule="evenodd" clip-rule="evenodd" fill="#FBFBFC" d="M32.946,15.391l0.185,0.129h0.168v-0.329l0.536-0.05l0.51,0.379
		h0.429c-0.088-0.298-0.189-0.592-0.301-0.875h-0.059l-0.279-0.302l-0.048-0.483l-0.282,0.151l-0.151,0.591l-0.407-0.43l-0.012-0.41
		l-0.394-0.336l-0.147-0.144h-0.455l0.144,0.406l0.549,0.304l0.096,0.101l-0.119,0.06l0.007,0.319l-0.27,0.111l-0.227-0.049
		l-0.142-0.203l0.368,0.021l0.103-0.136l-0.82-0.554l-0.063-0.234l-0.334,0.302l-0.338-0.067l-0.512,0.666l-0.104,0.262
		l-0.324,0.028l-0.488,0.003l-0.291-0.136l-0.087-0.577l0.105-0.274l0.497-0.108l0.538,0.108l0.063-0.297l-0.226-0.056l0.08-0.466
		l0.538-0.084l0.382-0.536l0.392-0.066l0.354,0.052h0.13l-0.069-0.504l-0.431,0.176l-0.151-0.379l-0.248-0.035l-0.051-0.259
		l0.206-0.22l0.328-0.129c-1.817-1.642-4.222-2.643-6.863-2.643c-2.119,0-4.082,0.644-5.717,1.743h0.291l0.235,0.129l0.443,0.098
		l0.036,0.172l0.71,0.028l-0.098-0.228l-0.63-0.018l0.151-0.14l-0.053-0.164h-0.566l0.62-0.462h0.591l0.28,0.381l0.462,0.028
		l0.279-0.273L22.2,9.59l-0.381,0.379c0,0-0.533,0.006-0.507,0.006c0.028,0,0.045,0.368,0.045,0.368l0.645-0.017l0.07-0.176
		l0.445-0.029l0.052-0.258l-0.263-0.046l0.088-0.234l0.204-0.063l0.696,0.039l-0.385,0.346l0.06,0.27l0.402,0.063l-0.024-0.486
		l0.385-0.204l0.679-0.08l0.987,0.437v0.379l0.313,0.077l-0.157,0.297h-0.446l-0.128,0.335l-1.018-0.238l0.799-0.423l-0.304-0.259
		l-0.689,0.087l-0.06,0.06h-0.003l-0.009,0.014l-0.201,0.21l-0.325,0.024l0.024,0.166l0.115,0.049L23.3,10.734l-0.266,0.039
		l-0.022,0.155l-0.252,0.014l-0.048-0.308l-0.455,0.139l-0.938,0.546l0.104,0.385l0.262,0.172l0.522,0.069v0.595l0.245-0.034
		l0.221-0.47l0.556-0.175v-0.713l0.308-0.231l0.753,0.175l-0.056,0.472h0.199l0.553-0.27l0.025,0.62l0.402,0.241l-0.018,0.368
		l-0.385,0.13l0.028,0.122l0.462,0.211l-0.012,0.254l-0.132,0.011c0-0.004,0-0.007,0-0.007l-0.585-0.182l-0.024-0.187l0.172-0.118
		v-0.167l-0.187-0.05l-0.044,0.162l-0.322,0.048l-0.032-0.014v0.017l-0.111,0.019l-0.092-0.182l-0.105-0.05h-0.228l-0.104,0.087
		v0.189l0.196,0.066l0.193,0.025l-0.042,0.021l-0.178,0.196l-0.076-0.098l-0.172-0.046l-0.462,0.438l0.06,0.049l-0.687,0.382
		l-0.648,0.671l-0.045,0.302l-0.645,0.423l-0.322,0.323l0.035,0.647l-0.444-0.21l0.003-0.378l-1.239,0.003l-0.64,0.323l-0.28,0.515
		l-0.108,0.406l0.179,0.396l0.503,0.063l0.806-0.539l0.069,0.27l-0.245,0.462l0.609,0.101l0.063,0.948l0.839,0.141l0.529-0.616
		l0.647,0.133l0.228,0.315l0.62-0.034l0.017-0.186l0.341,0.167l0.385,0.603l0.661,0.006l0.245,0.427l0.036,0.525l0.73,0.276
		l0.924,0.011l0.273,0.444l0.408,0.13l-0.08,0.368l-0.446,0.57l-0.131,1.263l-0.405,0.323l-0.603-0.017l-0.2,0.346l0.148,0.658
		l-0.655,0.837l-0.21,0.386l-0.624,0.297l-0.409,0.063l-0.018,0.175l0.287,0.086l-0.035,0.185l-0.255,0.247l0.157,0.198l0.308,0.009
		l-0.019,0.237l-0.083,0.239l-0.025,0.189l0.459,0.388l-0.061,0.2l-0.627-0.011l-0.619-0.542l-0.487-0.853l0.071-0.821l-0.37-0.49
		l0.147-0.83l-0.216-0.06v-1.798c0,0-0.609-0.462-0.648-0.462c-0.032,0-0.323-0.077-0.323-0.077l-0.059-0.339l-0.794-0.994
		l0.077-0.361l0.028-0.585l0.55-0.381l-0.082-0.654l-0.801-0.063l-0.626-0.713l-0.448-0.123l-0.288-0.052l0.035-0.263l-0.364-0.048
		v0.147l-0.92-0.231l-0.368-0.563l0.151-0.273l-0.578-0.847l-0.102-0.62h-0.234l0.077,0.602l0.403,0.62l-0.045,0.245l-0.34-0.052
		l-0.417-0.714v-0.829l-0.437-0.21v-0.427c-0.508,1.211-0.788,2.541-0.788,3.938c0,5.652,4.582,10.235,10.235,10.235
		c3.244,0,6.135-1.509,8.01-3.865v-0.448l-0.401-0.539v-0.84l-0.306-0.308l-0.026-0.347l0.39-0.741l-0.74-1.299l0.088-0.886
		l-0.662-0.067l-0.245-0.245h-0.443l-0.229,0.21h-0.784l-0.027,0.07h-0.434l-1.005-1.144l0.01-0.89l0.166-0.063l0.063-0.336h-0.238
		l-0.095-0.36l1.158-0.837v-0.594l0.566-0.312l0.231,0.021h0.466l0.369-0.195l1.177-0.092v0.603L32.946,15.391z M30.001,11.645
		l0.101-0.147l0.342-0.07l0.083,0.421l0.188,0.293l0.122,0.14l0.22,0.087l-0.205,0.252l-0.407,0.035h-0.308l0.039-0.361l0.252-0.051
		l-0.022-0.169l-0.237-0.15l-0.166-0.112V11.645z M29.435,12.299l0.212-0.335l0.277-0.063l0.204,0.087l-0.017,0.224l-0.431,0.304
		h-0.246V12.299z M23.73,13.592l-0.217,0.017l0.01-0.15l0.099-0.123l0.132,0.105L23.73,13.592z M24.497,13.325l-0.147,0.01
		l-0.031,0.143l-0.115,0.074l-0.186,0.014c-0.007-0.042-0.007-0.073-0.007-0.073h-0.074v-0.158h0.304l0.061-0.158l0.119-0.003
		l0.137,0.028L24.497,13.325z"/>
	<path fill-rule="evenodd" clip-rule="evenodd" fill="#FBFBFC" d="M16.74,31.61 M15.239,36.734l-0.169-2.269h-0.063
		c-0.011,0.087-0.073,0.164-0.157,0.199c-0.169,0.067-0.325-0.091-0.333-0.195v-2.146c0-0.091,0.014-0.714,0.776-0.714h1.446
		c0.805,0,0.77,0.7,0.77,0.717l0.011,2.143c-0.003,0.024-0.014,0.05-0.028,0.077c-0.137,0.238-0.458,0.118-0.458-0.081l-0.063-0.003
		L16.8,36.734H15.239z M19.267,36.734l-0.102-1.406l-0.066-0.003c-0.01,0.087-0.074,0.168-0.154,0.199
		c-0.171,0.065-0.329-0.092-0.336-0.196v-2.146c0.003-0.088,0.018-0.71,0.781-0.71h1.446c0.805,0,0.77,0.7,0.77,0.715l0.006,2.142
		c0,0.024-0.01,0.053-0.024,0.077c-0.139,0.241-0.458,0.123-0.458-0.077l-0.063-0.003l-0.109,1.409H19.267z M22.996,36.734
		l-0.113-1.526h-0.045c-0.007,0.06-0.05,0.113-0.104,0.138c-0.116,0.045-0.221-0.063-0.228-0.135v-1.458
		c0-0.063,0.01-0.486,0.528-0.486h0.983c0.549,0,0.524,0.476,0.524,0.486l0.007,1.455c-0.003,0.018-0.01,0.039-0.021,0.053
		c-0.09,0.166-0.308,0.085-0.308-0.053h-0.044l-0.117,1.526H22.996z M25.983,36.734L25.9,35.611h-0.035
		c-0.005,0.045-0.039,0.088-0.081,0.104c-0.09,0.035-0.171-0.049-0.176-0.104v-1.127c0-0.05,0.008-0.376,0.41-0.376h0.76
		c0.423,0.003,0.406,0.368,0.406,0.376l0.004,1.127c0,0.014-0.007,0.027-0.014,0.042c-0.07,0.125-0.24,0.063-0.24-0.042h-0.033
		l-0.089,1.123H25.983z M28.699,36.734l-0.146-1.98H28.5c-0.006,0.07-0.061,0.133-0.125,0.157c-0.138,0.057-0.264-0.073-0.267-0.157
		v-1.722c0-0.073,0.011-0.574,0.622-0.574h1.163c0.647,0,0.618,0.563,0.618,0.577l0.008,1.719c-0.003,0.021-0.01,0.043-0.021,0.063
		c-0.11,0.191-0.366,0.099-0.366-0.063l-0.053-0.003l-0.15,1.983H28.699z M32.36,36.734l-0.196-2.663h-0.065
		c-0.011,0.087-0.072,0.165-0.153,0.199c-0.173,0.066-0.328-0.091-0.337-0.197v-2.146c0.005-0.09,0.019-0.712,0.775-0.712h1.451
		c0.806,0,0.771,0.699,0.771,0.716l0.007,2.142c-0.004,0.026-0.01,0.051-0.024,0.079c-0.141,0.237-0.46,0.118-0.46-0.081
		l-0.063-0.004l-0.202,2.667H32.36z M36.162,36.734l-0.083-1.109h-0.043c-0.007,0.06-0.053,0.113-0.108,0.137
		c-0.114,0.044-0.224-0.063-0.231-0.137v-1.477c0.005-0.061,0.015-0.491,0.537-0.491h0.997c0.554,0,0.532,0.485,0.532,0.495
		l0.002,1.473c0,0.017-0.006,0.034-0.017,0.053c-0.095,0.167-0.315,0.084-0.315-0.053l-0.045-0.004l-0.086,1.113H36.162z
		 M11.766,36.734l-0.08-1.109H11.64c-0.007,0.06-0.049,0.113-0.108,0.137c-0.115,0.044-0.224-0.063-0.228-0.137v-1.477
		c0-0.061,0.011-0.491,0.536-0.491h0.994c0.557,0,0.533,0.485,0.533,0.495l0.007,1.473c-0.004,0.017-0.011,0.034-0.021,0.053
		c-0.094,0.167-0.315,0.084-0.315-0.053l-0.042-0.004l-0.087,1.113H11.766z M37.23,33.657 M36.258,33.069
		c0,0.253,0.22,0.438,0.469,0.438c0.417,0,0.623-0.47,0.331-0.747C36.765,32.482,36.258,32.68,36.258,33.069L36.258,33.069z
		 M33.835,31.216 M32.421,30.359c0,0.364,0.318,0.639,0.681,0.639c0.604,0,0.909-0.684,0.485-1.085
		C33.158,29.507,32.421,29.793,32.421,30.359L32.421,30.359z M12.833,33.657 M11.86,33.069c0,0.253,0.221,0.438,0.469,0.438
		c0.417,0,0.627-0.47,0.333-0.747C12.368,32.482,11.86,32.68,11.86,33.069L11.86,33.069z M29.894,32.458 M28.76,31.772
		c0,0.292,0.256,0.514,0.545,0.514c0.487,0,0.729-0.553,0.391-0.875C29.351,31.086,28.76,31.316,28.76,31.772L28.76,31.772z
		 M26.778,34.108 M26.036,33.657c0,0.193,0.167,0.336,0.355,0.336c0.321,0,0.478-0.359,0.257-0.574
		C26.424,33.206,26.036,33.361,26.036,33.657L26.036,33.657z M24.017,33.266 M23.057,32.684c0,0.25,0.218,0.435,0.463,0.435
		c0.409,0,0.615-0.466,0.328-0.738C23.558,32.104,23.057,32.3,23.057,32.684L23.057,32.684z M20.836,32.471 M19.421,31.618
		c0,0.363,0.318,0.636,0.683,0.636c0.602,0,0.907-0.686,0.484-1.087C20.16,30.76,19.421,31.051,19.421,31.618L19.421,31.618z
		 M15.329,30.756c0,0.364,0.319,0.642,0.68,0.642c0.602,0,0.906-0.687,0.482-1.089C16.064,29.902,15.329,30.19,15.329,30.756
		L15.329,30.756z"/>
</g>
</svg>
