<?xml version="1.0" encoding="utf-8"?>
<!-- Generator: Adobe Illustrator 16.0.0, SVG Export Plug-In . SVG Version: 6.00 Build 0)  -->
<!DOCTYPE svg PUBLIC "-//W3C//DTD SVG 1.1//EN" "http://www.w3.org/Graphics/SVG/1.1/DTD/svg11.dtd">
<svg version="1.1" xmlns="http://www.w3.org/2000/svg" xmlns:xlink="http://www.w3.org/1999/xlink" x="0px" y="0px" width="48.99px"
	 height="48.984px" viewBox="0 0 48.99 48.984" enable-background="new 0 0 48.99 48.984" xml:space="preserve">
<g id="Capa_2_1_" display="none">
	<rect y="0" display="inline" fill="#DBD7D7" width="48.99" height="48.984"/>
</g>
<g id="Capa_4">
	<path fill-rule="evenodd" clip-rule="evenodd" fill="#FFFFFF" d="M24.298,48.617c13.425,0,24.306-10.878,24.306-24.297
		c0-13.421-10.881-24.298-24.306-24.298C10.881,0.021,0,10.899,0,24.32C0,37.739,10.881,48.617,24.298,48.617L24.298,48.617z"/>
	<path fill-rule="evenodd" clip-rule="evenodd" fill="#EA4C89" d="M23.979,44.895h0.646c11.216-0.171,20.253-9.314,20.253-20.572
		c0-11.363-9.209-20.576-20.58-20.576c-11.364,0-20.572,9.213-20.572,20.576C3.726,35.581,12.763,44.724,23.979,44.895
		L23.979,44.895z"/>
	<g>
		<path fill="#FFFFFF" d="M18.787,25.518l2.074-5.899c0.08-0.227,0.308-0.378,0.537-0.368c0.24,0.008,0.447,0.17,0.513,0.4
			l3.024,10.665l3.091-8.498c0.072-0.2,0.252-0.34,0.465-0.36c0.207-0.021,0.414,0.082,0.523,0.263l2.227,3.682h8.831
			c0.777-2.208,0.679-3.672,0.679-3.672c0-4.792-3.884-8.677-8.677-8.677c-2.974,0-5.597,1.496-7.16,3.776
			c-1.563-2.28-4.186-3.776-7.159-3.776c-4.792,0-8.677,3.885-8.677,8.677c0,0-0.101,1.515,0.719,3.788H18.787z"/>
		<path fill="#FFFFFF" d="M30.931,26.505c-0.193,0-0.373-0.101-0.472-0.266l-1.792-2.962l-3.279,9.017
			c-0.08,0.219-0.287,0.363-0.518,0.363c-0.006,0-0.014,0-0.02,0c-0.239-0.01-0.445-0.171-0.51-0.4l-3.016-10.633l-1.627,4.628
			c-0.078,0.22-0.287,0.367-0.52,0.367h-8.93c1.627,3.582,5.494,8.489,14.665,12.464v0.002c0-0.001,0.001-0.001,0.001-0.001
			c0.001,0,0.002,0,0.002,0.001v-0.002c9.269-4.018,13.121-8.987,14.716-12.578H30.931z"/>
	</g>
</g>
</svg>
