<?xml version="1.0" encoding="utf-8"?>
<!-- Generator: Adobe Illustrator 16.0.0, SVG Export Plug-In . SVG Version: 6.00 Build 0)  -->
<!DOCTYPE svg PUBLIC "-//W3C//DTD SVG 1.1//EN" "http://www.w3.org/Graphics/SVG/1.1/DTD/svg11.dtd">
<svg version="1.1" xmlns="http://www.w3.org/2000/svg" xmlns:xlink="http://www.w3.org/1999/xlink" x="0px" y="0px" width="48.99px"
	 height="48.984px" viewBox="0 0 48.99 48.984" enable-background="new 0 0 48.99 48.984" xml:space="preserve">
<g id="Capa_2_1_" display="none">
	<rect y="0" display="inline" fill="#DBD7D7" width="48.99" height="48.984"/>
</g>
<g id="Capa_4">
	<path fill-rule="evenodd" clip-rule="evenodd" fill="#FFFFFF" d="M24.239,49.035c13.579,0,24.584-11.002,24.584-24.577
		c0-13.574-11.005-24.577-24.584-24.577c-13.57,0-24.577,11.002-24.577,24.577C-0.338,38.033,10.669,49.035,24.239,49.035
		L24.239,49.035z"/>
	<path fill-rule="evenodd" clip-rule="evenodd" fill="#83358B" d="M23.917,45.27h0.653c11.345-0.172,20.486-9.42,20.486-20.808
		c0-11.494-9.314-20.813-20.816-20.813c-11.495,0-20.81,9.319-20.81,20.813C3.43,35.85,12.572,45.098,23.917,45.27L23.917,45.27z"/>
	<path id="XMLID_143_" fill="#FBFBFC" d="M22.957,14.273c0,0,0.991-0.758,1.543-0.758c0,0,0.264,0.03,0.32-0.465l-0.086-0.903
		c0,0-0.234,0.116-0.321-0.408c0,0-0.145-0.873,0.203-0.582l-0.087-0.7c0,0-0.173-0.291,0.087-0.377c0,0-0.174-0.496,0.176-0.525
		c0,0,0.378-0.495,0.612-0.292c0,0,0.291-0.378,0.465-0.174c0,0,0.519-0.087,0.683,0.076c0.024,0.026,0.043,0.059,0.046,0.098
		c0.03,0.292,0.291-0.086,0.291,0.321c0,0,0.524-0.233,0.496,0.408c0,0,0.29-0.028,0.173,0.437l-0.027,0.757
		c0,0,0.175,0.787-0.293,1.019c0,0-0.437,0.933,0,1.282c0,0,1.107,0.351,1.659,0.728c0,0,0.265,0.205,0.496,0.292
		c0,0,0.845,0.145,0.757,2.621c0,0,0.176,0.553,0.378,0.873c0,0,0.233,0.438,0.205,0.875c0,0,0.378,0.203,0.291,0.932
		c0,0-0.027,0.582,0,0.815c0,0,0.058,0.175-0.116,0.378l-0.321,0.379c0,0-0.32,0.32-0.581,0.03l-1.372-1.137
		c0,0-0.464,1.019-0.201,2.796c0,0,0.494,2.184-0.204,4.716c0,0-0.146,0.903-0.437,1.838c0,0,0.582,0.871,0.088,1.455
		c0,0,0.088,1.25-0.933,1.95c0,0-1.077,0.873-0.989-0.874c0,0-0.495-0.32-0.465-1.631c0,0-0.03-1.834-0.233-2.358l-0.118-0.553
		c0,0-0.262,0.319-0.641,0.611c0,0-0.262,0.495-0.407,0.727c0,0-0.117,1.282-0.466,1.778c0,0,0.262,2.33-0.146,2.94
		c0,0-0.64,2.01-0.698,2.592c0,0-0.03,0.525,0.087,0.902c0,0,0.204,0.379,0.03,0.554c0,0,0.348,1.456-0.177,1.572
		c0,0-0.087,0.116-0.639,0.175c0,0-1.078,0.555-1.165-0.116c0,0-0.175-0.729,0.437-0.875c0,0,0.029-0.523,0.203-0.786
		c0,0,0-0.785,0.263-0.756c0,0-0.175-3.146-0.263-3.96c0,0-0.349-1.34,0.263-2.187c0,0,0.262-0.552,0.291-0.842
		c0,0-0.146-0.728,0.174-1.194c0,0,0.088-0.874-0.145-1.69c0,0-0.524-0.726-0.058-2.33c0,0,0-1.862,0.495-2.387
		c0,0-0.03-1.485,0.321-2.039l0.144-1.834c0,0-1.339,1.689-2.038,2.067c0,0-0.874,0.641-1.048,0.933c0,0,0.058,0.495-0.233,0.757
		c0,0-0.32,0.377-0.32,0.786c0,0,0,0.408-0.174,0.35l0.058,0.145c0,0,0.349,0.059,0.203,0.233c0,0,0.087,0.465-0.261,0.204
		l-0.583-0.087l-0.379-0.321l0.116-1.018c0,0,0.466-0.992,0.846-1.457c0,0,1.135-1.485,1.397-2.097c0,0,0.669-1.456,1.339-1.747
		l0.059-0.902C22.025,16.311,21.036,14.214,22.957,14.273z"/>
</g>
</svg>
