<?xml version="1.0" encoding="utf-8"?>
<!-- Generator: Adobe Illustrator 16.0.0, SVG Export Plug-In . SVG Version: 6.00 Build 0)  -->
<!DOCTYPE svg PUBLIC "-//W3C//DTD SVG 1.1//EN" "http://www.w3.org/Graphics/SVG/1.1/DTD/svg11.dtd">
<svg version="1.1" xmlns="http://www.w3.org/2000/svg" xmlns:xlink="http://www.w3.org/1999/xlink" x="0px" y="0px" width="48.99px"
	 height="48.984px" viewBox="0 0 48.99 48.984" enable-background="new 0 0 48.99 48.984" xml:space="preserve">
<g id="Capa_2_1_" display="none">
	<rect y="0" display="inline" fill="#DBD7D7" width="48.99" height="48.984"/>
</g>
<g id="Capa_1">
	<g id="Capa_2" display="none">
		<rect y="0" display="inline" fill="#E2E1E0" width="49" height="49"/>
	</g>
	<path fill-rule="evenodd" clip-rule="evenodd" fill="#FFFFFF" d="M24.295,48.592c13.423,0,24.304-10.876,24.304-24.296
		C48.6,10.876,37.719,0,24.295,0C10.88,0,0,10.876,0,24.296C0,37.716,10.88,48.592,24.295,48.592L24.295,48.592z"/>
	<path fill-rule="evenodd" clip-rule="evenodd" fill="#30BF39" d="M23.977,44.871h0.646c11.214-0.171,20.253-9.314,20.253-20.572
		c0-11.362-9.21-20.574-20.58-20.574c-11.362,0-20.57,9.212-20.57,20.574C3.725,35.556,12.762,44.7,23.977,44.871L23.977,44.871z"/>
	<g>
		<g>
			<path fill="#FFFFFF" d="M42.28,15.68c-1.004,0.565-2.655,1.497-3.902,2.197c0.078-0.036,0.118-0.055,0.118-0.055
				s-0.278,0.175-0.764,0.481c-0.123,0.078-0.258,0.158-0.401,0.254c-0.143,0.1-0.295,0.207-0.458,0.321
				c-0.165,0.114-0.34,0.235-0.521,0.363c-0.18,0.131-0.364,0.278-0.558,0.426c-0.194,0.152-0.398,0.302-0.604,0.469
				c-0.201,0.17-0.408,0.347-0.622,0.527c-0.105,0.091-0.213,0.183-0.321,0.276c-0.105,0.097-0.211,0.198-0.318,0.297
				c-0.214,0.2-0.434,0.401-0.652,0.614c-0.423,0.437-0.87,0.874-1.283,1.358c-0.432,0.467-0.823,0.979-1.228,1.477
				c-0.378,0.521-0.768,1.029-1.105,1.562c-0.358,0.518-0.66,1.059-0.969,1.568c-0.146,0.262-0.28,0.522-0.416,0.775
				c-0.068,0.127-0.134,0.251-0.2,0.374c-0.06,0.127-0.121,0.252-0.179,0.374c-0.117,0.247-0.229,0.488-0.341,0.718
				c-0.106,0.233-0.195,0.465-0.288,0.682c-0.09,0.218-0.183,0.428-0.258,0.628c-0.072,0.198-0.14,0.386-0.204,0.563
				c-0.063,0.174-0.124,0.339-0.179,0.495c-0.055,0.155-0.1,0.312-0.144,0.45c-0.051,0.16-0.094,0.298-0.131,0.418
				c3.464,1.62,7.852,0.292,9.583-3.462c0.476-1.038,0.915-2.226,1.293-3.594c2.709-9.833,5.125-10.558,5.125-10.558
				S42.327,15.68,42.28,15.68"/>
			<path fill="#FFFFFF" d="M21.469,25.624c0.085-0.423,0.198-0.826,0.335-1.212c0.103-0.294,0.22-0.579,0.35-0.854
				c-3.266-6.358-14.995-6.36-15.938-6.35l3.275,1.844c0.114,0.054,0.302,0.142,0.557,0.262c0.108,0.052,0.23,0.105,0.359,0.173
				c0.128,0.067,0.267,0.14,0.415,0.22c0.148,0.078,0.305,0.162,0.471,0.25c0.166,0.09,0.333,0.195,0.512,0.299
				c0.178,0.107,0.366,0.214,0.553,0.333c0.187,0.123,0.38,0.25,0.578,0.381c0.1,0.065,0.2,0.133,0.302,0.199
				c0.098,0.073,0.198,0.146,0.299,0.219c0.202,0.148,0.41,0.296,0.618,0.454c0.403,0.328,0.833,0.657,1.237,1.029
				c0.419,0.355,0.81,0.754,1.213,1.144c0.381,0.409,0.774,0.812,1.125,1.24c0.369,0.413,0.692,0.854,1.017,1.271
				c0.156,0.214,0.302,0.43,0.449,0.639c0.075,0.104,0.146,0.208,0.218,0.31c0.067,0.104,0.134,0.208,0.198,0.312
				c0.13,0.208,0.257,0.408,0.379,0.602c0.119,0.197,0.225,0.391,0.332,0.576c0.104,0.187,0.208,0.36,0.301,0.534
				c0.089,0.179,0.174,0.346,0.254,0.504c0.08,0.158,0.155,0.307,0.224,0.445c0.037,0.078,0.07,0.149,0.101,0.218
				c0.029-0.028,0.06-0.056,0.09-0.087c0.048-0.051,0.096-0.1,0.142-0.148c0.197-0.203,0.369-0.417,0.52-0.633
				c-0.648-1.422-0.67-2.727-0.67-2.727C21.313,26.567,21.376,26.085,21.469,25.624"/>
			<path fill="#FFFFFF" d="M23.022,23.557c-0.131,0.275-0.247,0.56-0.351,0.854c-0.136,0.386-0.249,0.79-0.334,1.212
				c-0.093,0.461-0.156,0.943-0.184,1.447c0,0,0.022,1.305,0.669,2.727c0.271,0.595,0.65,1.207,1.184,1.755
				c0.056,0.059,0.114,0.121,0.172,0.181c0.034,0.036,0.071,0.069,0.107,0.104c0.037-0.082,0.075-0.169,0.121-0.265
				c0.084-0.165,0.173-0.343,0.269-0.532c0.095-0.191,0.198-0.393,0.305-0.604c0.111-0.209,0.235-0.421,0.361-0.644
				c0.127-0.221,0.255-0.457,0.397-0.69c0.146-0.234,0.3-0.475,0.456-0.722c0.078-0.123,0.157-0.248,0.239-0.375
				c0.085-0.123,0.172-0.247,0.261-0.372c0.177-0.252,0.353-0.51,0.54-0.765c0.391-0.502,0.779-1.03,1.22-1.529
				c0.42-0.514,0.894-0.996,1.352-1.488c0.483-0.468,0.952-0.946,1.456-1.375c0.483-0.446,1-0.841,1.484-1.234
				c0.25-0.19,0.501-0.367,0.742-0.544c0.122-0.088,0.239-0.176,0.358-0.262c0.123-0.082,0.244-0.164,0.363-0.241
				c0.237-0.157,0.471-0.311,0.693-0.458c0.226-0.144,0.452-0.271,0.665-0.4c0.214-0.125,0.415-0.25,0.612-0.359
				c0.201-0.106,0.391-0.207,0.568-0.302c0.177-0.094,0.343-0.182,0.495-0.263c0.156-0.08,0.302-0.145,0.433-0.206
				c0.305-0.145,0.531-0.252,0.668-0.316l3.933-2.212C41.136,15.667,26.759,15.671,23.022,23.557"/>
			<path fill="#FFFFFF" d="M19.254,31.154c-0.046-0.125-0.097-0.261-0.149-0.407c-0.053-0.149-0.109-0.306-0.17-0.471
				c-0.063-0.167-0.14-0.341-0.214-0.523c-0.078-0.181-0.152-0.372-0.241-0.568c-0.092-0.191-0.187-0.392-0.283-0.595
				c-0.049-0.103-0.098-0.209-0.149-0.314c-0.055-0.103-0.111-0.206-0.167-0.31c-0.114-0.212-0.225-0.43-0.347-0.648
				c-0.255-0.425-0.508-0.874-0.806-1.305c-0.281-0.444-0.606-0.867-0.92-1.302c-0.338-0.414-0.666-0.842-1.024-1.229
				c-0.344-0.404-0.717-0.769-1.068-1.132c-0.182-0.176-0.366-0.344-0.543-0.512c-0.09-0.083-0.178-0.166-0.265-0.247
				c-0.091-0.078-0.181-0.155-0.269-0.229c-0.178-0.152-0.351-0.298-0.518-0.44c-0.169-0.14-0.339-0.266-0.501-0.391
				c-0.162-0.124-0.315-0.247-0.465-0.355c-0.154-0.107-0.298-0.207-0.434-0.303c-0.137-0.094-0.265-0.184-0.383-0.266
				c-0.12-0.081-0.233-0.148-0.334-0.212c-0.405-0.256-0.638-0.401-0.638-0.401s0.035,0.017,0.1,0.046
				c-1.039-0.583-2.416-1.359-3.252-1.831c-0.038,0.001-0.061,0.001-0.061,0.001s2.013,0.604,4.27,8.796
				c0.313,1.138,0.68,2.13,1.077,2.99c1.442,3.131,5.097,4.235,7.982,2.886c-0.03-0.099-0.066-0.214-0.109-0.35
				C19.338,31.42,19.299,31.288,19.254,31.154"/>
		</g>
	</g>
</g>
</svg>
