<?xml version="1.0" encoding="utf-8"?>
<!-- Generator: Adobe Illustrator 16.0.0, SVG Export Plug-In . SVG Version: 6.00 Build 0)  -->
<!DOCTYPE svg PUBLIC "-//W3C//DTD SVG 1.1//EN" "http://www.w3.org/Graphics/SVG/1.1/DTD/svg11.dtd">
<svg version="1.1" xmlns="http://www.w3.org/2000/svg" xmlns:xlink="http://www.w3.org/1999/xlink" x="0px" y="0px" width="48.99px"
	 height="48.984px" viewBox="0 0 48.99 48.984" enable-background="new 0 0 48.99 48.984" xml:space="preserve">
<g id="Capa_2_1_" display="none">
	<rect y="0" display="inline" fill="#DBD7D7" width="48.99" height="48.984"/>
</g>
<g id="Capa_4">
	<path fill-rule="evenodd" clip-rule="evenodd" fill="#FFFFFF" d="M24.608,49.215c13.595,0,24.614-11.016,24.614-24.607
		C49.223,11.016,38.203,0,24.608,0C11.02,0,0,11.016,0,24.607C0,38.199,11.02,49.215,24.608,49.215L24.608,49.215z"/>
	<path fill-rule="evenodd" clip-rule="evenodd" fill="#00AFF0" d="M24.284,45.445h0.654c11.359-0.173,20.512-9.433,20.512-20.834
		c0-11.508-9.328-20.837-20.842-20.837c-11.509,0-20.835,9.33-20.835,20.837C3.773,36.012,12.926,45.272,24.284,45.445
		L24.284,45.445z"/>
	<g>
		<g>
			<path fill="#FBFBFC" d="M40.596,24.301L25.694,9.398L10.793,24.301c-0.757,0.755-0.757,1.979,0,2.733
				c0.754,0.756,1.978,0.756,2.733,0l0.566-0.566v6.934v1.959h1.934h19.335h1.935v-1.959v-6.934l0.564,0.566
				c0.379,0.377,0.874,0.567,1.368,0.567c0.495,0,0.99-0.19,1.366-0.567C41.352,26.279,41.352,25.055,40.596,24.301z M35.362,33.427
				H23.76v-7.734h-3.866v7.734h-3.867v-8.893l9.667-9.667l9.668,9.667V33.427z"/>
			<rect x="27.629" y="25.692" fill="#FBFBFC" width="3.866" height="3.867"/>
		</g>
		<rect x="27.629" y="25.692" fill="#FBFBFC" width="3.866" height="3.867"/>
		<polygon fill="#FBFBFC" points="19.894,12.465 19.894,10.224 16.027,10.224 16.027,16.332 		"/>
	</g>
</g>
</svg>
