<?xml version="1.0" encoding="utf-8"?>
<!-- Generator: Adobe Illustrator 16.0.0, SVG Export Plug-In . SVG Version: 6.00 Build 0)  -->
<!DOCTYPE svg PUBLIC "-//W3C//DTD SVG 1.1//EN" "http://www.w3.org/Graphics/SVG/1.1/DTD/svg11.dtd">
<svg version="1.1" id="Capa_1" xmlns="http://www.w3.org/2000/svg" xmlns:xlink="http://www.w3.org/1999/xlink" x="0px" y="0px"
	 width="48.99px" height="48.984px" viewBox="0 0 48.99 48.984" enable-background="new 0 0 48.99 48.984" xml:space="preserve">
<g id="Capa_2_1_" display="none">
	<rect y="0" display="inline" fill="#DBD7D7" width="48.99" height="48.984"/>
</g>
<g id="Capa_4">
	<path fill="#FFFFFF" d="M24.36,48.984c13.459,0,24.368-10.905,24.368-24.361c0-13.455-10.908-24.36-24.368-24.36
		C10.908,0.262,0,11.168,0,24.623C0,38.079,10.908,48.984,24.36,48.984L24.36,48.984z"/>
	<path fill="#AD0B9A" d="M24.041,45.252h0.647c11.245-0.171,20.306-9.337,20.306-20.625c0-11.393-9.233-20.629-20.634-20.629
		c-11.393,0-20.625,9.237-20.625,20.629C3.735,35.915,12.796,45.081,24.041,45.252L24.041,45.252z"/>
	<g>
		<path fill="#FFFFFF" d="M24.363,9.337c-6.514,0-11.814,5.3-11.814,11.815c0,1.699,0.348,3.322,1.033,4.823
			c2.954,6.463,8.617,13.287,10.283,15.225c0.126,0.145,0.306,0.229,0.498,0.229s0.374-0.084,0.499-0.229
			c1.664-1.938,7.329-8.76,10.283-15.225c0.687-1.501,1.033-3.124,1.033-4.823C36.179,14.636,30.878,9.337,24.363,9.337z
			 M24.363,27.289c-3.384,0-6.136-2.754-6.136-6.138c0-3.385,2.752-6.138,6.136-6.138s6.138,2.753,6.138,6.138
			C30.501,24.535,27.747,27.289,24.363,27.289z"/>
	</g>
</g>
</svg>
